<svg xmlns="http://www.w3.org/2000/svg" width="424.594" height="314.814" viewBox="0 0 424.594 314.814">
  <g id="Grupo_26004" data-name="Grupo 26004" transform="translate(-25.163 -31.645)">
    <g id="Grupo_25997" data-name="Grupo 25997" transform="translate(25.163 31.645)">
      <rect id="Rectángulo_3994" data-name="Rectángulo 3994" width="298.65" height="43.852" transform="translate(62.972 208.194)" fill="#110239"/>
      <rect id="Rectángulo_3995" data-name="Rectángulo 3995" width="355.325" height="238.188" rx="4.28" transform="translate(34.635)" fill="#110239"/>
      <rect id="Rectángulo_3996" data-name="Rectángulo 3996" width="322.605" height="204.161" transform="translate(50.994 15.78)" fill="#fefefe"/>
      <g id="Grupo_25996" data-name="Grupo 25996" transform="translate(0 251.546)">
        <g id="Grupo_25995" data-name="Grupo 25995">
          <path id="Trazado_20316" data-name="Trazado 20316" d="M25.163,102.168v6.509c0,3.6,3.924,6.521,8.759,6.521H441c4.836,0,8.76-2.918,8.76-6.521v-6.509Z" transform="translate(-25.163 -51.93)" fill="#110239"/>
          <path id="Trazado_20317" data-name="Trazado 20317" d="M237.462,90.428H63.188c-.591.625-27.986,25.149-36.356,43.37-3.577,7.788-1.237,11.888,5.422,11.888l205.209,0h205.2c6.658,0,9-4.1,5.422-11.883-8.37-18.221-35.766-42.745-36.356-43.37Z" transform="translate(-25.163 -90.428)" fill="#110239"/>
          <path id="Trazado_20318" data-name="Trazado 20318" d="M403.789,130.356H32.456l25.733-38.1H378.056Z" transform="translate(-1.247 -84.418)" fill="#9c9eb9"/>
          <g id="Grupo_25994" data-name="Grupo 25994" transform="translate(35.727 7.844)">
            <g id="Grupo_25993" data-name="Grupo 25993">
              <g id="Grupo_25992" data-name="Grupo 25992">
                <g id="Grupo_25991" data-name="Grupo 25991">
                  <path id="Trazado_20319" data-name="Trazado 20319" d="M395.81,123.67l-.8-1.194H370.224l-4.613-9.239h23.15l-.8-1.194H365.017L360.4,102.8h21.315l-.809-1.194h-21.1l-4.673-9.35H353l4.6,9.35H331.065l-3.719-9.35H325.2l3.65,9.35H302.322l-2.769-9.35h-2.14l2.7,9.35H273.583l-1.819-9.35h-2.144l1.746,9.35H244.84l-.869-9.35h-2.14l.8,9.35H217.444v-9.35h-2.358v9.35h-26.1l.8-9.35h-2.14l-.869,9.35H160.249l1.746-9.35h-2.14l-1.823,9.35H131.505l2.7-9.35h-2.14l-2.769,9.35H102.762l3.646-9.35h-2.14l-3.719,9.35H74.023l4.6-9.35H76.475l-4.669,9.35h-23.4l-.8,1.194H71.212L66.6,112.044H41.364l-.809,1.194H66l-4.617,9.239H34.316l-.8,1.194H60.8l-3.342,6.684h2.439l3.286-6.684h28.6l-2.657,6.684h2.439l2.606-6.684h28.594l-1.977,6.684h2.439l1.926-6.684h28.6l-1.3,6.684h2.439l1.245-6.684h28.6l-.62,6.684h2.439l.569-6.684h27.973v6.684h2.358V123.67H244.5l.569,6.684h2.439l-.621-6.684h28.6l1.245,6.684h2.439l-1.3-6.684h28.6l1.926,6.684h2.439l-1.977-6.684H337.45l2.61,6.684H342.5l-2.662-6.684h28.6l3.286,6.684h2.439l-3.342-6.684ZM102.3,102.8h26.638l-2.734,9.239H98.7Zm-28.863,0h26.638L96.4,112.044H68.892Zm18.816,19.671H63.766l4.544-9.239H95.924Zm30.862,0H94.627l3.6-9.239h27.618Zm30.861,0H125.489l2.666-9.239h27.618ZM156,112.044H128.5l2.666-9.239H157.8Zm28.833,10.433H156.35l1.729-9.239h27.614Zm.967-10.433H158.3l1.724-9.239h26.638Zm29.283,10.433h-27.87l.783-9.239h27.087Zm0-10.433H188.1l.787-9.239h26.2Zm2.358-9.239h25.281l.787,9.239H217.444Zm0,19.671v-9.239h26.172l.787,9.239ZM358.178,102.8l4.54,9.239h-27.5L331.54,102.8Zm-28.863,0,3.6,9.239H305.412l-2.734-9.239Zm-84.364,0h26.638l1.725,9.239h-27.5Zm1.827,19.671-.856-9.239H273.54l1.725,9.239ZM273.814,102.8h26.638l2.666,9.239H275.611Zm3.826,19.671-1.8-9.239H303.46l2.666,9.239Zm30.862,0-2.734-9.239h27.618l3.6,9.239Zm30.862,0-3.676-9.239H363.3l4.544,9.239Z" transform="translate(-33.512 -92.261)" fill="#d0d1de"/>
                </g>
              </g>
            </g>
          </g>
        </g>
        <path id="Trazado_20320" data-name="Trazado 20320" d="M88.593,103.341H70.56a3.733,3.733,0,0,0,.9,2.495,1.975,1.975,0,0,0,1.365.5h31.542a1.975,1.975,0,0,0,1.365-.5,3.733,3.733,0,0,0,.9-2.495Z" transform="translate(123.703 -48.084)" fill="#110239"/>
      </g>
    </g>
    <g id="Grupo_26002" data-name="Grupo 26002" transform="translate(110.221 77.708)">
      <g id="Grupo_26000" data-name="Grupo 26000">
        <g id="Grupo_25999" data-name="Grupo 25999">
          <g id="Grupo_25998" data-name="Grupo 25998">
            <path id="Trazado_20321" data-name="Trazado 20321" d="M299.519,197.7H45.04V42.409H299.519ZM49.79,192.951H294.769V47.159H49.79Z" transform="translate(-45.04 -42.409)" fill="#d0d1de"/>
          </g>
        </g>
        <rect id="Rectángulo_3997" data-name="Rectángulo 3997" width="23.665" height="101.295" transform="translate(193.802 39.083)" fill="#fd425f"/>
        <rect id="Rectángulo_3998" data-name="Rectángulo 3998" width="23.666" height="46.579" transform="translate(149.951 93.799)" fill="#d0d1de"/>
        <rect id="Rectángulo_3999" data-name="Rectángulo 3999" width="23.666" height="57.85" transform="translate(106.099 82.528)" fill="#01c7e2"/>
        <rect id="Rectángulo_4000" data-name="Rectángulo 4000" width="23.665" height="90.609" transform="translate(62.247 49.769)" fill="#d0d1de"/>
        <rect id="Rectángulo_4001" data-name="Rectángulo 4001" width="23.666" height="70.721" transform="translate(18.396 69.657)" fill="#d0d1de"/>
      </g>
      <g id="Grupo_26001" data-name="Grupo 26001" transform="translate(29.443 11.979)">
        <path id="Trazado_20322" data-name="Trazado 20322" d="M184.783,108.95l-44.942-8.926L96.526,58.637,53.493,96.653,51.92,94.872,96.591,55.414l44.39,42.417,42.758,8.489,43.407-61.112,1.934,1.373Z" transform="translate(-51.92 -45.208)" fill="#110239"/>
      </g>
      <path id="Trazado_20323" data-name="Trazado 20323" d="M61.544,61.114a5.345,5.345,0,1,1-5.345-5.34A5.344,5.344,0,0,1,61.544,61.114Z" transform="translate(-25.972 1.417)" fill="#fd425f"/>
      <circle id="Elipse_951" data-name="Elipse 951" cx="5.343" cy="5.343" r="5.343" transform="translate(68.44 18.453)" fill="#fd425f"/>
      <path id="Trazado_20324" data-name="Trazado 20324" d="M82.036,61.847A5.343,5.343,0,1,1,76.691,56.5,5.343,5.343,0,0,1,82.036,61.847Z" transform="translate(41.239 3.805)" fill="#fd425f"/>
      <path id="Trazado_20325" data-name="Trazado 20325" d="M92.287,63.611a5.345,5.345,0,1,1-5.345-5.34A5.344,5.344,0,0,1,92.287,63.611Z" transform="translate(74.841 9.606)" fill="#fd425f"/>
      <path id="Trazado_20326" data-name="Trazado 20326" d="M102.531,49.7a5.343,5.343,0,1,1-5.34-5.34A5.343,5.343,0,0,1,102.531,49.7Z" transform="translate(108.446 -36.001)" fill="#fd425f"/>
    </g>
    <g id="Grupo_26003" data-name="Grupo 26003" transform="translate(70.432 68.692)">
      <path id="Trazado_20327" data-name="Trazado 20327" d="M62.322,60.142a9.851,9.851,0,0,0,4.57-2.371,5.833,5.833,0,0,1,1.831-1.558,12.756,12.756,0,0,0,2.268-1.592,4.94,4.94,0,0,1,2.388-1.335c1.138-.107.535,1.228,0,2.054-.578.9-3.7,2.14-3.556,3.265s3.838-.612,4.57-.971c1.725-.843,1.84-2.281,2.867-3.684.6-.822,1.121-1.014,1.489.1.27.834-.3,1.686-.715,2.371a10.384,10.384,0,0,1-3.556,3.616,12.18,12.18,0,0,0,3.663-3.025c.578-.7,2.525-4.1,3.7-3.291,2.362,1.635-4.134,7.647-5.683,8.113a14.239,14.239,0,0,0,3.881-2.811c.706-.629,2.315-2.2,2.585-.518.4,2.478-4.433,4.279-6.453,5.473a16.627,16.627,0,0,0,4.168-1.849c1.806-.907,1.844.736.158,1.99a23.3,23.3,0,0,1-2.649,1.506c-3.684,1.776-5.957,1.81-9.872,1.391-1.4-.154-4.138,1.053-4.964.15C61.415,65.423,62.262,62.149,62.322,60.142Z" transform="translate(50.513 2.235)" fill="#f88667"/>
      <path id="Trazado_20328" data-name="Trazado 20328" d="M114.625,65.854l2.871,9.491s-33.57,8.665-41.739,9.936S49.65,66.034,49.65,66.034,43.53,51.185,48.1,51.377c3.526.154,29.231,19.774,30.656,20.536S114.625,65.854,114.625,65.854Z" transform="translate(-0.768 -3.99)" fill="#fd425f"/>
      <path id="Trazado_20329" data-name="Trazado 20329" d="M48.469,97.306s-.24,6.423.847,9.44,8.837,7.63,8.837,7.63-7.014,1.357-9.705-.723-9.08-12.97-8.665-14.391,2.354-5.79,2.354-5.79Z" transform="translate(-22.557 134.052)" fill="#f88667"/>
      <path id="Trazado_20330" data-name="Trazado 20330" d="M58.236,96.386s-.244,6.423.843,9.44,8.837,7.63,8.837,7.63-7.014,1.361-9.705-.723-9.08-12.97-8.665-14.387S51.9,92.552,51.9,92.552Z" transform="translate(9.458 131.035)" fill="#f88667"/>
      <path id="Trazado_20331" data-name="Trazado 20331" d="M43.7,94.368s-5.884,1.96-4.412,7.108a44.8,44.8,0,0,1,1.228,11.768h1.716s.364-7.356,1.468-7.108,3.556,7.108,6.008,7.108H63.563s1.472-1.472,0-2.328-10.861-.492-11.926-2.576S43.7,94.368,43.7,94.368Z" transform="translate(-24.878 136.99)" fill="#110239"/>
      <path id="Trazado_20332" data-name="Trazado 20332" d="M53.544,93.41s-5.884,1.96-4.412,7.108a44.707,44.707,0,0,1,1.224,11.768h1.716s.368-7.356,1.472-7.108,3.556,7.108,6.008,7.108H73.4s1.468-1.472,0-2.328-10.861-.492-11.926-2.576S53.544,93.41,53.544,93.41Z" transform="translate(7.393 133.849)" fill="#110239"/>
      <path id="Trazado_20333" data-name="Trazado 20333" d="M80.988,63.509s-16.483,5.794-28.427,0c0,0-7.236,6.072-8.383,18.469a67.825,67.825,0,0,0,.488,13.937c.83,6.9,2.837,24.978,1.583,36.129-1.836,16.329-6.911,63.7-6.911,63.7L50.7,197.516s10.437-57.187,11.669-64.248,5.212-35.731,5.212-35.731,7.069,22.17,8.892,32.907c.282,1.647,5.323,62.369,5.323,62.369l11.015-.064s-.616-67.449-.616-63.9C92.2,130.294,89.217,83.36,80.988,63.509Z" transform="translate(-23.946 35.798)" fill="#01c7e2"/>
      <path id="Trazado_20334" data-name="Trazado 20334" d="M54.683,87.33c-2.469-7.506-3.988-11.267-9.068-17.994.518,3.077.988,6.145,1.348,9.252l.043-.158s6.051,18.978,8.4,30.318C55.14,96.513,56.5,92.85,54.683,87.33Z" transform="translate(-3.366 54.905)" fill="#00a7cc"/>
      <path id="Trazado_20335" data-name="Trazado 20335" d="M57.7,58.5c-1.143-.235-6.6-11.759-8.943-14-1.117,7.869-5.875,26.535-5.875,26.535,5.773,6.192,17.284,2.4,17.284,2.4C58.28,69.337,57.372,61.172,57.7,58.5Z" transform="translate(-12.324 -26.55)" fill="#e45940"/>
      <path id="Trazado_20336" data-name="Trazado 20336" d="M51.4,41.5s11.2,2.52,13.347,5.79,2.14,11.768,3.329,14.014c.719,1.361,1.361,2.456,1.72,3.256.312.7-.479,1.108-1.455,1.455A1.692,1.692,0,0,0,67.291,67.1c-.663,2.058-2.512,7.3-4.365,8.032-2.311.911-13.723.561-17.155-9.38S44.218,39.37,51.4,41.5Z" transform="translate(-8.31 -36.988)" fill="#f88667"/>
      <path id="Trazado_20337" data-name="Trazado 20337" d="M53.672,49.787a141.37,141.37,0,0,0,15.384,5.837S78.1,73.485,78.714,78.466s5.268,38.958,5.268,38.958-17.908,11.383-43.866,2.358c0,0,6.23-26.762,4.806-37.327S44.729,57.618,53.672,49.787Z" transform="translate(-21.398 -9.2)" fill="#fd425f"/>
      <path id="Trazado_20338" data-name="Trazado 20338" d="M50.527,107.476c-.3-11.366,2.3-21.691,2.533-33.074.188-9.183-3.6-14.421-8.216-20.057A53.537,53.537,0,0,0,44.922,67.5c1.425,10.561-4.806,37.327-4.806,37.327A62.514,62.514,0,0,0,50.527,107.476Z" transform="translate(-21.398 5.75)" fill="#e42244"/>
      <path id="Trazado_20339" data-name="Trazado 20339" d="M48.814,112.342c6.308-5.246,3.731-10.5,10.082-15.486.458-.364.924-.715,1.382-1.07.33-2.743-6.278-1.327-4.455-4.087,2.55-3.868,13.253-9.722,13.022-13.488-.158-2.563-.218-.993.261-3.539.552-2.91,1.78-3.466-.5-5.6-1.6-1.493-2.94-3.1-1.673-5.353,1.036-1.836,2.7-2.375,4.125-.65.377.449,2.264,4.241,2.747,2.11.133-.6-.663-1.754-.736-2.418a2.651,2.651,0,0,1,.757-2.413c1.13-1.194,2.8-1.836,3.963-3.042,1.459-1.511,1.647-3.5,3.757-4.335a5.442,5.442,0,0,1,3.372-.141c.5.137,2.627,1.566,2.97,1.429,3.62-1.416,2-7.031-.479-8.76-4.365-3.042-10.03-5.3-15.4-5.191-6.56.133-12.555,5.208-16.364,10.125C52.875,54,53.063,57.778,51.073,61.616c-1.814,3.492-5.734,5.238-8.088,8.383-2.208,2.957-2.225,6.808-1.361,10.287.676,2.717,1.434,5.186.988,7.976-.556,3.47-3.338,6.025-4.283,9.376a14.849,14.849,0,0,0-.163,9.521C39.828,113.386,43.533,115.08,48.814,112.342Z" transform="translate(-30.096 -40.302)" fill="#110239"/>
      <path id="Trazado_20340" data-name="Trazado 20340" d="M44.667,71.342A9.49,9.49,0,0,0,45.878,76.1a5.633,5.633,0,0,1,1.053,2.041,12.115,12.115,0,0,0,.98,2.452,4.733,4.733,0,0,1,.723,2.508c-.15,1.087-1.258.235-1.913-.441-.715-.732-1.181-3.9-2.259-4.014s-.265,3.7-.09,4.459c.407,1.789,1.716,2.208,2.8,3.466.633.736.7,1.262-.415,1.361-.834.073-1.5-.642-2.05-1.177a9.924,9.924,0,0,1-2.585-4.1,11.6,11.6,0,0,0,2.015,4.065c.522.689,3.261,3.239,2.251,4.155-2.037,1.844-6.209-5.507-6.3-7.048a13.612,13.612,0,0,0,1.767,4.219c.432.8,1.541,2.627-.081,2.516-2.392-.167-3.013-5.054-3.68-7.189a15.8,15.8,0,0,0,.809,4.275c.449,1.879-1.087,1.553-1.883-.287a21.528,21.528,0,0,1-.822-2.786c-.852-3.817-.385-5.935.856-9.478.449-1.275-.073-4.078.941-4.651C39.96,69.348,42.818,70.845,44.667,71.342Z" transform="translate(-35.68 57.269)" fill="#f88667"/>
      <path id="Trazado_20341" data-name="Trazado 20341" d="M46.077,132.713l-10.334.548s-.124-30.536,2.619-40.913S60.673,54.04,65.136,51.918c5.362-2.55,21.285,4.254,9.62,13.325S52.016,95.9,51.563,96.781,46.077,132.713,46.077,132.713Z" transform="translate(-35.742 -3.987)" fill="#fd425f"/>
    </g>
  </g>
</svg>
