<svg xmlns="http://www.w3.org/2000/svg" width="718" height="384.473" viewBox="0 0 718 384.473">
  <g id="Grupo_25990" data-name="Grupo 25990" transform="translate(-1628.479 -680.086)">
    <g id="Grupo_25989" data-name="Grupo 25989" transform="translate(1628.479 680.086)">
      <path id="Trazado_20198" data-name="Trazado 20198" d="M2344.311,851.234c-28.235-24.085-62.274-169.333-178.882-93.684-60.246,39.085-161.833-33.554-245.917-8.464-77.221,23.042-84.665,98.957-77.193,123.694,15.093,49.969-31.875,57.4-75.446,78.874-68.345,33.676-18.088,152.028,46.479,152.593s455.721-1.127,455.721-1.127,93.8.237,132.8-51.531C2443.848,995.882,2417.241,913.445,2344.311,851.234Z" transform="translate(-1703.832 -719.89)" fill="#d9e9fe"/>
      <g id="Grupo_25981" data-name="Grupo 25981" transform="translate(68.168 0)">
        <g id="Grupo_25965" data-name="Grupo 25965" transform="translate(448.289 41.981)">
          <rect id="Rectángulo_3970" data-name="Rectángulo 3970" width="160.747" height="270.081" transform="translate(165.786 270.081) rotate(180)" fill="#aed3ff"/>
          <rect id="Rectángulo_3971" data-name="Rectángulo 3971" width="160.747" height="270.081" fill="#739af0"/>
          <rect id="Rectángulo_3972" data-name="Rectángulo 3972" width="139.234" height="94.074" transform="translate(10.947 15.088)" fill="#f3f9ff"/>
          <rect id="Rectángulo_3973" data-name="Rectángulo 3973" width="74.727" height="50.228" transform="translate(73.055 197.441)" fill="#f3f9ff"/>
          <path id="Trazado_20199" data-name="Trazado 20199" d="M3484.835,1045.281s23.773-2.962,38.3,10.421,41.589,1.186,52.485,0c18.945-2.062,33.8,4.136,38.2,10.949v20.439H3484.835Z" transform="translate(-3468.147 -982.179)" fill="#fb7369"/>
          <rect id="Rectángulo_3974" data-name="Rectángulo 3974" width="0.996" height="31.916" transform="translate(35.115 30.208)" fill="#a6c7f9"/>
          <rect id="Rectángulo_3975" data-name="Rectángulo 3975" width="0.996" height="31.916" transform="translate(74.209 43.904)" fill="#a6c7f9"/>
          <rect id="Rectángulo_3976" data-name="Rectángulo 3976" width="0.996" height="31.916" transform="translate(114.548 36.683)" fill="#a6c7f9"/>
          <path id="Trazado_20200" data-name="Trazado 20200" d="M3570.177,944.373h-7.636a.833.833,0,0,1-.83-.83h0a.833.833,0,0,1,.83-.83h7.636a.833.833,0,0,1,.83.83h0A.833.833,0,0,1,3570.177,944.373Z" transform="translate(-3522.944 -909.268)" fill="#a6c7f9"/>
          <path id="Trazado_20201" data-name="Trazado 20201" d="M3570.177,954.777h-7.636a.833.833,0,0,1-.83-.83h0a.833.833,0,0,1,.83-.83h7.636a.833.833,0,0,1,.83.83h0A.833.833,0,0,1,3570.177,954.777Z" transform="translate(-3522.944 -916.683)" fill="#a6c7f9"/>
          <path id="Trazado_20202" data-name="Trazado 20202" d="M3704.276,1001.018h-7.636a.832.832,0,0,1-.83-.83h0a.832.832,0,0,1,.83-.83h7.636a.833.833,0,0,1,.83.83h0A.833.833,0,0,1,3704.276,1001.018Z" transform="translate(-3618.53 -949.644)" fill="#a6c7f9"/>
          <path id="Trazado_20203" data-name="Trazado 20203" d="M3704.276,1011.208h-7.636a.832.832,0,0,1-.83-.83h0a.832.832,0,0,1,.83-.83h7.636a.833.833,0,0,1,.83.83h0A.833.833,0,0,1,3704.276,1011.208Z" transform="translate(-3618.53 -956.907)" fill="#a6c7f9"/>
          <path id="Trazado_20204" data-name="Trazado 20204" d="M3847.044,959.112h-7.636a.833.833,0,0,1-.83-.83h0a.833.833,0,0,1,.83-.83h7.636a.833.833,0,0,1,.83.83h0A.832.832,0,0,1,3847.044,959.112Z" transform="translate(-3720.294 -919.773)" fill="#a6c7f9"/>
          <path id="Trazado_20205" data-name="Trazado 20205" d="M3847.044,969.3h-7.636a.833.833,0,0,1-.83-.83h0a.833.833,0,0,1,.83-.83h7.636a.832.832,0,0,1,.83.83h0A.832.832,0,0,1,3847.044,969.3Z" transform="translate(-3720.294 -927.038)" fill="#a6c7f9"/>
          <g id="Grupo_25959" data-name="Grupo 25959" transform="translate(120.662 117.452)">
            <circle id="Elipse_947" data-name="Elipse 947" cx="13.748" cy="13.748" r="13.748" transform="matrix(0.16, -0.987, 0.987, 0.16, 0, 27.14)" fill="#f3f9ff"/>
            <path id="Trazado_20206" data-name="Trazado 20206" d="M3893.251,1258.9a12.582,12.582,0,0,1-21.088,9.272l8.505-9.272v-12.582A12.583,12.583,0,0,1,3893.251,1258.9Z" transform="translate(-3864.896 -1243.132)" fill="#fb7369"/>
            <path id="Trazado_20207" data-name="Trazado 20207" d="M3872.938,1280.535h-4.519a.38.38,0,0,1-.378-.378h0a.38.38,0,0,1,.378-.379h4.519a.38.38,0,0,1,.379.379h0A.38.38,0,0,1,3872.938,1280.535Z" transform="translate(-3861.958 -1266.98)" fill="#a6c7f9"/>
          </g>
          <g id="Grupo_25960" data-name="Grupo 25960" transform="translate(88.553 119.477)">
            <path id="Trazado_20208" data-name="Trazado 20208" d="M3735.062,1256.013a13.748,13.748,0,1,1,13.748,13.748A13.748,13.748,0,0,1,3735.062,1256.013Z" transform="translate(-3735.062 -1242.265)" fill="#f3f9ff"/>
            <path id="Trazado_20209" data-name="Trazado 20209" d="M3751.7,1258.9l7.731,9.927a12.582,12.582,0,1,1,4.8-11.076Z" transform="translate(-3737.952 -1245.157)" fill="#e57970"/>
            <path id="Trazado_20210" data-name="Trazado 20210" d="M3807.923,1299.086h-3.144a.38.38,0,0,1-.378-.379h0a.379.379,0,0,1,.378-.379h3.144a.379.379,0,0,1,.378.379h0A.38.38,0,0,1,3807.923,1299.086Z" transform="translate(-3784.486 -1282.227)" fill="#a6c7f9"/>
          </g>
          <g id="Grupo_25961" data-name="Grupo 25961" transform="translate(122.686 157.342)">
            <path id="Trazado_20211" data-name="Trazado 20211" d="M3853.909,1387.854a13.748,13.748,0,1,1,13.748,13.748A13.748,13.748,0,0,1,3853.909,1387.854Z" transform="translate(-3853.909 -1374.106)" fill="#f3f9ff"/>
            <path id="Trazado_20212" data-name="Trazado 20212" d="M3893.251,1390.745a12.582,12.582,0,0,1-21.088,9.272l8.505-9.272v-12.582A12.583,12.583,0,0,1,3893.251,1390.745Z" transform="translate(-3866.92 -1376.998)" fill="#fb7369"/>
            <path id="Trazado_20213" data-name="Trazado 20213" d="M3872.938,1412.376h-4.519a.38.38,0,0,1-.378-.379h0a.38.38,0,0,1,.378-.379h4.519a.38.38,0,0,1,.379.379h0A.38.38,0,0,1,3872.938,1412.376Z" transform="translate(-3863.982 -1400.845)" fill="#a6c7f9"/>
          </g>
          <g id="Grupo_25962" data-name="Grupo 25962" transform="translate(88.553 157.342)">
            <path id="Trazado_20214" data-name="Trazado 20214" d="M3735.062,1387.854a13.748,13.748,0,1,1,13.748,13.748A13.748,13.748,0,0,1,3735.062,1387.854Z" transform="translate(-3735.062 -1374.106)" fill="#f3f9ff"/>
            <path id="Trazado_20215" data-name="Trazado 20215" d="M3764.23,1389.6a12.581,12.581,0,1,0-4.8,11.076l-7.731-9.927Z" transform="translate(-3737.952 -1376.998)" fill="#fb7369"/>
            <path id="Trazado_20216" data-name="Trazado 20216" d="M3807.923,1430.928h-3.144a.379.379,0,0,1-.378-.378h0a.379.379,0,0,1,.378-.378h3.144a.379.379,0,0,1,.378.378h0A.379.379,0,0,1,3807.923,1430.928Z" transform="translate(-3784.486 -1414.069)" fill="#a6c7f9"/>
          </g>
          <g id="Grupo_25963" data-name="Grupo 25963" transform="translate(75.969 203.631)">
            <path id="Trazado_20217" data-name="Trazado 20217" d="M3759.837,1575.808h-68.591V1535.28h.853v39.675h67.738Z" transform="translate(-3691.246 -1535.28)" fill="#a6c7f9"/>
          </g>
          <g id="Grupo_25964" data-name="Grupo 25964" transform="translate(80.086 205.284)">
            <path id="Trazado_20218" data-name="Trazado 20218" d="M3722.9,1580.416c-8.4-6.683-17.326,0-17.326,0v11.427h62.772v-29.537C3751.292,1562.737,3731.3,1587.1,3722.9,1580.416Z" transform="translate(-3705.579 -1556.197)" fill="#a6c7f9"/>
            <path id="Trazado_20219" data-name="Trazado 20219" d="M3706.3,1542.473h29.25a.719.719,0,1,0,0-1.437H3706.3a.719.719,0,0,0,0,1.437Z" transform="translate(-3705.579 -1541.036)" fill="#a6c7f9"/>
            <path id="Trazado_20220" data-name="Trazado 20220" d="M3706.3,1554.7h29.25a.719.719,0,1,0,0-1.437H3706.3a.719.719,0,0,0,0,1.437Z" transform="translate(-3705.579 -1549.752)" fill="#a6c7f9"/>
            <path id="Rectángulo_3977" data-name="Rectángulo 3977" d="M.719,0H19.825a.718.718,0,0,1,.718.718v0a.719.719,0,0,1-.719.719H.719A.719.719,0,0,1,0,.719v0A.719.719,0,0,1,.719,0Z" transform="translate(0 6.827)" fill="#a6c7f9"/>
          </g>
        </g>
        <g id="Grupo_25970" data-name="Grupo 25970" transform="translate(201.749)">
          <rect id="Rectángulo_3978" data-name="Rectángulo 3978" width="219.943" height="331.7" fill="#739af0"/>
          <rect id="Rectángulo_3979" data-name="Rectángulo 3979" width="177.08" height="197.377" transform="translate(21.251 18.554)" fill="#f3f9ff"/>
          <path id="Trazado_20221" data-name="Trazado 20221" d="M2655.4,1572.464a31.847,31.847,0,1,1,31.847,31.847A31.847,31.847,0,0,1,2655.4,1572.464Z" transform="translate(-2630.387 -1293.473)" fill="#f3f9ff"/>
          <path id="Trazado_20222" data-name="Trazado 20222" d="M2726.4,1584.69a26.919,26.919,0,1,0-10.592,21.4l-16.327-21.4,25.156,9.6A26.878,26.878,0,0,0,2726.4,1584.69Z" transform="translate(-2642.615 -1305.699)" fill="#fb7369"/>
          <path id="Trazado_20223" data-name="Trazado 20223" d="M3033.214,1572.464a31.847,31.847,0,1,1,31.847,31.847A31.847,31.847,0,0,1,3033.214,1572.464Z" transform="translate(-2899.691 -1293.473)" fill="#f3f9ff"/>
          <path id="Trazado_20224" data-name="Trazado 20224" d="M3077.287,1557.769a26.92,26.92,0,0,0-19.187,45.8l19.187-18.883,25.156,9.6a26.939,26.939,0,0,0-25.156-36.522Z" transform="translate(-2911.917 -1305.699)" fill="#fb7369"/>
          <g id="Grupo_25966" data-name="Grupo 25966" transform="translate(149.158 265.325)">
            <path id="Trazado_20225" data-name="Trazado 20225" d="M3099.931,1603.919h-11.459a.821.821,0,0,0-.819.819h0a.821.821,0,0,0,.819.818h11.459a.821.821,0,0,0,.819-.818h0A.821.821,0,0,0,3099.931,1603.919Z" transform="translate(-3087.653 -1603.919)" fill="#a6c7f9"/>
            <path id="Trazado_20226" data-name="Trazado 20226" d="M3099.931,1612.944h-11.459a.819.819,0,0,0,0,1.637h11.459a.819.819,0,1,0,0-1.637Z" transform="translate(-3087.653 -1610.352)" fill="#a6c7f9"/>
            <path id="Trazado_20227" data-name="Trazado 20227" d="M3093.2,1621.97h-4.732a.818.818,0,1,0,0,1.637h4.732a.818.818,0,1,0,0-1.637Z" transform="translate(-3087.653 -1616.786)" fill="#a6c7f9"/>
          </g>
          <g id="Grupo_25967" data-name="Grupo 25967" transform="translate(40.43 265.325)">
            <path id="Trazado_20228" data-name="Trazado 20228" d="M2721.353,1603.919h-11.459a.821.821,0,0,0-.819.819h0a.821.821,0,0,0,.819.818h11.459a.821.821,0,0,0,.819-.818h0A.821.821,0,0,0,2721.353,1603.919Z" transform="translate(-2709.075 -1603.919)" fill="#a6c7f9"/>
            <path id="Trazado_20229" data-name="Trazado 20229" d="M2721.353,1612.944h-11.459a.819.819,0,0,0,0,1.637h11.459a.819.819,0,1,0,0-1.637Z" transform="translate(-2709.075 -1610.352)" fill="#a6c7f9"/>
            <path id="Trazado_20230" data-name="Trazado 20230" d="M2714.626,1621.97h-4.732a.818.818,0,1,0,0,1.637h4.732a.818.818,0,1,0,0-1.637Z" transform="translate(-2709.075 -1616.786)" fill="#a6c7f9"/>
          </g>
          <g id="Grupo_25968" data-name="Grupo 25968" transform="translate(37.02 56.646)">
            <rect id="Rectángulo_3980" data-name="Rectángulo 3980" width="18.686" height="116.403" transform="translate(0 32.446)" fill="#a6c7f9"/>
            <rect id="Rectángulo_3981" data-name="Rectángulo 3981" width="18.686" height="148.85" transform="translate(30.613)" fill="#a6c7f9"/>
            <rect id="Rectángulo_3982" data-name="Rectángulo 3982" width="18.686" height="88.254" transform="translate(64.017 60.596)" fill="#a6c7f9"/>
            <rect id="Rectángulo_3983" data-name="Rectángulo 3983" width="18.686" height="128.977" transform="translate(96.521 19.872)" fill="#a6c7f9"/>
            <rect id="Rectángulo_3984" data-name="Rectángulo 3984" width="18.686" height="70.98" transform="translate(129.194 77.87)" fill="#a6c7f9"/>
          </g>
          <g id="Grupo_25969" data-name="Grupo 25969" transform="translate(68.669 34.387)">
            <path id="Trazado_20231" data-name="Trazado 20231" d="M3051.915,888.089H3036.09a1.637,1.637,0,0,0,0,3.274h15.825a1.637,1.637,0,1,0,0-3.274Z" transform="translate(-2969.244 -862.737)" fill="#a6c7f9"/>
            <path id="Trazado_20232" data-name="Trazado 20232" d="M3039.694,908.831h-3.6a1.637,1.637,0,0,0,0,3.274h3.6a1.637,1.637,0,0,0,0-3.274Z" transform="translate(-2969.244 -877.522)" fill="#a6c7f9"/>
            <path id="Trazado_20233" data-name="Trazado 20233" d="M2824.863,799.817h-15.824a1.637,1.637,0,1,0,0,3.274h15.824a1.637,1.637,0,0,0,0-3.274Z" transform="translate(-2807.401 -799.817)" fill="#a6c7f9"/>
            <path id="Trazado_20234" data-name="Trazado 20234" d="M2812.642,820.559h-3.6a1.642,1.642,0,0,0-1.637,1.637h0a1.642,1.642,0,0,0,1.637,1.637h3.6a1.642,1.642,0,0,0,1.637-1.637h0A1.642,1.642,0,0,0,2812.642,820.559Z" transform="translate(-2807.401 -814.602)" fill="#a6c7f9"/>
            <path id="Trazado_20235" data-name="Trazado 20235" d="M2936.844,1027.819H2921.02a1.637,1.637,0,1,0,0,3.274h15.825a1.637,1.637,0,0,0,0-3.274Z" transform="translate(-2887.221 -962.337)" fill="#a6c7f9"/>
            <path id="Trazado_20236" data-name="Trazado 20236" d="M2924.624,1048.561h-3.6a1.642,1.642,0,0,0-1.637,1.637h0a1.642,1.642,0,0,0,1.637,1.637h3.6a1.642,1.642,0,0,0,1.637-1.637h0A1.642,1.642,0,0,0,2924.624,1048.561Z" transform="translate(-2887.221 -977.122)" fill="#a6c7f9"/>
            <path id="Trazado_20237" data-name="Trazado 20237" d="M3163.784,1088.312h-15.825a1.637,1.637,0,0,0,0,3.274h15.825a1.637,1.637,0,0,0,0-3.274Z" transform="translate(-3048.984 -1005.456)" fill="#a6c7f9"/>
            <path id="Trazado_20238" data-name="Trazado 20238" d="M3151.563,1109.054h-3.6a1.637,1.637,0,0,0,0,3.274h3.6a1.637,1.637,0,1,0,0-3.274Z" transform="translate(-3048.984 -1020.241)" fill="#a6c7f9"/>
          </g>
        </g>
        <g id="Grupo_25974" data-name="Grupo 25974" transform="translate(11.322 125.733)">
          <rect id="Rectángulo_3985" data-name="Rectángulo 3985" width="160.747" height="90.496" fill="#aed3ff"/>
          <rect id="Rectángulo_3986" data-name="Rectángulo 3986" width="160.747" height="90.496" transform="translate(5.227)" fill="#739af0"/>
          <circle id="Elipse_948" data-name="Elipse 948" cx="29.065" cy="29.065" r="29.065" transform="translate(8.086 43.203) rotate(-45)" fill="#f3f9ff"/>
          <g id="Grupo_25971" data-name="Grupo 25971" transform="translate(96.582 26.967)">
            <path id="Trazado_20239" data-name="Trazado 20239" d="M2292.864,1211.772h-48.149a3.182,3.182,0,0,0-3.173,3.172h0a3.182,3.182,0,0,0,3.173,3.173h48.149a3.182,3.182,0,0,0,3.173-3.173h0A3.182,3.182,0,0,0,2292.864,1211.772Z" transform="translate(-2241.542 -1211.772)" fill="#f3f9ff"/>
            <path id="Trazado_20240" data-name="Trazado 20240" d="M2292.864,1257.259h-48.149a3.182,3.182,0,0,0-3.173,3.172h0a3.182,3.182,0,0,0,3.173,3.173h48.149a3.182,3.182,0,0,0,3.173-3.173h0A3.182,3.182,0,0,0,2292.864,1257.259Z" transform="translate(-2241.542 -1244.195)" fill="#f3f9ff"/>
            <path id="Trazado_20241" data-name="Trazado 20241" d="M2292.864,1302.745h-48.149a3.173,3.173,0,1,0,0,6.345h48.149a3.173,3.173,0,1,0,0-6.345Z" transform="translate(-2241.542 -1276.618)" fill="#f3f9ff"/>
          </g>
          <path id="Trazado_20242" data-name="Trazado 20242" d="M1983.87,1200.788h26.612v-26.611A26.612,26.612,0,0,0,1983.87,1200.788Z" transform="translate(-1961.291 -1158.007)" fill="#3a4ace"/>
          <path id="Trazado_20243" data-name="Trazado 20243" d="M2037.093,1269.817H1983.87a26.612,26.612,0,0,0,26.611,26.612h0A26.612,26.612,0,0,0,2037.093,1269.817Z" transform="translate(-1961.291 -1226.179)" fill="#3a4ace"/>
          <g id="Grupo_25972" data-name="Grupo 25972" transform="translate(28.657 29.1)">
            <path id="Trazado_20244" data-name="Trazado 20244" d="M2020.971,1219.2h-14.442a1.494,1.494,0,0,0,0,2.988h14.442a1.494,1.494,0,1,0,0-2.988Z" transform="translate(-2005.035 -1219.198)" fill="#6d89d0"/>
            <path id="Trazado_20245" data-name="Trazado 20245" d="M2009.818,1238.128h-3.29a1.494,1.494,0,0,0,0,2.988h3.29a1.494,1.494,0,0,0,0-2.988Z" transform="translate(-2005.035 -1232.691)" fill="#6d89d0"/>
          </g>
          <g id="Grupo_25973" data-name="Grupo 25973" transform="translate(50.099 50.143)">
            <path id="Trazado_20246" data-name="Trazado 20246" d="M2095.629,1292.469h-14.442a1.494,1.494,0,1,0,0,2.988h14.442a1.494,1.494,0,1,0,0-2.988Z" transform="translate(-2079.692 -1292.469)" fill="#a6c7f9"/>
            <path id="Trazado_20247" data-name="Trazado 20247" d="M2084.475,1311.4h-3.289a1.5,1.5,0,0,0-1.494,1.494h0a1.5,1.5,0,0,0,1.494,1.494h3.289a1.5,1.5,0,0,0,1.494-1.494h0A1.5,1.5,0,0,0,2084.475,1311.4Z" transform="translate(-2079.692 -1305.962)" fill="#a6c7f9"/>
          </g>
        </g>
        <g id="Grupo_25977" data-name="Grupo 25977" transform="translate(0 232.435)">
          <path id="Trazado_20248" data-name="Trazado 20248" d="M1865.832,1489.4v92.55h160.747V1489.4Z" transform="translate(-1865.832 -1489.399)" fill="#aed3ff"/>
          <path id="Trazado_20249" data-name="Trazado 20249" d="M1884.031,1489.4v92.55h160.747V1489.4Z" transform="translate(-1878.804 -1489.399)" fill="#739af0"/>
          <circle id="Elipse_949" data-name="Elipse 949" cx="29.065" cy="29.065" r="29.065" transform="matrix(0.443, -0.896, 0.896, 0.443, 10.25, 56.584)" fill="#f3f9ff"/>
          <g id="Grupo_25975" data-name="Grupo 25975" transform="translate(96.58 27.181)">
            <path id="Trazado_20250" data-name="Trazado 20250" d="M2205.288,1590.385h48.149a3.173,3.173,0,0,0,0-6.346h-48.149a3.173,3.173,0,1,0,0,6.346Z" transform="translate(-2202.115 -1584.039)" fill="#f3f9ff"/>
            <path id="Trazado_20251" data-name="Trazado 20251" d="M2253.437,1629.526h-48.149a3.173,3.173,0,1,0,0,6.345h48.149a3.173,3.173,0,0,0,0-6.345Z" transform="translate(-2202.115 -1616.462)" fill="#f3f9ff"/>
            <path id="Trazado_20252" data-name="Trazado 20252" d="M2253.437,1675.013h-48.149a3.182,3.182,0,0,0-3.173,3.173h0a3.182,3.182,0,0,0,3.173,3.172h48.149a3.182,3.182,0,0,0,3.172-3.172h0A3.182,3.182,0,0,0,2253.437,1675.013Z" transform="translate(-2202.115 -1648.885)" fill="#f3f9ff"/>
          </g>
          <path id="Trazado_20253" data-name="Trazado 20253" d="M1971.054,1641.377l-26.609-.339c0,.112,0,.226,0,.339a26.613,26.613,0,0,0,40.889,22.458Z" transform="translate(-1921.866 -1597.487)" fill="#3a4ace"/>
          <g id="Grupo_25976" data-name="Grupo 25976" transform="translate(34.232 52.269)">
            <path id="Rectángulo_3987" data-name="Rectángulo 3987" d="M1.494,0H15.937a1.494,1.494,0,0,1,1.494,1.494v0a1.494,1.494,0,0,1-1.494,1.494H1.494A1.494,1.494,0,0,1,0,1.494v0A1.494,1.494,0,0,1,1.494,0Z" fill="#a6c7f9"/>
            <path id="Trazado_20254" data-name="Trazado 20254" d="M1989.807,1690.322h-3.289a1.494,1.494,0,0,0,0,2.988h3.289a1.494,1.494,0,0,0,0-2.988Z" transform="translate(-1985.024 -1684.885)" fill="#a6c7f9"/>
          </g>
        </g>
        <g id="Grupo_25980" data-name="Grupo 25980" transform="translate(0 27.037)">
          <rect id="Rectángulo_3988" data-name="Rectángulo 3988" width="160.749" height="83.866" fill="#aed3ff"/>
          <rect id="Rectángulo_3989" data-name="Rectángulo 3989" width="160.747" height="83.866" transform="translate(5.227)" fill="#739af0"/>
          <circle id="Elipse_950" data-name="Elipse 950" cx="29.065" cy="29.065" r="29.065" transform="translate(12.64 24.357) rotate(-17.769)" fill="#f3f9ff"/>
          <path id="Trazado_20255" data-name="Trazado 20255" d="M1971.056,831.874a26.612,26.612,0,0,0-12.772,49.958c4.263-7.9,12.772-23.35,12.772-23.35l12.6,23.442a26.612,26.612,0,0,0-12.6-50.051Z" transform="translate(-1921.867 -815.318)" fill="#3a4ace"/>
          <g id="Grupo_25978" data-name="Grupo 25978" transform="translate(96.581 26.929)">
            <rect id="Rectángulo_3990" data-name="Rectángulo 3990" width="54.494" height="6.345" rx="3.173" transform="translate(0)" fill="#f3f9ff"/>
            <path id="Trazado_20256" data-name="Trazado 20256" d="M2253.438,913.476h-48.149a3.173,3.173,0,1,0,0,6.345h48.149a3.173,3.173,0,1,0,0-6.345Z" transform="translate(-2202.116 -900.412)" fill="#f3f9ff"/>
            <path id="Trazado_20257" data-name="Trazado 20257" d="M2253.438,958.962h-48.149a3.173,3.173,0,0,0,0,6.345h48.149a3.173,3.173,0,0,0,0-6.345Z" transform="translate(-2202.116 -932.835)" fill="#f3f9ff"/>
          </g>
          <g id="Grupo_25979" data-name="Grupo 25979" transform="translate(34.232 30.456)">
            <path id="Trazado_20258" data-name="Trazado 20258" d="M2000.962,880.271h-14.442a1.494,1.494,0,1,0,0,2.988h14.442a1.494,1.494,0,1,0,0-2.988Z" transform="translate(-1985.025 -880.271)" fill="#6d89d0"/>
            <path id="Trazado_20259" data-name="Trazado 20259" d="M1989.809,899.2h-3.289a1.5,1.5,0,0,0-1.494,1.494h0a1.5,1.5,0,0,0,1.494,1.494h3.289a1.5,1.5,0,0,0,1.494-1.494h0A1.5,1.5,0,0,0,1989.809,899.2Z" transform="translate(-1985.025 -893.764)" fill="#6d89d0"/>
          </g>
        </g>
      </g>
      <g id="Grupo_25982" data-name="Grupo 25982" transform="translate(228.566 139.402)">
        <path id="Trazado_20260" data-name="Trazado 20260" d="M2573.56,1278.528s18.75,19.357,19.65,26.656-8.921,18.717-8.921,18.717Z" transform="translate(-2530.699 -1246.057)" fill="#f2564b"/>
        <path id="Trazado_20261" data-name="Trazado 20261" d="M2482.907,1969.495s-.638,10.29-2.629,10.438c-.265.02-10.1.02-10.1.02l-12.552-.073s.082-3.024,3.751-3.664,9.81-3.218,12.033-8.067C2475.751,1963.047,2482.907,1969.495,2482.907,1969.495Z" transform="translate(-2448.063 -1736.219)" fill="#163560"/>
        <path id="Trazado_20262" data-name="Trazado 20262" d="M2580.159,1969.495s-.638,10.29-2.629,10.438c-.265.02-10.1.02-10.1.02l-12.59-.045a4.152,4.152,0,0,1,3.789-3.692c3.669-.639,9.81-3.218,12.033-8.067C2573,1963.047,2580.159,1969.495,2580.159,1969.495Z" transform="translate(-2517.358 -1736.219)" fill="#163560"/>
        <path id="Trazado_20263" data-name="Trazado 20263" d="M2497.243,1554.431s3.283,21,15.529,58.268,13.916,53.411,13.916,53.411a53.906,53.906,0,0,0,6.811.48,43.139,43.139,0,0,0,6.326-.849s.112-40.733-5.532-59.476-1.218-67.569-1.218-67.569Z" transform="translate(-2476.3 -1431.506)" fill="#163560"/>
        <path id="Trazado_20264" data-name="Trazado 20264" d="M2474.958,1542.7a509.577,509.577,0,0,0,5.01,70.488c5.474,38.848,3.618,55.339,3.618,55.339s4.507.807,6.09.86c1.694.056,7.021-.424,7.021-.424s7.835-38.863,5.589-58.307,10.729-66.722,10.729-66.722Z" transform="translate(-2460.409 -1434.361)" fill="#1c468a"/>
        <path id="Trazado_20265" data-name="Trazado 20265" d="M2525.829,1246.074l-6.184,4.58-8.937-1.881c.124-.815.714-4.193,1.251-7.252.032-.181.065-.361.1-.537.46-2.6.858-4.84.858-4.84l8.347-4.16,3.112-1.551c-.008.055-.242,2.889-.274,3.3A26.729,26.729,0,0,0,2525.829,1246.074Z" transform="translate(-2485.898 -1211.775)" fill="#fc9490"/>
        <path id="Trazado_20266" data-name="Trazado 20266" d="M2502.861,1268.86c.2-.082,12.158-3.612,13.457-3.183s2.069,2.943,2.069,2.943l-19.565,4.423S2500.361,1269.912,2502.861,1268.86Z" transform="translate(-2477.425 -1236.871)" fill="#f2564b"/>
        <path id="Trazado_20267" data-name="Trazado 20267" d="M2512.486,1356.257c-2.027,9.249-35.771,10.346-44.469,1.95-.99-.957-1.038-5.409-.665-11.413.73-11.729,3.073-29.373,3.165-38.387a71.38,71.38,0,0,1,1.439-12.849,104.361,104.361,0,0,1,4.28-15.379s16.482-5.328,19.566-4.422C2510.66,1280.123,2514.514,1347.007,2512.486,1356.257Z" transform="translate(-2454.841 -1244.009)" fill="#fb7369"/>
        <path id="Trazado_20268" data-name="Trazado 20268" d="M2467.885,1391.852c.73-11.729,3.073-29.373,3.165-38.387a71.4,71.4,0,0,1,1.439-12.849l9.915-1.75S2492.1,1378.46,2467.885,1391.852Z" transform="translate(-2455.374 -1289.067)" fill="#f2564b"/>
        <path id="Trazado_20269" data-name="Trazado 20269" d="M2479.572,1462.606a2.332,2.332,0,0,1-.744,2.7c-1.419,1.084-2.34,2.842-2.014,4.126s3.438,3.379,4.517,3.042,3.275-2.029,3.039-2.707,1.477-5.944-1.154-7.972S2479.572,1462.606,2479.572,1462.606Z" transform="translate(-2461.692 -1376.169)" fill="#fc9490"/>
        <path id="Trazado_20270" data-name="Trazado 20270" d="M2453.29,1283.149s-9.669,1.809-17.374,13.163-12.773,19.8-11.354,23.888,14.357,18.285,16.587,18.285,5.829-1.622,6.032-5.271c0,0-9.108-13.651-7.314-15.7.767-.874,11.825-9.851,13.4-5.8C2455.882,1318.431,2453.29,1283.149,2453.29,1283.149Z" transform="translate(-2424.323 -1249.351)" fill="#fb7369"/>
        <path id="Trazado_20271" data-name="Trazado 20271" d="M2526.576,1237.711c-1.833,3.508-8.664,6.541-11.512,7.656.032-.181.065-.361.1-.537.46-2.6.858-4.84.858-4.84l8.347-4.16C2526.209,1235.8,2527.332,1236.267,2526.576,1237.711Z" transform="translate(-2489.003 -1215.621)" fill="#fca56b"/>
        <path id="Trazado_20272" data-name="Trazado 20272" d="M2505.184,1200.505s12.356,3.854,14.638-3.878,5.414-12.442-2.379-15.23-10.2-.292-11.593,2.1S2502.028,1199.3,2505.184,1200.505Z" transform="translate(-2480.859 -1175.946)" fill="#fc9490"/>
        <path id="Trazado_20273" data-name="Trazado 20273" d="M2510.145,1172.279s.788,9,2.648,8.607,3.548-.68,3.276,2.032-2.853,5.844,2.882,6.324,13.979-14.309,12.4-17.109C2526.809,1164.053,2503.575,1162.423,2510.145,1172.279Z" transform="translate(-2484.669 -1165.469)" fill="#163560"/>
      </g>
      <g id="Grupo_25984" data-name="Grupo 25984" transform="translate(0 145.328)">
        <path id="Trazado_20274" data-name="Trazado 20274" d="M1738.4,1917.188l3.762,15.844,5.635-.032.207-15.812Z" transform="translate(-1706.832 -1707.22)" fill="#fc9490"/>
        <path id="Trazado_20275" data-name="Trazado 20275" d="M1903.436,1914.363l10.7,15.169,4.172-5.356-6.442-11.9Z" transform="translate(-1824.469 -1703.72)" fill="#fc9490"/>
        <path id="Trazado_20276" data-name="Trazado 20276" d="M1679.619,1187.868a10.911,10.911,0,0,0-5.907-1.13,2.766,2.766,0,0,1,1.246-.591,9.16,9.16,0,0,0-3.268.853c-14.064-5.419-16.275,15.289-15.979,20.1s-4.726,6.382-12.043,10.172c-13.961,7.233-15.188,16.918-15.188,16.918.109.064.222.137.343.22.693-1.173,2.119-3.377,3.321-3.71a49.838,49.838,0,0,0-1.934,4.712c4.119,3.133,11.824,10.075,17.194,15a7.888,7.888,0,0,1,.366-3.049l.663,4c2.874,2.641,4.855,4.5,4.855,4.5-.355-3.888,17.583-24.4,26.943-30.55,2.279-3.354,3.088-9.279,3.149-9.745-.393,4.7-1.2,7.333-1.915,8.817C1689.388,1217.083,1684.775,1190.8,1679.619,1187.868Z" transform="translate(-1628.479 -1186.102)" fill="#163560"/>
        <path id="Trazado_20277" data-name="Trazado 20277" d="M1773.856,1289.281c.047.021-4.519,2.391-7.953,1.452-3.23-.881-5.341-5.07-5.3-5.079,1.368-.272,1.762-2.151,1.734-10.23l.618.122,10.4,2.059s-.236,3.272-.243,6.355C1773.106,1286.549,1773.263,1289,1773.856,1289.281Z" transform="translate(-1722.659 -1249.771)" fill="#fc9490"/>
        <path id="Trazado_20278" data-name="Trazado 20278" d="M1765.8,1197.822s5.13-5.461,11.57-.28C1777.366,1197.543,1773.618,1196.895,1765.8,1197.822Z" transform="translate(-1726.359 -1192.666)" fill="#e37970"/>
        <path id="Trazado_20279" data-name="Trazado 20279" d="M1779.2,1277.907s-.236,3.272-.243,6.355c-5.819-.164-8.895-5.472-10.155-8.415Z" transform="translate(-1728.498 -1250.073)" fill="#ff8585"/>
        <path id="Trazado_20280" data-name="Trazado 20280" d="M1755.451,1218.877s-3.05-4.818-3.781-8.938c-.522-2.942.976-13.844,11.932-12.274a14.885,14.885,0,0,1,6.173,2.334c2.379,1.607,5.812,5.075,1.973,14.59l-1,3.214Z" transform="translate(-1716.226 -1194.234)" fill="#163560"/>
        <path id="Trazado_20281" data-name="Trazado 20281" d="M1802.821,1643.21l-5.512.168-5.967.183s-13.782-15.344-21.512-39.941q-.271-.857-.572-1.736c-4.231-12.336-13-27.82-17.623-41.836-.735-2.232-1.4-4.334-1.989-6.323-.19-.637-.375-1.263-.551-1.879a148.636,148.636,0,0,1-5.3-27.907l33.375.267A622.126,622.126,0,0,0,1802.821,1643.21Z" transform="translate(-1710.676 -1426.913)" fill="#fb7369"/>
        <path id="Trazado_20282" data-name="Trazado 20282" d="M1737,1350.714c-.084,15.882,2.33,22.7,2.33,22.7a44.845,44.845,0,0,1-31.273,1.916c-.2-.063-14.062-3.227-14.062-3.227.284-.643,2.812-11.346,3.089-11.936,3.586-7.7,6.308-11.076,6.734-13.444a50.364,50.364,0,0,0,.413-13.306,106.782,106.782,0,0,0-4.118-20.9,109.539,109.539,0,0,0,13.9-4.66c1.108,1.38,4.375,2.774,7.313,2.708,3.383-.074,4.44-1.505,4.315-3.117,3.605,2.006,6.471,3.914,6.471,3.914,3.064,5.322,9.278,10.49,9.728,18.655C1741.943,1332.026,1737,1350.27,1737,1350.714Z" transform="translate(-1675.175 -1272.598)" fill="#e7f1fd"/>
        <path id="Trazado_20283" data-name="Trazado 20283" d="M1715.96,1395.758c-1.459,2.065-4.256,14.615-11.215,16.193,3.586-8.945,6.308-12.867,6.734-15.616a67.862,67.862,0,0,0,.413-15.456c2.329-4.083,4.068-6.882,4.068-6.882.183-.66,3.7-11.541,4.83-1.815S1717.589,1393.449,1715.96,1395.758Z" transform="translate(-1682.841 -1315.872)" fill="#f2564b"/>
        <path id="Trazado_20284" data-name="Trazado 20284" d="M1777.194,1235.524s-13.768.227-13.777-8.349-1.793-14.323,7-14.83,10.5,2.763,11.2,5.625S1780.775,1235.244,1777.194,1235.524Z" transform="translate(-1724.552 -1204.771)" fill="#fc9490"/>
        <path id="Trazado_20285" data-name="Trazado 20285" d="M1770.218,1208.487c-2.125-2.575-3.731-2.016-4.633-1.242-2.975-4.446-12.379,1.984-12.379,1.984a16.384,16.384,0,0,1-5.358,9.678s2.509,1.55,8.295.063c4.553-1.171,7.857-7.651,9.058-10.359a10.928,10.928,0,0,1,3.064,4.056c.686,2.184,1,6.68,2.305,6.527C1770.57,1219.194,1773.41,1212.356,1770.218,1208.487Z" transform="translate(-1713.565 -1200.057)" fill="#163560"/>
        <path id="Trazado_20286" data-name="Trazado 20286" d="M1748.843,1969.272a15.264,15.264,0,0,1-.717,6.5s-.922,4.2,3.216,4.28,5.154-.312,4.685-2.889-1.36-7.033-1.36-7.033Z" transform="translate(-1713.701 -1744.346)" fill="#fc9490"/>
        <path id="Trazado_20287" data-name="Trazado 20287" d="M1755.52,1997.962l-.013.009h-8.563l-.014-.009c-.468-2.2.3-6.338.3-6.338,4.687,4.481,7.62-.113,7.62-.113C1755.607,1993.428,1755.52,1997.962,1755.52,1997.962Z" transform="translate(-1712.803 -1760.198)" fill="#c45446"/>
        <path id="Trazado_20288" data-name="Trazado 20288" d="M1951.123,1966.679s-7.63-8.665-9.973-12.974l-5.674,2.907,12.682,11.911,2.967-.39Z" transform="translate(-1847.307 -1733.249)" fill="#fc9490"/>
        <path id="Trazado_20289" data-name="Trazado 20289" d="M1952.086,1978.144H1941.5a17.267,17.267,0,0,1-2.911-4.752,5.122,5.122,0,0,0-3.455-2.357v7.109h-2.19l-2.028-7.559c-1.351-2.533-.336-4.855.613-6.856,1.105,0,4.312.8,9.948,7.272a7.331,7.331,0,0,0,5.929,2.823.544.544,0,0,0,.083.045C1950.7,1975.341,1951.746,1977.151,1952.086,1978.144Z" transform="translate(-1843.59 -1740.395)" fill="#c45446"/>
        <path id="Trazado_20290" data-name="Trazado 20290" d="M1861.666,1317.584s-9.038,5.054-12.266,6.51c-1.148.518-3.228,1.486-5.353,2.478-1.283.6-2.582,1.209-3.705,1.738a4.658,4.658,0,0,1-5.52-1.191c-4.893-5.714-17.558-18.1-30.637-19.651l-.045-.02.006.015-.017,0,.072.141c.735,1.828,7.9,19.742,8.127,23.52.234,3.982.937,65.124.937,65.124s-.468,2.811,4.919,1.64,6.794-2.342,6.794-2.342-5.154-37.716-3.748-50.834a29.185,29.185,0,0,0-.549-8.454,67.186,67.186,0,0,0,17.357,6.971,79.036,79.036,0,0,0,8.946-4.9,56.159,56.159,0,0,0,7.543-6.069,110.785,110.785,0,0,0,8.574-9.868Z" transform="translate(-1753.683 -1272.598)" fill="#e37970"/>
        <path id="Trazado_20291" data-name="Trazado 20291" d="M1810.465,1703.385l-5.967.183s-13.782-15.344-21.512-39.941q-.27-.857-.572-1.736c-4.231-12.336-13-27.82-17.623-41.836-.736-2.232-1.4-4.334-1.989-6.323-.19-.637-.375-1.263-.551-1.879l4.915-3.729s14.756,23.895,19.324,46.381C1790.459,1674.037,1806.352,1697.54,1810.465,1703.385Z" transform="translate(-1723.832 -1486.919)" fill="#f2564b"/>
        <path id="Trazado_20292" data-name="Trazado 20292" d="M1717.713,1640.86c.084,10.935-.469,36.076-1.893,46.484h-5.285c-2.921,0-4.378-.042-4.378-.042-3.573-18.1-6.114-33.07-7.965-45.974-1.518-10.588-2.867-19.666-3.905-27.481-1.045-7.864-1.771-14.449-2.031-20.013-.04-.876-.07-1.729-.087-2.556s-.021-1.639-.014-2.424l28.837-2.811C1720.629,1605.2,1717.666,1634.5,1717.713,1640.86Z" transform="translate(-1673.865 -1471.181)" fill="#fb7369"/>
        <path id="Trazado_20293" data-name="Trazado 20293" d="M1710.793,1706.682c-2.921,0-4.378-.042-4.378-.042-3.573-18.1-6.114-33.07-7.965-45.974-1.518-10.588-2.867-19.666-3.905-27.481-1.045-7.864-1.771-14.449-2.031-20.013l10.581,6.224s-6.754,2.383-4.177,20.42S1707.207,1704.129,1710.793,1706.682Z" transform="translate(-1674.123 -1490.518)" fill="#f2564b"/>
        <path id="Trazado_20294" data-name="Trazado 20294" d="M1696.173,1396.091s-2.031,7.339-9.059,6.4-17.021-5.154-17.021-5.154,3-9.49,6.737-21.957c4.521-15.093,10.117-34.551,12.755-46.823a75.978,75.978,0,0,0,1.434-8.368l5.951-11.317s8.573,19.516,9.041,24.436S1696.173,1396.091,1696.173,1396.091Z" transform="translate(-1658.141 -1273.613)" fill="#e37970"/>
        <path id="Trazado_20295" data-name="Trazado 20295" d="M1785.6,1412.318c-3.382.445-4.679,2.242-5.1,4.667a10.3,10.3,0,0,1-1.473,3.516c-3.369.18-11.393.617-18.134,1.044l-.556,8.842a100.931,100.931,0,0,0,20.175-4.775,5.272,5.272,0,0,0,2.3-1.248c4.853-3.975,7.608-10.631,7.617-11.584S1788.982,1411.873,1785.6,1412.318Z" transform="translate(-1722.469 -1347.131)" fill="#fc9490"/>
        <path id="Trazado_20296" data-name="Trazado 20296" d="M1712.583,1392.473c-.314,7.965-2.188,23.426-18.9,31.7-.045.021-.089.044-.134.063,4.521-15.093,10.117-34.551,12.755-46.823C1709.376,1382,1712.754,1388.088,1712.583,1392.473Z" transform="translate(-1674.863 -1322.47)" fill="#c45446"/>
        <path id="Trazado_20297" data-name="Trazado 20297" d="M1712.17,1308.873s-14.293,1.014-17.729,8.666-4.529,33.109-.156,40.6c0,0,6.02,1.715,16.668-.277l.393-.075s3.4-8.317.351-9.956c0,0-8.98.468-8.043-2.5S1712.17,1308.873,1712.17,1308.873Z" transform="translate(-1673.34 -1273.613)" fill="#e37970"/>
        <g id="Grupo_25983" data-name="Grupo 25983" transform="translate(90.364 38.885)">
          <path id="Trazado_20298" data-name="Trazado 20298" d="M2014.3,1321.59a8.594,8.594,0,0,0-9.631,6.006l1.436,4.8c2.37.327,4.445-.291,6.356-3.025s2.438-1.685,3.652-3.72C2017.76,1322.894,2015.182,1321.866,2014.3,1321.59Z" transform="translate(-1986.991 -1321.494)" fill="#fc9490"/>
          <path id="Trazado_20299" data-name="Trazado 20299" d="M1948.471,1349.249c-1.148.518-3.228,1.486-5.353,2.478,1.137,2.019,2.559,5.689,2.937,11.753a49.042,49.042,0,0,0,7.768-6.257,103.016,103.016,0,0,0,8.349-9.68l-1.436-4.8S1951.7,1347.792,1948.471,1349.249Z" transform="translate(-1943.118 -1336.637)" fill="#fc9490"/>
        </g>
      </g>
      <g id="Grupo_25988" data-name="Grupo 25988" transform="translate(466.124 161.147)">
        <g id="Grupo_25985" data-name="Grupo 25985" transform="translate(17.636 37.799)">
          <path id="Trazado_20300" data-name="Trazado 20300" d="M3332.773,1559.414s-5.469,1.4-8.945.357-9.459.673-10.422,1.94-.61,1.771,1.109,2.209,7.811,3.035,11.813,1.531a31.9,31.9,0,0,1,9.224-1.558Z" transform="translate(-3312.88 -1505.818)" fill="#fc9490"/>
          <path id="Trazado_20301" data-name="Trazado 20301" d="M3419.243,1378.892s-6.143,43.659-16.314,47.57c-5.019,1.929-27.2,6.3-33.762,6.743,0,0-1.607-1.3-1.216-6.612,0,0,23.239-8.532,26.541-13.172,4.913-6.906-3.051-28.211,3.115-34.7S3414.157,1369.453,3419.243,1378.892Z" transform="translate(-3352.091 -1372.797)" fill="#1c468a"/>
        </g>
        <path id="Trazado_20302" data-name="Trazado 20302" d="M3468.359,1807.347v-9.519h14.986a.737.737,0,0,0,.736-.735v-1.525a.737.737,0,0,0-.736-.735h-14.986v-54.187a2.773,2.773,0,0,0-2.765-2.765h-2.966a2.773,2.773,0,0,0-2.765,2.765v54.188h-14.987a.738.738,0,0,0-.735.735v1.525a.737.737,0,0,0,.735.735h14.987v9.519c-10.843.819-19.531,4.723-21.968,9.767h52.431C3487.89,1812.07,3479.2,1808.166,3468.359,1807.347Z" transform="translate(-3384.355 -1595.229)" fill="#3a4ace"/>
        <path id="Trazado_20303" data-name="Trazado 20303" d="M3386.123,1650.667a76.486,76.486,0,0,1-6,8.586c-6.6,8.335-13.789,15.207-15.041,21.7a29.452,29.452,0,0,1-1.161,4.158c-.522,1.488-1.169,3.052-1.915,4.67a143.826,143.826,0,0,1-11.175,19.1c-7.231,10.715-14.031,19.656-14.031,19.656l-12.47-.531c.5-1.25,5.938-16.045,13.214-34.126,2.955-7.34,6.1-15.147,9.127-22.676q.606-1.509,1.208-3c.927-2.3,1.839-4.573,2.729-6.781,6.832-16.978,12.274-30.5,12.274-30.5s27.306-10.344,30.141-3.641C3395.361,1632.818,3393.457,1638.232,3386.123,1650.667Z" transform="translate(-3303.405 -1514.791)" fill="#163560"/>
        <path id="Trazado_20304" data-name="Trazado 20304" d="M3303.654,1969.337s-.638,10.29-2.629,10.438c-.265.02-10.1.02-10.1.02l-12.552-.073s.083-3.024,3.751-3.664,9.81-3.218,12.032-8.067C3296.5,1962.889,3303.654,1969.337,3303.654,1969.337Z" transform="translate(-3270.649 -1757.852)" fill="#163560"/>
        <path id="Trazado_20305" data-name="Trazado 20305" d="M3450.732,1875.192s8.674,5.574,7.832,7.384c-.112.241-4.906,8.826-4.906,8.826l-6.182,10.924s-2.6-1.546-1.371-5.062,1.973-10.134-1.178-14.439C3441.613,1878.3,3450.732,1875.192,3450.732,1875.192Z" transform="translate(-3388.851 -1693.105)" fill="#163560"/>
        <path id="Trazado_20306" data-name="Trazado 20306" d="M3330.988,1628.483s-34.274,21.35-38.1,35.7,45.593,44.955,45.593,44.955,5.42-4.783,6.377-8.29c0,0-22.338-26.762-27.183-32.761-2.976-3.684,44-12.754,49.74-21.681s3.685-16.438,3.685-16.438Z" transform="translate(-3280.844 -1517.251)" fill="#1c468a"/>
        <path id="Rectángulo_3991" data-name="Rectángulo 3991" d="M8.881,0H66.366a8.882,8.882,0,0,1,8.882,8.882v1.366a8.883,8.883,0,0,1-8.883,8.883H8.882A8.882,8.882,0,0,1,0,10.249V8.881A8.881,8.881,0,0,1,8.881,0Z" transform="translate(42.132 138.647)" fill="#fb7369"/>
        <path id="Trazado_20307" data-name="Trazado 20307" d="M3468.3,1324.3a19.341,19.341,0,0,0-5.221,4.732c8.211,2.124,21.823-5.485,21.823-5.485a20.139,20.139,0,0,1-7.243-11.354q-.149-.591-.269-1.211a24.675,24.675,0,0,1-.445-4.273l-3.771,3.379-6.272,5.619a53.882,53.882,0,0,0,.927,6.342Q3468.031,1323.1,3468.3,1324.3Z" transform="translate(-3402.305 -1287.893)" fill="#fc9490"/>
        <path id="Trazado_20308" data-name="Trazado 20308" d="M3464.4,1396.684c-1.176,15.819.8,39.868-.532,44.034-1.152,3.6-14.7,1.468-19.94.267-1.938-.444-4.286-1.079-6.711-1.829-6.764-2.095-14.134-5.085-14.924-7.306a1.879,1.879,0,0,1-.073-.255,2.039,2.039,0,0,1,.014-.931c.264-1.131,1.28-2.356,1.4-5.158.134-3.128.114-6.812.231-10.774.006-.446.012-.932.061-1.377l0-.162c0-.085,0-.169.006-.254.113-4.418.344-9.063.613-13.669.17-2.893.367-5.758.594-8.5a113.757,113.757,0,0,1,2.437-17.372,27.9,27.9,0,0,1,8.962-13.833l2.5-2.141a14.433,14.433,0,0,0,9.057-1.206c3.224-1.531,4.337-2.628,4.9-2.214C3460.432,1359.745,3465.787,1377.345,3464.4,1396.684Z" transform="translate(-3373.146 -1321.537)" fill="#3a4ace"/>
        <path id="Trazado_20309" data-name="Trazado 20309" d="M3437.468,1557.009c-6.764-2.095-14.134-5.085-14.925-7.305a1.812,1.812,0,0,1-.073-.255c0-.31.008-.62.014-.931.264-1.132,1.28-2.356,1.4-5.158.134-3.129.114-6.813.231-10.774.006-.446.012-.932.061-1.376l0-.162.006-.253,25.549-11.587S3451.2,1539.8,3437.468,1557.009Z" transform="translate(-3373.36 -1439.358)" fill="#1c468a"/>
        <path id="Trazado_20310" data-name="Trazado 20310" d="M3476.386,1324.1a53.882,53.882,0,0,0,.927,6.342c6.125-1.979,8.9-7.511,9.831-9.857.264-.663.378-1.073.378-1.073l-.647-.138c-.861-.183-2.482-.527-4.216-.893Z" transform="translate(-3411.791 -1296.28)" fill="#ff8585"/>
        <path id="Trazado_20311" data-name="Trazado 20311" d="M3459.862,1282.3s13.456,1.518,14.271-6.876,3.1-13.851-5.454-15.175-10.54,1.716-11.493,4.452S3456.382,1281.693,3459.862,1282.3Z" transform="translate(-3397.746 -1254.549)" fill="#fc9490"/>
        <path id="Trazado_20312" data-name="Trazado 20312" d="M3472.508,1262.644s-.853-11.142-13.1-12.3c-8.389-.79-3.712-8.011-2.818-9.163,0,0,6.427.881,13.016,1.97C3483.433,1245.44,3473.866,1260.909,3472.508,1262.644Z" transform="translate(-3396.179 -1241.185)" fill="#3a4ace"/>
        <g id="Grupo_25986" data-name="Grupo 25986" transform="translate(0 71.495)">
          <rect id="Rectángulo_3992" data-name="Rectángulo 3992" width="1.238" height="32.428" transform="translate(0 0.383) rotate(-17.995)" fill="#4a75cb"/>
          <rect id="Rectángulo_3993" data-name="Rectángulo 3993" width="34.029" height="2.036" transform="translate(9.976 29.189) rotate(-1.224)" fill="#4a75cb"/>
        </g>
        <g id="Grupo_25987" data-name="Grupo 25987" transform="translate(20.942 40.602)">
          <path id="Trazado_20313" data-name="Trazado 20313" d="M3343.793,1582.785s-5.28,2-8.851,1.341-9.327,1.711-10.145,3.078-.411,1.827,1.346,2.073,8.1,2.156,11.91.22a31.9,31.9,0,0,1,9-2.566Z" transform="translate(-3324.393 -1525.28)" fill="#fc9490"/>
          <path id="Trazado_20314" data-name="Trazado 20314" d="M3423.785,1387.64s-1.292,44.071-10.971,49.079c-4.776,2.471-26.34,9.264-32.812,10.424,0,0-1.742-1.119-1.937-6.437,0,0,22.157-11.042,24.927-16.017,4.122-7.4-6.142-27.7-.729-34.828S3417.689,1378.819,3423.785,1387.64Z" transform="translate(-3362.65 -1382.557)" fill="#3a4ace"/>
        </g>
      </g>
      <path id="Trazado_20315" data-name="Trazado 20315" d="M2341.9,2015.311H1652.052a.675.675,0,0,1-.673-.673h0a.675.675,0,0,1,.673-.673H2341.9a.675.675,0,0,1,.673.673h0A.675.675,0,0,1,2341.9,2015.311Z" transform="translate(-1644.802 -1630.875)" fill="#202f4e"/>
    </g>
  </g>
</svg>
