<svg xmlns="http://www.w3.org/2000/svg" width="156" height="156" viewBox="0 0 156 156">
  <g id="Grupo_26660" data-name="Grupo 26660" transform="translate(-456 -8495)">
    <g id="Elipse_994" data-name="Elipse 994" transform="translate(456 8495)" fill="#fff" stroke="#7d58bd" stroke-width="7">
      <circle cx="78" cy="78" r="78" stroke="none"/>
      <circle cx="78" cy="78" r="74.5" fill="none"/>
    </g>
    <g id="Grupo_26654" data-name="Grupo 26654" transform="translate(-65 142.576)">
      <g id="headhunting" transform="translate(556 8387.424)">
        <g id="Grupo_26617" data-name="Grupo 26617" transform="translate(0 0)">
          <path id="Trazado_21180" data-name="Trazado 21180" d="M339.5,194.709H317.763a1.26,1.26,0,1,0,0,2.521H339.5a1.26,1.26,0,1,0,0-2.521Z" transform="translate(-263.734 -161.986)"/>
          <path id="Trazado_21181" data-name="Trazado 21181" d="M339.5,239.922H317.763a1.26,1.26,0,1,0,0,2.521H339.5a1.26,1.26,0,1,0,0-2.521Z" transform="translate(-263.734 -199.601)"/>
          <path id="Trazado_21182" data-name="Trazado 21182" d="M340.757,286.4a1.26,1.26,0,0,0-1.26-1.26H317.763a1.26,1.26,0,1,0,0,2.521H339.5A1.26,1.26,0,0,0,340.757,286.4Z" transform="translate(-263.734 -237.216)"/>
          <path id="Trazado_21183" data-name="Trazado 21183" d="M317.763,330.348a1.26,1.26,0,1,0,0,2.521H328.63a1.26,1.26,0,1,0,0-2.521Z" transform="translate(-263.734 -274.83)"/>
          <path id="Trazado_21184" data-name="Trazado 21184" d="M85.887,14.821,72.893,1.827A6.236,6.236,0,0,0,68.483,0H25.722a6.243,6.243,0,0,0-6.236,6.236v12.9a1.26,1.26,0,0,0,2.521,0V6.236a3.719,3.719,0,0,1,3.715-3.715H68.483a3.71,3.71,0,0,1,.8.087V14.085a4.35,4.35,0,0,0,4.345,4.345H85.1a3.716,3.716,0,0,1,.088.8V79.81a3.72,3.72,0,0,1-3.715,3.715H64.546a5.682,5.682,0,0,0-.705-7.163L52.382,64.9a2.943,2.943,0,0,0-3.092-.679l-2.467-2.467a24.457,24.457,0,1,0-5.61,5.609l2.468,2.468a2.943,2.943,0,0,0,.679,3.092l10.6,10.6H25.722a3.72,3.72,0,0,1-3.715-3.715V75.771a1.26,1.26,0,0,0-2.521,0V79.81a6.243,6.243,0,0,0,6.236,6.236H81.478a6.243,6.243,0,0,0,6.236-6.236V19.231a6.247,6.247,0,0,0-1.826-4.41ZM11.445,63.006a21.933,21.933,0,1,1,32.724-1.915,22.256,22.256,0,0,1-3.621,3.622A21.942,21.942,0,0,1,11.445,63.006ZM43.2,65.777a24.8,24.8,0,0,0,2.04-2.04l2.076,2.076-2.045,2.045-2.075-2.076,0,0ZM57.6,82.6,46.142,71.143a.421.421,0,0,1,0-.6l.017-.017h0L50,66.686a.422.422,0,0,1,.6,0L62.059,78.145A3.152,3.152,0,0,1,57.6,82.6ZM71.8,14.085V4.3L83.411,15.909H73.629A1.826,1.826,0,0,1,71.8,14.085Z" transform="translate(-2.512 0)"/>
          <path id="Trazado_21185" data-name="Trazado 21185" d="M178.171,48.663h-25a2.714,2.714,0,0,0-2.711,2.711V56.2a2.714,2.714,0,0,0,2.711,2.711h25a2.714,2.714,0,0,0,2.711-2.711V51.374a2.714,2.714,0,0,0-2.711-2.711Zm.19,7.541a.19.19,0,0,1-.19.19h-25a.19.19,0,0,1-.19-.19v-4.83a.19.19,0,0,1,.19-.19h25a.19.19,0,0,1,.19.19V56.2Z" transform="translate(-125.592 -40.485)"/>
          <path id="Trazado_21186" data-name="Trazado 21186" d="M66.554,200.237a19.427,19.427,0,1,0-32.94-16.69,1.26,1.26,0,0,0,2.492.381,16.907,16.907,0,1,1,29.433,13.7,5.452,5.452,0,0,0-2.727-2.586,24.553,24.553,0,0,0-5.65-1.284l-.007-1.592a7.4,7.4,0,0,0,2.928-4.794,2.238,2.238,0,0,0,1.376-2.077c-.011-1.67-.01-4.439-.01-6.051a3.1,3.1,0,0,0-2.566-3.045,3.094,3.094,0,0,0-3.031-2.491H49.768a5.7,5.7,0,0,0-5.688,5.688v5.923a2.227,2.227,0,0,0,1.359,2.048,7.413,7.413,0,0,0,2.794,4.691l.007,1.737a24.554,24.554,0,0,0-5.64,1.331,5.316,5.316,0,0,0-2.56,2.438,16.772,16.772,0,0,1-3.878-8.157,1.26,1.26,0,0,0-2.483.432,19.429,19.429,0,0,0,32.875,10.391Zm-16.787-24h6.084a.569.569,0,0,1,.569.569,1.88,1.88,0,0,0,1.878,1.878h.062a.569.569,0,0,1,.569.569v.676l-1.523-.143a7.027,7.027,0,0,0-4.3,1,4.459,4.459,0,0,1-2.329.656H46.6V179.4a3.171,3.171,0,0,1,3.167-3.168ZM46.6,185.056v-1.1h4.179a6.978,6.978,0,0,0,3.646-1.028,4.487,4.487,0,0,1,2.745-.637l1.76.165c0,.776,0,1.8.007,2.593a1.565,1.565,0,0,0-1.291,1.447,4.895,4.895,0,0,1-9.771,0,1.577,1.577,0,0,0-1.275-1.446Zm6.164,8.559a7.408,7.408,0,0,0,1.876-.242l0,.7a2.159,2.159,0,0,0,.209.917,3.85,3.85,0,0,1-2.147.658h-.012a3.85,3.85,0,0,1-2.132-.641,2.159,2.159,0,0,0,.2-.918l0-.754a7.387,7.387,0,0,0,2.006.276ZM42.014,199.5a2.855,2.855,0,0,1,1.621-2.074,20.1,20.1,0,0,1,4.589-1.081,6.354,6.354,0,0,0,4.468,1.822h.019a6.354,6.354,0,0,0,4.488-1.86,20.093,20.093,0,0,1,4.6,1.042,2.876,2.876,0,0,1,1.741,2.219,16.935,16.935,0,0,1-21.524-.069Z" transform="translate(-28.375 -139.002)"/>
        </g>
      </g>
    </g>
  </g>
</svg>
