<svg xmlns="http://www.w3.org/2000/svg" width="156" height="156" viewBox="0 0 156 156">
  <g id="Grupo_26661" data-name="Grupo 26661" transform="translate(-658 -8495)">
    <g id="Elipse_995" data-name="Elipse 995" transform="translate(658 8495)" fill="#fff" stroke="#7d58bd" stroke-width="7">
      <circle cx="78" cy="78" r="78" stroke="none"/>
      <circle cx="78" cy="78" r="74.5" fill="none"/>
    </g>
    <g id="Grupo_26653" data-name="Grupo 26653" transform="translate(-109 140.015)">
      <g id="training" transform="translate(801 8389.985)">
        <path id="Trazado_21187" data-name="Trazado 21187" d="M85.677,68.247a8.671,8.671,0,0,0,.826-.959,9.063,9.063,0,0,0,1.57-7.112l-1.548-6.092a14.669,14.669,0,0,0-9.31-10.207,9.845,9.845,0,1,0-12.734-.864H53.771a4.918,4.918,0,0,0-4.925,4.9,4.814,4.814,0,0,0,.5,2.1h-3.31V32.957l3.892-.774A12.652,12.652,0,0,0,60.1,19.824V5.9a4.925,4.925,0,0,0-9.85,0v11.9a4.217,4.217,0,0,1-4.222,4.2H41.654a9.852,9.852,0,1,0-13.284.431,15.47,15.47,0,0,0-7.482,4.239,9.795,9.795,0,0,0-8.856,17.2,14.674,14.674,0,0,0-9.31,10.207L1.157,60.258a9.032,9.032,0,0,0,1.589,7.029,8.283,8.283,0,0,0,.826.959A2.8,2.8,0,0,0,1,71.023v2.8a2.811,2.811,0,0,0,2.814,2.8H9.444v8.4H6.63v2.8H20.7v-2.8H17.887v-8.4h1.15L20.826,83.4a5.653,5.653,0,0,0,5.5,4.428,5.71,5.71,0,0,0,1.176-.123,5.6,5.6,0,0,0,4.312-6.718L28.565,68.676a11.241,11.241,0,0,0-5.64-7.456H39V87.829H50.253V61.22H66.318a11.16,11.16,0,0,0-5.62,7.394L57.416,81.048a5.539,5.539,0,0,0,.775,4.221,5.6,5.6,0,0,0,3.559,2.438,5.687,5.687,0,0,0,1.169.122,5.63,5.63,0,0,0,5.487-4.367l1.805-6.837h2.557v8.4H69.954v2.8H84.026v-2.8H81.212v-8.4h4.222a2.811,2.811,0,0,0,2.814-2.8v-2.8a2.8,2.8,0,0,0-2.571-2.776ZM64.325,36.012a7.036,7.036,0,1,1,7.036,7A7.027,7.027,0,0,1,64.325,36.012ZM53.782,52.817H67.514l1.769,5.6H19.966l1.769-5.6H53.782ZM36.139,36.874l-1.365,1.358-1.365-1.358.865-12.066h1ZM27.738,15a7.036,7.036,0,1,1,7.036,7,7.027,7.027,0,0,1-7.036-7Zm3.714,9.831L30.51,37.95l4.264,4.243,4.264-4.243-.943-13.142h7.937a7.027,7.027,0,0,0,7.036-7V5.9a2.111,2.111,0,0,1,4.222,0V19.824a9.841,9.841,0,0,1-7.918,9.613l-6.154,1.227V50.016h-3.31a4.814,4.814,0,0,0,.5-2.1,4.918,4.918,0,0,0-4.925-4.9H24.767a9.744,9.744,0,0,0-1.216-15.009A12.663,12.663,0,0,1,31.451,24.836Zm-20.6,11.176a7.036,7.036,0,1,1,7.036,7A7.027,7.027,0,0,1,10.851,36.012Zm4.222,49.016H12.259v-8.4h2.814ZM3.815,73.824v-2.8h6.612l7.147.064.723,2.737Zm22.016-4.5,3.252,12.313a2.8,2.8,0,0,1-2.16,3.327,2.863,2.863,0,0,1-3.359-2.216L20.312,70.435a2.832,2.832,0,0,0-2.752-2.213H10.428a6.61,6.61,0,0,1-5.4-2.574A6.228,6.228,0,0,1,3.9,60.86l1.548-6.091a11.9,11.9,0,0,1,11.556-8.955h18.47a2.1,2.1,0,1,1-.011,4.2h-15.8l-3.977,12.6,1.907.01A8.511,8.511,0,0,1,25.831,69.326Zm21.608,15.7H41.81V61.22h5.629ZM65.67,82.812a2.882,2.882,0,0,1-3.336,2.155,2.8,2.8,0,0,1-1.78-1.22,2.745,2.745,0,0,1-.4-2.049l3.282-12.435a8.488,8.488,0,0,1,8.217-6.64l1.907-.01-3.977-12.6h-15.8a2.1,2.1,0,1,1-.01-4.2h18.47A11.9,11.9,0,0,1,83.8,54.771l1.53,6.007a6.263,6.263,0,0,1-1.107,4.872,6.612,6.612,0,0,1-5.4,2.573H71.689a2.809,2.809,0,0,0-2.737,2.154ZM78.4,85.028H75.583v-8.4H78.4Zm7.036-11.2H70.95l.739-2.8H85.433Z" transform="translate(-0.998 -1)"/>
        <path id="Trazado_21188" data-name="Trazado 21188" d="M49,9h2.814v2.8H49Z" transform="translate(18.549 2.204)"/>
        <path id="Trazado_21189" data-name="Trazado 21189" d="M53,9h2.814v2.8H53Z" transform="translate(20.178 2.204)"/>
        <path id="Trazado_21190" data-name="Trazado 21190" d="M57,9h2.814v2.8H57Z" transform="translate(21.807 2.204)"/>
        <path id="Trazado_21191" data-name="Trazado 21191" d="M66.108,5H49.222A4.217,4.217,0,0,0,45,9.2v5.6A4.217,4.217,0,0,0,49.222,19h4.222V24.28L62.276,19h3.832a4.217,4.217,0,0,0,4.222-4.2V9.2A4.217,4.217,0,0,0,66.108,5Zm1.407,9.8a1.4,1.4,0,0,1-1.407,1.4H61.5l-5.239,3.127V16.2H49.222a1.4,1.4,0,0,1-1.407-1.4V9.2a1.4,1.4,0,0,1,1.407-1.4H66.108a1.4,1.4,0,0,1,1.407,1.4Z" transform="translate(16.92 0.602)"/>
      </g>
    </g>
  </g>
</svg>
