<svg xmlns="http://www.w3.org/2000/svg" xmlns:xlink="http://www.w3.org/1999/xlink" width="914.313" height="512.695" viewBox="0 0 914.313 512.695">
  <defs>
    <linearGradient id="linear-gradient" x1="0.5" y1="0.944" x2="0.5" y2="0.102" gradientUnits="objectBoundingBox">
      <stop offset="0" stop-color="#1f3a65"/>
      <stop offset="1" stop-color="#294a7a"/>
    </linearGradient>
    <linearGradient id="linear-gradient-2" x1="0.5" y1="1.04" x2="0.5" y2="0.166" xlink:href="#linear-gradient"/>
    <linearGradient id="linear-gradient-3" x1="0.5" y1="1.031" x2="0.5" y2="0.253" xlink:href="#linear-gradient"/>
    <linearGradient id="linear-gradient-4" x1="0.703" y1="0.96" x2="0.33" y2="-0.043" gradientUnits="objectBoundingBox">
      <stop offset="0" stop-color="#3855e1"/>
      <stop offset="1" stop-color="#5c7ef7"/>
    </linearGradient>
    <linearGradient id="linear-gradient-5" x1="0.508" y1="0.868" x2="0.491" y2="0.143" gradientUnits="objectBoundingBox">
      <stop offset="0" stop-color="#3f2323"/>
      <stop offset="1" stop-color="#5e3434"/>
    </linearGradient>
    <linearGradient id="linear-gradient-6" x1="0" y1="0.5" x2="1" y2="0.5" xlink:href="#linear-gradient"/>
    <linearGradient id="linear-gradient-7" x1="0.948" y1="-0.448" x2="0.223" y2="0.846" gradientUnits="objectBoundingBox">
      <stop offset="0" stop-color="#e2e8f7"/>
      <stop offset="1" stop-color="#fff"/>
    </linearGradient>
  </defs>
  <g id="Grupo_26220" data-name="Grupo 26220" transform="translate(-55.349 -104)">
    <g id="Grupo_26184" data-name="Grupo 26184" transform="translate(184.16 104.001)">
      <path id="Trazado_20886" data-name="Trazado 20886" d="M829.07,361.494a450.324,450.324,0,0,1-4.814,71.115c-.23,1.589-.483,3.178-.759,4.721-1.7,10.294-3.777,19.9-6.125,28.764q-.622,2.28-1.244,4.491c-9.027,31.551-21.854,52.876-35.534,60.752H205.937s-48.983-42.466-58.817-103.127c-.253-1.543-.483-3.086-.668-4.651-3.823-30.192,2.325-64.575,28.787-100.341,12.068-16.281,27.936-27.612,46.152-35.418,1.427-.6,2.832-1.176,4.283-1.728,27.013-10.57,58.749-13.887,90.621-14.393,1.612-.024,3.224-.047,4.835-.047,18.977-.137,37.907.645,55.847,1.36,1.7.092,3.385.16,5.067.23,28.971,1.22,55.086,2.118,74.04-1.359h.023c1.751-.323,3.408-.692,5.02-1.105h.023c20.981-5.136,31.321-17.042,23.883-42.651-14.418-49.676.345-86.085,32.471-106.19,1.636-1.035,3.339-2.027,5.067-2.97,18.17-9.857,41.13-15.015,67.108-14.945,1.819,0,3.661.046,5.528.092,22.085.668,46.2,5.02,71.23,13.333A226.386,226.386,0,0,1,704.089,133.8c1.427.784,2.855,1.589,4.238,2.418A219.246,219.246,0,0,1,766.2,184.812c1.081,1.243,2.118,2.51,3.155,3.8C810.647,239.506,828.655,305.209,829.07,361.494Z" transform="translate(-145.416 -104.001)" fill="#e4ebf7"/>
      <path id="Trazado_20887" data-name="Trazado 20887" d="M658.027,457.131q-.622,2.28-1.244,4.491a190.7,190.7,0,0,1-26.575-11.883c-42.144-22.891-95.8-73.878-112.063-186.908-7-48.73,1.935-95.135,26.6-137.993,1.427.784,2.855,1.589,4.238,2.418-21.649,37.584-33.808,82.515-26.277,134.907,15.982,111.026,68.351,161.023,109.481,183.407A180.864,180.864,0,0,0,658.027,457.131Z" transform="translate(13.929 -95.037)" fill="#fff"/>
      <path id="Trazado_20888" data-name="Trazado 20888" d="M645.545,408.3c-.23,1.589-.483,3.178-.759,4.721-26.623-12.505-60.176-39.7-75.836-98.751-15.13-57.183-9.1-107.939,18.539-153.768,1.081,1.243,2.118,2.51,3.155,3.8-26.278,44.4-31.873,93.522-17.227,148.794C588.387,369.589,620.1,395.982,645.545,408.3Z" transform="translate(33.295 -79.694)" fill="#fff"/>
      <path id="Trazado_20889" data-name="Trazado 20889" d="M550.13,200.516c2.234,75.031-6.311,123.508-27.705,157.223-22.408,35.328-59.784,56.676-121.2,69.228a168.3,168.3,0,0,1-33.854,3.522c-34.567,0-67.131-11.261-95.664-33.277-33.186-25.632-58.587-64.229-73.165-109.413,1.427-.6,2.832-1.176,4.283-1.728C217.1,330.5,242,368.449,274.536,393.574c36.57,28.257,80.073,38.229,125.764,28.9C514.526,399.1,549.807,345.188,545.524,200.655c-1.22-41.039,5.942-73.418,21.3-96.654,1.819,0,3.661.046,5.528.092C556.37,126.661,548.909,158.994,550.13,200.516Z" transform="translate(-122.564 -104)" fill="#fff"/>
      <path id="Trazado_20890" data-name="Trazado 20890" d="M379.053,351.286a89.922,89.922,0,0,1-14.646,1.2c-36.824,0-78.991-22.316-99.51-85.3,1.612-.024,3.224-.047,4.835-.047,22.615,67.616,71.092,85.763,108.562,79.613,50.62-8.291,99.3-60.406,89.885-140.665-4.055-34.429-4.238-63.814-2.074-88.664,1.636-1.035,3.339-2.027,5.067-2.97-2.51,25.31-2.6,55.478,1.589,91.1C482.5,288.646,431.745,342.651,379.053,351.286Z" transform="translate(-94.018 -99.505)" fill="#fff"/>
      <path id="Trazado_20891" data-name="Trazado 20891" d="M391.477,220.6c-1.773,8.083-4.883,16.327-10.2,23.259-7.071,9.257-17,14.739-29.5,16.283a36.106,36.106,0,0,1-4.421.276,32.23,32.23,0,0,1-21.188-7.945c-8.336-7-14.416-17.871-18.838-29.639,1.7.092,3.385.16,5.067.23,4.1,10.409,9.534,19.828,16.742,25.885a27.847,27.847,0,0,0,22.063,6.632c11.238-1.382,20.1-6.263,26.414-14.485a52.364,52.364,0,0,0,8.821-19.39h.023C388.208,221.382,389.865,221.013,391.477,220.6Z" transform="translate(-75.766 -53.843)" fill="#fff"/>
      <path id="Trazado_20892" data-name="Trazado 20892" d="M281.991,435.219h-5.02c-20.657-47.3-50.435-78.831-88.618-93.776a144.979,144.979,0,0,0-41.545-9.35c-.253-1.543-.483-3.086-.668-4.651a149.878,149.878,0,0,1,43.895,9.718C229.9,352.772,260.8,385.7,281.991,435.219Z" transform="translate(-145.105 -7.882)" fill="#fff"/>
    </g>
    <g id="Grupo_26219" data-name="Grupo 26219" transform="translate(55.349 133.057)">
      <path id="Trazado_20893" data-name="Trazado 20893" d="M463.007,462.485Z" transform="translate(120.015 21.154)" fill="#fff" stroke="#0f22d3" stroke-miterlimit="10" stroke-width="1.61"/>
      <g id="Grupo_26188" data-name="Grupo 26188" transform="translate(122.383 119.471)">
        <g id="Grupo_26186" data-name="Grupo 26186" transform="translate(0 88.66)">
          <g id="Grupo_26185" data-name="Grupo 26185">
            <path id="Trazado_20894" data-name="Trazado 20894" d="M184.334,317.434,170.1,332.1l-5.941-8.728-1.981-2.925c-6.333,1.589-15.683-10.8-19.437-17.411-3.73-6.632,11.238-16.857,11.238-16.857-2.44-7.324-12.251-11.929-12.527-13.956-.277-2,2.164-4.169,11.077,0,8.936,4.192,16.7,19,16.7,19,1.589-4.308-5.458-15.959-4.168-17.272,1.29-1.29,8.2.3,13.518,11.514,5.343,11.238,2.165,24.48,2.165,24.48l.069.116Z" transform="translate(-140.701 -269.845)" fill="#98b2d8"/>
            <path id="Trazado_20895" data-name="Trazado 20895" d="M153.674,280.478s10.575,12.1,9.433,16.846-6.466-.761-6.466-.761,4.894,5.655,3.311,7.527-7.484-2.879-7.484-2.879,7.052,8.78,0,7.484-15.912-14.6-9.107-15.935c0,0-.824-9.685,5.365-6.374C148.725,286.386,145.955,278.313,153.674,280.478Z" transform="translate(-140.921 -265.43)" fill="#b1c3e8"/>
          </g>
          <path id="Trazado_20896" data-name="Trazado 20896" d="M275.01,457.887s11.906-34.775,5.643-69.066a1.345,1.345,0,0,1-.047-.23,1.7,1.7,0,0,0-.046-.276q-.277-1.347-.552-2.694a144.74,144.74,0,0,1-16.444,12.022c-11.446,7.208-26.714,14.369-38.436,11.008-21.51-6.15-52.968-47.971-67.569-81a38.289,38.289,0,0,1,21.879-14.3s29.178,38.874,54.9,48.085a189.732,189.732,0,0,0,24.55-40.693c6.862-15.43,17.156-25.194,30.145-30.445a70.293,70.293,0,0,1,24.572-4.835l22.547-10.525a84.806,84.806,0,0,1,9.35.759c10.57,1.382,28.142,5.252,42.35,16.075,21.879,16.673,53.36,166.112,53.36,166.112Z" transform="translate(-133.763 -267.653)" fill="#b7cae5"/>
          <path id="Trazado_20897" data-name="Trazado 20897" d="M248.722,368.808c-.183-.99-.39-1.981-.6-2.971a144.743,144.743,0,0,1-16.444,12.022l6.656-56.93C245.106,347,248.354,366.482,248.722,368.808Z" transform="translate(-101.879 -247.87)" fill="#97b3d1"/>
          <path id="Trazado_20898" data-name="Trazado 20898" d="M305.959,275.7c-3.478,22.109-25.61,42.536-41.592,42.26-12.85-.232-14.739-18.655-14.877-27.66a70.293,70.293,0,0,1,24.572-4.835l22.547-10.525A84.806,84.806,0,0,1,305.959,275.7Z" transform="translate(-94.217 -267.653)" fill="#ced9ea"/>
          <path id="Trazado_20899" data-name="Trazado 20899" d="M262.223,419.665S313,366.827,315.2,311.268l14.97,46.827-5.756,48.753Z" transform="translate(-88.74 -252.027)" fill="#97b3d1"/>
          <path id="Trazado_20900" data-name="Trazado 20900" d="M278.293,409.645H221.439s.144-7.773,8.924-10.363,14.393-13.529,40.733-12.091Z" transform="translate(-106.284 -219.422)" fill="#98b2d8"/>
          <path id="Trazado_20901" data-name="Trazado 20901" d="M323.106,366.317s-26.784,15.4-68.963,26.344c0,0-5.852,14.1,4.415,25.908h81.6Z" transform="translate(-92.93 -228.346)" fill="#b6c5dd"/>
        </g>
        <g id="Grupo_26187" data-name="Grupo 26187" transform="translate(119.68)">
          <path id="Trazado_20902" data-name="Trazado 20902" d="M235.364,273.006S223.24,256.27,224.73,245s11.922-8.621,11.922-8.621S236.166,209,261.513,216c0,0-.558-8.361,4.976-8.143S280.7,220.8,280.7,220.8s2.154-9.431,5.9-7.2,4.9,11.959,12.733,16.644,12.671,10.749,6.524,29.746-1.535,20.343-3.73,30.1c-2.085,9.265-3.75,14.9-9.5,15.42s-27.76-22.7-27.76-22.7Z" transform="translate(-224.603 -207.853)" fill="#5d7ca0"/>
          <path id="Trazado_20903" data-name="Trazado 20903" d="M294.3,283.44s-14.117,34.244-28.948,31.665c-7.37-1.29-9-5.781-9.074-10.985-.069-6.793,2.58-14.762-1.427-18.1l17.778-25.263,3.916-5.573S281.336,269.047,294.3,283.44Z" transform="translate(-211.591 -187.493)" fill="#98b2d8"/>
          <path id="Trazado_20904" data-name="Trazado 20904" d="M256.279,302.444c-.069-6.793,2.58-14.762-1.427-18.1L272.63,259.08c1.52,1.773,2.6,4.928,3.041,9.88C278.019,295.052,264.225,301.109,256.279,302.444Z" transform="translate(-211.591 -185.817)" fill="#799cbf"/>
          <path id="Trazado_20905" data-name="Trazado 20905" d="M230.919,245.028s4.807,44.112,22.807,54.042c15.643,8.63,34.643-17.471,34.261-30.381,0,0,6.819-5.207,5.681-13.637s-10.05-5.633-11.118,7.95c0,0-7.247-.516-8.587-17.494-4.549,3.767-9.459,2.606-14.616-1.977,0,0-2.56,9.449-15.729-1.593C243.617,241.939,238.649,248.685,230.919,245.028Z" transform="translate(-221.886 -193.19)" fill="#98b2d8"/>
        </g>
      </g>
      <g id="Grupo_26194" data-name="Grupo 26194" transform="translate(500.834 55.266)">
        <g id="Grupo_26189" data-name="Grupo 26189" transform="translate(25.051 275.437)">
          <path id="Trazado_20906" data-name="Trazado 20906" d="M546.9,363.6s23.234,38.766,31.282,57.573H496.252a336.283,336.283,0,0,0-12.877-44.435Z" transform="translate(-397.108 -352.086)" fill="#5d7ca0"/>
          <path id="Trazado_20907" data-name="Trazado 20907" d="M540.892,375.7c-4.484,14.858-11.32,27.542-21.463,37.176l2.77,11.762-99.144-1.223,11.037-67.866Z" transform="translate(-423.056 -355.55)" fill="#799cbf"/>
        </g>
        <g id="Grupo_26190" data-name="Grupo 26190" transform="translate(296.513 41.133)">
          <path id="Trazado_20908" data-name="Trazado 20908" d="M614.768,234.612s3.281-20.554,9.807-27.847,24.372-18.08,26.484-14.242S635.321,208.4,635.321,208.4s8.06-1.919,14.97,9.98-15.353,21.109-15.353,21.109l-4.415,9.98-17.656-11.131Z" transform="translate(-612.867 -191.721)" fill="#799cbf"/>
          <path id="Trazado_20909" data-name="Trazado 20909" d="M632.759,204.08s-9.95,10.116-8.5,13.006,6.939-1.652,6.939-1.652-4.476,6.815-1.008,8.57,8.841-4.13,8.841-4.13-4.476,6.2-1.9,7.331,16.338-8.568,13.876-10.841-3.8-.413-3.8-.413,2.88-4.851,0-6.4a3.322,3.322,0,0,0-4.7,1.342s2.35-3.716.448-5.161-5.931.413-5.931.413S638.342,199.951,632.759,204.08Z" transform="translate(-608.027 -187.015)" fill="#98b2d8"/>
          <path id="Trazado_20910" data-name="Trazado 20910" d="M628.364,203.506c-3.023-.864-9.165,5.422-9.165,5.422-2.415,3.108-2.909,9.3-3.006,12.155-.309,7.975-3.327,12.218-3.327,12.218l8.96,5.649c6.939-8.939,4.668-20.386,3.548-24.436C628.758,209.461,630.168,204.022,628.364,203.506Z" transform="translate(-612.867 -186.687)" fill="#98b2d8"/>
        </g>
        <g id="Grupo_26191" data-name="Grupo 26191" transform="translate(0 83.142)">
          <path id="Trazado_20911" data-name="Trazado 20911" d="M723.349,238.941s-29.939,79.728-77.518,86.8c-21.279,3.155-37.353,3.477-48.592,2.879-13.4-.691-19.99-2.717-20.474-2.856a.022.022,0,0,1-.023-.023s-13.057,24.319-4.605,59.255c8.428,34.913,11.514,42.213,11.514,42.213s-64.138,47.164-116.3,4.215l-47.073-73.188L405.54,335.3s13.542-44.47,51.725-73.371l.023-.024a116.859,116.859,0,0,1,54.3-22.844,138.033,138.033,0,0,1,37.123-.346s10.364,2.925,27.222,9.1c9.073,3.315,20.035,7.576,32.263,12.827,34.936,14.97,44.54,19.436,44.54,19.436s37.216-36.708,46.82-58.977C699.559,221.094,718.742,223.028,723.349,238.941Z" transform="translate(-405.54 -221.094)" fill="#b7cae5"/>
          <path id="Trazado_20912" data-name="Trazado 20912" d="M475.619,259.026c-.172,17.869-3.992,35.181-5.672,48.629l29.585-5.99,46.033,45.512s5.832,13.336-6.041,15.639c-9.3,1.8-52.781,7.852-52.781,7.852-10.02,13.637-14.548,34.5-19.545,54.741l-44.142-76.7Z" transform="translate(-398.005 -204.777)" fill="#97b3d1"/>
          <path id="Trazado_20913" data-name="Trazado 20913" d="M516.816,274.66c-20.61-5.227-31.458-23.767-37.123-40.577a138.033,138.033,0,0,1,37.123-.346s10.364,2.925,27.222,9.1C546.019,257.549,545.3,281.87,516.816,274.66Z" transform="translate(-373.641 -216.12)" fill="#ced9ea"/>
          <path id="Trazado_20914" data-name="Trazado 20914" d="M551.34,273.427s-4.422,17.318-5.6,32.679c-13.4-.691-19.99-2.717-20.474-2.856a.022.022,0,0,1-.023-.023S536.946,283.215,551.34,273.427Z" transform="translate(-354.045 -198.582)" fill="#97b3d1"/>
        </g>
        <g id="Grupo_26192" data-name="Grupo 26192" transform="translate(0 120.911)">
          <rect id="Rectángulo_4155" data-name="Rectángulo 4155" width="57.515" height="84.634" rx="1.946" transform="matrix(0.99, -0.144, 0.144, 0.99, 79.528, 36.324)" fill="#f2f4f9"/>
          <path id="Trazado_20915" data-name="Trazado 20915" d="M481.362,297.72l7.869-3.071s7.484-20.726,16.793-7.677c0,0,6.429-3.837,6.237-5.948s-.289-5.182-.289-5.182,13.027,2.815,10.113,20.982S508.038,312.69,497.1,312.882l-13.627,5.373Z" transform="translate(-372.923 -235.312)" fill="#98b2d8"/>
          <path id="Trazado_20916" data-name="Trazado 20916" d="M519.053,335.244s-61.3,40.578-87.788,21a106.655,106.655,0,0,1-10.985-9.373L405.54,323.936s13.542-44.47,51.725-73.371l.023-.024c12.657-5.685,25.88-3.615,26.561,8.109,1.619,27.931-22.269,45.1-25.225,57.779l54.949-11.122S522.508,314.794,519.053,335.244Z" transform="translate(-405.54 -247.503)" fill="#c1cfe5"/>
        </g>
        <g id="Grupo_26193" data-name="Grupo 26193" transform="translate(108.028)">
          <path id="Trazado_20917" data-name="Trazado 20917" d="M558.623,221.222s8.76-18.717,5.177-29.5-13.331-6.227-13.331-6.227-4.671-26.983-28.249-15.341c0,0-1.024-8.316-6.419-7.062s-11.526,15.387-11.526,15.387-3.889-8.857-7.152-5.967-2.567,12.67-9.376,18.742-10.424,12.94-.815,30.443,5.333,19.692,9.323,28.859c3.79,8.705,6.484,13.927,12.231,13.358s23-27.515,23-27.515Z" transform="translate(-481.075 -162.96)" fill="#5d7ca0"/>
          <path id="Trazado_20918" data-name="Trazado 20918" d="M489.935,243.657s13.552,33.4,34.855,27.933c7.245-1.861,7.288-9.645,6.377-14.769-1.21-6.686-5.309-14.014-2-18.047L506.954,217.3l-4.894-4.738S499.962,227.083,489.935,243.657Z" transform="translate(-477.264 -141.621)" fill="#98b2d8"/>
          <path id="Trazado_20919" data-name="Trazado 20919" d="M526.447,255.4c-1.21-6.686-5.309-14.014-2-18.047l-22.212-21.47c-1.16,2.028-1.63,5.33-1.128,10.276C503.7,252.222,518.392,255.577,526.447,255.4Z" transform="translate(-472.544 -140.196)" fill="#799cbf"/>
          <path id="Trazado_20920" data-name="Trazado 20920" d="M552.708,194.522s3.574,44.23-12.238,57.366c-13.743,11.417-37.31-10.645-39.363-23.4,0,0-7.676-3.831-8.143-12.324s8.811-7.423,12.414,5.718c0,0,7.021-1.871,5.144-18.8,5.177,2.843,9.781.781,13.986-4.69,0,0,4.289,8.8,15.148-4.524C539.656,193.874,545.8,199.566,552.708,194.522Z" transform="translate(-475.968 -149.661)" fill="#98b2d8"/>
        </g>
      </g>
      <g id="Grupo_26200" data-name="Grupo 26200" transform="translate(331.96 126.143)">
        <g id="Grupo_26195" data-name="Grupo 26195" transform="translate(0 107.838)">
          <path id="Trazado_20921" data-name="Trazado 20921" d="M528.648,427.847v.023a30.811,30.811,0,0,1-2.833,7.438c-11.124,20.336-59.3,17-59.3,17H356.548c-45.507,0-63.746-1.128-68.1-15.337a18.447,18.447,0,0,1-.6-2.418c-3.086-16.513,12.274-70.24,40.67-107.087,14.532-18.838,29.546-28.764,42.927-33.947a86.314,86.314,0,0,1,31.989-5.595c13.956,0,25.217,1.035,34.775,3.269,25.654,6.011,39.081,20.519,59.208,46.243C522.038,368.868,534.152,405.785,528.648,427.847Z" transform="translate(-287.461 -287.92)" fill="url(#linear-gradient)"/>
          <path id="Trazado_20922" data-name="Trazado 20922" d="M320.872,398.061c11.933-18.768,15.685-44.8,19-71.227l10.364,53.736h89.815l16.5-53.736c-.389,25.115,3.056,49.746,14.97,73.311C471.525,400.145,412.8,466.6,320.872,398.061Z" transform="translate(-273.088 -271.18)" fill="#1f395e" opacity="0.22" style="mix-blend-mode: multiply;isolation: isolate"/>
          <path id="Trazado_20923" data-name="Trazado 20923" d="M362.436,415.686h-5.964c-45.507,0-63.746-1.128-68.1-15.337-2.371-11.17.645-22.916,14.256-26.415,21.325-5.48,58.448,16.121,58.448,16.121Z" transform="translate(-287.385 -251.302)" fill="url(#linear-gradient-2)"/>
          <path id="Trazado_20924" data-name="Trazado 20924" d="M484.608,392.743s.023,0,0,.023a30.811,30.811,0,0,1-2.833,7.438c-11.124,20.336-59.3,17-59.3,17H389.84l4.146-27.635s57.85-26.784,78.577-18.423C482.7,375.217,485.8,383.693,484.608,392.743Z" transform="translate(-243.42 -252.816)" fill="url(#linear-gradient-3)"/>
          <path id="Trazado_20925" data-name="Trazado 20925" d="M412.949,291.189c-.968,12.92-6.311,36.457-32.333,36.457-27.429,0-33.233-23.192-34.43-34.131a86.314,86.314,0,0,1,31.989-5.595C392.13,287.92,403.392,288.955,412.949,291.189Z" transform="translate(-262.199 -287.92)" fill="#1f395e"/>
        </g>
        <g id="Grupo_26196" data-name="Grupo 26196" transform="translate(57.643 186.414)">
          <path id="Trazado_20926" data-name="Trazado 20926" d="M442.513,405.623H337.154a4.606,4.606,0,0,1-4.607-4.607h0a4.606,4.606,0,0,1,4.607-4.605H442.513a4.606,4.606,0,0,1,4.607,4.605h0A4.606,4.606,0,0,1,442.513,405.623Z" transform="translate(-325.71 -319.827)" fill="#fff"/>
          <path id="Trazado_20927" data-name="Trazado 20927" d="M457.328,349.448l-.392,2.4v.023l-10.915,67.591H338.634l-10.8-70.056a5.683,5.683,0,0,1,5.6-6.54h118.3A5.673,5.673,0,0,1,457.328,349.448Z" transform="translate(-327.766 -342.862)" fill="url(#linear-gradient-4)"/>
          <path id="Trazado_20928" data-name="Trazado 20928" d="M453.494,349.158l-10.915,67.591H335.768l36.2-3.777A97.368,97.368,0,0,0,453.494,349.158Z" transform="translate(-324.324 -340.154)" fill="#3150bc"/>
        </g>
        <g id="Grupo_26199" data-name="Grupo 26199" transform="translate(67.175)">
          <g id="Grupo_26197" data-name="Grupo 26197" transform="translate(28.672 100.168)">
            <path id="Trazado_20929" data-name="Trazado 20929" d="M376.611,320.165H375.9a25.19,25.19,0,0,1-10.363-2.1,18.692,18.692,0,0,1-10.708-17.527c.023-.759.023-1.5.023-2.233.023-6.15-.369-11.263-.369-11.263v-2.763l38.689-1.728a89.375,89.375,0,0,0,1.543,14.486c.023.069.023.114.046.184A19.184,19.184,0,0,1,376.611,320.165Z" transform="translate(-354.479 -282.557)" fill="#feb19e"/>
            <path id="Trazado_20930" data-name="Trazado 20930" d="M394.711,297.043c-16.121,18.93-32.678,7.876-39.863,1.267.023-6.15-.369-11.263-.369-11.263v-2.763l38.689-1.728A89.375,89.375,0,0,0,394.711,297.043Z" transform="translate(-354.479 -282.557)" fill="#ff856a"/>
          </g>
          <g id="Grupo_26198" data-name="Grupo 26198">
            <path id="Trazado_20931" data-name="Trazado 20931" d="M346.662,280.921s12,33.816,32,33.816,28.325-36.414,28.325-36.414V246.657H345.127Z" transform="translate(-329.83 -197.832)" fill="#feb19e"/>
            <path id="Trazado_20932" data-name="Trazado 20932" d="M343.2,257.275s-5.892,1.078-4.884,7.843,7.148,14.97,12.138,10.652Z" transform="translate(-332.809 -193.265)" fill="#feb19e"/>
            <path id="Trazado_20933" data-name="Trazado 20933" d="M393.053,255.3s5.984.267,5.907,7.107-5.047,15.8-10.578,12.2Z" transform="translate(-311.223 -194.116)" fill="#feb19e"/>
            <path id="Trazado_20934" data-name="Trazado 20934" d="M416.261,273.7s-2.08,11.825-4.671,19.31c0,0-4.741-.955-6.276-13.429a16.94,16.94,0,0,1-16.676-7.683s-1.535,9.6-11.419,2.783c-6.59,5.38-14.382,5.947-23.222,2.3,0,0,1.487,12.578-2.736,18.624,0,0-1.535-4.97-6.437-19.078a4.747,4.747,0,0,0-3.45,1.994s-10.6-20.73-5.609-30.71,11.707-6.141,11.707-6.141-2.5-13.625,12.282-18.615,14.776-11.707,17.081-10.363,3.262,6.333,3.262,6.333,25.524-2.687,32.433,24.756c0,0,18.434.589,7.5,31.487C420.028,275.268,419.307,273.988,416.261,273.7Z" transform="translate(-334.431 -212.518)" fill="url(#linear-gradient-5)"/>
          </g>
        </g>
      </g>
      <path id="Trazado_20935" data-name="Trazado 20935" d="M408.632,282.557" transform="translate(96.624 -56.246)" fill="#fff" stroke="#0f22d3" stroke-miterlimit="10" stroke-width="1.61"/>
      <g id="Grupo_26202" data-name="Grupo 26202" transform="translate(280.217 216.066)">
        <path id="Trazado_20936" data-name="Trazado 20936" d="M353.412,275.394H256.963a5.682,5.682,0,0,0-5.682,5.681v57.567a5.682,5.682,0,0,0,5.682,5.682h66.53L340.844,359.7a1.7,1.7,0,0,0,2.74-1.832l-4.69-13.547h14.518a5.682,5.682,0,0,0,5.682-5.682V281.075A5.682,5.682,0,0,0,353.412,275.394Z" transform="translate(-251.281 -275.394)" fill="#9abced" opacity="0.6" style="mix-blend-mode: multiply;isolation: isolate"/>
        <g id="Grupo_26201" data-name="Grupo 26201" transform="translate(11.868 12.372)" style="mix-blend-mode: multiply;isolation: isolate">
          <path id="Trazado_20937" data-name="Trazado 20937" d="M283.313,287.074H261.094a1.514,1.514,0,0,1-1.515-1.515h0a1.514,1.514,0,0,1,1.515-1.515h22.219a1.514,1.514,0,0,1,1.515,1.515h0A1.514,1.514,0,0,1,283.313,287.074Z" transform="translate(-259.579 -284.045)" fill="#9abced"/>
          <path id="Trazado_20938" data-name="Trazado 20938" d="M334.306,296.255H269.921a1.516,1.516,0,0,1-1.515-1.516h0a1.514,1.514,0,0,1,1.515-1.515h64.385a1.514,1.514,0,0,1,1.515,1.515h0A1.516,1.516,0,0,1,334.306,296.255Z" transform="translate(-255.782 -280.096)" fill="#9abced"/>
          <path id="Trazado_20939" data-name="Trazado 20939" d="M338.1,302.788H261.094a1.515,1.515,0,0,1-1.515-1.515h0a1.515,1.515,0,0,1,1.515-1.516H338.1a1.515,1.515,0,0,1,1.515,1.516h0A1.515,1.515,0,0,1,338.1,302.788Z" transform="translate(-259.579 -277.286)" fill="#9abced"/>
          <path id="Trazado_20940" data-name="Trazado 20940" d="M338.1,309.32H261.094a1.514,1.514,0,0,1-1.515-1.515h0a1.516,1.516,0,0,1,1.515-1.516H338.1a1.516,1.516,0,0,1,1.515,1.516h0A1.514,1.514,0,0,1,338.1,309.32Z" transform="translate(-259.579 -274.476)" fill="#9abced"/>
          <path id="Trazado_20941" data-name="Trazado 20941" d="M338.1,315.851H261.094a1.514,1.514,0,0,1-1.515-1.515h0a1.514,1.514,0,0,1,1.515-1.515H338.1a1.514,1.514,0,0,1,1.515,1.515h0A1.514,1.514,0,0,1,338.1,315.851Z" transform="translate(-259.579 -271.666)" fill="#9abced"/>
        </g>
      </g>
      <g id="Grupo_26204" data-name="Grupo 26204" transform="translate(107.363 303.141)">
        <rect id="Rectángulo_4156" data-name="Rectángulo 4156" width="705.095" height="14.969" rx="1.747" transform="translate(0 95.212)" fill="#c1c8d3"/>
        <g id="Grupo_26203" data-name="Grupo 26203" transform="translate(522.484)">
          <path id="Rectángulo_4157" data-name="Rectángulo 4157" d="M0,0H29.938a0,0,0,0,1,0,0V29.2a7.649,7.649,0,0,1-7.649,7.649H7.649A7.649,7.649,0,0,1,0,29.2V0A0,0,0,0,1,0,0Z" transform="translate(6.908 58.293)" fill="url(#linear-gradient-6)"/>
          <path id="Trazado_20942" data-name="Trazado 20942" d="M512.156,394.57v-7.988a2.374,2.374,0,0,1,2.374-2.375h3.023a2.374,2.374,0,0,0,2.374-2.375V378.81a2.375,2.375,0,0,0-2.374-2.376h-9.715a12.089,12.089,0,0,1-12.091-12.089h0a12.091,12.091,0,0,1,12.091-12.091H520.72a2.376,2.376,0,0,0,2.376-2.376V348.8a12.522,12.522,0,0,1,12.521-12.521h0A12.522,12.522,0,0,1,548.139,348.8h0A13.53,13.53,0,0,1,534.61,362.33H511.94a2.375,2.375,0,0,0-2.376,2.374h0a2.376,2.376,0,0,0,2.376,2.376h12.378a8.277,8.277,0,0,1,8.276,8.276v5.182a8.277,8.277,0,0,1-8.276,8.276h0a2.375,2.375,0,0,0-2.375,2.374v3.382Z" transform="translate(-495.748 -336.278)" fill="url(#linear-gradient-7)"/>
        </g>
      </g>
      <g id="Grupo_26218" data-name="Grupo 26218">
        <g id="Grupo_26208" data-name="Grupo 26208" transform="translate(540.647 202.843)">
          <rect id="Rectángulo_4158" data-name="Rectángulo 4158" width="89.527" height="110.254" rx="3.824" transform="translate(0 5.948)" fill="#9abced" opacity="0.6" style="mix-blend-mode: multiply;isolation: isolate"/>
          <path id="Trazado_20943" data-name="Trazado 20943" d="M521.272,378.7H442.684a6.629,6.629,0,0,1-6.622-6.62V272.768a6.629,6.629,0,0,1,6.622-6.62h78.588a6.629,6.629,0,0,1,6.62,6.62v99.316A6.629,6.629,0,0,1,521.272,378.7ZM442.684,268.451a4.322,4.322,0,0,0-4.319,4.318v99.316a4.322,4.322,0,0,0,4.319,4.318h78.588a4.322,4.322,0,0,0,4.318-4.318V272.768a4.322,4.322,0,0,0-4.318-4.318Z" transform="translate(-432.224 -266.148)" fill="#4f7eb7"/>
          <g id="Grupo_26205" data-name="Grupo 26205" transform="translate(13.433 20.308)" style="mix-blend-mode: multiply;isolation: isolate">
            <path id="Trazado_20944" data-name="Trazado 20944" d="M460.236,301.266H442.771V280.348h17.465Zm-15.163-2.3h12.86V282.651h-12.86Z" transform="translate(-442.771 -280.348)" fill="#7ca6d8" opacity="0.71" style="mix-blend-mode: multiply;isolation: isolate"/>
            <path id="Trazado_20945" data-name="Trazado 20945" d="M453.472,294.4l-5.194-5.791,1.713-1.539,3.149,3.515c1.6-2.107,5.512-6.324,12.924-9.376l.877,2.128c-9.25,3.81-12.646,9.616-12.677,9.675Z" transform="translate(-440.402 -279.975)" fill="#ea9ba1"/>
            <path id="Trazado_20946" data-name="Trazado 20946" d="M494.79,286.855H467.7a1.711,1.711,0,0,1-1.711-1.71h0a1.71,1.71,0,0,1,1.711-1.711H494.79a1.71,1.71,0,0,1,1.71,1.711h0A1.711,1.711,0,0,1,494.79,286.855Z" transform="translate(-432.785 -279.02)" fill="#9abced"/>
            <path id="Trazado_20947" data-name="Trazado 20947" d="M494.79,292.662H467.7a1.711,1.711,0,0,1-1.711-1.71h0a1.711,1.711,0,0,1,1.711-1.711H494.79a1.711,1.711,0,0,1,1.71,1.711h0A1.711,1.711,0,0,1,494.79,292.662Z" transform="translate(-432.785 -276.522)" fill="#9abced"/>
          </g>
          <g id="Grupo_26206" data-name="Grupo 26206" transform="translate(13.433 52.357)" style="mix-blend-mode: multiply;isolation: isolate">
            <path id="Trazado_20948" data-name="Trazado 20948" d="M460.236,323.675H442.771V302.757h17.465Zm-15.163-2.3h12.86V305.061h-12.86Z" transform="translate(-442.771 -302.757)" fill="#7ca6d8" opacity="0.71" style="mix-blend-mode: multiply;isolation: isolate"/>
            <path id="Trazado_20949" data-name="Trazado 20949" d="M453.472,316.814l-5.194-5.792,1.713-1.537L453.141,313c1.6-2.108,5.512-6.324,12.924-9.376l.877,2.127c-9.25,3.81-12.646,9.616-12.677,9.675Z" transform="translate(-440.402 -302.384)" fill="#ea9ba1"/>
            <path id="Trazado_20950" data-name="Trazado 20950" d="M494.79,309.264H467.7a1.71,1.71,0,0,1-1.711-1.711h0a1.709,1.709,0,0,1,1.711-1.709H494.79a1.709,1.709,0,0,1,1.71,1.709h0A1.71,1.71,0,0,1,494.79,309.264Z" transform="translate(-432.785 -301.429)" fill="#9abced"/>
            <path id="Trazado_20951" data-name="Trazado 20951" d="M494.79,315.071H467.7a1.709,1.709,0,0,1-1.711-1.709h0a1.71,1.71,0,0,1,1.711-1.71H494.79a1.71,1.71,0,0,1,1.71,1.71h0A1.709,1.709,0,0,1,494.79,315.071Z" transform="translate(-432.785 -298.931)" fill="#9abced"/>
          </g>
          <g id="Grupo_26207" data-name="Grupo 26207" transform="translate(13.433 84.407)" style="mix-blend-mode: multiply;isolation: isolate">
            <path id="Trazado_20952" data-name="Trazado 20952" d="M460.236,346.085H442.771V325.167h17.465Zm-15.163-2.3h12.86V327.47h-12.86Z" transform="translate(-442.771 -325.167)" fill="#7ca6d8" opacity="0.71" style="mix-blend-mode: multiply;isolation: isolate"/>
            <path id="Trazado_20953" data-name="Trazado 20953" d="M453.472,339.224l-5.194-5.791,1.713-1.539,3.149,3.515c1.6-2.107,5.512-6.324,12.924-9.376l.877,2.128c-9.25,3.81-12.646,9.616-12.677,9.675Z" transform="translate(-440.402 -324.794)" fill="#ea9ba1"/>
            <path id="Trazado_20954" data-name="Trazado 20954" d="M494.79,331.674H467.7a1.711,1.711,0,0,1-1.711-1.71h0a1.71,1.71,0,0,1,1.711-1.711H494.79a1.71,1.71,0,0,1,1.71,1.711h0A1.711,1.711,0,0,1,494.79,331.674Z" transform="translate(-432.785 -323.839)" fill="#9abced"/>
            <path id="Trazado_20955" data-name="Trazado 20955" d="M494.79,337.481H467.7a1.711,1.711,0,0,1-1.711-1.71h0a1.711,1.711,0,0,1,1.711-1.711H494.79a1.711,1.711,0,0,1,1.71,1.711h0A1.711,1.711,0,0,1,494.79,337.481Z" transform="translate(-432.785 -321.341)" fill="#9abced"/>
          </g>
        </g>
        <g id="Grupo_26211" data-name="Grupo 26211" transform="translate(816.724 49.485)">
          <rect id="Rectángulo_4159" data-name="Rectángulo 4159" width="89.527" height="110.254" rx="3.824" transform="translate(0 7.432)" fill="#9abced" opacity="0.6" style="mix-blend-mode: multiply;isolation: isolate"/>
          <path id="Trazado_20956" data-name="Trazado 20956" d="M715.65,271.474H637.062a6.628,6.628,0,0,1-6.62-6.62V165.538a6.628,6.628,0,0,1,6.62-6.62H715.65a6.629,6.629,0,0,1,6.622,6.62v99.316A6.629,6.629,0,0,1,715.65,271.474ZM637.062,161.221a4.323,4.323,0,0,0-4.318,4.318v99.316a4.323,4.323,0,0,0,4.318,4.318H715.65a4.322,4.322,0,0,0,4.318-4.318V165.538a4.322,4.322,0,0,0-4.318-4.318Z" transform="translate(-624.683 -158.918)" fill="#4f7eb7"/>
          <g id="Grupo_26210" data-name="Grupo 26210" transform="translate(7.886 18.659)" opacity="0.5" style="mix-blend-mode: multiply;isolation: isolate">
            <circle id="Elipse_987" data-name="Elipse 987" cx="13.818" cy="13.818" r="13.818" transform="translate(0 28.488) rotate(-76.661)" fill="#7ca6d8"/>
            <path id="Trazado_20957" data-name="Trazado 20957" d="M646.109,188.373l9.212-16.408c8.444,2.111,12.474,10.076,8.444,18.232Z" transform="translate(-625.83 -171.965)" fill="#e83f54" style="mix-blend-mode: multiply;isolation: isolate"/>
            <g id="Grupo_26209" data-name="Grupo 26209" transform="translate(3.582 42.988)">
              <path id="Trazado_20958" data-name="Trazado 20958" d="M642.495,206.053a4.03,4.03,0,1,1-4.03-4.03A4.03,4.03,0,0,1,642.495,206.053Z" transform="translate(-634.434 -202.023)" fill="#9abced"/>
              <path id="Trazado_20959" data-name="Trazado 20959" d="M642.495,218.532a4.03,4.03,0,1,1-4.03-4.03A4.029,4.029,0,0,1,642.495,218.532Z" transform="translate(-634.434 -196.655)" fill="#9abced"/>
              <path id="Trazado_20960" data-name="Trazado 20960" d="M687.748,210.083H655.506a4.031,4.031,0,0,1-4.03-4.03h0a4.031,4.031,0,0,1,4.03-4.03h32.242a4.031,4.031,0,0,1,4.03,4.03h0A4.031,4.031,0,0,1,687.748,210.083Z" transform="translate(-627.103 -202.023)" fill="#9abced"/>
              <path id="Trazado_20961" data-name="Trazado 20961" d="M687.748,222.562H655.506a4.03,4.03,0,0,1-4.03-4.03h0a4.031,4.031,0,0,1,4.03-4.03h32.242a4.031,4.031,0,0,1,4.03,4.03h0A4.03,4.03,0,0,1,687.748,222.562Z" transform="translate(-627.103 -196.655)" fill="#9abced"/>
              <path id="Trazado_20962" data-name="Trazado 20962" d="M642.495,231.213a4.03,4.03,0,1,1-4.03-4.03A4.029,4.029,0,0,1,642.495,231.213Z" transform="translate(-634.434 -191.2)" fill="#9abced"/>
              <path id="Trazado_20963" data-name="Trazado 20963" d="M687.748,235.243H655.506a4.03,4.03,0,0,1-4.03-4.03h0a4.031,4.031,0,0,1,4.03-4.03h32.242a4.031,4.031,0,0,1,4.03,4.03h0A4.03,4.03,0,0,1,687.748,235.243Z" transform="translate(-627.103 -191.2)" fill="#9abced"/>
            </g>
          </g>
        </g>
        <g id="Grupo_26213" data-name="Grupo 26213" transform="translate(138.424)">
          <rect id="Rectángulo_4160" data-name="Rectángulo 4160" width="89.527" height="128.678" rx="3.824" transform="translate(6.141 6.14)" fill="#9abced" opacity="0.6" style="mix-blend-mode: multiply;isolation: isolate"/>
          <path id="Trazado_20964" data-name="Trazado 20964" d="M237.347,255.3H158.759a6.628,6.628,0,0,1-6.622-6.62V130.937a6.628,6.628,0,0,1,6.622-6.62h78.588a6.627,6.627,0,0,1,6.62,6.62V248.676A6.627,6.627,0,0,1,237.347,255.3ZM158.759,126.62a4.324,4.324,0,0,0-4.319,4.318V248.676a4.324,4.324,0,0,0,4.319,4.318h78.588a4.324,4.324,0,0,0,4.318-4.318V130.937a4.324,4.324,0,0,0-4.318-4.318Z" transform="translate(-152.137 -124.317)" fill="#4f7eb7"/>
          <g id="Grupo_26212" data-name="Grupo 26212" transform="translate(14.34 23.124)">
            <path id="Rectángulo_4161" data-name="Rectángulo 4161" d="M0,0H4.957a0,0,0,0,1,0,0V17.882A1.208,1.208,0,0,1,3.749,19.09H1.208A1.208,1.208,0,0,1,0,17.882V0A0,0,0,0,1,0,0Z" transform="matrix(0.748, -0.664, 0.664, 0.748, 17.256, 23.851)" fill="#7ca6d8"/>
            <path id="Trazado_20965" data-name="Trazado 20965" d="M175.406,140.486a13.242,13.242,0,1,0,13.242,13.242A13.243,13.243,0,0,0,175.406,140.486Zm0,22.266a9.024,9.024,0,1,1,9.024-9.024A9.028,9.028,0,0,1,175.406,162.752Z" transform="translate(-162.164 -140.486)" fill="#7ca6d8"/>
            <path id="Trazado_20966" data-name="Trazado 20966" d="M215.948,147.028H195.028a2.4,2.4,0,0,1-2.4-2.4h0a2.4,2.4,0,0,1,2.4-2.4h20.919a2.4,2.4,0,0,1,2.4,2.4h0A2.4,2.4,0,0,1,215.948,147.028Z" transform="translate(-149.058 -139.736)" fill="#9abced"/>
            <path id="Trazado_20967" data-name="Trazado 20967" d="M215.948,155.75H195.028a2.4,2.4,0,0,1-2.4-2.4h0a2.4,2.4,0,0,1,2.4-2.4h20.919a2.4,2.4,0,0,1,2.4,2.4h0A2.4,2.4,0,0,1,215.948,155.75Z" transform="translate(-149.058 -135.983)" fill="#9abced"/>
            <path id="Trazado_20968" data-name="Trazado 20968" d="M215.948,163.8H195.028a2.4,2.4,0,0,1-2.4-2.4h0a2.4,2.4,0,0,1,2.4-2.4h20.919a2.4,2.4,0,0,1,2.4,2.4h0A2.4,2.4,0,0,1,215.948,163.8Z" transform="translate(-149.058 -132.52)" fill="#9abced"/>
            <path id="Trazado_20969" data-name="Trazado 20969" d="M201.238,186.413H169a2.734,2.734,0,0,1-2.734-2.734h0A2.734,2.734,0,0,1,169,180.944h32.242a2.734,2.734,0,0,1,2.734,2.734h0A2.734,2.734,0,0,1,201.238,186.413Z" transform="translate(-160.401 -123.082)" fill="#9abced"/>
            <path id="Trazado_20970" data-name="Trazado 20970" d="M201.238,198.39H169a2.735,2.735,0,0,1-2.734-2.736h0A2.734,2.734,0,0,1,169,192.92h32.242a2.734,2.734,0,0,1,2.734,2.734h0A2.735,2.735,0,0,1,201.238,198.39Z" transform="translate(-160.401 -117.93)" fill="#9abced"/>
            <path id="Trazado_20971" data-name="Trazado 20971" d="M201.238,210.366H169a2.734,2.734,0,0,1-2.734-2.734h0A2.734,2.734,0,0,1,169,204.9h32.242a2.734,2.734,0,0,1,2.734,2.734h0A2.734,2.734,0,0,1,201.238,210.366Z" transform="translate(-160.401 -112.778)" fill="#9abced"/>
            <path id="Trazado_20972" data-name="Trazado 20972" d="M211.021,184.176a4.39,4.39,0,1,1-4.389-4.389A4.39,4.39,0,0,1,211.021,184.176Z" transform="translate(-144.924 -123.58)" fill="#9abced"/>
            <path id="Trazado_20973" data-name="Trazado 20973" d="M211.021,196.152a4.39,4.39,0,1,1-4.389-4.389A4.389,4.389,0,0,1,211.021,196.152Z" transform="translate(-144.924 -118.428)" fill="#9abced"/>
            <path id="Trazado_20974" data-name="Trazado 20974" d="M211.021,208.13a4.39,4.39,0,1,1-4.389-4.391A4.389,4.389,0,0,1,211.021,208.13Z" transform="translate(-144.924 -113.276)" fill="#9abced"/>
          </g>
        </g>
        <g id="Grupo_26215" data-name="Grupo 26215" transform="translate(459.18 15.616)">
          <rect id="Rectángulo_4162" data-name="Rectángulo 4162" width="162.934" height="114.572" rx="6.642" transform="translate(0 6.429)" fill="#9abced" opacity="0.6" style="mix-blend-mode: multiply;isolation: isolate"/>
          <path id="Trazado_20975" data-name="Trazado 20975" d="M533.685,252.111H389.751a10.664,10.664,0,0,1-10.652-10.65V145.888a10.665,10.665,0,0,1,10.652-10.652H533.685a10.663,10.663,0,0,1,10.651,10.652v95.573A10.663,10.663,0,0,1,533.685,252.111ZM389.751,137.539a8.359,8.359,0,0,0-8.349,8.349v95.573a8.358,8.358,0,0,0,8.349,8.348H533.685a8.357,8.357,0,0,0,8.348-8.348V145.888a8.358,8.358,0,0,0-8.348-8.349Z" transform="translate(-375.261 -135.236)" fill="#4f7eb7"/>
          <g id="Grupo_26214" data-name="Grupo 26214" transform="translate(16.265 21.398)">
            <path id="Trazado_20976" data-name="Trazado 20976" d="M471.7,158.546H391.961a4.172,4.172,0,0,1-4.173-4.173h0a4.174,4.174,0,0,1,4.173-4.175H471.7a4.175,4.175,0,0,1,4.175,4.175h0A4.174,4.174,0,0,1,471.7,158.546Z" transform="translate(-387.787 -150.198)" fill="#9abced" opacity="0.5" style="mix-blend-mode: multiply;isolation: isolate"/>
            <rect id="Rectángulo_4163" data-name="Rectángulo 4163" width="88.088" height="46.635" rx="2.063" transform="translate(0 23.03)" fill="#7ca6d8" opacity="0.71" style="mix-blend-mode: multiply;isolation: isolate"/>
            <path id="Trazado_20977" data-name="Trazado 20977" d="M484.406,158.546H460.8a4.174,4.174,0,0,1-4.175-4.173h0A4.175,4.175,0,0,1,460.8,150.2h23.6a4.175,4.175,0,0,1,4.175,4.175h0A4.174,4.174,0,0,1,484.406,158.546Z" transform="translate(-358.175 -150.198)" fill="#9abced" opacity="0.5" style="mix-blend-mode: multiply;isolation: isolate"/>
            <path id="Trazado_20978" data-name="Trazado 20978" d="M485.4,173.093h-24.8A2.591,2.591,0,0,1,458,170.5h0a2.59,2.59,0,0,1,2.59-2.59h24.8a2.591,2.591,0,0,1,2.591,2.59h0A2.591,2.591,0,0,1,485.4,173.093Z" transform="translate(-357.583 -142.578)" fill="#9abced" opacity="0.5" style="mix-blend-mode: multiply;isolation: isolate"/>
            <path id="Trazado_20979" data-name="Trazado 20979" d="M485.4,181.279h-24.8a2.592,2.592,0,0,1-2.59-2.591h0a2.591,2.591,0,0,1,2.59-2.591h24.8a2.591,2.591,0,0,1,2.591,2.591h0A2.592,2.592,0,0,1,485.4,181.279Z" transform="translate(-357.583 -139.057)" fill="#9abced" opacity="0.5" style="mix-blend-mode: multiply;isolation: isolate"/>
            <path id="Trazado_20980" data-name="Trazado 20980" d="M485.4,189.464h-24.8a2.591,2.591,0,0,1-2.59-2.591h0a2.59,2.59,0,0,1,2.59-2.59h24.8a2.591,2.591,0,0,1,2.591,2.59h0A2.591,2.591,0,0,1,485.4,189.464Z" transform="translate(-357.583 -135.536)" fill="#9abced" opacity="0.5" style="mix-blend-mode: multiply;isolation: isolate"/>
            <path id="Trazado_20981" data-name="Trazado 20981" d="M485.4,197.65h-24.8a2.592,2.592,0,0,1-2.59-2.591h0a2.591,2.591,0,0,1,2.59-2.591h24.8a2.591,2.591,0,0,1,2.591,2.591h0A2.592,2.592,0,0,1,485.4,197.65Z" transform="translate(-357.583 -132.015)" fill="#9abced" opacity="0.5" style="mix-blend-mode: multiply;isolation: isolate"/>
            <path id="Trazado_20982" data-name="Trazado 20982" d="M494.042,213.734h-91.83a3.455,3.455,0,0,1-3.455-3.454h0a3.456,3.456,0,0,1,3.455-3.455h91.83a3.455,3.455,0,0,1,3.454,3.455h0A3.453,3.453,0,0,1,494.042,213.734Z" transform="translate(-383.069 -125.839)" fill="#9abced" opacity="0.5" style="mix-blend-mode: multiply;isolation: isolate"/>
          </g>
        </g>
        <g id="Grupo_26217" data-name="Grupo 26217" transform="translate(0 149.178)">
          <path id="Rectángulo_4164" data-name="Rectángulo 4164" d="M5.367,0H146.243a5.368,5.368,0,0,1,5.368,5.368v87.14a5.367,5.367,0,0,1-5.367,5.367H5.367A5.367,5.367,0,0,1,0,92.508V5.367A5.367,5.367,0,0,1,5.367,0Z" transform="translate(6.741 6.814)" fill="#9abced" opacity="0.6" style="mix-blend-mode: multiply;isolation: isolate"/>
          <path id="Trazado_20983" data-name="Trazado 20983" d="M200.436,328.8H64.177a8.838,8.838,0,0,1-8.828-8.827V237.452a8.838,8.838,0,0,1,8.828-8.827H200.436a8.839,8.839,0,0,1,8.828,8.827v82.524A8.839,8.839,0,0,1,200.436,328.8ZM64.177,230.928a6.533,6.533,0,0,0-6.526,6.524v82.524a6.531,6.531,0,0,0,6.526,6.523H200.436a6.53,6.53,0,0,0,6.524-6.523V237.452a6.532,6.532,0,0,0-6.524-6.524Z" transform="translate(-55.349 -228.625)" fill="#4f7eb7"/>
          <g id="Grupo_26216" data-name="Grupo 26216" transform="translate(26.99 18.651)" opacity="0.5" style="mix-blend-mode: multiply;isolation: isolate">
            <path id="Trazado_20984" data-name="Trazado 20984" d="M108.241,275.013a19.544,19.544,0,1,1-7.554-32.311l-6.264,18.515Z" transform="translate(-73.931 -241.666)" fill="#7ca6d8"/>
            <path id="Trazado_20985" data-name="Trazado 20985" d="M109.01,259.012a16.465,16.465,0,0,1-4.87,11.716L92.406,259.012l5.319-15.723A16.6,16.6,0,0,1,109.01,259.012Z" transform="translate(-66.398 -240.968)" fill="#e83f54" style="mix-blend-mode: multiply;isolation: isolate"/>
            <path id="Trazado_20986" data-name="Trazado 20986" d="M163.675,281.548H118.768V243.635a1.151,1.151,0,1,1,2.3,0v35.61h42.6a1.151,1.151,0,1,1,0,2.3Z" transform="translate(-55.058 -241.314)" fill="#9abced"/>
            <rect id="Rectángulo_4165" data-name="Rectángulo 4165" width="5.757" height="17.229" transform="translate(73.115 20.701)" fill="#9abced"/>
            <rect id="Rectángulo_4166" data-name="Rectángulo 4166" width="5.757" height="25.97" transform="translate(85.013 11.961)" fill="#e83f54" style="mix-blend-mode: multiply;isolation: isolate"/>
            <rect id="Rectángulo_4167" data-name="Rectángulo 4167" width="5.757" height="12.985" transform="translate(96.72 24.946)" fill="#9abced"/>
            <rect id="Rectángulo_4168" data-name="Rectángulo 4168" width="31.09" height="4.03" rx="1.409" transform="translate(0 53.798)" fill="#9abced"/>
            <rect id="Rectángulo_4169" data-name="Rectángulo 4169" width="31.09" height="4.03" rx="1.409" transform="translate(41.257 53.798)" fill="#9abced"/>
            <rect id="Rectángulo_4170" data-name="Rectángulo 4170" width="31.09" height="4.03" rx="1.409" transform="translate(80.024 53.798)" fill="#9abced"/>
            <path id="Trazado_20987" data-name="Trazado 20987" d="M115.707,293.376H88.648a2.015,2.015,0,0,1-2.015-2.015h0a2.015,2.015,0,0,1,2.015-2.015h27.059a2.014,2.014,0,0,1,2.015,2.015h0A2.015,2.015,0,0,1,115.707,293.376Z" transform="translate(-68.881 -221.155)" fill="#9abced"/>
            <path id="Trazado_20988" data-name="Trazado 20988" d="M142.814,293.376h-27.06a2.015,2.015,0,0,1-2.015-2.015h0a2.015,2.015,0,0,1,2.015-2.015h27.06a2.015,2.015,0,0,1,2.015,2.015h0A2.015,2.015,0,0,1,142.814,293.376Z" transform="translate(-57.221 -221.155)" fill="#9abced"/>
          </g>
        </g>
      </g>
    </g>
  </g>
</svg>
