<svg xmlns="http://www.w3.org/2000/svg" xmlns:xlink="http://www.w3.org/1999/xlink" width="156" height="156" viewBox="0 0 156 156">
  <defs>
    <linearGradient id="linear-gradient" x1="0.5" x2="0.5" y2="1" gradientUnits="objectBoundingBox">
      <stop offset="0" stop-color="#b869c3"/>
      <stop offset="1" stop-color="#4e3160"/>
    </linearGradient>
  </defs>
  <g id="Grupo_26685" data-name="Grupo 26685" transform="translate(-1071 -2274)">
    <g id="Grupo_26684" data-name="Grupo 26684">
      <g id="Grupo_26681" data-name="Grupo 26681" transform="translate(661 -6742)">
        <circle id="Elipse_993" data-name="Elipse 993" cx="78" cy="78" r="78" transform="translate(410 9016)" fill="url(#linear-gradient)"/>
        <circle id="Elipse_998" data-name="Elipse 998" cx="63" cy="63" r="63" transform="translate(425 9031)" fill="#fff"/>
      </g>
    </g>
    <path id="Trazado_21229" data-name="Trazado 21229" d="M-.061.488q-6.592,0-9.619-3.223T-12.708-12.6l7.2-.317a25.5,25.5,0,0,0,.11,2.588,8.945,8.945,0,0,0,.439,2,3.582,3.582,0,0,0,.928,1.5,4.215,4.215,0,0,0,1.587.867,7.842,7.842,0,0,0,2.38.317A5.72,5.72,0,0,0,4.1-7.056a4.95,4.95,0,0,0,1.453-3.711,4.99,4.99,0,0,0-1.392-3.821A5.237,5.237,0,0,0,.427-15.894H-.94v-5.469H.33a3.818,3.818,0,0,0,2.917-1.245,4.44,4.44,0,0,0,1.16-3.149,3.549,3.549,0,0,0-1.27-2.93A5.161,5.161,0,0,0-.208-29.712a5.013,5.013,0,0,0-1.9.33,3.552,3.552,0,0,0-1.282.842,3.725,3.725,0,0,0-.757,1.294,6.8,6.8,0,0,0-.366,1.538A15.358,15.358,0,0,0-4.6-24l-7.1-.342q0-5.542,3.027-8.484t8.4-2.942a12.006,12.006,0,0,1,8.057,2.7,8.449,8.449,0,0,1,3.174,6.7,7.627,7.627,0,0,1-1.355,4.541,7.758,7.758,0,0,1-3.088,2.686,8.694,8.694,0,0,1,2.246,1,9.207,9.207,0,0,1,1.965,1.685,7.517,7.517,0,0,1,1.453,2.563,10.314,10.314,0,0,1,.537,3.418A9.97,9.97,0,0,1,9.216-2.5Q5.725.488-.061.488Z" transform="translate(1149 2369)" fill="#002b45"/>
  </g>
</svg>
