<svg xmlns="http://www.w3.org/2000/svg" width="870.548" height="687.354" viewBox="0 0 870.548 687.354">
  <g id="Grupo_26740" data-name="Grupo 26740" transform="translate(-211 -9284)">
    <g id="Grupo_26739" data-name="Grupo 26739" transform="translate(211 9284)">
      <path id="Trazado_21227" data-name="Trazado 21227" d="M-1411.243,503.118c-25.052.084-50.1.762-75.11,3.892-9.429,1.18-18.66,3.776-28.11,4.823-18.877,2.092-37.416,5.994-56.359,7.794-15.255,1.449-30.574,2.3-45.785,4.143a143.427,143.427,0,0,1-44.2-1.522c-10.477-2.109-21-3.3-31.3-6.683-11.523-3.788-24.041-6.5-36.046-6.4-17.119.139-33.791.156-50.174,6.845-5.751,2.349-12.791,6.209-17.159,11.137-10,11.282-11.351,39.432-1.369,51.133,16.813,19.693,52.7,27.42,76.265,27.785,25.824.4,50.912-1.758,76.775-3.026,24.032-1.179,48-2.856,72.076-2.8,49.164.121,98.335,0,147.409-3.7,46.108-3.472,92.33-2.28,138.54-2.28,47.385,0,94.449.419,141.491,7.506,20.5,3.088,41.38,4.169,61.979,6.332,18.45,1.938,36.179-.038,54.554-1.828a119.02,119.02,0,0,0,44.777-13.5c11.1-5.968,30.878-24.507,34.281-38.752,9.54-39.935-134.443-38.975-156.55-38.885-24.731.1-49.658,1.016-74.369-.045-10.395-.446-20.636-2.732-30.781-5.238-10.1-2.495-20.286-1.861-30.534-2.91-42.734-4.373-85.562-3.734-128.432-3.734C-1383.328,503.209-1397.286,503.071-1411.243,503.118Z" transform="translate(1803.7 78.452)" fill="#b5c8ea" opacity="0.21"/>
      <g id="Grupo_26682" data-name="Grupo 26682" transform="translate(688.725 181.042)">
        <path id="Trazado_21228" data-name="Trazado 21228" d="M-871.458,130.41l2.181-19-20.136-8.819-3.745,8.776,9.482,14.288,2.3,8.693Z" transform="translate(1013.528 -102.59)" fill="#a57767"/>
        <g id="Grupo_26681" data-name="Grupo 26681" transform="translate(0 24.16)">
          <path id="Trazado_21229" data-name="Trazado 21229" d="M-978.879,220.7l-24.373,38.361-15.866,31.07,5.8,12.044,21.106-6.053Z" transform="translate(1027.562 -126.751)" fill="#474ebb"/>
          <g id="Grupo_26680" data-name="Grupo 26680" transform="translate(4.386 15.686)">
            <path id="Trazado_21230" data-name="Trazado 21230" d="M-948.49,356.171V375.6l-25.26,84.172,6.315,87.409-15.787,3.237-25.26-106.834.966-31.432,11.664-64.105Z" transform="translate(1021.99 -142.437)" fill="#5d66d3"/>
            <path id="Trazado_21231" data-name="Trazado 21231" d="M-979.233,548.754l-12.051,13.078,3.481,6.629,24.867-12.238-4.58-9.689Z" transform="translate(1020.074 -142.437)" fill="#12243a"/>
            <path id="Trazado_21232" data-name="Trazado 21232" d="M-936.577,554.726l-14.856,9.576,1.756,7.311,27.06-5.48-2.074-10.555Z" transform="translate(1015.634 -142.437)" fill="#12243a"/>
            <path id="Trazado_21233" data-name="Trazado 21233" d="M-979.469,220.6l37.579-15.285s13.355,34.012,28.538,88.5S-920.4,417.651-920.4,417.651s-86.092-20.979-103.283-24.438l21.563-99.591Z" transform="translate(1023.684 -142.437)" fill="#5d66d3"/>
            <path id="Trazado_21234" data-name="Trazado 21234" d="M-963.518,379.17l25.381,178.056H-926.6l7.286-97.122,15.787-97.122Z" transform="translate(1016.981 -142.437)" fill="#5d66d3"/>
            <g id="Grupo_26679" data-name="Grupo 26679" transform="translate(23.68)">
              <path id="Trazado_21235" data-name="Trazado 21235" d="M-975.346,167.148c10.232.772,19.8-7.843,29.87-5.705,6.548,1.391,11.718,7.346,13.715,14.057a17.212,17.212,0,0,1,.35,9.648,16.208,16.208,0,0,1-2.967,5.455,22.435,22.435,0,0,1-6.149,5.336,41.147,41.147,0,0,0,4.38,5.958l-14.157,5.559-3.128-8.341a20.964,20.964,0,0,1-4.219-.656c-8.378-2.229-15.324-9.752-17.192-18.622A49.881,49.881,0,0,1-975.346,167.148Z" transform="translate(994.636 -142.437)" fill="#a57767"/>
              <path id="Trazado_21236" data-name="Trazado 21236" d="M-975.16,170.314l31.639-3.855,6.14,24.779,8.935-7.27-4.6-40.546-44.65-.986-19.334,11.629.818,11.654,17.287,11.931Z" transform="translate(997.035 -142.437)" fill="#292949"/>
            </g>
            <path id="Trazado_21237" data-name="Trazado 21237" d="M-963,211.292l37.579-15.285s13.355,34.013,28.538,88.5-7.05,123.838-7.05,123.838-77.012-39.016-94.2-42.476l12.484-81.553Z" transform="translate(1020.838 -142.437)" fill="#fff"/>
            <path id="Trazado_21238" data-name="Trazado 21238" d="M-893.179,285.667c-15.183-54.484-28.331-88.553-28.331-88.553L-959.3,212.456l-.06.2c.833,2.226,1.7,4.44,2.456,6.7a158.159,158.159,0,0,1,6.528,27.39c2.375,16.371,2.625,33.2,2.115,49.723a332.127,332.127,0,0,1-4.83,47.282,326.2,326.2,0,0,1-16.881,60.2c34.953,7.282,76.088,15.892,76.088,15.892S-878,340.151-893.179,285.667Z" transform="translate(1017.7 -142.437)" fill="#5d66d3"/>
          </g>
          <path id="Trazado_21239" data-name="Trazado 21239" d="M-921.463,201.754l33.129-16.273-.035-54.8,14.339-3.929,16.083,64.416-5.5,9.518-47,37.362Z" transform="translate(1016.681 -126.751)" fill="#5d66d3"/>
          <path id="Trazado_21240" data-name="Trazado 21240" d="M-1000.267,270.615l3.745-45.527h-18.189l-13.909,62.531,9.629,19.2,15.485-7.76Z" transform="translate(1028.62 -126.751)" fill="#474ebb"/>
        </g>
      </g>
      <path id="Trazado_21241" data-name="Trazado 21241" d="M-1445.571,236.5l11.1,5.4,16.511,54.719,36.071,26.067-8.461,9.369-42.2-19.4-10.321-23.137Z" transform="translate(1763.799 78.452)" fill="#474ebb"/>
      <g id="Grupo_26687" data-name="Grupo 26687" transform="translate(238.385 249.229)">
        <g id="Grupo_26683" data-name="Grupo 26683" transform="translate(59.071 290.424)">
          <path id="Trazado_21242" data-name="Trazado 21242" d="M-1435.8,558.824l-11.711-11.091c-3.4-1.763-6.992-2.994-9.9-2.956a5.554,5.554,0,0,0-4.929,2.369,5.948,5.948,0,0,0-.53,5.348,7.268,7.268,0,0,0,1.017,1.688h0l.006.007c.348.447.729.872,1.11,1.29.242.267.508.553.793.851,2.423,2.693,6.483,7.079,8.1,8.071,2.365,1.454,7.566,5.333,13.714.97-.023-.021-.049-.041-.072-.062A6.155,6.155,0,0,0-1435.8,558.824Z" transform="translate(1468.317 -461.202)" fill="#292949"/>
          <path id="Trazado_21243" data-name="Trazado 21243" d="M-1445.625,462.237l-.945,13.918-4.639,67.757,4.639,7.882s.945,6.3-6.148,5.819c-2.109-.145-9.583-9.887-9.583-9.887l1.081-4.465-5.26-50.875.049-14.777-2.516-16.407Z" transform="translate(1468.948 -461.202)" fill="#eacab0"/>
        </g>
        <g id="Grupo_26684" data-name="Grupo 26684" transform="translate(0 370.411)">
          <path id="Trazado_21244" data-name="Trazado 21244" d="M-1527.267,541.618c-2.181-.7-4.211-.6-5.839.728a6.355,6.355,0,0,0-2.3,5.306,11.65,11.65,0,0,0,1.207,3.8c2.828,6.285,10.76,20.494,19.86,17.89,3.824-1.095,5.272-5.1,4.5-8.634C-1511.016,555.382-1519.978,543.969-1527.267,541.618Z" transform="translate(1535.426 -541.189)" fill="#292949"/>
        </g>
        <path id="Trazado_21245" data-name="Trazado 21245" d="M-1481.108,454.11l-1.584,20.04-38.368,70.83s5.515,9.879,2.017,10.737-13.755-2.134-13.777-13.289c4.034-13.51,19.89-59.383,19.89-59.383l7.425-11.838-.109-22.246Z" transform="translate(1535.136 -170.778)" fill="#eacab0"/>
        <path id="Trazado_21246" data-name="Trazado 21246" d="M-1523.412,387.026c-.3-5.908,1.54-21.321,3.432-26.845,6.9-20.139,8.234-30.065,8.234-46.457s-7.094-68.367-7.094-68.367l24.643-15.166,29.541.85,16.4,5.547s3.473,65.39,4.459,86.467c.7,15.04,1.722,28.066,3.063,45.493,0,0,3.761,39.749-2.049,82.359,0,0-1.3,14.149-1.878,15.389-.076.421-.12.646-.12.646H-1510.7V442.66q-3.28-11.691-6.255-23.472C-1519.486,409.212-1522.851,397.99-1523.412,387.026Z" transform="translate(1534.091 -170.778)" fill="#e6e1e1"/>
        <path id="Trazado_21247" data-name="Trazado 21247" d="M-1509.64,234.771l-11.214,8.647s8.531,59.86,8.985,70.306-12.674,52.188-12.674,52.188l54.383,7.273s8-44.579,10.3-66.725-30.6-76.134-30.6-76.134Z" transform="translate(1534.213 -170.778)" fill="#474ebb"/>
        <path id="Trazado_21248" data-name="Trazado 21248" d="M-1447.74,233.72l11.1,5.4s-1.561,66.544,1.284,83.446c1.735,10.3,8.489,43.665,8.489,43.665l-17.562,6.162s-10.811-41.732-12.96-63.878.192-77.219.192-77.219Z" transform="translate(1526.833 -170.778)" fill="#474ebb"/>
        <g id="Grupo_26686" data-name="Grupo 26686" transform="translate(28.938)">
          <g id="Grupo_26685" data-name="Grupo 26685">
            <path id="Trazado_21249" data-name="Trazado 21249" d="M-1450.289,209.343c1.441,5.718-1.867,11.366-4.761,16.188-1.183,1.97-3.016,4.711-1.49,6.96,1.709,2.518,5.952,2.013,7.819.131a11.808,11.808,0,0,0,2.528-4.889c2.519-7.874,6.037-18.9,5.349-27.181-.552-6.637-8.49-18.424-16.667-14.207a8.642,8.642,0,0,0-3.251,3.618,6.935,6.935,0,0,0-1.052,2.693c-.386,3.842,3.229,4.831,5.6,6.9A19.486,19.486,0,0,1-1450.289,209.343Z" transform="translate(1498.289 -170.778)" fill="#292949"/>
            <path id="Trazado_21250" data-name="Trazado 21250" d="M-1466.632,229.882c5.461-.712,10.027-4.626,12.47-9.339s3.027-10.134,2.931-15.422c-.318-17.6-23.075-18.573-31.922-5.928C-1490.866,210.213-1482.512,231.95-1466.632,229.882Z" transform="translate(1500.988 -170.778)" fill="#eacab0"/>
            <path id="Trazado_21251" data-name="Trazado 21251" d="M-1484.038,207.5c-.187,2.13-1.245,4.39-1.536,6.579-.537,4.029.343,9.258-1.1,12.94a23.972,23.972,0,0,1-11.8-5.927c-3.019-2.868-2.477-7.131-3.151-11.355-.625-3.907-1.42-7.833-1.2-11.786,1.192-21.641,22.253-33.475,40.81-23.713,7.02,3.694,10.09,13.08,4.926,19.247-5.554,6.633-16.839,3.757-23.491,8.679A11.655,11.655,0,0,0-1484.038,207.5Z" transform="translate(1502.859 -170.778)" fill="#292949"/>
          </g>
          <path id="Trazado_21252" data-name="Trazado 21252" d="M-1465.2,228.066q-.416,1.965-.831,3.93c-.127.6-.079,2.32-.584,2.732a1.317,1.317,0,0,1-1,.139c-.986-.124-9.819-1.277-9.722-1.853a32.486,32.486,0,0,1,1.016-4.531c.38-1.192.525-3.433,1.225-4.337a15.7,15.7,0,0,0,4.818,2.216q2.558.744,5.14,1.4Z" transform="translate(1500.016 -170.778)" fill="#eacab0"/>
        </g>
      </g>
      <g id="Grupo_26706" data-name="Grupo 26706" transform="translate(38.483 232.306)">
        <g id="Grupo_26704" data-name="Grupo 26704">
          <g id="Grupo_26690" data-name="Grupo 26690" transform="translate(35.17 306.528)">
            <g id="Grupo_26688" data-name="Grupo 26688" transform="translate(11.037 85.611)">
              <path id="Trazado_21253" data-name="Trazado 21253" d="M-1699.364,548.009a4.882,4.882,0,0,0-4.468-1.963,5.066,5.066,0,0,0-3.753,2.9,10.055,10.055,0,0,0-.643,3.3c-.468,5.808-.426,19.6,7.12,21.585,3.171.834,5.8-1.477,6.641-4.4C-1693.19,565.032-1695.079,552.847-1699.364,548.009Z" transform="translate(1708.391 -545.992)" fill="#292949"/>
            </g>
            <g id="Grupo_26689" data-name="Grupo 26689">
              <path id="Trazado_21254" data-name="Trazado 21254" d="M-1698.064,460.382l-.395,35.43c.459,15.737-1.937,31.561-1.478,47.3.106,3.619,1.025,7.436.136,11.023-.87,3.509-3.65,4.129-6.5,2.352-3.824-2.38-3.208-7.939-3.845-11.994-1.75-11.144-3.8-22.237-5.629-33.368-.9-5.457.951-13.1.549-18.627l-5.582-29.692Z" transform="translate(1720.812 -460.382)" fill="#eacab0"/>
            </g>
          </g>
          <g id="Grupo_26691" data-name="Grupo 26691" transform="translate(18.438 200.98)">
            <path id="Trazado_21255" data-name="Trazado 21255" d="M-1739.643,403.136l15.039,68.5,3.195,64.685,23.847-.549,6.484-180.935-46.228.861Z" transform="translate(1739.643 -354.834)" fill="#e6e1e1"/>
          </g>
          <g id="Grupo_26696" data-name="Grupo 26696" transform="translate(58.384 202.295)">
            <g id="Grupo_26694" data-name="Grupo 26694" transform="translate(18.39 109.207)">
              <g id="Grupo_26692" data-name="Grupo 26692" transform="translate(3.876 79.571)">
                <path id="Trazado_21256" data-name="Trazado 21256" d="M-1660.936,546.722a4.778,4.778,0,0,0-4.535-1.7,5.191,5.191,0,0,0-3.619,3.127,10.184,10.184,0,0,0-.5,3.34c-.225,5.842.393,19.641,8,21.172,3.2.643,5.714-1.828,6.436-4.8C-1654.073,563.385-1656.464,551.3-1660.936,546.722Z" transform="translate(1669.63 -544.927)" fill="#e6e1e1"/>
              </g>
              <g id="Grupo_26693" data-name="Grupo 26693">
                <path id="Trazado_21257" data-name="Trazado 21257" d="M-1673.992,465.356l2.023,35.371c.165,9.831,1.443,19.584,2.436,29.348.922,9.069-.513,18.515,4.11,26.764,1.45,2.587,4.38,4.309,6.427,1.166,1.578-2.422.641-6.462.944-9.209,1.235-11.215,2.775-22.393,4.089-33.6.643-5.494-1.552-13.045-1.4-18.58l4.211-29.927Z" transform="translate(1673.992 -465.356)" fill="#e6e1e1"/>
              </g>
            </g>
            <g id="Grupo_26695" data-name="Grupo 26695">
              <path id="Trazado_21258" data-name="Trazado 21258" d="M-1646.12,398.947l1.941,66.491-10.177,67.239-24.257.744,1.071-72.769-12.836-60.347-4.309-39.5,38.49-4.655Z" transform="translate(1694.688 -356.149)" fill="#e6e1e1"/>
            </g>
          </g>
          <g id="Grupo_26697" data-name="Grupo 26697" transform="translate(10.994 65.203)">
            <path id="Trazado_21259" data-name="Trazado 21259" d="M-1682.51,220.072l-41.467-1.015-22.83,12.239-1.212,33.607,8.545,42.941,1.522,51.388,59.151.828,19.463-3.24-5.168-54.907,2.963-73.346Z" transform="translate(1748.02 -219.057)" fill="#292949"/>
          </g>
          <g id="Grupo_26698" data-name="Grupo 26698" transform="translate(78 74.712)">
            <path id="Trazado_21260" data-name="Trazado 21260" d="M-1672.612,247.851l21.6,44.273,23.289,4.745,46.63-7.311-5.721-14.955h-42.759l-24.146-46.037Z" transform="translate(1672.612 -228.566)" fill="#292949"/>
          </g>
          <g id="Grupo_26703" data-name="Grupo 26703">
            <g id="Grupo_26699" data-name="Grupo 26699" transform="translate(38.003 19.487)">
              <path id="Trazado_21261" data-name="Trazado 21261" d="M-1681.721,184.45c-6.251-18.635-30.244-11.652-35.191,4.941-3.226,10.823,4.926,24.869,15.864,27.977a11.426,11.426,0,0,1,.086,1.162,37.126,37.126,0,0,0,.467,5.186c.093.647,9.666-1.239,10.733-1.454a1.44,1.44,0,0,0,.991-.5c.386-.616-.241-2.431-.312-3.116l-.248-2.425c5.4-2.7,8.8-8.451,9.75-14.306C-1678.624,196.032-1679.842,190.049-1681.721,184.45Z" transform="translate(1717.624 -173.341)" fill="#eacab0"/>
            </g>
            <g id="Grupo_26702" data-name="Grupo 26702">
              <g id="Grupo_26700" data-name="Grupo 26700" transform="translate(55.802 11.115)">
                <path id="Trazado_21262" data-name="Trazado 21262" d="M-1695.142,167.611a9.886,9.886,0,0,0-2.163,5,7.993,7.993,0,0,0-.188,3.24c.891,4.23,4.983,4.009,8.147,5.373a21.269,21.269,0,0,1,9.454,8.342c3.421,5.583,1.882,12.766.494,18.925-.489,2.17-1.473,5.4.169,7.332,1.668,1.966,5.522,1.663,7.521.651,1.825-.925,3.324-2.635,5.329-2.979,2.121-.365,4.988.592,5.975-1.4a13.722,13.722,0,0,1,.648-1.742c1.172-1.719,4.087.294,5.739-.918,1.016-.745,1.009-2.333.665-3.59s-.922-2.53-.682-3.808a12.681,12.681,0,0,1,1.456-2.966,5.963,5.963,0,0,0-.787-6.213c-2.612-3.1-7.668-2.511-10.467-5.427-1.458-1.519-2.023-3.709-2.567-5.783s-1.2-4.259-2.755-5.664c-1.926-1.736-4.706-1.441-6.6-3.5-1.117-1.21-1.861-2.784-3.114-3.836-1.651-1.388-4.879-2.454-6.933-3.162A8.857,8.857,0,0,0-1695.142,167.611Z" transform="translate(1697.594 -164.969)" fill="#292949"/>
              </g>
              <g id="Grupo_26701" data-name="Grupo 26701">
                <path id="Trazado_21263" data-name="Trazado 21263" d="M-1717.315,197.348c-.112,6.134,2.859,12.764.1,18.163-2.781,5.448-9.713,6.431-15.621,6.715-.972.047-13.441,1.151-13.494.908-.934-4.272-1.9-8.629-4.077-12.38s-5.818-6.859-9.989-7.126c1.2-.214,1.81-1.724,1.671-3a20.589,20.589,0,0,0-1.153-3.644,8.737,8.737,0,0,1,2.186-8.627c4.411-4.215,12.408-2.464,16.189-7.3,2.345-3,2.065-7.357,3.294-11.022,2.376-7.087,9.943-8.57,15.6-11.77,5.97-3.379,11.593-5.23,18.484-4.053,8.543,1.46,14.893,10.377,11.6,18.769-4.226,10.763-21.12,9.834-24.283,20.762A13.822,13.822,0,0,0-1717.315,197.348Z" transform="translate(1760.392 -153.854)" fill="#292949"/>
              </g>
            </g>
          </g>
        </g>
        <g id="Grupo_26705" data-name="Grupo 26705" transform="translate(47.303 65.203)">
          <path id="Trazado_21264" data-name="Trazado 21264" d="M-1707.158,219.829l12.864,18.642,6.048-.507,10.079-18.906Z" transform="translate(1707.158 -219.057)" fill="#eff0f0"/>
        </g>
      </g>
      <g id="Grupo_26713" data-name="Grupo 26713" transform="translate(434.1 215.405)">
        <path id="Trazado_21265" data-name="Trazado 21265" d="M-1206.5,224.976l-54.335,40.653-47.382-20.99-6.954,13.107,35.885,25.06,20.116,7.709,52.669-26Z" transform="translate(1315.172 -136.954)" fill="#292949"/>
        <g id="Grupo_26712" data-name="Grupo 26712" transform="translate(64.066 16.011)">
          <g id="Grupo_26709" data-name="Grupo 26709" transform="translate(10.216 172.688)">
            <g id="Grupo_26707" data-name="Grupo 26707">
              <path id="Trazado_21266" data-name="Trazado 21266" d="M-1230.487,334.34l-1.088,96.475,10.028,124.193h13.634l16.314-114.579,18.657-114.776Z" transform="translate(1231.575 -325.653)" fill="#d67086"/>
              <path id="Trazado_21267" data-name="Trazado 21267" d="M-1207.808,560.9l-14.744,7.558-7.372-7.558,7.372-7.558h14.744Z" transform="translate(1231.391 -325.653)" fill="#3b3631"/>
            </g>
            <g id="Grupo_26708" data-name="Grupo 26708" transform="translate(37.02)">
              <path id="Trazado_21268" data-name="Trazado 21268" d="M-1132.368,334.34l.268,55.814-9.2,164.854h-13.634l-22.808-109.4-12.176-119.959Z" transform="translate(1189.913 -325.653)" fill="#d67086"/>
              <path id="Trazado_21269" data-name="Trazado 21269" d="M-1150.455,560.9l14.744,7.558,7.372-7.558-7.372-7.558h-14.744Z" transform="translate(1185.517 -325.653)" fill="#12243a"/>
            </g>
          </g>
          <path id="Trazado_21270" data-name="Trazado 21270" d="M-1124.113,367.947c.292,8.855.1,20.7-3.531,21.143a3.524,3.524,0,0,1-1.937-.524c-6.323-3.15-10.83-7.6-17.064-10.646-6.533-3.189-13.957-4.857-21.213-6.01a215.343,215.343,0,0,0-32.716-2.936c-9.361-.085-19.1,4.293-27.946,6.7-3.407.927-6.177,3.473-9.008,5.469-4.18,2.948-6.013,4.116-5.443-1.908.93-9.831,1.9-19.659,3.075-29.461,2.353-19.552,5.555-39.058,10.973-57.985,2.07-7.231,4.458-14.361,6.846-21.489q4.36-13.018,8.72-26.037c3.612-10.787,9.71-18.386,20.386-22.16,9.227-3.261,20.688-4.153,29.663.412,9.976,5.074,14.72,22.361,19.567,31.6,4.247,8.095,9.6,30.175,11.191,38.9,1.913,10.5,3.681,20.959,5.072,31.386a329.583,329.583,0,0,1,2.943,34.51C-1124.5,360.18-1124.251,363.719-1124.113,367.947Z" transform="translate(1243.072 -152.965)" fill="#d67086"/>
          <path id="Trazado_21271" data-name="Trazado 21271" d="M-1170.253,224.041l-18.424.181s-19.771,70.841-20.5,83.051c-.713,11.986-5.71,60.586-5.71,60.586s20.4.493,43.916,3.43c22.983,5.043,24.915,2.061,24.915,2.061s-12.4-51.081-12.816-65.757c-.42-15.011-2.294-64.589-2.294-64.589Z" transform="translate(1239.932 -152.965)" fill="#fff"/>
          <g id="Grupo_26711" data-name="Grupo 26711" transform="translate(29.335)">
            <path id="Trazado_21272" data-name="Trazado 21272" d="M-1178.974,224.409a2.163,2.163,0,0,0,.753.442,4.07,4.07,0,0,0,1.792.05l7.312-.887c-.8-7.653,3.559-9.384,7.811-14.305,4.309-4.99,2.983-11.717,2.74-17.823a13.31,13.31,0,0,0-.851-5c-1.231-2.707-4.1-4.2-6.878-5.088-7.1-2.262-15.218-1.705-21.468,2.421a11.506,11.506,0,0,0-4.118,4.283c-1.39,2.784-1.037,6.107-.649,9.21a31.576,31.576,0,0,0,4.6,13.47c2.45,3.744,7.121,5.537,7.658,10.031A5.152,5.152,0,0,0-1178.974,224.409Z" transform="translate(1208.145 -152.965)" fill="#eacab0"/>
            <g id="Grupo_26710" data-name="Grupo 26710">
              <path id="Trazado_21273" data-name="Trazado 21273" d="M-1192.992,192.173c.415,1.923,1.289,3.869.833,5.781-2.979-1.036-4.925-4.161-5.98-7.336a11.472,11.472,0,0,1-.706-4.487,5.367,5.367,0,0,1,1.938-3.914c1.637-1.2,4.572-.73,5.041,1.447C-1191.393,185.859-1193.615,189.28-1192.992,192.173Z" transform="translate(1208.812 -152.965)" fill="#3b3631"/>
              <path id="Trazado_21274" data-name="Trazado 21274" d="M-1210.054,175.281a6.9,6.9,0,0,1,2.935-5.754c1.732-1.2,3.728-2.193,4.779-4.1.817-1.479.937-3.31,1.745-4.794,1.465-2.686,4.645-3.477,7.41-4.388,6.918-2.278,10.643-4.908,17.972-1.992,5.211,2.074,11.943,2.352,16.778,5.377a17.191,17.191,0,0,1,5.148,5.552c4.885,7.831,6.057,18.843,2.875,27.011a33.567,33.567,0,0,1-2.584,5.119c-1.934,3.219-4.007,7.18-7.431,8.756-.216-1.517-1.318-2.354-1.663-3.844a12.07,12.07,0,0,1-.11-3.3c.211-4.295,1.495-11.085-2.688-13.215-5.29-2.693-15.212-.264-20.306,2.016-4.508,2.017-12.115,4.641-16.921,2.481C-1206.578,188.2-1210.2,180.2-1210.054,175.281Z" transform="translate(1210.059 -152.965)" fill="#292949"/>
            </g>
          </g>
        </g>
        <path id="Trazado_21275" data-name="Trazado 21275" d="M-1158.006,221.535l46.773-14.134-17.313-59.957,14.267-10.492,34.438,69.408-9.523,24.036-44.689,23.651Z" transform="translate(1297.661 -136.954)" fill="#d67086"/>
      </g>
      <path id="Trazado_21276" data-name="Trazado 21276" d="M-1376.7,321.708l7.353,2.848-6.483,10.71-9.54.208-4.3-7.066Z" transform="translate(1757.571 78.452)" fill="#eacab0"/>
      <path id="Trazado_21277" data-name="Trazado 21277" d="M-1390.11-38.932c-1.306.233-2.593.513-3.863.831-8.69-24.892-33.972-40.505-60.427-35.791a53.981,53.981,0,0,0-30.366,16.714,56.552,56.552,0,0,0-54.039-20.391c-31.152,5.55-52.049,35.752-46.676,67.458a59.623,59.623,0,0,0,1.309,5.9c-1.295.14-2.593.321-3.894.553-31.151,5.55-52.049,35.752-46.676,67.458s34.984,52.909,66.136,47.359l197.955-35.27c31.152-5.551,52.049-35.753,46.676-67.459S-1358.958-44.482-1390.11-38.932Z" transform="translate(1784.969 78.452)" fill="#b5c8ea"/>
      <path id="Trazado_21278" data-name="Trazado 21278" d="M-1512.326-68.921a54.209,54.209,0,0,0-17.014.334c-30.061,5.356-50.226,34.5-45.04,65.095a57.519,57.519,0,0,0,1.263,5.691c-1.249.134-2.5.309-3.757.533-30.061,5.356-50.226,34.5-45.041,65.1a56.241,56.241,0,0,0,11.905,26.3c-6.312-24.624-10.684-73.007,48.376-82.327C-1565-4.408-1570.828-56.074-1512.326-68.921Z" transform="translate(1783.537 78.452)" fill="#fff" opacity="0.6"/>
      <path id="Trazado_21279" data-name="Trazado 21279" d="M-1529.514,106.3l170.681-30.41c31.152-5.551,52.049-35.753,46.676-67.459a58.721,58.721,0,0,0-6.545-18.712C-1343.192,70.668-1469.743,86.436-1529.514,106.3Z" transform="translate(1773.152 78.452)" fill="#292949" opacity="0.1"/>
      <g id="Grupo_26714" data-name="Grupo 26714" transform="translate(219.006 150.717)">
        <path id="Trazado_21280" data-name="Trazado 21280" d="M-1490.806,124.84l-8.911-52.575-46.483,8.282,5.383,31.764h0l.49,2.891,3.037,17.92-19.945,3.554,50.637,36.26,35.737-51.65Z" transform="translate(1557.235 -72.266)" fill="#d67086"/>
        <path id="Trazado_21281" data-name="Trazado 21281" d="M-1501.235,172.937l-7.865-5.632,43.6-46.018Z" transform="translate(1551.872 -72.266)" fill="#292949" opacity="0.2"/>
      </g>
      <g id="Grupo_26715" data-name="Grupo 26715" transform="translate(321.112 135.69)">
        <path id="Trazado_21282" data-name="Trazado 21282" d="M-1422.381,106.826l8.908,52.56,46.481-8.282-8.908-52.56,19.944-3.553-50.887-37.753-35.482,53.141Z" transform="translate(1442.326 -57.238)" fill="#474ebb"/>
        <path id="Trazado_21283" data-name="Trazado 21283" d="M-1369.812,98.545s6.171,36.412-17.863,57.33l26.771-4.77Z" transform="translate(1436.237 -57.238)" fill="#292949" opacity="0.2"/>
      </g>
      <g id="Grupo_26721" data-name="Grupo 26721" transform="translate(323.764 303.03)">
        <rect id="Rectángulo_4216" data-name="Rectángulo 4216" width="210.097" height="318.486" transform="translate(7.365)" fill="#b7b8bd"/>
        <path id="Trazado_21284" data-name="Trazado 21284" d="M-1220.321,224.578l-205.034,347.969h205.034Z" transform="translate(1437.783 -224.578)" fill="#272525" opacity="0.1"/>
        <g id="Grupo_26716" data-name="Grupo 26716">
          <rect id="Rectángulo_4217" data-name="Rectángulo 4217" width="225.657" height="62.72" fill="#efefef"/>
          <rect id="Rectángulo_4218" data-name="Rectángulo 4218" width="109.694" height="4.626" transform="translate(22.349 29.047)" fill="#474ebb"/>
          <rect id="Rectángulo_4219" data-name="Rectángulo 4219" width="10.604" height="10.873" transform="translate(165.729 25.924)" fill="#d67086"/>
          <rect id="Rectángulo_4220" data-name="Rectángulo 4220" width="10.604" height="10.873" transform="translate(188.39 25.924)" fill="#5d66d3"/>
        </g>
        <g id="Grupo_26717" data-name="Grupo 26717" transform="translate(0 71.312)">
          <rect id="Rectángulo_4221" data-name="Rectángulo 4221" width="225.657" height="62.72" fill="#efefef"/>
          <rect id="Rectángulo_4222" data-name="Rectángulo 4222" width="109.694" height="4.626" transform="translate(22.349 29.047)" fill="#474ebb"/>
          <rect id="Rectángulo_4223" data-name="Rectángulo 4223" width="10.604" height="10.873" transform="translate(165.729 25.923)" fill="#d67086"/>
          <rect id="Rectángulo_4224" data-name="Rectángulo 4224" width="10.604" height="10.873" transform="translate(188.39 25.923)" fill="#5d66d3"/>
        </g>
        <g id="Grupo_26718" data-name="Grupo 26718" transform="translate(0 142.625)">
          <rect id="Rectángulo_4225" data-name="Rectángulo 4225" width="225.657" height="62.72" fill="#efefef"/>
          <rect id="Rectángulo_4226" data-name="Rectángulo 4226" width="109.694" height="4.626" transform="translate(22.349 29.047)" fill="#474ebb"/>
          <rect id="Rectángulo_4227" data-name="Rectángulo 4227" width="10.604" height="10.873" transform="translate(165.729 25.923)" fill="#d67086"/>
          <rect id="Rectángulo_4228" data-name="Rectángulo 4228" width="10.604" height="10.873" transform="translate(188.39 25.923)" fill="#5d66d3"/>
        </g>
        <g id="Grupo_26719" data-name="Grupo 26719" transform="translate(0 213.937)">
          <rect id="Rectángulo_4229" data-name="Rectángulo 4229" width="225.657" height="62.72" fill="#efefef"/>
          <rect id="Rectángulo_4230" data-name="Rectángulo 4230" width="109.694" height="4.626" transform="translate(22.349 29.047)" fill="#474ebb"/>
          <rect id="Rectángulo_4231" data-name="Rectángulo 4231" width="10.604" height="10.873" transform="translate(165.729 25.923)" fill="#d67086"/>
          <rect id="Rectángulo_4232" data-name="Rectángulo 4232" width="10.604" height="10.873" transform="translate(188.39 25.923)" fill="#5d66d3"/>
        </g>
        <g id="Grupo_26720" data-name="Grupo 26720" transform="translate(0 285.25)">
          <rect id="Rectángulo_4233" data-name="Rectángulo 4233" width="225.657" height="62.72" fill="#efefef"/>
          <rect id="Rectángulo_4234" data-name="Rectángulo 4234" width="109.694" height="4.626" transform="translate(22.349 29.047)" fill="#474ebb"/>
          <rect id="Rectángulo_4235" data-name="Rectángulo 4235" width="10.604" height="10.873" transform="translate(165.729 25.923)" fill="#d67086"/>
          <rect id="Rectángulo_4236" data-name="Rectángulo 4236" width="10.604" height="10.873" transform="translate(188.39 25.923)" fill="#5d66d3"/>
        </g>
      </g>
      <g id="Grupo_26727" data-name="Grupo 26727" transform="translate(507.458 59.486)">
        <g id="Grupo_26722" data-name="Grupo 26722" transform="translate(22.42 29.9)">
          <path id="Trazado_21285" data-name="Trazado 21285" d="M-1140.9,123.509l-60.833-30.558a10.467,10.467,0,0,1-4.623-13.845l29.8-62.373a9.981,9.981,0,0,1,13.5-4.74l60.834,30.558A10.467,10.467,0,0,1-1097.59,56.4l-29.8,62.373A9.98,9.98,0,0,1-1140.9,123.509Z" transform="translate(1207.385 -10.935)" fill="#474ebb"/>
          <path id="Trazado_21286" data-name="Trazado 21286" d="M-1135.231,114.028l-60.587-30.434,29.682-62.12,60.587,30.434Z" transform="translate(1206.096 -10.935)" fill="#fff"/>
          <path id="Trazado_21287" data-name="Trazado 21287" d="M-1136.267,109.131l-54.175-27.213,26.541-55.546,54.175,27.213Z" transform="translate(1205.497 -10.935)" fill="#474ebb"/>
        </g>
        <g id="Grupo_26723" data-name="Grupo 26723" transform="translate(70.901)">
          <path id="Trazado_21288" data-name="Trazado 21288" d="M-1133.867-8.241l-4.543-2.282-14.415,30.169,4.543,2.282Z" transform="translate(1152.825 18.965)" fill="#474ebb"/>
          <path id="Trazado_21289" data-name="Trazado 21289" d="M-1120.9,6.2l-4.543-2.282-11.211,23.463,4.543,2.282Z" transform="translate(1151.023 18.965)" fill="#474ebb"/>
          <path id="Trazado_21290" data-name="Trazado 21290" d="M-1101.3,6.811l-4.543-2.282L-1120.254,34.7l4.543,2.282Z" transform="translate(1149.196 18.965)" fill="#474ebb"/>
          <path id="Trazado_21291" data-name="Trazado 21291" d="M-1088.1,20.837l-4.543-2.282-11.211,23.463,4.543,2.282Z" transform="translate(1147.37 18.965)" fill="#474ebb"/>
          <path id="Trazado_21292" data-name="Trazado 21292" d="M-1138.069-15.618a5.762,5.762,0,0,1,7.8-2.737,6.044,6.044,0,0,1,2.669,7.993,5.761,5.761,0,0,1-7.8,2.736A6.043,6.043,0,0,1-1138.069-15.618Z" transform="translate(1151.248 18.965)" fill="#474ebb"/>
          <path id="Trazado_21293" data-name="Trazado 21293" d="M-1105.275-.981a5.761,5.761,0,0,1,7.8-2.736,6.044,6.044,0,0,1,2.669,7.993,5.762,5.762,0,0,1-7.8,2.736A6.043,6.043,0,0,1-1105.275-.981Z" transform="translate(1147.594 18.965)" fill="#474ebb"/>
          <ellipse id="Elipse_999" data-name="Elipse 999" cx="5.826" cy="5.974" rx="5.826" ry="5.974" transform="translate(22.028 18.049)" fill="#474ebb"/>
          <ellipse id="Elipse_1000" data-name="Elipse 1000" cx="5.826" cy="5.974" rx="5.826" ry="5.974" transform="translate(51.168 32.687)" fill="#474ebb"/>
        </g>
        <g id="Grupo_26724" data-name="Grupo 26724" transform="translate(16.816 110.582)">
          <path id="Trazado_21294" data-name="Trazado 21294" d="M-1203.206,124.068l-4.543-2.282,14.416-30.169,4.543,2.282Z" transform="translate(1213.029 -91.617)" fill="#474ebb"/>
          <path id="Trazado_21295" data-name="Trazado 21295" d="M-1182.98,124.266l-4.543-2.282,11.211-23.463,4.543,2.282Z" transform="translate(1210.776 -91.617)" fill="#474ebb"/>
          <path id="Trazado_21296" data-name="Trazado 21296" d="M-1170.189,138.292l-4.543-2.282,14.416-30.169,4.543,2.282Z" transform="translate(1209.351 -91.617)" fill="#474ebb"/>
          <path id="Trazado_21297" data-name="Trazado 21297" d="M-1150.186,138.9l-4.543-2.282,11.211-23.463,4.543,2.282Z" transform="translate(1207.122 -91.617)" fill="#474ebb"/>
          <path id="Trazado_21298" data-name="Trazado 21298" d="M-1213.1,123.907a6.043,6.043,0,0,0,2.668,7.993,5.762,5.762,0,0,0,7.8-2.736,6.044,6.044,0,0,0-2.669-7.993A5.763,5.763,0,0,0-1213.1,123.907Z" transform="translate(1213.691 -91.617)" fill="#474ebb"/>
          <ellipse id="Elipse_1001" data-name="Elipse 1001" cx="5.826" cy="5.974" rx="5.826" ry="5.974" transform="translate(29.142 43.582)" fill="#474ebb"/>
          <path id="Trazado_21299" data-name="Trazado 21299" d="M-1190.93,120.5a6.044,6.044,0,0,0,2.669,7.993,5.762,5.762,0,0,0,7.8-2.737,6.043,6.043,0,0,0-2.669-7.992A5.761,5.761,0,0,0-1190.93,120.5Z" transform="translate(1211.222 -91.617)" fill="#474ebb"/>
          <ellipse id="Elipse_1002" data-name="Elipse 1002" cx="5.826" cy="5.974" rx="5.826" ry="5.974" transform="translate(48.838 40.172)" fill="#474ebb"/>
        </g>
        <g id="Grupo_26725" data-name="Grupo 26725" transform="translate(101.101 79.807)">
          <path id="Trazado_21300" data-name="Trazado 21300" d="M-1064.86,80.28l2.226-4.658-29.424-14.78-2.226,4.658Z" transform="translate(1116.103 -60.842)" fill="#474ebb"/>
          <path id="Trazado_21301" data-name="Trazado 21301" d="M-1079.889,91.731l2.226-4.658-22.883-11.495-2.226,4.658Z" transform="translate(1117.048 -60.842)" fill="#474ebb"/>
          <path id="Trazado_21302" data-name="Trazado 21302" d="M-1081.381,109.955l2.226-4.658-29.424-14.78-2.226,4.658Z" transform="translate(1117.943 -60.842)" fill="#474ebb"/>
          <path id="Trazado_21303" data-name="Trazado 21303" d="M-1095.955,121.609l2.226-4.658-22.883-11.495-2.226,4.658Z" transform="translate(1118.838 -60.842)" fill="#474ebb"/>
          <path id="Trazado_21304" data-name="Trazado 21304" d="M-1054.125,74.354a6.044,6.044,0,0,1,2.669,7.993,5.762,5.762,0,0,1-7.8,2.737,6.044,6.044,0,0,1-2.669-7.993A5.763,5.763,0,0,1-1054.125,74.354Z" transform="translate(1112.563 -60.842)" fill="#474ebb"/>
          <path id="Trazado_21305" data-name="Trazado 21305" d="M-1070.191,104.232a6.044,6.044,0,0,1,2.669,7.993,5.763,5.763,0,0,1-7.8,2.737,6.044,6.044,0,0,1-2.669-7.993A5.762,5.762,0,0,1-1070.191,104.232Z" transform="translate(1114.353 -60.842)" fill="#474ebb"/>
          <path id="Trazado_21306" data-name="Trazado 21306" d="M-1073.934,84.037a6.044,6.044,0,0,1,2.668,7.993,5.761,5.761,0,0,1-7.8,2.736,6.043,6.043,0,0,1-2.668-7.993A5.762,5.762,0,0,1-1073.934,84.037Z" transform="translate(1114.77 -60.842)" fill="#474ebb"/>
          <path id="Trazado_21307" data-name="Trazado 21307" d="M-1090,113.915a6.044,6.044,0,0,1,2.669,7.993,5.761,5.761,0,0,1-7.8,2.736,6.042,6.042,0,0,1-2.668-7.993A5.761,5.761,0,0,1-1090,113.915Z" transform="translate(1116.56 -60.842)" fill="#474ebb"/>
        </g>
        <g id="Grupo_26726" data-name="Grupo 26726" transform="translate(0 23.956)">
          <path id="Trazado_21308" data-name="Trazado 21308" d="M-1207.283,15.063l2.226-4.658,29.424,14.78-2.226,4.658Z" transform="translate(1229.793 -4.991)" fill="#474ebb"/>
          <path id="Trazado_21309" data-name="Trazado 21309" d="M-1207.5,33.491l2.226-4.658,22.884,11.495-2.226,4.658Z" transform="translate(1229.818 -4.991)" fill="#474ebb"/>
          <path id="Trazado_21310" data-name="Trazado 21310" d="M-1222.894,45.144l2.226-4.658,29.424,14.78-2.226,4.658Z" transform="translate(1231.532 -4.991)" fill="#474ebb"/>
          <path id="Trazado_21311" data-name="Trazado 21311" d="M-1223.566,63.368l2.226-4.658,22.883,11.495-2.226,4.658Z" transform="translate(1231.607 -4.991)" fill="#474ebb"/>
          <path id="Trazado_21312" data-name="Trazado 21312" d="M-1208.158,5.6a5.762,5.762,0,0,0-7.8,2.737,6.043,6.043,0,0,0,2.668,7.993,5.762,5.762,0,0,0,7.8-2.737A6.043,6.043,0,0,0-1208.158,5.6Z" transform="translate(1230.826 -4.991)" fill="#474ebb"/>
          <path id="Trazado_21313" data-name="Trazado 21313" d="M-1224.224,35.479a5.762,5.762,0,0,0-7.8,2.737,6.043,6.043,0,0,0,2.668,7.993,5.762,5.762,0,0,0,7.8-2.737A6.044,6.044,0,0,0-1224.224,35.479Z" transform="translate(1232.616 -4.991)" fill="#474ebb"/>
          <ellipse id="Elipse_1003" data-name="Elipse 1003" cx="5.826" cy="5.974" rx="5.826" ry="5.974" transform="translate(17.604 20.197)" fill="#474ebb"/>
          <path id="Trazado_21314" data-name="Trazado 21314" d="M-1220.481,55.675a5.761,5.761,0,0,0-7.8,2.736,6.044,6.044,0,0,0,2.669,7.993,5.763,5.763,0,0,0,7.8-2.736A6.044,6.044,0,0,0-1220.481,55.675Z" transform="translate(1232.199 -4.991)" fill="#474ebb"/>
        </g>
      </g>
      <path id="Trazado_21315" data-name="Trazado 21315" d="M-1112.653,140.694l1.169-17.051-13.451-10.677-5.641,7.563,6.075,11.122-2.169,5.783,5.963,9.183Z" transform="translate(1728.705 78.452)" fill="#eacab0"/>
      <path id="Trazado_21316" data-name="Trazado 21316" d="M-1540.032,170.2l1.356-18.052,8.892-5.26,2.568,6.278-4.246,7.144v12.247Z" transform="translate(1774.324 78.452)" fill="#eacab0"/>
      <path id="Trazado_21317" data-name="Trazado 21317" d="M-1498.013,232.292l-43.332,3.228,9.706-68.906-15.816.087-23.207,72.034,8.059,21.394,50.5,4.786Z" transform="translate(1777.736 78.452)" fill="#474ebb"/>
      <g id="Grupo_26733" data-name="Grupo 26733" transform="translate(605.467 290.059)">
        <g id="Grupo_26730" data-name="Grupo 26730" transform="translate(15.061)">
          <g id="Grupo_26729" data-name="Grupo 26729">
            <g id="Grupo_26728" data-name="Grupo 26728">
              <path id="Trazado_21318" data-name="Trazado 21318" d="M-869.639,386.5l-235.73-13.879,8.686-155.091a6.18,6.18,0,0,1,6.465-5.908l223.5,13.159a6.223,6.223,0,0,1,5.763,6.628Z" transform="translate(1105.369 -211.607)" fill="#292949"/>
            </g>
            <path id="Trazado_21319" data-name="Trazado 21319" d="M-877.234,377.039l-217-12.776,7.912-141.274,217,12.776Z" transform="translate(1104.128 -211.607)" fill="#f7f7f7"/>
          </g>
        </g>
        <g id="Grupo_26732" data-name="Grupo 26732" transform="translate(0 159.892)">
          <g id="Grupo_26731" data-name="Grupo 26731">
            <path id="Trazado_21320" data-name="Trazado 21320" d="M-872.674,407.345l-235.691-14.6a16.459,16.459,0,0,1-13.57-8.954h0l263.782,16.339h0A16.339,16.339,0,0,1-872.674,407.345Z" transform="translate(1122.275 -371.499)" fill="#c1c3c3"/>
            <path id="Trazado_21321" data-name="Trazado 21321" d="M-860.148,401.365l-260.074-15.312a2.259,2.259,0,0,1-2.093-2.406l.56-10a2.245,2.245,0,0,1,2.348-2.146l260.074,15.312a2.26,2.26,0,0,1,2.093,2.407l-.56,10A2.244,2.244,0,0,1-860.148,401.365Z" transform="translate(1122.318 -371.499)" fill="#cdd1d1"/>
          </g>
          <path id="Trazado_21322" data-name="Trazado 21322" d="M-956.7,389.719l-38.615-2.273a2.555,2.555,0,0,1-2.365-2.721h0a2.537,2.537,0,0,1,2.653-2.426l38.615,2.273a2.557,2.557,0,0,1,2.366,2.722h0A2.538,2.538,0,0,1-956.7,389.719Z" transform="translate(1108.433 -371.499)" opacity="0.14"/>
        </g>
      </g>
      <g id="Grupo_26736" data-name="Grupo 26736" transform="translate(60.658 322.847)">
        <g id="Grupo_26735" data-name="Grupo 26735">
          <g id="Grupo_26734" data-name="Grupo 26734">
            <path id="Trazado_21323" data-name="Trazado 21323" d="M-1656.32,254.08l-.273-2.154a6.341,6.341,0,0,0-7.142-5.492l-66.112,8.785a6.439,6.439,0,0,0-5.539,7.177l14.437,114.219,157.586-20.94-13.364-105.731a6.342,6.342,0,0,0-7.141-5.492Z" transform="translate(1735.437 -244.396)" fill="#c65d78"/>
            <path id="Trazado_21324" data-name="Trazado 21324" d="M-1567.676,357.567l-145.068,19.277-13.158-104.1,145.068-19.277Z" transform="translate(1734.374 -244.396)" fill="#fff"/>
            <path id="Trazado_21325" data-name="Trazado 21325" d="M-1657.856,274.06l-1.52,6.79-65.584,8.715a6.44,6.44,0,0,0-5.54,7.177l10.194,80.647a6.341,6.341,0,0,0,7.142,5.491l144.905-19.255a6.439,6.439,0,0,0,5.539-7.177l-11.542-91.311a6.341,6.341,0,0,0-7.141-5.492l-71.018,9.437A6.446,6.446,0,0,0-1657.856,274.06Z" transform="translate(1734.892 -244.396)" fill="#272525" opacity="0.04" style="mix-blend-mode: multiply;isolation: isolate"/>
            <path id="Trazado_21326" data-name="Trazado 21326" d="M-1655.181,276.522l-1.52,6.79-67.866,9.018a6.439,6.439,0,0,0-5.54,7.177l10.194,80.647a6.341,6.341,0,0,0,7.141,5.492l144.905-19.256a6.44,6.44,0,0,0,5.54-7.177l-11.542-91.311a6.343,6.343,0,0,0-7.142-5.492l-68.736,9.134A6.447,6.447,0,0,0-1655.181,276.522Z" transform="translate(1734.849 -244.396)" fill="#d67086"/>
          </g>
        </g>
      </g>
      <g id="Grupo_26737" data-name="Grupo 26737" transform="translate(69.296 401.963)">
        <path id="Trazado_21327" data-name="Trazado 21327" d="M-1725.49,329.321l-.225,7.171,12.345,4.608,7.115-5.527,0-8.348-6.869-.393-.215-1.836-2.249-1.483Z" transform="translate(1725.715 -323.512)" fill="#e4d2b8"/>
      </g>
      <g id="Grupo_26738" data-name="Grupo 26738" transform="translate(23.976 309.748)">
        <path id="Trazado_21328" data-name="Trazado 21328" d="M-1750,231.3l-24.469,45.091-2.244,23.727,45.3,36.665,8.127-12.058-29.3-32.071,7.426-8.368Z" transform="translate(1776.718 -231.296)" fill="#292949"/>
      </g>
      <path id="Trazado_21329" data-name="Trazado 21329" d="M-1010.559,225.088V209.73l11.234-4.388,10.165,8.228V220.7l-7.49,4.388Z" transform="translate(1715.333 78.452)" fill="#a57767"/>
    </g>
  </g>
</svg>
