<svg xmlns="http://www.w3.org/2000/svg" width="156" height="156" viewBox="0 0 156 156">
  <g id="Grupo_26657" data-name="Grupo 26657" transform="translate(-456 -8706)">
    <g id="Elipse_994" data-name="Elipse 994" transform="translate(456 8706)" fill="#fff" stroke="#7d58bd" stroke-width="7">
      <circle cx="78" cy="78" r="78" stroke="none"/>
      <circle cx="78" cy="78" r="74.5" fill="none"/>
    </g>
    <g id="Grupo_26651" data-name="Grupo 26651" transform="translate(24 47.192)">
      <g id="call-center_1_" data-name="call-center (1)" transform="translate(463 8689.808)">
        <path id="Trazado_21196" data-name="Trazado 21196" d="M85.086,141.047l-11.391-2.629v-2.962a12.11,12.11,0,0,0,2.885-3.361h1.627a7.529,7.529,0,0,0,7.52-7.52,7.447,7.447,0,0,0-1.5-4.466v-6.062a18.048,18.048,0,1,0-36.1,0v6.062a7.45,7.45,0,0,0-1.5,4.466,7.529,7.529,0,0,0,7.52,7.52H55.77a12.086,12.086,0,0,0,2.885,3.361v2.962l-11.391,2.629a10.476,10.476,0,0,0-2.144.765V133.6a4.518,4.518,0,0,0-4.512-4.512H4.512A4.518,4.518,0,0,0,0,133.6V160.67a4.518,4.518,0,0,0,4.512,4.512H16.544v3.008H13.536V171.2h79.71V151.305a10.479,10.479,0,0,0-8.16-10.258Zm-25.269.191,3.667,2.749-3.707,2.224-.8-4.781Zm4.733,11.913H67.8l1.253,15.04H63.3Zm3.548-3.008H64.25l-.864-2.59,2.788-1.672,2.787,1.672Zm.769-6.155,3.667-2.749,1.06.245-.954,4.767Zm9.34-14.9h-.4a11.962,11.962,0,0,0,.4-3.008v-6.016a4.512,4.512,0,0,1,0,9.024ZM66.175,99.008a15.056,15.056,0,0,1,15.04,15.04v3.645a7.444,7.444,0,0,0-3.008-.637v-3.008H75.2v.839a8.817,8.817,0,0,1-3.631,1.892c.059-.057.123-.106.182-.164l-2.127-2.127a8.8,8.8,0,0,1-4.071,2.29c.059-.057.123-.106.182-.164l-2.127-2.127a8.826,8.826,0,0,1-6.2,2.567h-.259v-3.008H54.143v3.008a7.444,7.444,0,0,0-3.008.637v-3.645a15.056,15.056,0,0,1,15.04-15.04ZM54.143,129.087a4.512,4.512,0,0,1,0-9.024v6.016a11.962,11.962,0,0,0,.4,3.008Zm3.008-3.008v-6.016h.258a11.754,11.754,0,0,0,4.253-.814v.814h1.762a11.754,11.754,0,0,0,4.253-.814v.814h1.762a11.836,11.836,0,0,0,5.757-1.521v7.537a8.98,8.98,0,0,1-.527,3.008h-8.5V132.1h6.708a9.011,9.011,0,0,1-15.731-6.016Zm9.024,12.032a11.949,11.949,0,0,0,4.512-.886v1.638l-4.512,3.384-4.512-3.384v-1.638A11.949,11.949,0,0,0,66.175,138.111Zm-18.236,5.867,8.1-1.869,1.491,8.956,3.211-1.926.9,2.692-1.364,16.36h-7.64V151.647H49.631V168.19h-7.52v-3.285a4.506,4.506,0,0,0,3.008-4.235V145.306a7.519,7.519,0,0,1,2.82-1.328Zm-19.364,21.2H39.1v3.008H28.576ZM4.512,162.174a1.5,1.5,0,0,1-1.5-1.5V133.6a1.5,1.5,0,0,1,1.5-1.5h36.1a1.5,1.5,0,0,1,1.5,1.5V160.67a1.5,1.5,0,0,1-1.5,1.5H28.576v-3.008a6.016,6.016,0,0,0-12.032,0v3.008Zm15.04-3.008a3.008,3.008,0,0,1,6.016,0v9.024H19.552Zm70.687,9.024h-7.52V151.647H79.711V168.19H72.07l-1.362-16.36.9-2.692,3.147,1.889,1.773-8.867,7.887,1.82a7.485,7.485,0,0,1,5.828,7.326Zm0,0" transform="translate(0 -77.952)"/>
        <path id="Trazado_21197" data-name="Trazado 21197" d="M83.071,56.726a4.506,4.506,0,0,0-3.084-4.28l-5.94-1.98V48.5a7.49,7.49,0,0,0,3.008-5.977V39.519a7.52,7.52,0,1,0-15.04,0v3.008A7.485,7.485,0,0,0,65.024,48.5v1.962l-5.94,1.98A4.507,4.507,0,0,0,56,56.726v8.361H83.071ZM65.024,39.519a4.512,4.512,0,1,1,9.024,0v3.008a4.512,4.512,0,1,1-9.024,0Zm15.04,22.56H59.008V56.726A1.5,1.5,0,0,1,60.037,55.3l7.995-2.664V49.9a7.516,7.516,0,0,0,3.008,0v2.741L79.034,55.3a1.5,1.5,0,0,1,1.029,1.427Zm0,0" transform="translate(-45.472 -25.984)" fill="#b869c3"/>
        <path id="Trazado_21198" data-name="Trazado 21198" d="M24.063,48.127A24.063,24.063,0,1,0,0,24.063,24.092,24.092,0,0,0,24.063,48.127Zm0-45.119A21.056,21.056,0,1,1,3.008,24.063,21.078,21.078,0,0,1,24.063,3.008Zm0,0"/>
        <path id="Trazado_21199" data-name="Trazado 21199" d="M296,48h3.008v3.008H296Zm0,0" transform="translate(-240.353 -38.976)"/>
        <path id="Trazado_21200" data-name="Trazado 21200" d="M344,48h3.008v3.008H344Zm0,0" transform="translate(-279.329 -38.976)"/>
        <path id="Trazado_21201" data-name="Trazado 21201" d="M392,48h3.008v3.008H392Zm0,0" transform="translate(-318.306 -38.976)"/>
      </g>
    </g>
  </g>
</svg>
