<svg xmlns="http://www.w3.org/2000/svg" width="156" height="156" viewBox="0 0 156 156">
  <g id="Grupo_26658" data-name="Grupo 26658" transform="translate(-658 -8706)">
    <g id="Elipse_995" data-name="Elipse 995" transform="translate(658 8706)" fill="#fff" stroke="#7d58bd" stroke-width="7">
      <circle cx="78" cy="78" r="78" stroke="none"/>
      <circle cx="78" cy="78" r="74.5" fill="none"/>
    </g>
    <g id="Grupo_26650" data-name="Grupo 26650" transform="translate(-15.878 37.093)">
      <g id="Grupo_26633" data-name="Grupo 26633" transform="translate(706 8699.907)">
        <g id="Grupo_26632" data-name="Grupo 26632">
          <path id="Trazado_21202" data-name="Trazado 21202" d="M16.956,32.481l10.578-1.987a5.454,5.454,0,0,0,4.445-5.357V5.451A5.457,5.457,0,0,0,26.528,0,26.558,26.558,0,0,0,0,26.528V66.5A26.558,26.558,0,0,0,26.528,93.028a5.457,5.457,0,0,0,5.451-5.451V67.891a5.454,5.454,0,0,0-4.445-5.357L16.956,60.547a1.818,1.818,0,0,1-1.482-1.786v-24.5A1.818,1.818,0,0,1,16.956,32.481Zm-.671,31.638,10.578,1.987a1.818,1.818,0,0,1,1.482,1.786V87.577a1.819,1.819,0,0,1-1.817,1.817,22.851,22.851,0,0,1-5.814-.749V74.1a1.817,1.817,0,0,0-3.634,0V87.352A22.926,22.926,0,0,1,3.634,66.5V26.528A22.925,22.925,0,0,1,17.079,5.676V21.067a1.817,1.817,0,1,0,3.634,0V4.383a22.851,22.851,0,0,1,5.814-.749,1.819,1.819,0,0,1,1.817,1.817V25.137a1.818,1.818,0,0,1-1.482,1.786L16.285,28.909a5.454,5.454,0,0,0-4.445,5.357v24.5A5.454,5.454,0,0,0,16.285,64.119Z"/>
        </g>
      </g>
      <g id="Grupo_26635" data-name="Grupo 26635" transform="translate(783.433 8772.122)">
        <g id="Grupo_26634" data-name="Grupo 26634">
          <path id="Trazado_21203" data-name="Trazado 21203" d="M429.272,397.982a1.816,1.816,0,1,0,.532,1.285A1.831,1.831,0,0,0,429.272,397.982Z" transform="translate(-426.17 -397.45)"/>
        </g>
      </g>
      <g id="Grupo_26639" data-name="Grupo 26639" transform="translate(742.611 8705.345)">
        <g id="Grupo_26638" data-name="Grupo 26638">
          <path id="Trazado_21205" data-name="Trazado 21205" d="M230.251,34.5A41.224,41.224,0,0,0,202.942,30.8a1.817,1.817,0,1,0,.744,3.557,37.582,37.582,0,0,1,24.895,3.377,1.817,1.817,0,1,0,1.67-3.227Z" transform="translate(-201.497 -29.925)"/>
        </g>
      </g>
      <g id="Grupo_26641" data-name="Grupo 26641" transform="translate(741.801 8779.49)">
        <g id="Grupo_26640" data-name="Grupo 26640">
          <path id="Trazado_21206" data-name="Trazado 21206" d="M227.32,438.986a1.817,1.817,0,0,0-2.447-.783,37.515,37.515,0,0,1-25.608,3.176,1.817,1.817,0,1,0-.819,3.54,41.18,41.18,0,0,0,28.091-3.487A1.817,1.817,0,0,0,227.32,438.986Z" transform="translate(-197.037 -438.001)"/>
        </g>
      </g>
      <g id="Grupo_26643" data-name="Grupo 26643" transform="translate(731.528 8740.012)">
        <g id="Grupo_26642" data-name="Grupo 26642">
          <path id="Trazado_21207" data-name="Trazado 21207" d="M157.109,225.851l-4.592-4.592a1.817,1.817,0,1,0-2.57,2.57l1.491,1.491h-9.12a1.817,1.817,0,0,0,0,3.634h9.121l-1.49,1.49a1.817,1.817,0,1,0,2.569,2.569l4.592-4.592a1.817,1.817,0,0,0,0-2.57Z" transform="translate(-140.5 -220.726)"/>
        </g>
      </g>
      <g id="Grupo_26645" data-name="Grupo 26645" transform="translate(725.441 8744.604)">
        <g id="Grupo_26644" data-name="Grupo 26644">
          <path id="Trazado_21208" data-name="Trazado 21208" d="M110.1,246.532a1.816,1.816,0,1,0,.532,1.285A1.831,1.831,0,0,0,110.1,246.532Z" transform="translate(-107 -246)"/>
        </g>
      </g>
      <g id="cancel" transform="translate(750.988 8722.248)">
        <g id="Grupo_26647" data-name="Grupo 26647" transform="translate(0 0)">
          <g id="Grupo_26646" data-name="Grupo 26646">
            <path id="Trazado_21209" data-name="Trazado 21209" d="M39.4,6.817a23.067,23.067,0,1,0,0,32.637A23.108,23.108,0,0,0,39.4,6.817ZM36.87,36.927a19.5,19.5,0,1,1,0-27.582A19.527,19.527,0,0,1,36.87,36.927Z" transform="translate(0 -0.07)"/>
          </g>
        </g>
        <g id="Grupo_26649" data-name="Grupo 26649" transform="translate(15.073 14.848)">
          <g id="Grupo_26648" data-name="Grupo 26648">
            <path id="Trazado_21210" data-name="Trazado 21210" d="M182.945,177.973l-5.061-5.054,5.061-5.054a1.788,1.788,0,0,0-2.528-2.53l-5.064,5.057-5.064-5.057a1.788,1.788,0,1,0-2.528,2.53l5.061,5.054-5.061,5.054a1.788,1.788,0,0,0,2.528,2.529l5.064-5.057,5.064,5.057a1.788,1.788,0,1,0,2.528-2.529Z" transform="translate(-167.236 -164.813)" fill="#b869c3"/>
          </g>
        </g>
      </g>
    </g>
  </g>
</svg>
