<svg xmlns="http://www.w3.org/2000/svg" width="156" height="156" viewBox="0 0 156 156">
  <g id="Grupo_26656" data-name="Grupo 26656" transform="translate(-253 -8706)">
    <g id="Elipse_993" data-name="Elipse 993" transform="translate(253 8706)" fill="#fff" stroke="#7d58bd" stroke-width="7">
      <circle cx="78" cy="78" r="78" stroke="none"/>
      <circle cx="78" cy="78" r="74.5" fill="none"/>
    </g>
    <g id="Grupo_26652" data-name="Grupo 26652" transform="translate(19.311 41.388)">
      <g id="customer-service" transform="translate(258 8694.052)">
        <g id="Grupo_26619" data-name="Grupo 26619" transform="translate(0.002 16.318)">
          <g id="Grupo_26618" data-name="Grupo 26618" transform="translate(0)">
            <path id="Trazado_21192" data-name="Trazado 21192" d="M82.568,151.8,78.79,140.466A11.423,11.423,0,0,0,70,132.84l-10.906-1.984v-.845a16.423,16.423,0,0,0,4.864-4.319H67.25a4.9,4.9,0,0,0,4.9-4.9V101.214a21.214,21.214,0,0,0-42.428,0v11.423a6.538,6.538,0,0,0,5.2,6.392,16.349,16.349,0,0,0,7.851,10.982v.845L31.865,132.84a11.421,11.421,0,0,0-8.792,7.626l-.653,1.96-5.558-5.558a1.635,1.635,0,0,1,0-2.309l6.446-6.444-12.1-12.1L3.925,123.3a11.423,11.423,0,0,0,0,16.153l22.054,22.054a11.417,11.417,0,0,0,16.1.049l7.949-7.283L47.552,151.8Zm-13.686-31a1.633,1.633,0,0,1-1.632,1.632H65.878a16.208,16.208,0,0,0,1.064-3.4,6.464,6.464,0,0,0,1.94-.772Zm-1.632-5.349v-5.62a3.235,3.235,0,0,1,0,5.62Zm-32.637,0a3.235,3.235,0,0,1,0-5.62Zm0-10.969v1.864a6.472,6.472,0,0,0-1.632.676v-5.8a17.95,17.95,0,0,1,35.9,0v5.8a6.413,6.413,0,0,0-1.632-.676v-1.864H65.618a17.954,17.954,0,0,1-12.776-5.292l-1.911-1.911-1.911,1.911a17.954,17.954,0,0,1-12.776,5.292ZM37.877,115.9v-8.221a21.157,21.157,0,0,0,13.055-5.8,21.148,21.148,0,0,0,13.055,5.8V115.9a12.956,12.956,0,0,1-1.766,6.527H50.932v3.264h8.606A13.034,13.034,0,0,1,37.877,115.9Zm17.95,15.566v.077l-4.9,4.9-4.9-4.9v-.077a16.305,16.305,0,0,0,9.791,0ZM26.167,141.5a8.162,8.162,0,0,1,6.281-5.449l11.406-2.072,7.077,7.077,7.076-7.076,11.4,2.072a8.159,8.159,0,0,1,6.281,5.449l2.348,7.038H44.289l-6.356-6.356-7.063,6.389a1.667,1.667,0,0,1-2.307,0L25,145.006ZM11.208,120.631l7.484,7.484-1.772,1.772L9.436,122.4ZM39.822,159.2a8.161,8.161,0,0,1-11.539,0L6.229,137.148a8.161,8.161,0,0,1,0-11.539l.9-.9L14.61,132.2l-.059.059a4.9,4.9,0,0,0,0,6.924l11.7,11.7a4.87,4.87,0,0,0,3.463,1.434,4.8,4.8,0,0,0,3.4-1.377l.122-.109,7.518,7.518Zm3.345-3.068-7.5-7.5,2.156-1.948,7.488,7.488Z" transform="translate(-0.58 -80)"/>
          </g>
        </g>
        <g id="Grupo_26621" data-name="Grupo 26621" transform="translate(68.303)">
          <g id="Grupo_26620" data-name="Grupo 26620">
            <path id="Trazado_21193" data-name="Trazado 21193" d="M363.169,0H340.323a4.9,4.9,0,0,0-4.9,4.9V17.95a4.9,4.9,0,0,0,4.9,4.9h4.359l-1.687,9.842,15.747-9.842h4.427a4.9,4.9,0,0,0,4.9-4.9V4.9A4.9,4.9,0,0,0,363.169,0ZM364.8,17.95a1.634,1.634,0,0,1-1.632,1.632h-5.364l-10.364,6.477,1.111-6.477h-8.229a1.635,1.635,0,0,1-1.632-1.632V4.9a1.635,1.635,0,0,1,1.632-1.632h22.846A1.634,1.634,0,0,1,364.8,4.9Z" transform="translate(-335.428)"/>
          </g>
        </g>
        <g id="Grupo_26623" data-name="Grupo 26623" transform="translate(74.831 6.527)">
          <g id="Grupo_26622" data-name="Grupo 26622">
            <rect id="Rectángulo_4210" data-name="Rectángulo 4210" width="19.582" height="3.264" fill="#b869c3"/>
          </g>
        </g>
        <g id="Grupo_26625" data-name="Grupo 26625" transform="translate(74.831 13.055)">
          <g id="Grupo_26624" data-name="Grupo 26624">
            <rect id="Rectángulo_4211" data-name="Rectángulo 4211" width="13.055" height="3.264" fill="#b869c3"/>
          </g>
        </g>
        <g id="Grupo_26627" data-name="Grupo 26627" transform="translate(91.149 13.055)">
          <g id="Grupo_26626" data-name="Grupo 26626">
            <rect id="Rectángulo_4212" data-name="Rectángulo 4212" width="3.264" height="3.264" fill="#b869c3"/>
          </g>
        </g>
        <g id="Grupo_26629" data-name="Grupo 26629" transform="translate(0 4.895)">
          <g id="Grupo_26628" data-name="Grupo 26628" transform="translate(0)">
            <path id="Trazado_21194" data-name="Trazado 21194" d="M50.925,24A45.662,45.662,0,0,0,6.463,59.321L3.371,54.166l-2.8,1.679L6.308,65.4l9.558-5.736-1.679-2.8L9.764,59.522A42.439,42.439,0,0,1,63.5,29.157l.966-3.117A45.662,45.662,0,0,0,50.925,24Z" transform="translate(-0.572 -24)"/>
          </g>
        </g>
        <g id="Grupo_26631" data-name="Grupo 26631" transform="translate(83.318 30.396)">
          <g id="Grupo_26630" data-name="Grupo 26630">
            <path id="Trazado_21195" data-name="Trazado 21195" d="M425.865,154.752l-9.558-5.736-5.734,9.559,2.8,1.679,2.856-4.76a42.464,42.464,0,0,1-7.191,40.425l2.534,2.056a45.7,45.7,0,0,0,7.82-43.3l4.8,2.877Z" transform="translate(-409.036 -149.016)"/>
          </g>
        </g>
      </g>
    </g>
  </g>
</svg>
