<svg xmlns="http://www.w3.org/2000/svg" width="959.694" height="328.839" viewBox="0 0 959.694 328.839">
  <g id="Grupo_26112" data-name="Grupo 26112" transform="translate(-99.306 -451.504)">
    <g id="Grupo_26111" data-name="Grupo 26111" transform="translate(99.306 451.504)">
      <path id="Trazado_20566" data-name="Trazado 20566" d="M436.362,679.754V907.483l-273.971.963c.688-9.955-44.408-141.252,13.4-216.259,82.027-106.478,152.125-20.368,244.657-12.891A152.1,152.1,0,0,0,436.362,679.754Z" transform="translate(-131.347 -579.607)" fill="#ebf3fa"/>
      <path id="Trazado_20567" data-name="Trazado 20567" d="M1687.912,774.976c-.367,2.845-30.049-.459-30.461,2.339l-185.2.643H1058.4V551.652a146.755,146.755,0,0,0,15.919-1.284c18.167-2.478,37.206-8.716,57.391-20.461,208.919-121.159,379.027-88.265,474.54,6.331a284.437,284.437,0,0,1,81.659,238.738Z" transform="translate(-753.389 -451.504)" fill="#f3f8fc"/>
      <path id="Trazado_20568" data-name="Trazado 20568" d="M1690.206,1355.977a285.724,285.724,0,0,1-2.294,37.435c-.367,2.844-30.049-.459-30.461,2.34l-185.2.642H1058.4v-.183l413.847-1.422,185.2-.643c.412-2.8,30.094.505,30.461-2.339A285.728,285.728,0,0,0,1690.206,1355.977Z" transform="translate(-753.389 -1068.334)" fill="#ebf3fa" opacity="0.6"/>
      <path id="Trazado_20569" data-name="Trazado 20569" d="M1642.9,757.071V930.138H1108.461v-150.6h40.967v-41.1H1190.4v55.528h33.165V781.556h57.774v20.976h25.144V755.425h67.3V674.642H1427v43.086h12.138V681.635h53.219v55.6h48.234V703.113h51.587V737.23h9.619v19.841Z" transform="translate(-787.527 -603.679)" fill="#e8f0fd"/>
      <g id="Grupo_26088" data-name="Grupo 26088" transform="translate(191.868 114.754)">
        <rect id="Rectángulo_4104" data-name="Rectángulo 4104" width="55.458" height="53.803" rx="12.473" fill="#c0d8fb"/>
        <path id="Rectángulo_4105" data-name="Rectángulo 4105" d="M11.392,0H39.261A11.392,11.392,0,0,1,50.653,11.392V37.748A11.393,11.393,0,0,1,39.26,49.141H11.392A11.392,11.392,0,0,1,0,37.749V11.392A11.392,11.392,0,0,1,11.392,0Z" transform="translate(2.402 2.331)" fill="#dfebfd"/>
        <g id="Grupo_26084" data-name="Grupo 26084" transform="translate(6.547 6.092)">
          <g id="Grupo_26082" data-name="Grupo 26082" transform="translate(20.033)">
            <circle id="Elipse_964" data-name="Elipse 964" cx="1.149" cy="1.149" r="1.149" fill="#b7d3f3"/>
            <path id="Trazado_20570" data-name="Trazado 20570" d="M815.038,838.947a1.149,1.149,0,1,1,.446,1.562A1.149,1.149,0,0,1,815.038,838.947Z" transform="translate(-805.768 -836.174)" fill="#b7d3f3"/>
            <path id="Trazado_20571" data-name="Trazado 20571" d="M839.192,859.659a1.149,1.149,0,1,1-.343,1.588A1.149,1.149,0,0,1,839.192,859.659Z" transform="translate(-821.981 -850.578)" fill="#b7d3f3"/>
            <circle id="Elipse_965" data-name="Elipse 965" cx="1.149" cy="1.149" r="1.149" transform="translate(19.645 20.621) rotate(-67.621)" fill="#b7d3f3"/>
            <path id="Trazado_20572" data-name="Trazado 20572" d="M842.168,925.674a1.149,1.149,0,1,1-1.624,0A1.148,1.148,0,0,1,842.168,925.674Z" transform="translate(-823.032 -895.494)" fill="#b7d3f3"/>
            <circle id="Elipse_966" data-name="Elipse 966" cx="1.149" cy="1.149" r="1.149" transform="translate(9.961 37.076)" fill="#b7d3f3"/>
            <circle id="Elipse_967" data-name="Elipse 967" cx="1.149" cy="1.149" r="1.149" transform="translate(0 39.992)" fill="#b7d3f3"/>
          </g>
          <g id="Grupo_26083" data-name="Grupo 26083" transform="translate(0 2.181)">
            <path id="Trazado_20573" data-name="Trazado 20573" d="M759.545,838.947a1.149,1.149,0,1,0-.446,1.562A1.149,1.149,0,0,0,759.545,838.947Z" transform="translate(-746.521 -838.356)" fill="#b7d3f3"/>
            <path id="Trazado_20574" data-name="Trazado 20574" d="M735.392,859.659a1.149,1.149,0,1,0,.343,1.588A1.149,1.149,0,0,0,735.392,859.659Z" transform="translate(-730.309 -852.759)" fill="#b7d3f3"/>
            <circle id="Elipse_968" data-name="Elipse 968" cx="1.149" cy="1.149" r="1.149" transform="translate(0 16.666)" fill="#b7d3f3"/>
            <path id="Trazado_20575" data-name="Trazado 20575" d="M732.416,925.674a1.149,1.149,0,1,0,1.625,0A1.149,1.149,0,0,0,732.416,925.674Z" transform="translate(-729.259 -897.675)" fill="#b7d3f3"/>
            <circle id="Elipse_969" data-name="Elipse 969" cx="1.149" cy="1.149" r="1.149" transform="translate(10.035 34.895)" fill="#b7d3f3"/>
          </g>
        </g>
        <g id="Grupo_26087" data-name="Grupo 26087" transform="translate(27.419 11.737)">
          <circle id="Elipse_970" data-name="Elipse 970" cx="1.149" cy="1.149" r="1.149" transform="translate(0 13.203)" fill="#b7d3f3"/>
          <g id="Grupo_26085" data-name="Grupo 26085" transform="translate(0.992)">
            <rect id="Rectángulo_4106" data-name="Rectángulo 4106" width="0.314" height="14.351" fill="#b7d3f3"/>
          </g>
          <g id="Grupo_26086" data-name="Grupo 26086" transform="translate(0.714 7.988)">
            <rect id="Rectángulo_4107" data-name="Rectángulo 4107" width="9.673" height="0.941" transform="translate(0 5.973) rotate(-38.137)" fill="#b7d3f3"/>
          </g>
        </g>
      </g>
      <path id="Trazado_20576" data-name="Trazado 20576" d="M1040.172,762.372v226.4h-31.845V763.186A145.59,145.59,0,0,0,1040.172,762.372Z" transform="translate(-719.238 -663.509)" fill="#deedff"/>
      <path id="Trazado_20577" data-name="Trazado 20577" d="M2812.912,755.561V958.47h-31.845V717.938A281.881,281.881,0,0,1,2812.912,755.561Z" transform="translate(-1928.207 -633.206)" fill="#deedff"/>
      <path id="Rectángulo_4108" data-name="Rectángulo 4108" d="M2.063,0H957.631a2.063,2.063,0,0,1,2.063,2.063v0a2.063,2.063,0,0,1-2.063,2.063H2.063A2.063,2.063,0,0,1,0,2.063v0A2.063,2.063,0,0,1,2.063,0Z" transform="translate(0 324.391)" fill="#2e3552"/>
      <g id="Grupo_26099" data-name="Grupo 26099" transform="translate(341.936 172.226)">
        <path id="Trazado_20578" data-name="Trazado 20578" d="M1179.609,1222.994H1174.5l6.255,79.159h12.423Z" transform="translate(-1174.501 -1149.869)" fill="#b7d3f3"/>
        <g id="Grupo_26098" data-name="Grupo 26098" transform="translate(0)">
          <path id="Trazado_20579" data-name="Trazado 20579" d="M1481.843,1099.619l-1.1.222a9.083,9.083,0,0,1-10.67-7.083l-1.158-5.731a9.083,9.083,0,0,1,7.083-10.67l1.1-.221a9.082,9.082,0,0,1,10.67,7.083l1.158,5.731A9.082,9.082,0,0,1,1481.843,1099.619Z" transform="translate(-1375.165 -1049.592)" fill="#122544"/>
          <path id="Trazado_20580" data-name="Trazado 20580" d="M1174.5,1207.185s27.892-13.093,66.107-4.382l-61,4.382Z" transform="translate(-1174.502 -1134.059)" fill="#b7d3f3"/>
          <path id="Trazado_20581" data-name="Trazado 20581" d="M1204.131,1289.229l-13.57-79.913s42.736-14.352,75.893,0l19.722,79.41Z" transform="translate(-1185.454 -1136.19)" fill="#d2e3fc"/>
          <g id="Grupo_26090" data-name="Grupo 26090" transform="translate(248.873 114.397)">
            <path id="Trazado_20582" data-name="Trazado 20582" d="M2036.562,1366.667c-.758,8.67-5.654,11.347-7.807,11.117s-14.745-5.037-15.017-3.273,7.3,7.527,12.611,7.8c0,0-10.021,11.052-16.68,7.862s-7.228-8.245-11.379-10.141-7.695-1.891-5.981.044,9.228,3.812,11.6,8.013c.561.99,1.108,1.906,1.526,2.712l-14.022-.028c-4.446-2.209-8.191-5.257-8.471-8.542q-.033-.377-.06-.72l-.432-5.054s-7.2-8.4-3.457-15.367a10.648,10.648,0,0,1,2.853-3.31s6.711-4.063,12.183-3.732c0,0-4.24,7.111-5.434,11.336-.422,1.489-.463,2.621.189,2.957.715.37,1.64-.7,2.6-2.423,2.4-4.308,5-12.687,5-12.687s4.034-.391,8.627-.45c2.06-.027,4.232.013,6.2.186a16.7,16.7,0,0,1,5.355,1.146s-.274.224-.734.609c-.684.574-1.783,1.5-3,2.584-3.621,3.2-8.327,7.72-6.568,8.126,1.424.33,5.894-2.326,9.872-4.961,3.7-2.452,6.979-4.888,6.979-4.888S2037.32,1358,2036.562,1366.667Z" transform="translate(-1971.284 -1352.769)" fill="#82b378"/>
            <g id="Grupo_26089" data-name="Grupo 26089" transform="translate(0 14.065)">
              <path id="Trazado_20583" data-name="Trazado 20583" d="M2020.882,1397.061s-38.6-1.488-47.129,9.552a27.921,27.921,0,0,1-7.687,10.789l-.9,2.465s6.689-7.053,9.083-7.48C1974.245,1412.387,1970.5,1398.709,2020.882,1397.061Z" transform="translate(-1962.587 -1396.994)" fill="#82b378"/>
              <path id="Trazado_20584" data-name="Trazado 20584" d="M1962.167,1459.02c-.331.363-.826.856-1.536,1.511l-.015.015c-.246.227-.485.474-.718.734a14.189,14.189,0,0,0-1.03,1.292l-1.8,0a21.655,21.655,0,0,1,3.479-3.486l.005,0C1960.689,1458.995,1964.015,1456.985,1962.167,1459.02Z" transform="translate(-1957.065 -1438.675)" fill="#82b378"/>
            </g>
          </g>
          <g id="Grupo_26092" data-name="Grupo 26092" transform="translate(160.77 83.384)">
            <path id="Trazado_20585" data-name="Trazado 20585" d="M1737.159,1295.584s15.575-8.722,8.306-20.558c0,0-5.814-7.268-12.044-9.137,0,0,3.322,17.651,0,18.067s-2.284-19.936-2.284-19.936-16.405-7.891-22.843-7.268c0,0,10.175,17.236,6.853,16.821s-14.744-17.859-14.744-17.859-16.821-3.115-19.521,6.853,1.662,14.952,4.154,15.574,18.482.415,18.066,2.492-11.214,5.4-17.236,3.53c0,0,6.645,16.405,15.367,15.575s11.422-6.23,16.821-6.645,9.345,1.038,6.645,2.492-11.837.476-16.2,4.184-7.892,5.991.208,7.653,22.635.623,25.542-5.607Z" transform="translate(-1680.031 -1255.252)" fill="#a8d29f"/>
            <g id="Grupo_26091" data-name="Grupo 26091" transform="translate(8.535 10.429)">
              <path id="Trazado_20586" data-name="Trazado 20586" d="M1706.869,1288.044s43.609,14.121,48.593,29.9a33.13,33.13,0,0,0,4.154,15.159v3.115s-4.569-10.591-7.061-12.044C1752.554,1324.177,1762.315,1310.472,1706.869,1288.044Z" transform="translate(-1706.869 -1288.044)" fill="#82b378"/>
              <path id="Trazado_20587" data-name="Trazado 20587" d="M1872.3,1439.033l-2.492,0a32.514,32.514,0,0,0-1.726-10.734v0c-.154-.386-.32-.756-.5-1.109l-.005-.012c-.517-1.012-.867-1.759-1.088-2.3l0,0c-1.275-3.126,1.773.713,1.773.713A29.228,29.228,0,0,1,1872.3,1439.033Z" transform="translate(-1815.51 -1380.521)" fill="#82b378"/>
            </g>
          </g>
          <g id="Grupo_26094" data-name="Grupo 26094" transform="translate(229.179 58.523)">
            <path id="Trazado_20588" data-name="Trazado 20588" d="M1908.636,1230.242s-20.53-11.5-10.949-27.1c0,0,7.665-9.581,15.877-12.044,0,0-4.38,23.268,0,23.815s3.011-26.279,3.011-26.279,21.625-10.4,30.111-9.581c0,0-13.413,22.72-9.033,22.173s19.436-23.542,19.436-23.542,22.172-4.106,25.731,9.033-2.19,19.709-5.474,20.53-24.363.548-23.815,3.285,14.782,7.117,22.721,4.654c0,0-8.76,21.625-20.257,20.53s-15.056-8.212-22.173-8.76-12.318,1.369-8.76,3.285,15.6.628,21.351,5.515,10.4,7.9-.274,10.088-29.837.821-33.669-7.391Z" transform="translate(-1895.139 -1177.077)" fill="#a8d29f"/>
            <g id="Grupo_26093" data-name="Grupo 26093" transform="translate(2.654 13.747)">
              <path id="Trazado_20589" data-name="Trazado 20589" d="M1989.893,1220.3s-57.484,18.614-64.054,39.418a43.67,43.67,0,0,1-5.475,19.983v4.106s6.022-13.96,9.307-15.877C1929.671,1267.933,1916.805,1249.867,1989.893,1220.3Z" transform="translate(-1914.996 -1220.303)" fill="#82b378"/>
              <path id="Trazado_20590" data-name="Trazado 20590" d="M1911.191,1400.659s0,.005,0,.007c-.291.715-.753,1.7-1.436,3.039l-.005.009c-.238.464-.455.952-.658,1.459,0,0,0,0,0,0-1.968,4.932-2.358,11.738-2.284,17.1l-3.3-.007a38.594,38.594,0,0,1,5.349-20.667l0,0C1908.942,1401.492,1912.849,1396.592,1911.191,1400.659Z" transform="translate(-1903.485 -1342.203)" fill="#82b378"/>
            </g>
          </g>
          <path id="Trazado_20591" data-name="Trazado 20591" d="M1429.117,1277.212H1351.03a83.055,83.055,0,0,1-3.054-8.9,151.47,151.47,0,0,1-4.586-24.772c-.012-.106-.023-.217-.036-.323a289.027,289.027,0,0,1-1.371-37.026c.122-4.874.315-7.876.327-8.022v0c.165-.071.335-.138.5-.205,4.141-1.738,8.113-3.235,11.919-4.531a.212.212,0,0,0,.031-.008q4.8-1.637,9.244-2.845a134.976,134.976,0,0,1,14.539-3.172,106.348,106.348,0,0,1,14.354-1.324c.193-.008.382-.008.576-.012q1.7-.029,3.286.008c10.69.229,17.8,2.356,21.4,3.775.5.2.93.382,1.288.548l.142.059c.406.181.721.335.942.445a.489.489,0,0,1,.086.047c.107.055.209.115.307.173l5.631,59.178Z" transform="translate(-1288.654 -1124.677)" fill="#2b478b"/>
          <path id="Trazado_20592" data-name="Trazado 20592" d="M1635.874,1269.129c-7.824,3.632-54.358,6.681-58.828,5.394-2.292-.662-11.886-9.112-21.538-19.508l-.009-.007c-9.134-9.833-18.343-21.406-21.449-29.735a50.966,50.966,0,0,1-.9-32.312s11.874-.05,16.715,2.872,32.517,53.9,36.217,55.245,47.542,3.859,52.56,6.241C1638.644,1257.319,1643.691,1265.5,1635.874,1269.129Z" transform="translate(-1417.597 -1129.387)" fill="#2b478b"/>
          <path id="Trazado_20593" data-name="Trazado 20593" d="M1440.741,1156.979l-.011,2.882s.8,9.011-10.3,10.344-19.509-3.484-19.219-10.439c.991-5.386,2.082-9.085,2.15-13.541a31.354,31.354,0,0,0-.4-5.4l21.5-.462,6.335,1.025Z" transform="translate(-1335.93 -1093.519)" fill="#ea9e6a"/>
          <path id="Trazado_20594" data-name="Trazado 20594" d="M1444.561,1142.384l-.058,15.588a18.183,18.183,0,0,1-7.748,1.722c-9.883.015-19.72-15.889-20.031-17.873Z" transform="translate(-1339.692 -1094.511)" fill="#d88d59"/>
          <path id="Trazado_20595" data-name="Trazado 20595" d="M1434.684,1069.961s-27.531,5.606-30.758-11.593-8.954-28.058,8.488-32.365,22.1,1.614,24.572,7.092S1441.763,1068.059,1434.684,1069.961Z" transform="translate(-1328.548 -1014.515)" fill="#ea9e6a"/>
          <path id="Trazado_20596" data-name="Trazado 20596" d="M1426.023,998.847a57.741,57.741,0,0,1-16.745-4.5c-7.357-3.185-16.627.349-19.636,1.94a4.481,4.481,0,0,1,.732-1.813,4.042,4.042,0,0,0-1.548,2.3c-.139.1-.2.174-.165.2a5.177,5.177,0,0,0-2.517.167s.689-.1.936.343a.417.417,0,0,0,.11.121c-11.46,5.559-12.491,23.686-8.794,27.874,4.448,5.039,9.79,16.394,9.79,16.394a9.739,9.739,0,0,0,1.124-7.126c-.814-4.439,3.021-4.445,7.861-6.471s.8-7.671,5.029-11.109,19.777-1.443,19.571-4.067C1427.536,1010.986,1426.023,999.438,1426.023,998.847Z" transform="translate(-1312.25 -993.057)" fill="#8e342e"/>
          <path id="Trazado_20597" data-name="Trazado 20597" d="M1354.179,1392.612a83.044,83.044,0,0,1-3.054-8.9,151.455,151.455,0,0,1-4.586-24.772c-.012-.106-.023-.217-.036-.323.059.028.157.188.221.11,3.041-3.694,11.34-7.734,21.391,6.979,2.005,2.932,10.8,23.475,12.2,26.906Z" transform="translate(-1291.803 -1240.077)" fill="#233862"/>
          <path id="Trazado_20598" data-name="Trazado 20598" d="M1396.135,1451.632a8.362,8.362,0,0,1,1.06-5.083s1.289-.835,3-1.809c2.549-1.438,6.036-3.18,7.616-2.9.284.052.666.134,1.119.245,3.747.9,12.482,3.589,13.8,5.166,1.088,1.3,2.569,2.947,3.589,4.381Z" transform="translate(-1325.599 -1299.097)" fill="#ea9e6a"/>
          <path id="Trazado_20599" data-name="Trazado 20599" d="M1256.375,1296.336H1182.8a4.464,4.464,0,0,1,.055-2.474c2.195-5.544,6.478-14.669,11.411-24.461,3.629-7.2,7.6-14.768,11.359-21.533,5.213-9.393,9.989-17.25,12.794-20.473a33.229,33.229,0,0,1,7.916-6.415,55.742,55.742,0,0,1,7.384-3.688v0c.165-.071.335-.138.5-.205a65.1,65.1,0,0,1,9.185-2.986s.055,2.324.059,5.9c.016,10.37-.382,31.27-3.692,36.368a68.278,68.278,0,0,1-4.787,6.088c-.063.071-.122.142-.185.212-1.163,1.364-2.451,2.829-3.8,4.339-7.68,8.6-17.4,18.7-18.59,19.933-.083.083-.122.126-.122.126h.142l20.631.288,6.328.087,13.121.181a4.967,4.967,0,0,1,2.151,1.828C1255.925,1291.3,1256.315,1294,1256.375,1296.336Z" transform="translate(-1180.062 -1143.801)" fill="#2b478b"/>
          <path id="Trazado_20600" data-name="Trazado 20600" d="M1688.519,1399.044c-7.824,3.632-54.358,6.681-58.828,5.394-2.292-.662-11.886-9.112-21.538-19.508.476.063,4.89-7.295,25.017,10.312,0,0,5.271,2.346,19.615,1.033S1685.549,1394.478,1688.519,1399.044Z" transform="translate(-1470.242 -1259.301)" fill="#233862"/>
          <g id="Grupo_26095" data-name="Grupo 26095" transform="translate(119.364 94.456)">
            <path id="Trazado_20601" data-name="Trazado 20601" d="M1603.032,1463.157h-53.2a4.241,4.241,0,0,1,4.24-4.241h48.957Z" transform="translate(-1549.834 -1405.218)" fill="#b24940"/>
            <path id="Trazado_20602" data-name="Trazado 20602" d="M1673.181,1290.07h82.248l-19.728,57.938H1652.92Z" transform="translate(-1620.136 -1290.069)" fill="#b24940"/>
            <path id="Trazado_20603" data-name="Trazado 20603" d="M1759.237,1290.066,1739.509,1348h-82.781l20.262-57.938Z" transform="translate(-1622.733 -1290.066)" fill="#c65447"/>
            <path id="Trazado_20604" data-name="Trazado 20604" d="M1822.209,1370.88a5.347,5.347,0,0,1-4.933,4.008,3.087,3.087,0,0,1-3.083-4.008,5.348,5.348,0,0,1,4.934-4.008A3.086,3.086,0,0,1,1822.209,1370.88Z" transform="translate(-1730.049 -1342.446)" fill="#f9ddbf"/>
            <path id="Trazado_20605" data-name="Trazado 20605" d="M1854.176,1290.066,1834.448,1348h-38.509l46.125-57.938Z" transform="translate(-1717.672 -1290.066)" fill="#b24940"/>
          </g>
          <path id="Trazado_20606" data-name="Trazado 20606" d="M1408.583,1099.619l-1.1.222a9.083,9.083,0,0,1-10.67-7.083l-1.158-5.731a9.083,9.083,0,0,1,7.083-10.67l1.1-.221a9.083,9.083,0,0,1,10.67,7.083l1.158,5.731A9.082,9.082,0,0,1,1408.583,1099.619Z" transform="translate(-1325.204 -1049.592)" fill="#122544"/>
          <g id="Grupo_26096" data-name="Grupo 26096" transform="translate(74.033 0)">
            <path id="Trazado_20607" data-name="Trazado 20607" d="M1408.107,1022.444c-.734-1.326-1.811-11.992,1.121-20.485a13.61,13.61,0,0,1,6.583-8.026,7.046,7.046,0,0,1,3.391-.876l2.889.048c-9.514,4.028-11.72,25.579-10.979,27.877a.86.86,0,0,0-.073-.16Z" transform="translate(-1407.292 -993.057)" fill="#122544"/>
          </g>
          <g id="Grupo_26097" data-name="Grupo 26097" transform="translate(78.631 38.183)">
            <path id="Trazado_20608" data-name="Trazado 20608" d="M1445.735,1126.758c-15.99,0-23.9-12.636-23.983-12.764l1.429-.874-.715.437.714-.438c.074.12,7.528,11.964,22.555,11.964l.3,0,.017,1.675Z" transform="translate(-1421.752 -1113.119)" fill="#122544"/>
          </g>
          <path id="Trazado_20609" data-name="Trazado 20609" d="M1414.575,1107.436l-.546.11a4.525,4.525,0,0,1-5.316-3.529l-.577-2.855a4.525,4.525,0,0,1,3.529-5.316l.546-.11a4.525,4.525,0,0,1,5.316,3.529l.577,2.856A4.525,4.525,0,0,1,1414.575,1107.436Z" transform="translate(-1333.774 -1063.02)" fill="#2b478b"/>
          <path id="Trazado_20610" data-name="Trazado 20610" d="M1497.186,1151.77h-1.508a1.4,1.4,0,0,1-1.4-1.4h0a1.4,1.4,0,0,1,1.4-1.4h1.508a1.4,1.4,0,0,1,1.4,1.4h0A1.4,1.4,0,0,1,1497.186,1151.77Z" transform="translate(-1392.585 -1099.391)" fill="#122544"/>
        </g>
      </g>
      <g id="Grupo_26104" data-name="Grupo 26104" transform="translate(76.891 164.833)">
        <path id="Trazado_20611" data-name="Trazado 20611" d="M426.7,1005.118s-13.417,6.859-3.64,21.595c0,0-11.527,1.332-14.426-1.982a9.388,9.388,0,0,0,.947,2.157s-11.167-1.464-15.168-5.7,8.475-60.529,38.218-49.008c0,0,26.444,2.412,18.94,32.218s2.355,31.463,2.355,31.463a14.221,14.221,0,0,1-4.293.669s-1.81-1.062-2.013-2.2a6.978,6.978,0,0,0,.507,2.362s-10.812-.778-15.451-5.687S424.137,1011.1,426.7,1005.118Z" transform="translate(-376.957 -970.371)" fill="#8e342e"/>
        <path id="Trazado_20612" data-name="Trazado 20612" d="M532.326,1075.863l-1.074.149a8.805,8.805,0,0,1-9.9-7.49l-.779-5.614a8.806,8.806,0,0,1,7.49-9.9l1.074-.149a8.805,8.805,0,0,1,9.9,7.49l.779,5.614A8.806,8.806,0,0,1,532.326,1075.863Z" transform="translate(-463.432 -1026.388)" fill="#ed7d2b"/>
        <path id="Trazado_20613" data-name="Trazado 20613" d="M450.641,1164.134c-4,3.091-6.536,14.247-12.991,16.087-24.2,6.906-37.184-21.825-41.433-35.851a21.073,21.073,0,0,1,8.166-2.972c1.759-.3,3.613-.533,5.15-.687,2.642-2.246,6.3-11.073,6.522-24.5l1.168.25,19.566,4.3s-.571,6.179-.708,12c-.1,4.554-.251,5.643.1,6.185,1.522.25,3.315,4.142,3.315,4.142a.049.049,0,0,0,.01.018A124.382,124.382,0,0,1,450.641,1164.134Z" transform="translate(-378.684 -1069.652)" fill="#ffb27d"/>
        <path id="Trazado_20614" data-name="Trazado 20614" d="M481.836,1121.306s-.575,6.174-.708,12c-10.988-.537-16.593-10.687-18.859-16.295Z" transform="translate(-423.728 -1070.197)" fill="#ed985f"/>
        <g id="Grupo_26100" data-name="Grupo 26100" transform="translate(0 69.104)">
          <path id="Trazado_20615" data-name="Trazado 20615" d="M498.707,1270.581s-11.506.423-24,.466c-1.478.008-2.974.008-4.463,0-10.175-.043-20.177-.4-24.43-1.5-4.157-1.07-20.149-11.909-32.947-25.039a.013.013,0,0,1,0-.008c-.993,2.365-1.741,4.172-1.761,4.316a66.527,66.527,0,0,1-1.764,8.737,106.062,106.062,0,0,1-7.9,20.215l-6.852-.011-53.5-.078s10.106-15.566,7.391-55.442c-.07-1.008,9.315-33.183,9.315-33.183s7.29-1.276,15.717-1.954c.795.725,2.431,21.891,12.971,23.116,1.714.2,12.712,17,12.712,17l3.331-17.16-3.94-22.766c5.057,1.481,7.829,2.012,12.033,3.692a13.282,13.282,0,0,1,6.709,5.96c7.364,13.456,31.263,56.861,33.7,57.873,2.284.946,10.893,2.668,20,4.331h.008c12.188,2.226,25.272,4.339,25.272,4.339Z" transform="translate(-341.083 -1187.102)" fill="#d2e3fc"/>
          <path id="Trazado_20616" data-name="Trazado 20616" d="M534.648,1472.206l-3.831.011a.171.171,0,0,1,.011-.016Z" transform="translate(-470.477 -1381.534)" fill="#d2e3fc"/>
        </g>
        <path id="Trazado_20617" data-name="Trazado 20617" d="M479.455,1054.115s-26.017-.51-25.45-16.707-2.409-27.172,14.226-27.531,19.645,5.935,20.77,11.387S486.238,1053.83,479.455,1054.115Z" transform="translate(-418.087 -997.125)" fill="#ffb27d"/>
        <path id="Trazado_20618" data-name="Trazado 20618" d="M628.632,1368c-1.478.008-2.974.008-4.463,0-10.175-.043-20.177-.4-24.43-1.5-4.157-1.071-20.149-11.909-32.946-25.04a.013.013,0,0,1,0-.008s2.7-10.334,3.862-12.064,5.755,15.081,16.481,21.922,27.513,11.634,35.665,9.695C628.287,1359.7,628.849,1364.637,628.632,1368Z" transform="translate(-495.009 -1214.951)" fill="#b7d3f3"/>
        <path id="Trazado_20619" data-name="Trazado 20619" d="M517.983,1119.4s.166,1.94,4.432,2.246c0,0,3.582.257,3.731-1.828A10.511,10.511,0,0,0,517.983,1119.4Z" transform="translate(-461.725 -1071.423)" fill="#fff"/>
        <g id="Grupo_26101" data-name="Grupo 26101" transform="translate(39.223 35.33)">
          <path id="Trazado_20620" data-name="Trazado 20620" d="M482.86,1100.1c-14.783-4.671-18.408-18.663-18.444-18.8l1.577-.391-.788.2.788-.2c.033.133,3.465,13.259,17.358,17.648l.28.087-.473,1.554Z" transform="translate(-464.416 -1080.902)" fill="#122544"/>
        </g>
        <path id="Trazado_20621" data-name="Trazado 20621" d="M522.66,1138.093l-1.394-.44a1.358,1.358,0,0,1-.883-1.7h0a1.357,1.357,0,0,1,1.7-.883l1.394.44a1.358,1.358,0,0,1,.883,1.7h0A1.358,1.358,0,0,1,522.66,1138.093Z" transform="translate(-463.319 -1082.471)" fill="#ed7d2b"/>
        <path id="Trazado_20622" data-name="Trazado 20622" d="M474.454,997.438s-6.661,19.731-16.653,23.078-13.305-.615-13.305-.615a28.9,28.9,0,0,0,8.208-17.706S468.847,989.371,474.454,997.438Z" transform="translate(-411.608 -986.835)" fill="#8e342e"/>
        <path id="Trazado_20623" data-name="Trazado 20623" d="M499.582,1007.1s13.565-.761,17.619,3.1c2.924,2.786,2.855,4.239,3.082,7.953,0,0,5.932-9.151-.172-15.555C513.639,995.808,499.582,1007.1,499.582,1007.1Z" transform="translate(-449.176 -990.689)" fill="#8e342e"/>
        <path id="Trazado_20624" data-name="Trazado 20624" d="M502.966,999.705s-3.4,18.878-15.816,25.736c0,0,12.028-12.311,12.241-24.627S502.966,999.705,502.966,999.705Z" transform="translate(-440.697 -987.014)" fill="#8e342e"/>
        <path id="Trazado_20625" data-name="Trazado 20625" d="M394.412,1021.188c4,4.233,15.167,5.7,15.167,5.7a9.281,9.281,0,0,1-.944-2.159c5.739,4.653,19.833,1.274,19.833,1.274-11.243-2.483-7.6-18.709-3.779-19.4,2.229-12.237,6.648-27.472,8.718-34.314-.5-.081-.779-.108-.779-.108C402.889,960.66,390.413,1016.96,394.412,1021.188Z" transform="translate(-376.957 -970.369)" fill="#8e342e"/>
        <g id="Grupo_26103" data-name="Grupo 26103" transform="translate(30.039)">
          <path id="Trazado_20626" data-name="Trazado 20626" d="M447.378,1070.63l-1.074.149a8.806,8.806,0,0,1-9.9-7.49l-.779-5.615a8.805,8.805,0,0,1,7.49-9.9l1.074-.149a8.806,8.806,0,0,1,9.9,7.49l.779,5.615A8.806,8.806,0,0,1,447.378,1070.63Z" transform="translate(-435.539 -1022.82)" fill="#ed7d2b"/>
          <g id="Grupo_26102" data-name="Grupo 26102" transform="translate(4.704)">
            <path id="Trazado_20627" data-name="Trazado 20627" d="M450.439,997.14c-.638-1.2,1.6-10.5,4.894-17.71,1.591-3.486,5.608-8.153,8.474-9.356a6.175,6.175,0,0,1,3.534,0,26.918,26.918,0,0,1,3.1,1.25c-9.422,2.937-17.61,22.683-17.016,24.726a.688.688,0,0,0-.063-.144Z" transform="translate(-450.33 -969.81)" fill="#ed7d2b"/>
          </g>
          <path id="Trazado_20628" data-name="Trazado 20628" d="M453.324,1077.919l-.535.074a4.387,4.387,0,0,1-4.934-3.732l-.388-2.8a4.387,4.387,0,0,1,3.732-4.934l.535-.074a4.387,4.387,0,0,1,4.934,3.732l.388,2.8A4.387,4.387,0,0,1,453.324,1077.919Z" transform="translate(-443.645 -1035.692)" fill="#f99746"/>
        </g>
        <path id="Trazado_20629" data-name="Trazado 20629" d="M664.482,1419.452s11.157-.642,12.241-.057c1.761.949,7.753,4.808,8.693,5.929a62.575,62.575,0,0,1,3.4,5.621s-1.065.3-1.546-.136-4.121-4.3-4.121-4.3l3.739,5.681a3.163,3.163,0,0,1-1.806-.621c-.513-.564-4.007-4.117-4.007-4.117l-1.191-.234a12.9,12.9,0,0,1,1.87,1.852,11.467,11.467,0,0,1,1.094,1.827,8.743,8.743,0,0,1-1.4-.339c-.332-.159-3.465-2.9-3.465-2.9l1.661,2.266a4.366,4.366,0,0,1-1.487-.3c-.368-.249-2.808-2.5-3.242-2.492a14.593,14.593,0,0,1-4.886-.834c-1.338-.709-5.538-2.334-5.538-2.334Z" transform="translate(-561.634 -1276.249)" fill="#ffb27d"/>
        <path id="Trazado_20630" data-name="Trazado 20630" d="M428.219,1177.339s-7.461,2.175-9.162,3.889c0,0,7.8,19.94,19.046,29.246l3.005-2.133v4.848l11.259,7.368S427.642,1183.371,428.219,1177.339Z" transform="translate(-394.26 -1111.34)" fill="#b7d3f3"/>
        <path id="Trazado_20631" data-name="Trazado 20631" d="M432.871,1333.8a106.058,106.058,0,0,1-7.9,20.215l3.82,0-3.831.011H389.414s4.123-.008,4.116-.027c-.1-.361,6.011-16.917-4.116-23.7-10.145-6.8-13.823-23.513-13.823-23.513l32.279-7.885s13.3,19.408,17.086,23.108c2.906,2.841,9.679,3.054,9.679,3.054Z" transform="translate(-364.617 -1194.242)" fill="#b7d3f3"/>
        <path id="Trazado_20632" data-name="Trazado 20632" d="M521.494,1180.629s3.434,27.13.609,39.927c0,0,4.609-8.467,5.255-10.018l-.776-4.653,2.973,1.034s-2.622-21.63-4.995-25.421-3.247-4.159-3.247-4.159Z" transform="translate(-463.997 -1111.34)" fill="#b7d3f3"/>
        <path id="Trazado_20633" data-name="Trazado 20633" d="M772.741,1425.072s-14.395.531-28.464.466c-3.49-5.414.783-11.9.783-11.9h.008c12.188,2.226,25.272,4.339,25.272,4.339Z" transform="translate(-615.118 -1272.49)" fill="#ffb27d"/>
        <path id="Trazado_20634" data-name="Trazado 20634" d="M726.932,1463.157h-53.2a4.241,4.241,0,0,1,4.241-4.241h48.957Z" transform="translate(-567.944 -1303.37)" fill="#ed7d2b"/>
        <path id="Trazado_20635" data-name="Trazado 20635" d="M879.329,1290.066,859.6,1348.005H776.82l20.262-57.939Z" transform="translate(-638.246 -1188.218)" fill="#ed7d2b"/>
        <path id="Trazado_20636" data-name="Trazado 20636" d="M881.923,1290.066l-19.546,57.4-.181.536H780.624l20.262-57.939Z" transform="translate(-640.84 -1188.218)" fill="#f99746"/>
        <path id="Trazado_20637" data-name="Trazado 20637" d="M946.11,1370.88a5.348,5.348,0,0,1-4.933,4.008,3.086,3.086,0,0,1-3.083-4.008,5.347,5.347,0,0,1,4.934-4.008A3.086,3.086,0,0,1,946.11,1370.88Z" transform="translate(-748.159 -1240.597)" fill="#ffc397"/>
        <path id="Trazado_20638" data-name="Trazado 20638" d="M976.866,1290.066l-19.545,57.4H919.842l45.7-57.4Z" transform="translate(-735.784 -1188.218)" fill="#ed7d2b"/>
        <path id="Trazado_20639" data-name="Trazado 20639" d="M573.338,1406.06s-27.385,2.392-42.521,1.718v-14.872c9.916,2.738,42.509,8.648,42.509,8.648Z" transform="translate(-470.477 -1258.352)" fill="#ffb27d"/>
        <path id="Trazado_20640" data-name="Trazado 20640" d="M372.159,1189.566s-15.661.356-20.509,5.591,4.81,34.824,4.81,34.824,29.192,35.753,43.8,38.274c0,0,6.382.872,9.361.92,0,0-2.921-8.5,2.512-13.841,0,0-6.253-1.75-6.512-2.525S372.159,1189.566,372.159,1189.566Z" transform="translate(-347.361 -1119.679)" fill="#d2e3fc"/>
      </g>
      <g id="Grupo_26110" data-name="Grupo 26110" transform="translate(683.881 165.683)">
        <g id="Grupo_26108" data-name="Grupo 26108" transform="translate(0)">
          <path id="Trazado_20641" data-name="Trazado 20641" d="M2332.563,974.464s-15.861-5.9-25.773,5.685c-5.682,6.643-42.016,75.91-41.583,81.974a13.832,13.832,0,0,0,3.9,9.1s-1.516-5.306-.379-8.068c0,0-.731,9.34,5.036,13.32,3,2.073,77.8-1.986,84.3-11.045,14.132-19.7-16.73-29.888-15.972-51.167C2342.531,1001.921,2354.654,975.71,2332.563,974.464Z" transform="translate(-2260.28 -972.809)" fill="#2c3a64"/>
          <path id="Trazado_20642" data-name="Trazado 20642" d="M2497.3,1067.218l-1.063.215a8.805,8.805,0,0,1-10.344-6.867l-1.123-5.556a8.806,8.806,0,0,1,6.867-10.345l1.063-.215a8.805,8.805,0,0,1,10.345,6.867l1.123,5.556A8.806,8.806,0,0,1,2497.3,1067.218Z" transform="translate(-2409.9 -1021.444)" fill="#ed7d2b"/>
          <path id="Trazado_20643" data-name="Trazado 20643" d="M2589.182,1282.248h-49.627c-8.417-13.362-15.818-31.405-17.543-45.456-.822-6.666-.364-12.432,1.865-16.373,6.933-12.244-4.064-26.619-4.064-26.619s15.139,4.285,18.657,16.766c3.586,12.715,13.212,55.009,13.212,55.009l36.85,7.579A17.269,17.269,0,0,1,2589.182,1282.248Z" transform="translate(-2433.918 -1123.416)" fill="#f99746"/>
          <path id="Trazado_20644" data-name="Trazado 20644" d="M2593.9,1369.608h-49.627c-8.417-13.362-15.818-31.405-17.543-45.456l7.361-2.254s9.314,42.515,14.729,43.165S2593.9,1369.608,2593.9,1369.608Z" transform="translate(-2438.634 -1210.776)" fill="#ed7d2b"/>
          <path id="Trazado_20645" data-name="Trazado 20645" d="M2423.764,1159.063a45.5,45.5,0,0,1-15.044,8.512c-23.726,8.381-35.388-11.154-40.491-24.892a21.072,21.072,0,0,1,7.967-3.468c1.737-.406,3.574-.753,5.1-1,2.5-2.4,5.606-11.44,5-24.856l1.181.178,19.793,3.085s-.19,6.2.031,12.02c.177,4.552.612,8.872,1.586,9.83,1.534.156,2.458.266,2.458.266a.052.052,0,0,0,.012.017A124.372,124.372,0,0,1,2423.764,1159.063Z" transform="translate(-2330.542 -1068.555)" fill="#ffb27d"/>
          <path id="Trazado_20646" data-name="Trazado 20646" d="M2448.554,1117.014s-.194,6.2.031,12.02c-11,.14-17.219-9.646-19.825-15.1Z" transform="translate(-2371.822 -1068.946)" fill="#ed985f"/>
          <path id="Trazado_20647" data-name="Trazado 20647" d="M2407.264,1229.968c-.055.426-5.344,17.624-5.4,18.056-1.836,14.4-5.159,29.761-5.159,29.761l-7.267-.013-47.96-.094s5.786-17.458-9.476-44.224q-.75-1.315-1.569-2.661c-2.173-3.57,11.541-41.74,11.541-41.74s6-1.061,14.429-1.74c.8.728,6.647,22.133,17.237,22.786,13.823.851,8.583-23,8.583-23,5.63,1.13,7.66,1.543,14.889,5.006C2397.112,1192.1,2407.556,1227.619,2407.264,1229.968Z" transform="translate(-2304.606 -1118.846)" fill="#f99746"/>
          <path id="Trazado_20648" data-name="Trazado 20648" d="M2444.34,1047.826s-26,1.09-26.429-15.111-4.075-26.972,12.507-28.353,19.972,4.715,21.431,10.088S2451.092,1047.125,2444.34,1047.826Z" transform="translate(-2363.991 -994.088)" fill="#ffb27d"/>
          <path id="Trazado_20649" data-name="Trazado 20649" d="M2484.594,1112.351s.285,1.926,4.562,1.969c0,0,3.591.037,3.611-2.053A10.511,10.511,0,0,0,2484.594,1112.351Z" transform="translate(-2409.9 -1067.297)" fill="#fff"/>
          <g id="Grupo_26105" data-name="Grupo 26105" transform="translate(56.938 33.383)">
            <path id="Trazado_20650" data-name="Trazado 20650" d="M2448.325,1095.575c-15.042-3.753-19.521-17.5-19.565-17.636l1.55-.487-.775.244.774-.245c.042.131,4.273,13.021,18.41,16.547l.284.069-.376,1.58Z" transform="translate(-2428.76 -1077.452)" fill="#122544"/>
          </g>
          <path id="Trazado_20651" data-name="Trazado 20651" d="M2490.506,1131.075l-1.419-.354a1.358,1.358,0,0,1-.986-1.641h0a1.358,1.358,0,0,1,1.641-.986l1.418.354a1.357,1.357,0,0,1,.985,1.641h0A1.357,1.357,0,0,1,2490.506,1131.075Z" transform="translate(-2412.265 -1078.578)" fill="#2c3a64"/>
          <path id="Trazado_20652" data-name="Trazado 20652" d="M2429.108,972.676s16.74-2.613,23.666,11.324c5.272,10.609.876,17.233-1.191,19.264,0,0-2.734-15.238-7.851-16.537a5.529,5.529,0,0,0-5.547,1.608c-2.249,2.615-5.5,14.276-9.239,16.062,0,0-11.6,2.864-12.169-1.184s-.252-16.649,2.672-18.68S2429.108,972.676,2429.108,972.676Z" transform="translate(-2363.49 -972.482)" fill="#2c3a64"/>
          <g id="Grupo_26107" data-name="Grupo 26107" transform="translate(47.628 0.152)">
            <path id="Trazado_20653" data-name="Trazado 20653" d="M2412.188,1067.218l-1.063.215a8.806,8.806,0,0,1-10.345-6.867l-1.122-5.556a8.805,8.805,0,0,1,6.867-10.345l1.063-.215a8.805,8.805,0,0,1,10.345,6.867l1.122,5.556A8.805,8.805,0,0,1,2412.188,1067.218Z" transform="translate(-2399.485 -1021.597)" fill="#ed7d2b"/>
            <g id="Grupo_26106" data-name="Grupo 26106" transform="translate(3.642)">
              <path id="Trazado_20654" data-name="Trazado 20654" d="M2411.727,998.572c-.711-1.155-1.756-10.451,1.087-17.853a12.27,12.27,0,0,1,6.382-6.995,7.445,7.445,0,0,1,3.288-.764l2.8.042c-9.224,3.511-11.363,22.292-10.645,24.3a.678.678,0,0,0-.072-.14Z" transform="translate(-2410.938 -972.961)" fill="#ed7d2b"/>
            </g>
            <path id="Trazado_20655" data-name="Trazado 20655" d="M2418,1074.8l-.53.107a4.387,4.387,0,0,1-5.154-3.422l-.56-2.768a4.388,4.388,0,0,1,3.422-5.154l.53-.107a4.387,4.387,0,0,1,5.154,3.421l.56,2.768A4.388,4.388,0,0,1,2418,1074.8Z" transform="translate(-2407.793 -1034.616)" fill="#f99746"/>
          </g>
          <path id="Trazado_20656" data-name="Trazado 20656" d="M2345.343,1361.854s5.786-17.458-9.476-44.224l5.685-7.1s10.064,28.507,22.643,36.821c12.553,8.294,27.324,6.562,29.108,14.6Z" transform="translate(-2308.471 -1203.022)" fill="#ed7d2b"/>
          <path id="Trazado_20657" data-name="Trazado 20657" d="M2287.091,1193.245s-10.35.9-17.28,13.145-20.088,58-20.088,75.479h55.39a17.246,17.246,0,0,0-.65-9.091l-34.277-6.615s20.632-30.637,20.849-43.848S2287.091,1193.245,2287.091,1193.245Z" transform="translate(-2249.723 -1123.037)" fill="#f99746"/>
          <path id="Trazado_20658" data-name="Trazado 20658" d="M2420.974,1452.732s10.793-1.056,12.58-.568a53.242,53.242,0,0,1,8.04,3.33,32.562,32.562,0,0,1,3.33,2.865,7.067,7.067,0,0,1-2.193.079c-.812-.182-3.248-.345-3.9-.4a20.2,20.2,0,0,0-2.978.427h-16.73Z" transform="translate(-2365.251 -1299.526)" fill="#ffb27d"/>
        </g>
        <g id="Grupo_26109" data-name="Grupo 26109" transform="translate(100.26 100.999)">
          <path id="Trazado_20659" data-name="Trazado 20659" d="M2618.181,1463.157h-53.2a4.241,4.241,0,0,1,4.24-4.241h48.957Z" transform="translate(-2564.983 -1405.218)" fill="#233862"/>
          <path id="Trazado_20660" data-name="Trazado 20660" d="M2770.577,1290.066l-19.726,57.939h-82.782l20.262-57.939Z" transform="translate(-2635.285 -1290.066)" fill="#233862"/>
          <path id="Trazado_20661" data-name="Trazado 20661" d="M2773.171,1290.066l-19.545,57.4-.181.536h-81.572l20.262-57.939Z" transform="translate(-2637.879 -1290.066)" fill="#2b478b"/>
          <path id="Trazado_20662" data-name="Trazado 20662" d="M2837.359,1370.88a5.347,5.347,0,0,1-4.933,4.008,3.087,3.087,0,0,1-3.083-4.008,5.348,5.348,0,0,1,4.934-4.008A3.086,3.086,0,0,1,2837.359,1370.88Z" transform="translate(-2745.198 -1342.446)" fill="#f99746"/>
          <path id="Trazado_20663" data-name="Trazado 20663" d="M2868.114,1290.066l-19.545,57.4H2811.09l45.7-57.4Z" transform="translate(-2732.822 -1290.066)" fill="#233862"/>
        </g>
      </g>
    </g>
  </g>
</svg>
