<svg xmlns="http://www.w3.org/2000/svg" width="946.845" height="423.999" viewBox="0 0 946.845 423.999">
  <g id="Grupo_26163" data-name="Grupo 26163" transform="translate(-168.873 -349.482)">
    <path id="Trazado_20664" data-name="Trazado 20664" d="M205.547,770.844s-92.519-200.822,16.342-293.332c165.862-140.948,327.017,70.457,401.974-27.934,123.992-162.755,529.629-120.986,405.521,81.4-65.113,106.181,152.737,90.315,63.927,242.5Z" transform="translate(0 0)" fill="#ebf3fa"/>
    <g id="Grupo_26115" data-name="Grupo 26115" transform="translate(616.416 593.419)">
      <g id="Grupo_26114" data-name="Grupo 26114">
        <path id="Rectángulo_4109" data-name="Rectángulo 4109" d="M0,0H98.6a0,0,0,0,1,0,0V10.47a0,0,0,0,1,0,0H10.47A10.47,10.47,0,0,1,0,0V0A0,0,0,0,1,0,0Z" transform="translate(1.676 87.447)" fill="#77a4e5"/>
        <g id="Grupo_26113" data-name="Grupo 26113" transform="translate(15.592 97.917)">
          <path id="Trazado_20665" data-name="Trazado 20665" d="M1701.654,1482.459H1695.7l-1.67-75.723h9.091Z" transform="translate(-1664.02 -1406.736)" fill="#94b0ed"/>
          <path id="Trazado_20666" data-name="Trazado 20666" d="M1676.471,1624.419H1618.6v-5.228l29.5-2.66,28.377,2.66Z" transform="translate(-1612.975 -1548.696)" fill="#94b0ed"/>
          <path id="Trazado_20667" data-name="Trazado 20667" d="M1601.21,1628.426a4.76,4.76,0,1,1,4.76,4.76A4.76,4.76,0,0,1,1601.21,1628.426Z" transform="translate(-1601.21 -1553.523)" fill="#94b0ed"/>
          <path id="Trazado_20668" data-name="Trazado 20668" d="M1780.2,1628.426a4.761,4.761,0,1,1,4.76,4.76A4.76,4.76,0,0,1,1780.2,1628.426Z" transform="translate(-1722.322 -1553.523)" fill="#94b0ed"/>
          <path id="Rectángulo_4110" data-name="Rectángulo 4110" d="M0,0H48.693a0,0,0,0,1,0,0V0a4.968,4.968,0,0,1-4.968,4.968H4.968A4.968,4.968,0,0,1,0,0V0A0,0,0,0,1,0,0Z" transform="translate(10.212)" fill="#94b0ed"/>
        </g>
        <path id="Trazado_20669" data-name="Trazado 20669" d="M1566.437,1201.825a8.262,8.262,0,0,1-8.262-8.262v-66c0-13.066,8.543-23.659,19.08-23.659H1620.4c10.538,0,19.081,10.592,19.081,23.659v74.258Z" transform="translate(-1556.498 -1103.908)" fill="#f99746"/>
        <path id="Trazado_20670" data-name="Trazado 20670" d="M1576.883,1201.825a4.53,4.53,0,0,1-4.53-4.53v-69.729c0-13.066,8.543-23.659,19.08-23.659h43.149c10.538,0,19.08,10.592,19.08,23.659v74.258Z" transform="translate(-1566.092 -1103.908)" fill="#cc6a27"/>
        <path id="Trazado_20671" data-name="Trazado 20671" d="M1663.777,1384.825H1558.225a5.235,5.235,0,0,1-5.235-5.235h0a5.235,5.235,0,0,1,5.235-5.235h105.552a5.235,5.235,0,0,1,5.235,5.235h0A5.235,5.235,0,0,1,1663.777,1384.825Z" transform="translate(-1552.99 -1286.908)" fill="#f99746"/>
      </g>
    </g>
    <g id="Grupo_26122" data-name="Grupo 26122" transform="translate(687.067 424.959)">
      <path id="Rectángulo_4111" data-name="Rectángulo 4111" d="M10.324,0H36.344A10.324,10.324,0,0,1,46.669,10.324V34.952A10.324,10.324,0,0,1,36.345,45.276H10.323A10.323,10.323,0,0,1,0,34.953V10.324A10.324,10.324,0,0,1,10.324,0Z" fill="#c0d8fb"/>
      <path id="Rectángulo_4112" data-name="Rectángulo 4112" d="M9.43,0H33.2a9.429,9.429,0,0,1,9.429,9.429v22.5A9.429,9.429,0,0,1,33.2,41.353H9.429A9.429,9.429,0,0,1,0,31.924V9.43A9.43,9.43,0,0,1,9.43,0Z" transform="translate(2.022 1.961)" fill="#dfebfd"/>
      <g id="Grupo_26118" data-name="Grupo 26118" transform="translate(5.51 5.127)">
        <g id="Grupo_26116" data-name="Grupo 26116" transform="translate(16.858)">
          <path id="Trazado_20672" data-name="Trazado 20672" d="M1840.67,599.733a.967.967,0,1,1,.967.967A.967.967,0,0,1,1840.67,599.733Z" transform="translate(-1840.67 -598.766)" fill="#b7d3f3"/>
          <path id="Trazado_20673" data-name="Trazado 20673" d="M1864.54,604.941a.967.967,0,1,1,.375,1.315A.967.967,0,0,1,1864.54,604.941Z" transform="translate(-1856.74 -602.608)" fill="#b7d3f3"/>
          <path id="Trazado_20674" data-name="Trazado 20674" d="M1884.537,622.079a.967.967,0,1,1-.289,1.336A.967.967,0,0,1,1884.537,622.079Z" transform="translate(-1870.053 -614.436)" fill="#b7d3f3"/>
          <path id="Trazado_20675" data-name="Trazado 20675" d="M1893.678,647.817a.967.967,0,1,1-.967.967A.967.967,0,0,1,1893.678,647.817Z" transform="translate(-1875.884 -631.957)" fill="#b7d3f3"/>
          <path id="Trazado_20676" data-name="Trazado 20676" d="M1887.02,676.72a.967.967,0,1,1-1.367,0A.966.966,0,0,1,1887.02,676.72Z" transform="translate(-1870.917 -651.323)" fill="#b7d3f3"/>
          <path id="Trazado_20677" data-name="Trazado 20677" d="M1868.246,695.543a.967.967,0,1,1-1.367,0A.967.967,0,0,1,1868.246,695.543Z" transform="translate(-1858.213 -664.059)" fill="#b7d3f3"/>
          <path id="Trazado_20678" data-name="Trazado 20678" d="M1840.67,703.815a.967.967,0,1,1,.967.967A.967.967,0,0,1,1840.67,703.815Z" transform="translate(-1840.67 -669.194)" fill="#b7d3f3"/>
        </g>
        <g id="Grupo_26117" data-name="Grupo 26117" transform="translate(0 1.836)">
          <path id="Trazado_20679" data-name="Trazado 20679" d="M1818.638,604.941a.967.967,0,1,0-.375,1.315A.967.967,0,0,0,1818.638,604.941Z" transform="translate(-1807.678 -604.444)" fill="#b7d3f3"/>
          <path id="Trazado_20680" data-name="Trazado 20680" d="M1798.642,622.079a.967.967,0,1,0,.288,1.336A.967.967,0,0,0,1798.642,622.079Z" transform="translate(-1794.365 -616.272)" fill="#b7d3f3"/>
          <path id="Trazado_20681" data-name="Trazado 20681" d="M1789.5,647.817a.967.967,0,1,0,.967.967A.967.967,0,0,0,1789.5,647.817Z" transform="translate(-1788.534 -633.793)" fill="#b7d3f3"/>
          <path id="Trazado_20682" data-name="Trazado 20682" d="M1796.159,676.72a.967.967,0,1,0,1.367,0A.967.967,0,0,0,1796.159,676.72Z" transform="translate(-1793.502 -653.159)" fill="#b7d3f3"/>
          <path id="Trazado_20683" data-name="Trazado 20683" d="M1814.933,695.543a.967.967,0,1,0,1.367,0A.967.967,0,0,0,1814.933,695.543Z" transform="translate(-1806.206 -665.895)" fill="#b7d3f3"/>
        </g>
      </g>
      <g id="Grupo_26121" data-name="Grupo 26121" transform="translate(23.074 9.877)">
        <path id="Trazado_20684" data-name="Trazado 20684" d="M1842.854,648.784a.967.967,0,1,1,.967.967A.967.967,0,0,1,1842.854,648.784Z" transform="translate(-1842.854 -636.707)" fill="#b7d3f3"/>
        <g id="Grupo_26119" data-name="Grupo 26119" transform="translate(0.835)">
          <rect id="Rectángulo_4113" data-name="Rectángulo 4113" width="0.264" height="12.077" fill="#b7d3f3"/>
        </g>
        <g id="Grupo_26120" data-name="Grupo 26120" transform="translate(0.6 6.723)">
          <rect id="Rectángulo_4114" data-name="Rectángulo 4114" width="8.14" height="0.792" transform="matrix(0.787, -0.617, 0.617, 0.787, 0, 5.025)" fill="#b7d3f3"/>
        </g>
      </g>
    </g>
    <g id="Grupo_26126" data-name="Grupo 26126" transform="translate(598.749 530.617)">
      <path id="Trazado_20685" data-name="Trazado 20685" d="M1995.619,1614.35h-39.3c-1.89-2.306-2.949-13.155-2.663-15.934.059-.559.764-3.161.764-3.161s14.51-6.121,16.353,2.1c.056.258.125.51.2.759,2.322,7.687,12.738,11.181,18.753,12.154C1993.639,1610.9,1995.084,1612.933,1995.619,1614.35Z" transform="translate(-1806.408 -1372.097)" fill="#1b3051"/>
      <path id="Trazado_20686" data-name="Trazado 20686" d="M1699.4,1279.543c1.418,0,53.8,7.323,64.7,19.573,5.445,6.119,19.681,86.306,19.681,86.306s-6.62,4.7-21.168.294c0,0-19.2-51.884-18.414-66.55.218-4.055-46.561-5.752-54.841-7.7s-18.555-6.718-14.1-14.686S1699.4,1279.543,1699.4,1279.543Z" transform="translate(-1617.328 -1159.95)" fill="#233862"/>
      <path id="Trazado_20687" data-name="Trazado 20687" d="M1917.711,1616.842h-39.3c-1.89-2.306-1.194-10.818-.907-13.6.059-.56.1-.886.1-.886s13.419-10.733,15.262-2.514c.056.258.124.51.2.758,2.322,7.687,12.738,11.181,18.753,12.154C1915.731,1613.392,1917.177,1615.424,1917.711,1616.842Z" transform="translate(-1754.664 -1374.589)" fill="#1e3c68"/>
      <path id="Trazado_20688" data-name="Trazado 20688" d="M1652.8,1279.069c1.419,0,63.974,3.108,74.874,16.6,5.445,6.74,6.254,84.581,6.254,84.581s-6.737,8.352-21.285,3.5c0,0-13.369-41.3-12.387-69.421.156-4.469-38.937-4.982-49.675-5.836-13.619-1.083-17.06-23.941-12.6-32.716S1652.8,1279.069,1652.8,1279.069Z" transform="translate(-1591.584 -1155.239)" fill="#23417c"/>
      <g id="Grupo_26125" data-name="Grupo 26125">
        <path id="Trazado_20689" data-name="Trazado 20689" d="M1709.1,984.963l-.784.159a6.5,6.5,0,0,1-7.636-5.069l-.829-4.1a6.5,6.5,0,0,1,5.069-7.636l.784-.158a6.5,6.5,0,0,1,7.636,5.069l.828,4.1A6.5,6.5,0,0,1,1709.1,984.963Z" transform="translate(-1634.609 -949.161)" fill="#122544"/>
        <path id="Trazado_20690" data-name="Trazado 20690" d="M1676.793,1124.611c-7.843,12.526-56.822,16.3-56.822,16.3-.826-2-4.548-34.291-5.183-36.519a108.352,108.352,0,0,1-3.282-17.728c-.009-.076-.017-.155-.026-.231a206.724,206.724,0,0,1-.981-26.5c.087-3.488.225-5.637.234-5.741v0c.118-.051.24-.1.358-.147,2.963-1.244,5.806-2.315,8.53-3.243l.022-.006q3.435-1.172,6.615-2.036a96.68,96.68,0,0,1,10.4-2.27,76.094,76.094,0,0,1,10.273-.948c.138-.006.274-.006.412-.008q1.214-.021,2.352.005a44.652,44.652,0,0,1,15.314,2.7c.358.141.666.274.922.392l.1.042c.29.13.516.24.674.319a.339.339,0,0,1,.062.033c.076.04.149.082.219.124l4.03,42.351Z" transform="translate(-1574.19 -1001.6)" fill="#d2e3fc"/>
        <path id="Trazado_20691" data-name="Trazado 20691" d="M1818.6,1104.9c-5.6,2.6-38.9,4.781-42.1,3.86-1.641-.474-8.507-6.521-15.414-13.961l-.006,0c-6.537-7.037-13.127-15.32-15.35-21.281a36.473,36.473,0,0,1-.642-23.124s8.5-.036,11.961,2.056,23.271,38.574,25.919,39.537,34.023,2.761,37.615,4.466C1820.58,1096.444,1824.192,1102.3,1818.6,1104.9Z" transform="translate(-1664.242 -1004.889)" fill="#d2e3fc"/>
        <path id="Trazado_20692" data-name="Trazado 20692" d="M1680.359,1025.255l-.009,2.062s.572,6.449-7.369,7.4-13.962-2.494-13.754-7.47c.71-3.855,1.491-6.5,1.539-9.691a22.378,22.378,0,0,0-.288-3.861l15.388-.331,4.534.734Z" transform="translate(-1607.206 -979.839)" fill="#ea9e6a"/>
        <path id="Trazado_20693" data-name="Trazado 20693" d="M1683.029,1014.792l-.041,11.155a13.018,13.018,0,0,1-5.545,1.232c-7.073.011-14.112-11.371-14.335-12.79Z" transform="translate(-1609.834 -980.532)" fill="#d88d59"/>
        <path id="Trazado_20694" data-name="Trazado 20694" d="M1676.153,964.344s-19.7,4.012-22.012-8.3-6.407-20.08,6.075-23.162,15.815,1.155,17.584,5.076S1681.219,962.983,1676.153,964.344Z" transform="translate(-1602.052 -924.664)" fill="#ea9e6a"/>
        <path id="Trazado_20695" data-name="Trazado 20695" d="M1670.235,913.822a41.316,41.316,0,0,1-11.984-3.223c-5.265-2.279-11.9.25-14.052,1.389a3.215,3.215,0,0,1,.524-1.3,2.892,2.892,0,0,0-1.107,1.646c-.1.074-.144.124-.119.141a3.707,3.707,0,0,0-1.8.119s.493-.071.67.245a.3.3,0,0,0,.08.087c-8.2,3.978-8.94,16.951-6.294,19.948,3.183,3.606,7.006,11.732,7.006,11.732a6.971,6.971,0,0,0,.8-5.1c-.583-3.177,2.162-3.181,5.626-4.631s.569-5.49,3.6-7.95,14.154-1.033,14.006-2.91C1671.318,922.509,1670.236,914.244,1670.235,913.822Z" transform="translate(-1590.669 -909.678)" fill="#8e342e"/>
        <path id="Trazado_20696" data-name="Trazado 20696" d="M1620.326,1209.58c-.942-6.376-3.191-14.473-4.244-21.36-.877-5.729-1.718-14.948-2.375-20.962-.009-.076-.017-.156-.026-.232.042.02.112.135.158.079,2.176-2.643,8.115-5.535,15.309,4.994,1.435,2.1,7.309,14.993,7.1,17.638C1635.291,1201.786,1620.326,1209.58,1620.326,1209.58Z" transform="translate(-1576.39 -1082.193)" fill="#b7d3f3"/>
        <path id="Trazado_20697" data-name="Trazado 20697" d="M1648.615,1232.574a5.979,5.979,0,0,1,.759-3.637s.922-.6,2.146-1.294c1.824-1.029,4.32-2.276,5.451-2.075.2.037.477.1.8.175,2.682.643,8.933,2.569,9.878,3.7.778.928,1.838,2.109,2.569,3.135Z" transform="translate(-1599.992 -1123.412)" fill="#ea9e6a"/>
        <path id="Trazado_20698" data-name="Trazado 20698" d="M1551.109,1124.117h-52.655a3.2,3.2,0,0,1,.039-1.771c1.571-3.967,4.636-10.5,8.166-17.505,2.6-5.154,5.442-10.569,8.129-15.41,3.731-6.723,7.148-12.346,9.156-14.652a23.777,23.777,0,0,1,5.665-4.59,39.916,39.916,0,0,1,5.284-2.64v0c.119-.051.24-.1.358-.147a46.545,46.545,0,0,1,6.573-2.137s.039,1.664.042,4.221c.011,7.422-.273,22.378-2.642,26.027a48.767,48.767,0,0,1-3.427,4.357c-.045.051-.087.1-.132.152-.832.975-1.754,2.024-2.721,3.1-5.5,6.156-12.455,13.386-13.3,14.266-.059.059-.087.09-.087.09h.1l14.765.206,4.529.062,9.39.13a3.557,3.557,0,0,1,1.54,1.309A9.507,9.507,0,0,1,1551.109,1124.117Z" transform="translate(-1498.351 -1014.955)" fill="#d2e3fc"/>
        <path id="Trazado_20699" data-name="Trazado 20699" d="M1855.365,1195.627c-5.6,2.6-38.9,4.781-42.1,3.86-1.641-.474-8.507-6.521-15.414-13.961.341.045,3.5-5.22,17.9,7.38,0,0,3.772,1.678,14.037.739S1853.239,1192.359,1855.365,1195.627Z" transform="translate(-1701.009 -1095.62)" fill="#b7d3f3"/>
        <path id="Trazado_20700" data-name="Trazado 20700" d="M1657.531,984.963l-.784.159a6.5,6.5,0,0,1-7.636-5.069l-.828-4.1a6.5,6.5,0,0,1,5.069-7.636l.784-.158a6.5,6.5,0,0,1,7.636,5.069l.829,4.1A6.5,6.5,0,0,1,1657.531,984.963Z" transform="translate(-1599.717 -949.161)" fill="#122544"/>
        <g id="Grupo_26123" data-name="Grupo 26123" transform="translate(51.126 0)">
          <path id="Trazado_20701" data-name="Trazado 20701" d="M1657.051,930.709c-.525-.949-1.3-8.582.8-14.66a9.738,9.738,0,0,1,4.711-5.744,5.043,5.043,0,0,1,2.427-.627l2.068.034c-6.809,2.883-8.388,18.305-7.857,19.95a.6.6,0,0,0-.053-.115Z" transform="translate(-1656.469 -909.678)" fill="#122544"/>
        </g>
        <g id="Grupo_26124" data-name="Grupo 26124" transform="translate(54.417 27.325)">
          <path id="Trazado_20702" data-name="Trazado 20702" d="M1683.81,1003.947a21.1,21.1,0,0,1-17.163-9.135l1.023-.625-.511.313.511-.314a19.867,19.867,0,0,0,16.142,8.562h.216l.013,1.2Z" transform="translate(-1666.647 -994.186)" fill="#122544"/>
        </g>
        <path id="Rectángulo_4115" data-name="Rectángulo 4115" d="M3.428,0h0A3.429,3.429,0,0,1,6.857,3.429V5.115A3.428,3.428,0,0,1,3.429,8.543h0A3.428,3.428,0,0,1,0,5.115V3.428A3.428,3.428,0,0,1,3.428,0Z" transform="translate(50.722 24.131) rotate(-11.419)" fill="#2b478b"/>
        <path id="Trazado_20703" data-name="Trazado 20703" d="M1719.777,1021.425H1718.7a1,1,0,0,1-1-1h0a1,1,0,0,1,1-1h1.079a1,1,0,0,1,1,1h0A1,1,0,0,1,1719.777,1021.425Z" transform="translate(-1646.774 -983.94)" fill="#122544"/>
      </g>
    </g>
    <g id="Grupo_26133" data-name="Grupo 26133" transform="translate(974.951 668.552)">
      <g id="Grupo_26128" data-name="Grupo 26128" transform="translate(54.436 40.656)">
        <path id="Trazado_20704" data-name="Trazado 20704" d="M2860.521,1479.243s-7.124-8.312-.439-13.591c0,0,4.883-2.956,8.864-2.716,0,0-5.642,9.461-3.816,10.4s5.526-10.995,5.526-10.995,11.112-1.078,14.687.641c0,0-9.5,7.774-7.5,8.237s12.261-7.167,12.261-7.167,10.342,1.76,9.791,8.069-4.115,8.257-5.681,8.089-10.729-3.665-10.928-2.382,5.315,5.477,9.177,5.674c0,0-7.291,8.041-12.137,5.721s-5.26-6-8.281-7.379-5.6-1.376-4.352.031,6.714,2.775,8.441,5.83,3.277,5.117-1.736,4.362-13.163-4.423-13.521-8.624Z" transform="translate(-2848.479 -1462.009)" fill="#c8dbf4"/>
        <g id="Grupo_26127" data-name="Grupo 26127" transform="translate(0 10.234)">
          <path id="Trazado_20705" data-name="Trazado 20705" d="M2888.638,1493.709s-28.09-1.082-34.293,6.951a20.317,20.317,0,0,1-5.594,7.85l-.658,1.793s4.867-5.132,6.609-5.443C2854.7,1504.861,2851.979,1494.909,2888.638,1493.709Z" transform="translate(-2842.304 -1493.66)" fill="#c8dbf4"/>
          <path id="Trazado_20706" data-name="Trazado 20706" d="M2836.635,1538.108a17.637,17.637,0,0,0-6.448,12.426l1.094.1s1.926-8.238,5.406-11.459S2836.635,1538.108,2836.635,1538.108Z" transform="translate(-2830.187 -1523.258)" fill="#c8dbf4"/>
        </g>
      </g>
      <g id="Grupo_26130" data-name="Grupo 26130" transform="translate(0 18.09)">
        <path id="Trazado_20707" data-name="Trazado 20707" d="M2703.4,1421.566s11.333-6.346,6.044-14.959c0,0-4.231-5.289-8.764-6.648,0,0,2.417,12.844,0,13.146s-1.662-14.506-1.662-14.506-11.937-5.742-16.622-5.289c0,0,7.4,12.542,4.986,12.24s-10.728-13-10.728-13-12.24-2.267-14.2,4.987,1.208,10.879,3.022,11.333,13.448.3,13.146,1.813-8.159,3.928-12.541,2.569c0,0,4.835,11.937,11.182,11.333s8.311-4.533,12.239-4.835,6.8.756,4.835,1.813-8.613.347-11.786,3.044-5.741,4.36.151,5.569,16.47.454,18.586-4.08Z" transform="translate(-2661.831 -1392.219)" fill="#c8dbf4"/>
        <g id="Grupo_26129" data-name="Grupo 26129" transform="translate(6.211 7.589)">
          <path id="Trazado_20708" data-name="Trazado 20708" d="M2681.039,1415.688s31.732,10.275,35.358,21.759a24.111,24.111,0,0,0,3.022,11.031v2.266s-3.324-7.706-5.137-8.764C2714.282,1441.98,2721.384,1432.007,2681.039,1415.688Z" transform="translate(-2681.039 -1415.688)" fill="#c8dbf4"/>
          <path id="Trazado_20709" data-name="Trazado 20709" d="M2796.565,1514.145a20.927,20.927,0,0,1,2.1,16.477l-1.259-.338s1.222-9.963-1.338-14.975S2796.565,1514.145,2796.565,1514.145Z" transform="translate(-2758.185 -1481.355)" fill="#c8dbf4"/>
        </g>
      </g>
      <g id="Grupo_26132" data-name="Grupo 26132" transform="translate(49.778 0)">
        <path id="Trazado_20710" data-name="Trazado 20710" d="M2825.6,1374.956s-14.939-8.366-7.967-19.719c0,0,5.577-6.972,11.552-8.765,0,0-3.187,16.931,0,17.329s2.191-19.122,2.191-19.122,15.736-7.569,21.911-6.971c0,0-9.76,16.532-6.573,16.134s14.142-17.13,14.142-17.13,16.133-2.988,18.723,6.573-1.594,14.341-3.984,14.939-17.727.4-17.329,2.39,10.756,5.179,16.532,3.386c0,0-6.374,15.735-14.74,14.939s-10.955-5.975-16.134-6.374-8.963,1-6.374,2.39,11.354.457,15.536,4.013,7.569,5.747-.2,7.341-21.711.6-24.5-5.378Z" transform="translate(-2815.779 -1336.271)" fill="#d4e4f8"/>
        <g id="Grupo_26131" data-name="Grupo 26131" transform="translate(1.931 10.003)">
          <path id="Trazado_20711" data-name="Trazado 20711" d="M2884.425,1367.207s-41.829,13.544-46.609,28.682a31.773,31.773,0,0,1-3.983,14.54v2.988s4.382-10.158,6.772-11.553C2840.6,1401.865,2831.243,1388.719,2884.425,1367.207Z" transform="translate(-2829.926 -1367.207)" fill="#d4e4f8"/>
          <path id="Trazado_20712" data-name="Trazado 20712" d="M2825.657,1496.991s-6.451,9.8-2.773,21.72l1.659-.446s-1.611-13.133,1.764-19.739S2825.657,1496.991,2825.657,1496.991Z" transform="translate(-2821.751 -1453.768)" fill="#d4e4f8"/>
        </g>
      </g>
      <path id="Trazado_20713" data-name="Trazado 20713" d="M2783.358,1586.787a29.262,29.262,0,0,0,29.263-29.263h-58.525A29.262,29.262,0,0,0,2783.358,1586.787Z" transform="translate(-2724.262 -1485.984)" fill="#d4e4f8"/>
      <path id="Trazado_20714" data-name="Trazado 20714" d="M2812.179,1645.075h-59.333a3.61,3.61,0,0,1,3.61-3.61h52.113a3.61,3.61,0,0,1,3.611,3.61Z" transform="translate(-2723.417 -1542.783)" fill="#d4e4f8"/>
      <rect id="Rectángulo_4116" data-name="Rectángulo 4116" width="60.153" height="0.898" transform="translate(28.87 71.54)" fill="#9fc1f4"/>
    </g>
    <g id="Grupo_26138" data-name="Grupo 26138" transform="translate(241.082 486.571)">
      <g id="Grupo_26134" data-name="Grupo 26134" transform="translate(86.195 259.581)">
        <path id="Trazado_20715" data-name="Trazado 20715" d="M664.173,1598.054c.232,3.164,4.7,3.2,9.762,2.61s3.719.694,10.812.793,9.538-2.246,9.881-3.259c.306-.9-3.11-1.656-6.765-2.546-.46-.11-.921-.227-1.382-.343-4.121-1.048-6.849-4.132-10.375-6.825-3.339-2.551-7.646-11.783-7.646-11.783l-9.69-.437s4.081,8.275,5.613,11.844c.9,2.1.518,4.677.126,6.656A12.418,12.418,0,0,0,664.173,1598.054Z" transform="translate(-658.77 -1576.264)" fill="#ffb27d"/>
        <path id="Trazado_20716" data-name="Trazado 20716" d="M685.2,1639.377c5.065-.588,3.719.694,10.812.793s9.538-2.246,9.881-3.259c.306-.9-3.11-1.656-6.765-2.546l-.044.067a19.874,19.874,0,0,1-10.408,1.864c-4.761-.477-9.618-2.464-12.9-2.82a12.417,12.417,0,0,0-.336,3.291C675.674,1639.931,680.138,1639.965,685.2,1639.377Z" transform="translate(-670.039 -1614.977)" fill="#233862"/>
      </g>
      <g id="Grupo_26135" data-name="Grupo 26135" transform="translate(24.662 253.756)">
        <path id="Trazado_20717" data-name="Trazado 20717" d="M468.484,1586.52c.229,3.164,4.693,3.2,9.76,2.62s3.718.7,10.811.8,9.54-2.236,9.884-3.249c.307-.9-3.108-1.659-6.762-2.553-.46-.111-.921-.228-1.382-.344-4.12-1.052-6.845-4.139-10.368-6.835-3.337-2.554,0-17.676,0-17.676l-10.657-1.037s.511,12.732.5,18.521c0,2.284-1.053,4.48-1.447,6.459A12.422,12.422,0,0,0,468.484,1586.52Z" transform="translate(-468.466 -1558.249)" fill="#ffb27d"/>
        <path id="Trazado_20718" data-name="Trazado 20718" d="M478.244,1641.417c5.066-.583,3.718.7,10.811.8s9.54-2.236,9.884-3.249c.307-.9-3.108-1.659-6.762-2.553l-.044.067a19.875,19.875,0,0,1-10.41,1.854c-4.76-.482-9.616-2.474-12.9-2.833a12.421,12.421,0,0,0-.339,3.291C468.713,1641.961,473.177,1642,478.244,1641.417Z" transform="translate(-468.466 -1610.526)" fill="#233862"/>
      </g>
      <path id="Trazado_20719" data-name="Trazado 20719" d="M455.849,794.122c1.834-7.546-.825-11.06-3.224-12.931-1.138-2.777-2.437-4.779-3.765-5.534a13.587,13.587,0,0,0-7.354-1.407,3.438,3.438,0,0,1,1.551-.736c-1.259-.187-4.069,1.062-4.069,1.062-17.511-6.748-20.264,19.037-19.9,25.027s.317,13.045-8.795,17.764c-17.383,9.005,5.777,42.941,5.777,42.941-.442-4.84,21.893-30.386,33.547-38.037,2.837-4.176,3.845-11.554,3.92-12.134-.49,5.849-1.49,9.131-2.385,10.978C456.467,816.227,457.254,804.49,455.849,794.122Z" transform="translate(-400.066 -773.459)" fill="#a9453d"/>
      <path id="Trazado_20720" data-name="Trazado 20720" d="M508.79,889.5c.059.026-5.627,2.978-9.9,1.808-4.022-1.1-6.65-6.312-6.595-6.324,1.7-.338,2.195-2.679,2.159-12.737l.77.152,12.948,2.564s-.295,4.075-.3,7.913C507.857,886.095,508.053,889.151,508.79,889.5Z" transform="translate(-459.926 -840.302)" fill="#ffb27d"/>
      <path id="Trazado_20721" data-name="Trazado 20721" d="M514.3,875.276s-.295,4.075-.3,7.913c-7.245-.2-11.075-6.813-12.644-10.477Z" transform="translate(-466.056 -840.619)" fill="#ed975d"/>
      <path id="Trazado_20722" data-name="Trazado 20722" d="M548.268,1291.422a3.177,3.177,0,0,1-2.879,4.138l-5.058.237-5.352.164a4.3,4.3,0,0,1-3.464-1.581,150.473,150.473,0,0,1-25.4-48.086q-.337-1.067-.711-2.161c-5.268-15.359-16.188-34.639-21.943-52.09-.916-2.78-1.738-5.4-2.477-7.872-.236-.793-.467-1.572-.685-2.339a185.05,185.05,0,0,1-6.6-34.748l41.555.332A915.366,915.366,0,0,0,548.268,1291.422Z" transform="translate(-447.346 -1026.275)" fill="#2a4e96"/>
      <path id="Trazado_20723" data-name="Trazado 20723" d="M488.108,961.565c-.1,19.775,2.9,28.258,2.9,28.258a55.841,55.841,0,0,1-38.939,2.385c-.249-.078-5.809-32.671-5.279-35.618a62.693,62.693,0,0,0,.514-16.567,132.951,132.951,0,0,0-5.128-26.017c5.762-1.311,11.158-3.614,17.154-5.863,1.38,1.718,5.6,3.515,9.255,3.433,4.212-.093,5.578-1.9,5.359-3.865,4.489,2.5,8.071,4.857,8.071,4.857,3.815,6.627,11.552,13.062,12.113,23.228C494.267,938.3,488.111,961.011,488.108,961.565Z" transform="translate(-426.015 -864.302)" fill="#d2e3fc"/>
      <path id="Trazado_20724" data-name="Trazado 20724" d="M444.479,1009.165c-1.817,2.571-5.3,18.2-13.964,20.162,4.465-11.137,7.855-16.02,8.384-19.444a84.47,84.47,0,0,0,.514-19.244c2.9-5.084,5.065-8.569,5.065-8.569.228-.822,4.609-14.37,6.013-2.26S446.507,1006.29,444.479,1009.165Z" transform="translate(-418.124 -909.698)" fill="#5f9aa8"/>
      <path id="Trazado_20725" data-name="Trazado 20725" d="M564.786,918.236s6.164,3.346,8.763,6.647,17.82,30.654,17.82,33.391-15.447.949-15.447.949Z" transform="translate(-508.979 -871.423)" fill="#f99746"/>
      <path id="Trazado_20726" data-name="Trazado 20726" d="M512.577,831.35s-17.142.283-17.154-10.4-2.232-17.833,8.712-18.465,13.075,3.44,13.946,7S517.036,831,512.577,831.35Z" transform="translate(-461.914 -793.059)" fill="#ffb27d"/>
      <path id="Trazado_20727" data-name="Trazado 20727" d="M500.408,797.275s-4.694,12.528-11.9,14.38-10.327-.078-10.327-.078a20.4,20.4,0,0,0,6.672-12.051S496.867,791.313,500.408,797.275Z" transform="translate(-450.379 -788.106)" fill="#a9453d"/>
      <path id="Trazado_20728" data-name="Trazado 20728" d="M543.318,800.688s3.505,2.8,4.36,5.516,1.239,8.317,2.871,8.126c0,0,3.536-8.515-.438-13.331C545.9,795.891,543.318,800.688,543.318,800.688Z" transform="translate(-494.453 -790.502)" fill="#a9453d"/>
      <path id="Trazado_20729" data-name="Trazado 20729" d="M540.427,907.711s9.918,24.5,10.21,29.46,1.167,81.086,1.167,81.086-.583,3.5,6.125,2.042,8.459-2.917,8.459-2.917-6.417-46.96-4.667-63.294S548.3,911.114,548.3,911.114Z" transform="translate(-492.497 -864.302)" fill="#f99746"/>
      <path id="Trazado_20730" data-name="Trazado 20730" d="M554.145,1358.8l-5.81.177a3.359,3.359,0,0,1-2.7-1.216,149.976,149.976,0,0,1-25.708-48.465q-.336-1.067-.711-2.161c-5.268-15.359-16.188-34.639-21.943-52.09-.916-2.78-1.738-5.4-2.477-7.873-.236-.793-.467-1.572-.685-2.339l6.119-4.644s18.373,29.751,24.061,57.749C529.236,1322.254,549.023,1351.518,554.145,1358.8Z" transform="translate(-461.159 -1089.273)" fill="#1e3d70"/>
      <path id="Trazado_20731" data-name="Trazado 20731" d="M448.414,1284.019c.1,12.88-.512,41.59-2.079,55.624a2.535,2.535,0,0,1-2.522,2.253h-4.336c-1.827,0-3.195-.013-4.1-.027a1.669,1.669,0,0,1-1.609-1.347c-4.312-21.942-7.4-40.17-9.657-55.921-1.89-13.184-3.57-24.486-4.862-34.216-1.3-9.791-2.205-17.991-2.529-24.918q-.075-1.636-.108-3.182t-.017-3.019l35.905-3.5C452.045,1239.623,448.355,1276.106,448.414,1284.019Z" transform="translate(-408.7 -1072.75)" fill="#2a4e96"/>
      <path id="Trazado_20732" data-name="Trazado 20732" d="M439.747,1362.2c-1.642,0-2.912-.011-3.812-.023a2.023,2.023,0,0,1-1.956-1.634c-4.283-21.815-7.352-39.955-9.6-55.638-1.89-13.184-3.57-24.486-4.862-34.216-1.3-9.792-2.205-17.991-2.529-24.918l13.175,7.749s-8.409,2.967-5.2,25.426S435.282,1359.019,439.747,1362.2Z" transform="translate(-408.971 -1093.052)" fill="#1e3d70"/>
      <path id="Trazado_20733" data-name="Trazado 20733" d="M424.665,1017.843s-2.529,9.138-11.279,7.971-21.193-6.417-21.193-6.417,3.739-11.816,8.388-27.339c5.629-18.793,12.6-43.019,15.882-58.3a94.474,94.474,0,0,0,1.785-10.419l7.26-14.085s10.824,24.294,11.408,30.419S424.665,1017.843,424.665,1017.843Z" transform="translate(-392.193 -865.346)" fill="#f99746"/>
      <path id="Trazado_20734" data-name="Trazado 20734" d="M441.832,1003.786c-.391,9.917-2.724,29.168-23.53,39.473-.055.026-.111.055-.166.078,5.629-18.793,12.6-43.019,15.882-58.3C437.839,990.748,442.045,998.326,441.832,1003.786Z" transform="translate(-409.747 -916.625)" fill="#ed7d2b"/>
      <path id="Trazado_20735" data-name="Trazado 20735" d="M433.592,938.761l9.581-29.506c-.026.012-12.1,3.593-18.175,6.661,0,0-3.8,4.9-6.146,16.188,0,0-2.482,27.112,3.06,37.029,0,0,17.5,3.5,45.5-6.125v-6.417s-30.626,1.6-36.9,2.333Z" transform="translate(-409.857 -865.346)" fill="#ffb27d"/>
      <path id="Trazado_20736" data-name="Trazado 20736" d="M441.227,909.255s-17.761,1.251-22.039,10.779-5.639,41.223-.194,50.557c0,0,7.5,2.135,20.753-.344l.49-.093s4.229-10.355.437-12.4c0,0-11.181.583-10.014-3.111S441.227,909.255,441.227,909.255Z" transform="translate(-407.911 -865.346)" fill="#f99746"/>
      <g id="Grupo_26136" data-name="Grupo 26136" transform="translate(47.93 86.143)">
        <path id="Trazado_20737" data-name="Trazado 20737" d="M570.344,1048.94l-.523,1.681-29.144-9.066a1.119,1.119,0,0,1-.2-1.031.825.825,0,0,1,.72-.651Z" transform="translate(-540.427 -1039.874)" fill="#a9453d"/>
        <path id="Trazado_20738" data-name="Trazado 20738" d="M633.966,1069.5l-2.108-1.589-.523,1.681Z" transform="translate(-601.941 -1058.847)" fill="#a9453d"/>
      </g>
      <path id="Trazado_20739" data-name="Trazado 20739" d="M564.53,1048.3s6.612-4.072,9.386-3.445,9.842,5.746,6.442,6.855-6.153-.055-7.461.751-2.273,2.277-8.367,2.257S564.53,1048.3,564.53,1048.3Z" transform="translate(-506.974 -957.059)" fill="#ffb27d"/>
      <g id="Grupo_26137" data-name="Grupo 26137" transform="translate(55.128 80.218)">
        <path id="Trazado_20740" data-name="Trazado 20740" d="M562.686,1074.967l30.284.011,11.656-44.033-30.284-.011Z" transform="translate(-562.686 -1027.9)" fill="#233862"/>
        <path id="Trazado_20741" data-name="Trazado 20741" d="M599.513,1021.549s-2.318.38-1.31,3.035h10.34l-3.308-3.035Z" transform="translate(-586.548 -1021.549)" fill="#9db0f4"/>
        <path id="Trazado_20742" data-name="Trazado 20742" d="M602.786,1021.549s4.566,0,6.151,3.678c1.938,4.5,1.11,17.056,1.11,17.056h24.3s3.835-14.761-4.184-20.734Z" transform="translate(-589.82 -1021.549)" fill="#fff"/>
      </g>
      <path id="Trazado_20743" data-name="Trazado 20743" d="M663.424,1095.318s-3.658-2.74-4.789-1.16.869,9.64,3.262,9.045S664.318,1096.958,663.424,1095.318Z" transform="translate(-572.263 -990.131)" fill="#ffb27d"/>
    </g>
    <path id="Trazado_20744" data-name="Trazado 20744" d="M1160.855,837.57c-.784-19.409,15.484-28.032,32.118-28.032s34.736,4.31,36.3,30.118c1.009,16.6-7.842,26.82-33.329,26.82-8.6,0-15.276-1.356-20.392-3.774l-12.74,11.321,6.26-15.648C1163.53,853.219,1161.194,845.945,1160.855,837.57Z" transform="translate(-671.214 -311.301)" fill="#d2e3fc" opacity="0.5"/>
    <path id="Trazado_20745" data-name="Trazado 20745" d="M2139.4,765.961c1.095-27.083-21.606-39.116-44.817-39.116s-48.469,6.014-50.658,42.027c-1.408,23.168,10.943,37.424,46.507,37.424,11.994,0,21.316-1.892,28.456-5.266l17.777,15.8-8.736-21.835C2135.672,787.8,2138.933,777.647,2139.4,765.961Z" transform="translate(-1268.7 -255.346)" fill="#d2e3fc"/>
    <g id="Grupo_26147" data-name="Grupo 26147" transform="translate(391.401 525.326)">
      <g id="Grupo_26141" data-name="Grupo 26141" transform="translate(0 68.094)">
        <g id="Grupo_26140" data-name="Grupo 26140">
          <path id="Rectángulo_4117" data-name="Rectángulo 4117" d="M0,0H98.6a0,0,0,0,1,0,0V10.47a0,0,0,0,1,0,0H10.47A10.47,10.47,0,0,1,0,0V0A0,0,0,0,1,0,0Z" transform="translate(1.677 87.447)" fill="#77a4e5"/>
          <g id="Grupo_26139" data-name="Grupo 26139" transform="translate(15.592 97.917)">
            <path id="Trazado_20746" data-name="Trazado 20746" d="M1005.75,1482.459H999.8l-1.67-75.723h9.09Z" transform="translate(-968.116 -1406.736)" fill="#94b0ed"/>
            <path id="Trazado_20747" data-name="Trazado 20747" d="M980.567,1624.419H922.693v-5.228l29.5-2.66,28.377,2.66Z" transform="translate(-917.071 -1548.696)" fill="#94b0ed"/>
            <path id="Trazado_20748" data-name="Trazado 20748" d="M905.306,1628.426a4.76,4.76,0,1,1,4.76,4.76A4.76,4.76,0,0,1,905.306,1628.426Z" transform="translate(-905.306 -1553.523)" fill="#94b0ed"/>
            <path id="Trazado_20749" data-name="Trazado 20749" d="M1084.292,1628.426a4.761,4.761,0,1,1,4.76,4.76A4.761,4.761,0,0,1,1084.292,1628.426Z" transform="translate(-1026.418 -1553.523)" fill="#94b0ed"/>
            <path id="Rectángulo_4118" data-name="Rectángulo 4118" d="M0,0H48.693a0,0,0,0,1,0,0V0a4.968,4.968,0,0,1-4.968,4.968H4.968A4.968,4.968,0,0,1,0,0V0A0,0,0,0,1,0,0Z" transform="translate(10.212)" fill="#94b0ed"/>
          </g>
          <path id="Trazado_20750" data-name="Trazado 20750" d="M870.532,1201.825a8.261,8.261,0,0,1-8.261-8.262v-66c0-13.066,8.543-23.659,19.081-23.659H924.5c10.538,0,19.081,10.592,19.081,23.659v74.258Z" transform="translate(-860.594 -1103.908)" fill="#f99746"/>
          <path id="Trazado_20751" data-name="Trazado 20751" d="M880.978,1201.825a4.53,4.53,0,0,1-4.53-4.53v-69.729c0-13.066,8.543-23.659,19.081-23.659h43.148c10.538,0,19.081,10.592,19.081,23.659v74.258Z" transform="translate(-870.187 -1103.908)" fill="#cc6a27"/>
          <path id="Trazado_20752" data-name="Trazado 20752" d="M967.873,1384.825H862.321a5.235,5.235,0,0,1-5.235-5.235h0a5.235,5.235,0,0,1,5.235-5.235H967.873a5.235,5.235,0,0,1,5.235,5.235h0A5.235,5.235,0,0,1,967.873,1384.825Z" transform="translate(-857.086 -1286.908)" fill="#f99746"/>
        </g>
      </g>
      <g id="Grupo_26146" data-name="Grupo 26146" transform="translate(22)">
        <path id="Trazado_20753" data-name="Trazado 20753" d="M1284.351,1588.213c-.314,3.042,3.918,3.828,8.826,4.125s3.413,1.287,10.129,2.578,9.433-.522,9.93-1.426c.442-.8-2.672-2.1-5.991-3.558-.418-.183-.836-.371-1.254-.559-3.735-1.69-5.8-5.078-8.7-8.23-2.74-2.985-5.269-12.476-5.269-12.476l-9.124-2.051s2.476,8.544,3.329,12.189c.5,2.144-.3,4.527-1,6.339A11.966,11.966,0,0,0,1284.351,1588.213Z" transform="translate(-1167.217 -1348.91)" fill="#ffb27d"/>
        <path id="Trazado_20754" data-name="Trazado 20754" d="M1296.179,1631.114c4.907.3,3.413,1.287,10.129,2.578s9.433-.522,9.93-1.426c.442-.8-2.672-2.1-5.991-3.558l-.053.056a19.162,19.162,0,0,1-10.194.012c-4.438-1.256-8.714-3.963-11.771-4.855a11.967,11.967,0,0,0-.874,3.068C1287.039,1630.031,1291.271,1630.817,1296.179,1631.114Z" transform="translate(-1170.218 -1387.685)" fill="#0f2549"/>
        <path id="Trazado_20755" data-name="Trazado 20755" d="M1060.5,1249.437c-4.909-3.447-37.383-9.593-53.956-11.37l-18.317-15.9s-15.591,23.094-15.715,40.76c-.058,8.237,3.736,9.055,3.737,9.057s58.72.436,61.294.7c4.213.435,9.771,10.93,11.159,20.49s25.875,48.441,25.875,48.441,5.106,1.636,7.468,1.5a7.461,7.461,0,0,0,3.715-1S1071.574,1257.211,1060.5,1249.437Z" transform="translate(-957.191 -1115.835)" fill="#233862"/>
        <path id="Trazado_20756" data-name="Trazado 20756" d="M1237.378,1588.213c-.314,3.042,3.918,3.828,8.826,4.125s3.413,1.287,10.129,2.578,9.433-.522,9.929-1.426c.442-.8-2.672-2.1-5.991-3.558-.418-.183-.836-.371-1.254-.559-3.735-1.69-5.8-5.078-8.7-8.23-2.739-2.985-5.269-12.476-5.269-12.476l-9.124-2.051s2.476,8.544,3.329,12.189c.5,2.144-.3,4.527-1,6.339A11.951,11.951,0,0,0,1237.378,1588.213Z" transform="translate(-1135.432 -1348.91)" fill="#ffb27d"/>
        <path id="Trazado_20757" data-name="Trazado 20757" d="M1249.206,1631.114c4.907.3,3.413,1.287,10.129,2.578s9.432-.522,9.929-1.426c.442-.8-2.672-2.1-5.991-3.558l-.053.056a19.163,19.163,0,0,1-10.194.012c-4.438-1.256-8.714-3.963-11.772-4.855a11.952,11.952,0,0,0-.874,3.068C1240.066,1630.031,1244.3,1630.817,1249.206,1631.114Z" transform="translate(-1138.434 -1387.685)" fill="#233862"/>
        <path id="Trazado_20758" data-name="Trazado 20758" d="M1013.114,1249.437c-4.265-2.995-17.092-5.316-31.252-7.04a9.525,9.525,0,0,1-8.085-7.149h0l-32.936-13.082s-15.591,23.094-15.715,40.76c-.058,8.237,3.737,9.055,3.737,9.057s58.72.436,61.294.7c4.213.435,9.771,10.93,11.159,20.49s25.875,48.441,25.875,48.441,5.106,1.636,7.468,1.5a7.461,7.461,0,0,0,3.715-1S1024.185,1257.211,1013.114,1249.437Z" transform="translate(-925.125 -1115.835)" fill="#2b478b"/>
        <path id="Trazado_20759" data-name="Trazado 20759" d="M1011.594,918.574s-9.6,4.909-2.605,15.454c0,0-8.249.953-10.324-1.418a6.722,6.722,0,0,0,.677,1.543s-7.991-1.048-10.855-4.076,6.066-43.318,27.351-35.073c0,0,18.925,1.726,13.554,23.057s1.685,22.516,1.685,22.516a10.184,10.184,0,0,1-3.072.479s-1.3-.761-1.441-1.571a5,5,0,0,0,.362,1.69s-7.737-.557-11.058-4.071S1009.76,922.852,1011.594,918.574Z" transform="translate(-967.648 -893.707)" fill="#8e342e"/>
        <path id="Trazado_20760" data-name="Trazado 20760" d="M1085.693,968.235l-.768.107a6.3,6.3,0,0,1-7.087-5.36l-.557-4.018a6.3,6.3,0,0,1,5.36-7.087l.769-.106a6.3,6.3,0,0,1,7.087,5.36l.557,4.018A6.3,6.3,0,0,1,1085.693,968.235Z" transform="translate(-1028.042 -932.829)" fill="#ed7d2b"/>
        <path id="Trazado_20761" data-name="Trazado 20761" d="M1028.7,1030.659c-2.865,2.211-4.677,10.2-9.3,11.513-17.316,4.943-26.611-15.62-29.651-25.657a15.085,15.085,0,0,1,5.843-2.127c1.259-.214,2.586-.381,3.686-.492,1.891-1.608,4.508-7.925,4.667-17.535l.836.179,14,3.075s-.409,4.422-.507,8.587c-.074,3.259-.179,4.038.072,4.427,1.089.179,2.372,2.964,2.372,2.964a.035.035,0,0,0,.008.013A89.009,89.009,0,0,1,1028.7,1030.659Z" transform="translate(-968.854 -963.042)" fill="#ffb27d"/>
        <path id="Trazado_20762" data-name="Trazado 20762" d="M1050.245,1000s-.411,4.419-.507,8.587c-7.864-.384-11.875-7.648-13.5-11.662Z" transform="translate(-1000.313 -963.423)" fill="#ed985f"/>
        <g id="Grupo_26142" data-name="Grupo 26142" transform="translate(0.958 49.455)">
          <path id="Trazado_20763" data-name="Trazado 20763" d="M1048.28,1106s-8.234.3-17.176.334c-1.057.007-2.128.007-3.192,0-7.284-.031-14.44-.285-17.485-1.071-2.976-.765-14.419-8.522-23.577-17.92l0,0c-.709,1.69-1.245,2.984-1.259,3.088a47.421,47.421,0,0,1-1.266,6.251c-.038.139-.073.282-.1.424-.025.112-.045.226-.069.341s-.042.219-.056.33c-.984,6.029,2.013,15.173,2.886,19.822.278,1.474.34,2.5,0,2.823-14.916,14.144-42.895,10.932-55.179,8.651a4.537,4.537,0,0,1-3.216-6.513c4.736-9.366,13.623-30.061,12.187-51.152-.049-.72,6.665-23.748,6.665-23.748s5.219-.911,11.248-1.4c.57.518,1.742,15.667,9.283,16.543,1.227.142,9.1,12.162,9.1,12.162l2.381-12.281-2.819-16.293a86.533,86.533,0,0,1,8.613,2.643,9.509,9.509,0,0,1,4.8,4.266c5.271,9.631,22.374,40.694,24.119,41.417,1.634.678,7.8,1.909,14.314,3.1h0c8.724,1.6,18.087,3.108,18.087,3.108Z" transform="translate(-928.087 -1046.263)" fill="#d2e3fc"/>
          <path id="Trazado_20764" data-name="Trazado 20764" d="M1087.233,1246.941l-2.742.009a.067.067,0,0,1,.008-.011Z" transform="translate(-1033.919 -1182.052)" fill="#d2e3fc"/>
        </g>
        <path id="Trazado_20765" data-name="Trazado 20765" d="M1048.639,953.177s-18.619-.365-18.214-11.957-1.724-19.446,10.181-19.7,14.058,4.247,14.864,8.149S1053.492,952.973,1048.639,953.177Z" transform="translate(-996.373 -912.391)" fill="#ffb27d"/>
        <path id="Trazado_20766" data-name="Trazado 20766" d="M1154.069,1174.048c-1.057.005-2.129.005-3.194,0-7.282-.031-14.439-.286-17.484-1.072-2.975-.766-14.42-8.522-23.578-17.92a.007.007,0,0,1,0-.005s1.932-7.4,2.764-8.634,4.118,10.793,11.794,15.688,19.69,8.326,25.524,6.938C1153.822,1168.109,1154.225,1171.641,1154.069,1174.048Z" transform="translate(-1050.094 -1064.519)" fill="#b7d3f3"/>
        <path id="Trazado_20767" data-name="Trazado 20767" d="M1075.457,998.614s.119,1.388,3.172,1.607c0,0,2.563.184,2.67-1.308A7.523,7.523,0,0,0,1075.457,998.614Z" transform="translate(-1026.848 -964.28)" fill="#fff"/>
        <g id="Grupo_26143" data-name="Grupo 26143" transform="translate(36.417 25.284)">
          <path id="Trazado_20768" data-name="Trazado 20768" d="M1050.953,985.248a20.455,20.455,0,0,1-13.2-13.457l1.128-.28-.564.14.564-.14a19.262,19.262,0,0,0,12.422,12.629l.2.062-.339,1.112Z" transform="translate(-1037.753 -971.51)" fill="#122544"/>
        </g>
        <path id="Trazado_20769" data-name="Trazado 20769" d="M1078.777,1011.8l-1-.315a.971.971,0,0,1-.632-1.215h0a.972.972,0,0,1,1.215-.632l1,.316a.972.972,0,0,1,.632,1.215h0A.971.971,0,0,1,1078.777,1011.8Z" transform="translate(-1027.962 -971.996)" fill="#ed7d2b"/>
        <path id="Trazado_20770" data-name="Trazado 20770" d="M1045.172,912.793s-4.767,14.12-11.918,16.516-9.522-.44-9.522-.44a20.683,20.683,0,0,0,5.874-12.671S1041.159,907.02,1045.172,912.793Z" transform="translate(-991.848 -905.205)" fill="#8e342e"/>
        <path id="Trazado_20771" data-name="Trazado 20771" d="M1062.5,919.641s9.708-.544,12.609,2.219c2.092,1.993,2.043,3.034,2.205,5.691,0,0,4.246-6.549-.123-11.132C1072.565,911.56,1062.5,919.641,1062.5,919.641Z" transform="translate(-1018.084 -907.896)" fill="#8e342e"/>
        <path id="Trazado_20772" data-name="Trazado 20772" d="M1065.073,914.412s-2.431,13.51-11.318,18.418c0,0,8.608-8.81,8.761-17.624S1065.073,914.412,1065.073,914.412Z" transform="translate(-1012.164 -905.33)" fill="#8e342e"/>
        <path id="Trazado_20773" data-name="Trazado 20773" d="M988.487,930.074c2.863,3.029,10.854,4.079,10.854,4.079a6.645,6.645,0,0,1-.675-1.546c4.107,3.33,14.194.912,14.194.912-8.046-1.777-5.441-13.389-2.7-13.884a251.581,251.581,0,0,1,6.239-24.557c-.356-.058-.558-.077-.558-.077C994.554,886.757,985.625,927.048,988.487,930.074Z" transform="translate(-967.648 -893.705)" fill="#8e342e"/>
        <g id="Grupo_26145" data-name="Grupo 26145" transform="translate(29.845)">
          <path id="Trazado_20774" data-name="Trazado 20774" d="M1025.9,964.552l-.768.107a6.3,6.3,0,0,1-7.087-5.36l-.557-4.018a6.3,6.3,0,0,1,5.36-7.087l.769-.107a6.3,6.3,0,0,1,7.087,5.36l.557,4.018A6.3,6.3,0,0,1,1025.9,964.552Z" transform="translate(-1017.427 -930.336)" fill="#ed7d2b"/>
          <g id="Grupo_26144" data-name="Grupo 26144" transform="translate(3.366)">
            <path id="Trazado_20775" data-name="Trazado 20775" d="M1027.916,912.873c-.457-.856,1.146-7.512,3.5-12.674,1.139-2.495,4.013-5.835,6.065-6.7a4.415,4.415,0,0,1,2.529,0,19.249,19.249,0,0,1,2.219.895c-6.743,2.1-12.6,16.233-12.178,17.7a.505.505,0,0,0-.045-.1Z" transform="translate(-1027.838 -893.315)" fill="#ed7d2b"/>
          </g>
          <path id="Rectángulo_4119" data-name="Rectángulo 4119" d="M3.324,0h0A3.324,3.324,0,0,1,6.648,3.324V4.959A3.323,3.323,0,0,1,3.325,8.282h0A3.324,3.324,0,0,1,0,4.959V3.324A3.324,3.324,0,0,1,3.324,0Z" transform="matrix(0.99, -0.138, 0.138, 0.99, 2.304, 22.5)" fill="#f99746"/>
        </g>
        <path id="Trazado_20776" data-name="Trazado 20776" d="M1178.575,1209.812s7.985-.459,8.76-.041a43.658,43.658,0,0,1,6.221,4.244,44.75,44.75,0,0,1,2.432,4.022s-.762.212-1.106-.1-2.949-3.077-2.949-3.077l2.676,4.065a2.264,2.264,0,0,1-1.292-.445c-.367-.4-2.868-2.946-2.868-2.946l-.852-.168a9.229,9.229,0,0,1,1.338,1.326,8.177,8.177,0,0,1,.783,1.308,6.262,6.262,0,0,1-1-.243c-.238-.114-2.48-2.076-2.48-2.076l1.189,1.622a3.12,3.12,0,0,1-1.065-.217,16.5,16.5,0,0,0-2.32-1.783,10.452,10.452,0,0,1-3.5-.6c-.957-.508-3.963-1.671-3.963-1.671Z" transform="translate(-1096.624 -1107.329)" fill="#ffb27d"/>
        <path id="Trazado_20777" data-name="Trazado 20777" d="M1012.383,1039.39s-5.34,1.557-6.557,2.783c0,0,5.582,14.27,13.63,20.931l2.151-1.527v3.469l8.057,5.273S1011.97,1043.706,1012.383,1039.39Z" transform="translate(-979.732 -992.158)" fill="#b7d3f3"/>
        <path id="Trazado_20778" data-name="Trazado 20778" d="M1018.882,1170.846c-4.224-1.638-18.389-7.371-24.081-12.722-6.363-5.991-19.565-27.527-19.565-27.527l23.1-5.643s9.516,13.89,12.225,16.536c2.079,2.034,6.929,2.187,6.929,2.187l-1.266,6.251c-.038.139-.073.282-.1.424-.025.112-.045.226-.069.341s-.038.219-.056.33C1015.012,1157.053,1018.009,1166.2,1018.882,1170.846Z" transform="translate(-959.033 -1050.055)" fill="#b7d3f3"/>
        <path id="Trazado_20779" data-name="Trazado 20779" d="M1077.932,1041.745s2.457,19.416.436,28.574c0,0,3.3-6.059,3.76-7.169l-.555-3.33,2.128.74s-1.877-15.48-3.575-18.193-2.323-2.976-2.323-2.976Z" transform="translate(-1028.436 -992.158)" fill="#b7d3f3"/>
        <path id="Trazado_20780" data-name="Trazado 20780" d="M1255.128,1213.9s-10.3.38-20.37.333c-2.5-3.874.561-8.517.561-8.517h.006c8.722,1.593,18.086,3.1,18.086,3.1Z" transform="translate(-1133.976 -1104.703)" fill="#ffb27d"/>
        <path id="Trazado_20781" data-name="Trazado 20781" d="M1223.159,1240.621h-38.071a3.035,3.035,0,0,1,3.035-3.035h35.036Z" transform="translate(-1101.031 -1126.269)" fill="#ed7d2b"/>
        <path id="Trazado_20782" data-name="Trazado 20782" d="M1331.008,1118.736l-14.117,41.464h-59.243l14.5-41.464Z" transform="translate(-1150.129 -1045.848)" fill="#ed7d2b"/>
        <path id="Trazado_20783" data-name="Trazado 20783" d="M1332.82,1118.736l-13.988,41.081-.129.383h-58.377l14.5-41.464Z" transform="translate(-1151.941 -1045.848)" fill="#f99746"/>
        <path id="Trazado_20784" data-name="Trazado 20784" d="M1376.9,1175.667a3.827,3.827,0,0,1-3.531,2.868,2.209,2.209,0,0,1-2.206-2.868,3.828,3.828,0,0,1,3.531-2.868A2.209,2.209,0,0,1,1376.9,1175.667Z" transform="translate(-1226.891 -1082.43)" fill="#ffc397"/>
        <path id="Trazado_20785" data-name="Trazado 20785" d="M1399.127,1118.736l-13.988,41.081h-26.822l32.7-41.081Z" transform="translate(-1218.248 -1045.848)" fill="#ed7d2b"/>
        <path id="Trazado_20786" data-name="Trazado 20786" d="M1114.921,1200.537s-19.6,1.713-30.43,1.23v-10.643c7.1,1.959,30.422,6.189,30.422,6.189Z" transform="translate(-1032.961 -1094.83)" fill="#ffb27d"/>
        <path id="Trazado_20787" data-name="Trazado 20787" d="M973.073,1048s-11.208.255-14.677,4,3.442,24.922,3.442,24.922,20.891,25.587,31.343,27.391c0,0,4.568.624,6.7.658,0,0-2.09-6.086,1.8-9.906,0,0-4.475-1.252-4.66-1.807S973.073,1048,973.073,1048Z" transform="translate(-946.979 -997.981)" fill="#d2e3fc"/>
      </g>
    </g>
    <g id="Grupo_26151" data-name="Grupo 26151" transform="translate(360.803 639.722)">
      <g id="Grupo_26149" data-name="Grupo 26149" transform="translate(0 0)">
        <g id="Grupo_26148" data-name="Grupo 26148" transform="translate(11.041 4.294)">
          <path id="Trazado_20788" data-name="Trazado 20788" d="M797.771,1389.6h-.1c-.6,0-1.083-.887-1.069-1.965l1.621-126.242,4.774-1-4.071,127.252C798.889,1388.739,798.383,1389.6,797.771,1389.6Z" transform="translate(-796.6 -1260.389)" fill="#233862"/>
        </g>
        <path id="Rectángulo_4120" data-name="Rectángulo 4120" d="M3.809,0H281.214a3.809,3.809,0,0,1,3.809,3.809v0a3.808,3.808,0,0,1-3.808,3.808H3.808A3.808,3.808,0,0,1,0,3.809v0A3.809,3.809,0,0,1,3.809,0Z" transform="translate(285.022 7.617) rotate(180)" fill="#233862"/>
      </g>
      <g id="Grupo_26150" data-name="Grupo 26150" transform="translate(620.919 4.294)">
        <path id="Trazado_20789" data-name="Trazado 20789" d="M2688,1389.6h.1c.6,0,1.083-.887,1.069-1.965l-1.621-126.242-4.774-1,4.071,127.252C2686.878,1388.739,2687.384,1389.6,2688,1389.6Z" transform="translate(-2682.772 -1260.389)" fill="#233862"/>
      </g>
      <path id="Rectángulo_4121" data-name="Rectángulo 4121" d="M3.809,0H375.255a3.809,3.809,0,0,1,3.809,3.809v0a3.808,3.808,0,0,1-3.808,3.808H3.808A3.808,3.808,0,0,1,0,3.809v0A3.809,3.809,0,0,1,3.809,0Z" transform="translate(636.458 7.617) rotate(-180)" fill="#233862"/>
    </g>
    <g id="Grupo_26152" data-name="Grupo 26152" transform="translate(685.059 598.214)">
      <path id="Trazado_20790" data-name="Trazado 20790" d="M1803.354,1240.621h-38.071a3.035,3.035,0,0,1,3.035-3.035h35.036Z" transform="translate(-1765.283 -1199.157)" fill="#ed7d2b"/>
      <path id="Trazado_20791" data-name="Trazado 20791" d="M1911.2,1118.736l-14.117,41.464h-59.243l14.5-41.464Z" transform="translate(-1814.382 -1118.736)" fill="#ed7d2b"/>
      <path id="Trazado_20792" data-name="Trazado 20792" d="M1913.015,1118.736l-13.988,41.081-.13.383h-58.377l14.5-41.464Z" transform="translate(-1816.193 -1118.736)" fill="#f99746"/>
      <path id="Trazado_20793" data-name="Trazado 20793" d="M1957.1,1175.667a3.827,3.827,0,0,1-3.531,2.868,2.208,2.208,0,0,1-2.206-2.868,3.826,3.826,0,0,1,3.53-2.868A2.209,2.209,0,0,1,1957.1,1175.667Z" transform="translate(-1891.144 -1155.318)" fill="#ffc397"/>
      <path id="Trazado_20794" data-name="Trazado 20794" d="M1979.323,1118.736l-13.988,41.081h-26.822l32.7-41.081Z" transform="translate(-1882.501 -1118.736)" fill="#ed7d2b"/>
    </g>
    <g id="Grupo_26153" data-name="Grupo 26153" transform="translate(792.603 598.214)">
      <path id="Trazado_20795" data-name="Trazado 20795" d="M2097.885,1118.736l14.211,41.508,59.149-.044-14.5-41.464Z" transform="translate(-2097.885 -1118.736)" fill="#ed7d2b"/>
      <path id="Trazado_20796" data-name="Trazado 20796" d="M2103.1,1121.555l13.663,40.178.126.375h57.021l-14.164-40.553Z" transform="translate(-2101.411 -1120.643)" fill="#b0d4ff"/>
      <path id="Trazado_20797" data-name="Trazado 20797" d="M2140.059,1240.665l82.611-.044h0a3.035,3.035,0,0,0-3.035-3.035H2139.21Z" transform="translate(-2125.848 -1199.157)" fill="#ed7d2b"/>
    </g>
    <g id="Grupo_26162" data-name="Grupo 26162" transform="translate(794.591 539.191)">
      <path id="Rectángulo_4122" data-name="Rectángulo 4122" d="M6.671,0h0a6.671,6.671,0,0,1,6.671,6.671V9.952a6.671,6.671,0,0,1-6.671,6.671h0A6.671,6.671,0,0,1,0,9.952V6.671A6.671,6.671,0,0,1,6.671,0Z" transform="translate(112.9 13.437)" fill="#ed7d2b"/>
      <g id="Grupo_26157" data-name="Grupo 26157" transform="translate(0 0.682)">
        <g id="Grupo_26154" data-name="Grupo 26154">
          <path id="Trazado_20798" data-name="Trazado 20798" d="M2305.7,1605.921s-.833,12.989-3.347,13.169c-.334.024-12.747,0-12.747,0l-15.845-.126s.112-3.817,4.745-4.614,12.393-4.036,15.212-10.151C2296.679,1597.763,2305.7,1605.921,2305.7,1605.921Z" transform="translate(-2218.878 -1387.213)" fill="#0e2c4f"/>
          <path id="Trazado_20799" data-name="Trazado 20799" d="M2386.469,1284.3c.605.509,16.743,18,15.425,31.425a7.746,7.746,0,0,1-7.749,6.91h-19.657s-20.058,3.584-20.537,7.919-4.583,27.7-12.717,60.9c0,0-5.994,2.064-9.629.59-4.808-1.949-5.506-4.017-5.506-4.017s4.848-74.351,8.676-79.583,43.26-20.788,56.027-22.337S2386.469,1284.3,2386.469,1284.3Z" transform="translate(-2254.297 -1172.422)" fill="#163560"/>
          <path id="Trazado_20800" data-name="Trazado 20800" d="M2122.2,1224.473s-11.406-2.653-14.323,0a14.376,14.376,0,0,0-3.847,6.5h18.17Z" transform="translate(-2104.034 -1131.145)" fill="#ffb27d"/>
          <path id="Trazado_20801" data-name="Trazado 20801" d="M2219.809,1605.921s-.833,12.989-3.347,13.169c-.334.024-12.747,0-12.747,0l-15.845-.126s.112-3.817,4.746-4.614,12.392-4.036,15.211-10.151C2210.793,1597.763,2219.809,1605.921,2219.809,1605.921Z" transform="translate(-2160.762 -1387.213)" fill="#163560"/>
          <path id="Trazado_20802" data-name="Trazado 20802" d="M2344.914,1284.3c.459.386,3.951,9.784,6.284,20.457a14.727,14.727,0,0,1-14.382,17.878h-45.729s-20.058,3.584-20.536,7.919-4.583,27.7-12.717,60.9c0,0-6.015,1.579-10.711-.429a13.268,13.268,0,0,1-4.468-3.627s4.892-73.722,8.719-78.954,43.259-20.788,56.027-22.337S2344.914,1284.3,2344.914,1284.3Z" transform="translate(-2197.834 -1172.422)" fill="#2b478b"/>
          <path id="Trazado_20803" data-name="Trazado 20803" d="M2440.5,1041.71l-7.072,6.789-12.05,0c-.014-.969.027-5.009.069-8.671,0-.215.008-.43.009-.642.009-.813.021-1.6.029-2.312.024-2.017.044-3.479.044-3.479l3.1-2.118,6.882-4.712,3.722-2.544c0,.063.308,3.391.354,3.875A28.221,28.221,0,0,0,2440.5,1041.71Z" transform="translate(-2318.765 -996.307)" fill="#ffb27d"/>
          <path id="Trazado_20804" data-name="Trazado 20804" d="M2416.419,1063.482c.23-.1,13.268-5.945,14.792-5.442s3.426,5.161,3.426,5.161l-22.957,5.19S2413.487,1064.717,2416.419,1063.482Z" transform="translate(-2312.205 -1019.304)" fill="#b7d3f3"/>
          <path id="Trazado_20805" data-name="Trazado 20805" d="M2302.662,1113.416c-2.483-15.317-12.972-26.782-17.459-31.079-3.013-4.532-20.714-8.273-20.714-8.273l-22.957,5.19a29.255,29.255,0,0,0-20.236,13.473c-4.513,7.463-17.437,24.535-25.925,25.066s-35.144,5.7-35.144,5.7v6.556l40.64,1.115a6.94,6.94,0,0,0,1.479-.117c3.5-.66,18.487-3.639,25.942-7.519,1.19,19.2,2.6,48.511,9.3,53.166,7.092,4.924,56.962,5.583,62.243-1.922,2.7-3.841-.611-26.582-4.751-48.509C2300.229,1123.817,2303.7,1119.838,2302.662,1113.416Z" transform="translate(-2142.058 -1030.167)" fill="#d2e3fc"/>
          <path id="Trazado_20806" data-name="Trazado 20806" d="M2433.532,1044.3l-.614.381a49.318,49.318,0,0,1-11.2,5.915c.024-2.017.044-3.479.044-3.479l3.1-2.118Z" transform="translate(-2318.995 -1010.03)" fill="#eaa16e"/>
          <path id="Trazado_20807" data-name="Trazado 20807" d="M2399.806,988.872s18.541,2.193,19.728-9.373,4.381-19.074-7.406-20.964-14.544,2.288-15.879,6.052S2395.014,988,2399.806,988.872Z" transform="translate(-2301.265 -951.676)" fill="#ffb27d"/>
          <path id="Trazado_20808" data-name="Trazado 20808" d="M2393.982,950.031s3.5,12.548,6.034,11.5,4.851-1.9,5.182,2.013,1.8,8.511,10.062,7.673,11.729-23.458,8.754-27.012C2415.431,933.956,2382.058,937.8,2393.982,950.031Z" transform="translate(-2298.508 -938.305)" fill="#163560"/>
        </g>
        <g id="Grupo_26156" data-name="Grupo 26156" transform="translate(66.691 55.359)">
          <path id="Rectángulo_4123" data-name="Rectángulo 4123" d="M10.408,0H98.015a0,0,0,0,1,0,0V10.408a0,0,0,0,1,0,0H0a0,0,0,0,1,0,0v0A10.408,10.408,0,0,1,10.408,0Z" transform="translate(113.668 97.337) rotate(180)" fill="#77a4e5"/>
          <path id="Rectángulo_4124" data-name="Rectángulo 4124" d="M5.2,0H73.5a5.2,5.2,0,0,1,5.2,5.2v0a5.2,5.2,0,0,1-5.2,5.2H5.2A5.2,5.2,0,0,1,0,5.2v0A5.2,5.2,0,0,1,5.2,0Z" transform="translate(78.708 97.337) rotate(180)" fill="#f99746"/>
          <g id="Grupo_26155" data-name="Grupo 26155" transform="translate(32.84 97.337)">
            <path id="Trazado_20809" data-name="Trazado 20809" d="M2500.291,1485.823h5.916l1.659-75.275h-9.036Z" transform="translate(-2470.707 -1410.548)" fill="#2b478b"/>
            <path id="Trazado_20810" data-name="Trazado 20810" d="M2423.841,1626.941h57.531v-5.2l-29.322-2.645-28.209,2.645Z" transform="translate(-2419.965 -1551.667)" fill="#2b478b"/>
            <path id="Trazado_20811" data-name="Trazado 20811" d="M2599.245,1630.924a4.732,4.732,0,1,0-4.732,4.732A4.732,4.732,0,0,0,2599.245,1630.924Z" transform="translate(-2532.249 -1556.464)" fill="#2b478b"/>
            <path id="Trazado_20812" data-name="Trazado 20812" d="M2421.319,1630.924a4.732,4.732,0,1,0-4.733,4.732A4.733,4.733,0,0,0,2421.319,1630.924Z" transform="translate(-2411.854 -1556.464)" fill="#2b478b"/>
            <path id="Trazado_20813" data-name="Trazado 20813" d="M2419.883,1415.486h53.407a4.939,4.939,0,0,0,4.938-4.938h-63.284A4.939,4.939,0,0,0,2419.883,1415.486Z" transform="translate(-2413.945 -1410.548)" fill="#2b478b"/>
          </g>
          <path id="Trazado_20814" data-name="Trazado 20814" d="M2474.085,1206.851a4.5,4.5,0,0,0,4.5-4.5v-69.315c0-12.989-8.492-23.519-18.968-23.519h-42.893c-10.476,0-18.968,10.53-18.968,23.519v73.818Z" transform="translate(-2369.477 -1109.514)" fill="#f99746"/>
          <path id="Trazado_20815" data-name="Trazado 20815" d="M2484.469,1206.851a8.213,8.213,0,0,0,8.213-8.213v-65.605c0-12.989-8.492-23.519-18.968-23.519h-42.893c-10.476,0-18.968,10.53-18.968,23.519v73.818Z" transform="translate(-2379.013 -1109.514)" fill="#cc6a27"/>
        </g>
      </g>
      <g id="Grupo_26159" data-name="Grupo 26159" transform="translate(89.493 24.39)">
        <g id="Grupo_26158" data-name="Grupo 26158" transform="translate(1.908)">
          <path id="Trazado_20816" data-name="Trazado 20816" d="M2387.261,1025.364a20.454,20.454,0,0,0,13.2-13.458l-1.128-.279.564.14-.563-.14a19.262,19.262,0,0,1-12.422,12.629l-.2.062.339,1.112Z" transform="translate(-2386.71 -1011.626)" fill="#122544"/>
        </g>
        <path id="Trazado_20817" data-name="Trazado 20817" d="M2382.07,1051.918l1-.315a.972.972,0,0,0,.632-1.216h0a.972.972,0,0,0-1.216-.632l-1,.315a.972.972,0,0,0-.632,1.216h0A.971.971,0,0,0,2382.07,1051.918Z" transform="translate(-2380.81 -1037.396)" fill="#ed7d2b"/>
      </g>
      <g id="Grupo_26161" data-name="Grupo 26161" transform="translate(96.842)">
        <path id="Trazado_20818" data-name="Trazado 20818" d="M2412.011,1007.432l-.768.107a6.3,6.3,0,0,1-7.087-5.36l-.557-4.018a6.3,6.3,0,0,1,5.36-7.087l.769-.106a6.3,6.3,0,0,1,7.088,5.36l.557,4.018A6.3,6.3,0,0,1,2412.011,1007.432Z" transform="translate(-2403.539 -973.216)" fill="#ed7d2b"/>
        <g id="Grupo_26160" data-name="Grupo 26160" transform="translate(3.366)">
          <path id="Trazado_20819" data-name="Trazado 20819" d="M2414.027,955.753c-.457-.857,1.146-7.512,3.5-12.674,1.139-2.495,4.013-5.835,6.065-6.7a4.419,4.419,0,0,1,2.53,0,14.4,14.4,0,0,1,2.219,1.082c-6.743,2.1-12.6,16.046-12.178,17.509a.515.515,0,0,0-.045-.1Z" transform="translate(-2413.949 -936.195)" fill="#ed7d2b"/>
        </g>
        <path id="Trazado_20820" data-name="Trazado 20820" d="M2416.126,1012.425l-.383.053a3.139,3.139,0,0,1-3.531-2.671l-.278-2a3.14,3.14,0,0,1,2.671-3.531l.383-.053a3.14,3.14,0,0,1,3.531,2.671l.278,2A3.14,3.14,0,0,1,2416.126,1012.425Z" transform="translate(-2409.199 -982.206)" fill="#f99746"/>
      </g>
    </g>
    <path id="Trazado_20821" data-name="Trazado 20821" d="M1143.4,1653.639v.346a1.039,1.039,0,0,1-1.058,1.008h-931.5a1.039,1.039,0,0,1-1.058-1.008v-.346a1.039,1.039,0,0,1,1.058-1.008h931.5A1.039,1.039,0,0,1,1143.4,1653.639Z" transform="translate(-27.68 -881.786)" fill="#2e3552"/>
  </g>
</svg>
