<svg xmlns="http://www.w3.org/2000/svg" width="855" height="198.5" viewBox="0 0 855 198.5">
  <g id="Grupo_26059" data-name="Grupo 26059" transform="translate(-695 3646)">
    <path id="Trazado_20481" data-name="Trazado 20481" d="M0,0H271V99H0Z" transform="translate(1279 -3646)" fill="#b869c3"/>
    <path id="Trazado_20482" data-name="Trazado 20482" d="M0,0H584V99H0Z" transform="translate(695 -3646)" fill="#6545a3"/>
    <path id="Trazado_20483" data-name="Trazado 20483" d="M0,0H855V99H0Z" transform="translate(695 -3547)" fill="#eef2f9"/>
    <path id="Trazado_20484" data-name="Trazado 20484" d="M4.131-7.725a3.156,3.156,0,0,1-2.324-.962A3.192,3.192,0,0,1,.85-11.025a3.177,3.177,0,0,1,.962-2.324,3.153,3.153,0,0,1,2.319-.967,3.164,3.164,0,0,1,2.329.967,3.177,3.177,0,0,1,.962,2.324,3.2,3.2,0,0,1-.957,2.334A3.16,3.16,0,0,1,4.131-7.725ZM3.418.01,10.8-14.121h2.354L5.762.01ZM4.131-9.6a1.375,1.375,0,0,0,1.021-.41,1.388,1.388,0,0,0,.405-1.016,1.356,1.356,0,0,0-.42-1,1.38,1.38,0,0,0-1.006-.415,1.389,1.389,0,0,0-1.006.41,1.352,1.352,0,0,0-.42,1.006A1.371,1.371,0,0,0,3.12-10.01,1.384,1.384,0,0,0,4.131-9.6ZM12.539.166A3.179,3.179,0,0,1,10.2-.8a3.18,3.18,0,0,1-.957-2.329,3.164,3.164,0,0,1,.967-2.329,3.188,3.188,0,0,1,2.334-.962,3.145,3.145,0,0,1,2.314.962,3.18,3.18,0,0,1,.957,2.329A3.185,3.185,0,0,1,14.854-.8,3.137,3.137,0,0,1,12.539.166Zm0-1.885a1.389,1.389,0,0,0,1.006-.41,1.34,1.34,0,0,0,.42-1,1.364,1.364,0,0,0-.425-1.006,1.377,1.377,0,0,0-1-.42,1.4,1.4,0,0,0-1.021.41A1.371,1.371,0,0,0,11.1-3.125a1.348,1.348,0,0,0,.415,1A1.4,1.4,0,0,0,12.539-1.719ZM33.115,0,32.09-2.91H26.162L25.137,0h-3l5.2-14.111h3.584L36.113,0ZM27.021-5.361H31.23l-2.1-5.986ZM44.922-15h2.813V0H45.068L45-1.309A2.867,2.867,0,0,1,43.726-.171a4.29,4.29,0,0,1-1.88.405,4.883,4.883,0,0,1-1.875-.361,4.654,4.654,0,0,1-1.538-1.021A4.652,4.652,0,0,1,37.393-2.8,6.106,6.106,0,0,1,37.012-5a5.707,5.707,0,0,1,.664-2.8,4.55,4.55,0,0,1,1.753-1.821,4.827,4.827,0,0,1,2.417-.615,4.4,4.4,0,0,1,1.821.366,2.843,2.843,0,0,1,1.255,1.04ZM42.49-2.1a2.5,2.5,0,0,0,1.9-.8A2.932,2.932,0,0,0,45.146-5a2.938,2.938,0,0,0-.762-2.1A2.5,2.5,0,0,0,42.49-7.91a2.53,2.53,0,0,0-1.909.791A2.937,2.937,0,0,0,39.824-5a2.924,2.924,0,0,0,.757,2.109A2.53,2.53,0,0,0,42.49-2.1Zm14.229-8.135a3.564,3.564,0,0,1,2.651.952,3.831,3.831,0,0,1,.942,2.808V0H57.49V-6.016a1.967,1.967,0,0,0-.5-1.5,1.871,1.871,0,0,0-1.328-.464,2.565,2.565,0,0,0-.786.117,2.248,2.248,0,0,0-.7.376,1.7,1.7,0,0,0-.522.757,3.477,3.477,0,0,0-.2,1.191V0H50.645V-15h2.813v6.162A3.974,3.974,0,0,1,56.719-10.234ZM72.461-5.166l-.029.674H64.99a2.6,2.6,0,0,0,.8,1.836,2.561,2.561,0,0,0,1.768.635,2.468,2.468,0,0,0,1.323-.347,2.131,2.131,0,0,0,.845-1.011L72.3-3A4.383,4.383,0,0,1,70.547-.645,5.226,5.226,0,0,1,67.578.2a5.435,5.435,0,0,1-3.911-1.382,5.042,5.042,0,0,1-1.45-3.833,5.072,5.072,0,0,1,1.455-3.833,5.273,5.273,0,0,1,3.818-1.4,5.04,5.04,0,0,1,3.6,1.279A5.019,5.019,0,0,1,72.461-5.166Zm-4.951-3.1a2.222,2.222,0,0,0-2.441,1.934h4.609a2.114,2.114,0,0,0-.693-1.436A2.2,2.2,0,0,0,67.51-8.262Zm9.785-.186a3.259,3.259,0,0,1,1.318-1.206,4.023,4.023,0,0,1,1.963-.5v2.51a3.8,3.8,0,0,0-2.4.605,2.643,2.643,0,0,0-.742,2.148V0H74.6V-10.039h2.7ZM91.611-5.166l-.029.674H84.141a2.6,2.6,0,0,0,.8,1.836,2.561,2.561,0,0,0,1.768.635,2.468,2.468,0,0,0,1.323-.347,2.131,2.131,0,0,0,.845-1.011L91.455-3A4.383,4.383,0,0,1,89.7-.645,5.226,5.226,0,0,1,86.729.2a5.435,5.435,0,0,1-3.911-1.382,5.042,5.042,0,0,1-1.45-3.833,5.072,5.072,0,0,1,1.455-3.833,5.273,5.273,0,0,1,3.818-1.4,5.04,5.04,0,0,1,3.6,1.279A5.019,5.019,0,0,1,91.611-5.166Zm-4.951-3.1a2.222,2.222,0,0,0-2.441,1.934h4.609a2.114,2.114,0,0,0-.693-1.436A2.2,2.2,0,0,0,86.66-8.262Zm13.018-1.973a3.914,3.914,0,0,1,2.773.9,3.349,3.349,0,0,1,.967,2.573V0H100.6V-6.152a1.749,1.749,0,0,0-.5-1.387A1.9,1.9,0,0,0,98.8-7.979a2.643,2.643,0,0,0-.84.127,2.158,2.158,0,0,0-.7.4,1.748,1.748,0,0,0-.5.757,3.5,3.5,0,0,0-.19,1.162V0H93.75V-10.039h2.813v1.113A3.868,3.868,0,0,1,99.678-10.234ZM110.684.186a5.364,5.364,0,0,1-3.877-1.445,4.992,4.992,0,0,1-1.5-3.77,4.981,4.981,0,0,1,1.5-3.77,5.38,5.38,0,0,1,3.882-1.436,5.349,5.349,0,0,1,3.252.967,4.316,4.316,0,0,1,1.68,2.725l-2.6.283a2.226,2.226,0,0,0-.84-1.318,2.554,2.554,0,0,0-1.523-.439,2.3,2.3,0,0,0-1.836.82,3.216,3.216,0,0,0-.7,2.168,3.22,3.22,0,0,0,.7,2.163,2.3,2.3,0,0,0,1.836.825,2.532,2.532,0,0,0,1.519-.439,2.277,2.277,0,0,0,.845-1.318l2.6.283a4.328,4.328,0,0,1-1.694,2.725A5.327,5.327,0,0,1,110.684.186Zm8.369-11.729a1.579,1.579,0,0,1-1.152-.474,1.555,1.555,0,0,1-.479-1.147,1.536,1.536,0,0,1,.483-1.138,1.584,1.584,0,0,1,1.147-.474,1.556,1.556,0,0,1,1.133.474,1.544,1.544,0,0,1,.479,1.138,1.555,1.555,0,0,1-.479,1.147A1.556,1.556,0,0,1,119.053-11.543ZM117.617,0V-10.039h2.832V0Zm13.975-2.725a9.391,9.391,0,0,0,.244,2.451V0h-2.627l-.225-1.094a3.264,3.264,0,0,1-1.406.967A5.183,5.183,0,0,1,125.762.2a4.776,4.776,0,0,1-.937-.088,3.187,3.187,0,0,1-.845-.3,2.564,2.564,0,0,1-.7-.522,2.291,2.291,0,0,1-.469-.8,3.17,3.17,0,0,1-.176-1.089,3.02,3.02,0,0,1,.186-1.089,2.552,2.552,0,0,1,.488-.815,2.962,2.962,0,0,1,.791-.6,6.053,6.053,0,0,1,1-.43,11.9,11.9,0,0,1,1.191-.312l1.65-.371a1.82,1.82,0,0,0,.747-.317.633.633,0,0,0,.22-.5A1.036,1.036,0,0,0,128.413-8a2.3,2.3,0,0,0-1.2-.293,1.721,1.721,0,0,0-1.963,1.533l-2.49-.449a3.371,3.371,0,0,1,1.455-2.29,5.783,5.783,0,0,1,3.154-.737q4.219,0,4.219,3.623Zm-4.951,1.016a2.262,2.262,0,0,0,1.738-.728,3.066,3.066,0,0,0,.674-2.153l-2.383.674a2.816,2.816,0,0,0-1,.41.842.842,0,0,0-.347.723.935.935,0,0,0,.371.8A1.536,1.536,0,0,0,126.641-1.709Z" transform="translate(1346 -3590)" fill="#fff"/>
    <path id="Trazado_20485" data-name="Trazado 20485" d="M-52.139-14.111v2.578h-3.35V0h-2.9V-11.533h-3.369v-2.578ZM-47.217.2A6.313,6.313,0,0,1-50.059-.42a4.6,4.6,0,0,1-1.948-1.807,5.384,5.384,0,0,1-.708-2.8,4.911,4.911,0,0,1,1.523-3.809,5.652,5.652,0,0,1,3.975-1.4,5.665,5.665,0,0,1,3.984,1.4,4.911,4.911,0,0,1,1.523,3.809,4.938,4.938,0,0,1-1.523,3.823A5.654,5.654,0,0,1-47.217.2Zm-.029-2.236a2.577,2.577,0,0,0,1.987-.82A3.071,3.071,0,0,0-44.5-5.029,3.071,3.071,0,0,0-45.259-7.2a2.577,2.577,0,0,0-1.987-.82,2.483,2.483,0,0,0-1.929.825,3.1,3.1,0,0,0-.747,2.163,3.1,3.1,0,0,0,.747,2.163A2.483,2.483,0,0,0-47.246-2.041ZM-35.879,0a3.032,3.032,0,0,1-2.266-.815,3.172,3.172,0,0,1-.8-2.319V-7.881h-1.973v-2.158h.635a1.656,1.656,0,0,0,1.25-.42,2.162,2.162,0,0,0,.4-1.494v-1.328h2.539v3.242h2.07v2.158h-2.07v4.443q0,1.3,1.162,1.3h.908V0Zm12.227-2.725a9.392,9.392,0,0,0,.244,2.451V0h-2.627l-.225-1.094a3.264,3.264,0,0,1-1.406.967A5.183,5.183,0,0,1-29.482.2,4.776,4.776,0,0,1-30.42.107a3.187,3.187,0,0,1-.845-.3,2.564,2.564,0,0,1-.7-.522,2.291,2.291,0,0,1-.469-.8A3.17,3.17,0,0,1-32.607-2.6a3.02,3.02,0,0,1,.186-1.089,2.552,2.552,0,0,1,.488-.815,2.962,2.962,0,0,1,.791-.6,6.053,6.053,0,0,1,1-.43,11.9,11.9,0,0,1,1.191-.312l1.65-.371a1.82,1.82,0,0,0,.747-.317.633.633,0,0,0,.22-.5A1.036,1.036,0,0,0-26.831-8a2.3,2.3,0,0,0-1.2-.293A1.721,1.721,0,0,0-29.99-6.758l-2.49-.449A3.371,3.371,0,0,1-31.025-9.5a5.783,5.783,0,0,1,3.154-.737q4.219,0,4.219,3.623ZM-28.6-1.709a2.262,2.262,0,0,0,1.738-.728,3.066,3.066,0,0,0,.674-2.153l-2.383.674a2.816,2.816,0,0,0-1,.41.842.842,0,0,0-.347.723.935.935,0,0,0,.371.8A1.536,1.536,0,0,0-28.6-1.709ZM-20.918,0V-15h2.842V0ZM-6.23,0A3.032,3.032,0,0,1-8.5-.815a3.172,3.172,0,0,1-.8-2.319V-7.881H-11.27v-2.158h.635a1.656,1.656,0,0,0,1.25-.42,2.162,2.162,0,0,0,.4-1.494v-1.328h2.539v3.242h2.07v2.158h-2.07v4.443q0,1.3,1.162,1.3h.908V0ZM-.762-11.543a1.579,1.579,0,0,1-1.152-.474,1.555,1.555,0,0,1-.479-1.147A1.536,1.536,0,0,1-1.909-14.3a1.584,1.584,0,0,1,1.147-.474A1.556,1.556,0,0,1,.371-14.3,1.544,1.544,0,0,1,.85-13.164a1.555,1.555,0,0,1-.479,1.147A1.556,1.556,0,0,1-.762-11.543ZM-2.2,0V-10.039H.635V0ZM12.988-5.166l-.029.674H5.518a2.6,2.6,0,0,0,.8,1.836,2.561,2.561,0,0,0,1.768.635,2.468,2.468,0,0,0,1.323-.347,2.131,2.131,0,0,0,.845-1.011L12.832-3A4.383,4.383,0,0,1,11.074-.645,5.226,5.226,0,0,1,8.105.2,5.435,5.435,0,0,1,4.194-1.187,5.042,5.042,0,0,1,2.744-5.02,5.072,5.072,0,0,1,4.2-8.853a5.273,5.273,0,0,1,3.818-1.4,5.04,5.04,0,0,1,3.6,1.279A5.019,5.019,0,0,1,12.988-5.166Zm-4.951-3.1A2.222,2.222,0,0,0,5.6-6.328h4.609a2.114,2.114,0,0,0-.693-1.436A2.2,2.2,0,0,0,8.037-8.262Zm18.984-1.973a3.836,3.836,0,0,1,2.588.815,2.918,2.918,0,0,1,.947,2.339V0H27.744V-6.279a1.677,1.677,0,0,0-.449-1.27,1.573,1.573,0,0,0-1.133-.43,1.814,1.814,0,0,0-1.367.547,2.484,2.484,0,0,0-.527,1.768V0H21.426V-6.25a1.721,1.721,0,0,0-.449-1.294,1.6,1.6,0,0,0-1.162-.435,1.757,1.757,0,0,0-1.357.576,2.751,2.751,0,0,0-.527,1.885V0h-2.8V-10.039h2.8v1.182a3.414,3.414,0,0,1,2.91-1.377,4.293,4.293,0,0,1,1.89.386A2.572,2.572,0,0,1,23.916-8.73,3.55,3.55,0,0,1,27.021-10.234Zm12.158,0a4.883,4.883,0,0,1,1.875.361,4.692,4.692,0,0,1,1.538,1.016A4.6,4.6,0,0,1,43.633-7.2,6.146,6.146,0,0,1,44.014-5a6.146,6.146,0,0,1-.381,2.2,4.6,4.6,0,0,1-1.04,1.655A4.692,4.692,0,0,1,41.055-.127,4.883,4.883,0,0,1,39.18.234a4.356,4.356,0,0,1-1.816-.371A2.846,2.846,0,0,1,36.1-1.191V4.883H33.291V-10.039h2.666l.078,1.348A2.75,2.75,0,0,1,37.29-9.829,4.313,4.313,0,0,1,39.18-10.234ZM38.545-2.1a2.527,2.527,0,0,0,1.9-.786A2.92,2.92,0,0,0,41.2-5a2.92,2.92,0,0,0-.757-2.114,2.527,2.527,0,0,0-1.9-.786,2.531,2.531,0,0,0-1.914.8A2.921,2.921,0,0,0,35.869-5a2.921,2.921,0,0,0,.762,2.1A2.531,2.531,0,0,0,38.545-2.1ZM50.811.2A6.313,6.313,0,0,1,47.969-.42a4.6,4.6,0,0,1-1.948-1.807,5.384,5.384,0,0,1-.708-2.8,4.911,4.911,0,0,1,1.523-3.809,5.652,5.652,0,0,1,3.975-1.4,5.665,5.665,0,0,1,3.984,1.4,4.911,4.911,0,0,1,1.523,3.809,4.938,4.938,0,0,1-1.523,3.823A5.654,5.654,0,0,1,50.811.2Zm-.029-2.236a2.577,2.577,0,0,0,1.987-.82,3.071,3.071,0,0,0,.757-2.168A3.071,3.071,0,0,0,52.769-7.2a2.577,2.577,0,0,0-1.987-.82,2.483,2.483,0,0,0-1.929.825,3.1,3.1,0,0,0-.747,2.163,3.1,3.1,0,0,0,.747,2.163A2.483,2.483,0,0,0,50.781-2.041ZM-51.011,8H-48.2V23h-2.666l-.068-1.309a2.867,2.867,0,0,1-1.274,1.138,4.29,4.29,0,0,1-1.88.405,4.883,4.883,0,0,1-1.875-.361A4.654,4.654,0,0,1-57.5,21.853,4.652,4.652,0,0,1-58.54,20.2a6.106,6.106,0,0,1-.381-2.2,5.707,5.707,0,0,1,.664-2.8A4.55,4.55,0,0,1-56.5,13.381a4.827,4.827,0,0,1,2.417-.615,4.4,4.4,0,0,1,1.821.366,2.843,2.843,0,0,1,1.255,1.04Zm-2.432,12.9a2.5,2.5,0,0,0,1.9-.8,2.932,2.932,0,0,0,.757-2.1,2.938,2.938,0,0,0-.762-2.1,2.5,2.5,0,0,0-1.895-.806,2.53,2.53,0,0,0-1.909.791A2.937,2.937,0,0,0-56.108,18a2.924,2.924,0,0,0,.757,2.109A2.53,2.53,0,0,0-53.442,20.9Zm17.6-3.066-.029.674h-7.441a2.6,2.6,0,0,0,.8,1.836,2.561,2.561,0,0,0,1.768.635,2.468,2.468,0,0,0,1.323-.347,2.131,2.131,0,0,0,.845-1.011L-36,20a4.383,4.383,0,0,1-1.758,2.354,5.226,5.226,0,0,1-2.969.84,5.435,5.435,0,0,1-3.911-1.382,5.042,5.042,0,0,1-1.45-3.833,5.072,5.072,0,0,1,1.455-3.833,5.273,5.273,0,0,1,3.818-1.4,5.04,5.04,0,0,1,3.6,1.279A5.019,5.019,0,0,1-35.845,17.834Zm-4.951-3.1a2.222,2.222,0,0,0-2.441,1.934h4.609a2.114,2.114,0,0,0-.693-1.436A2.2,2.2,0,0,0-40.8,14.738Zm16.826,8.447a5.364,5.364,0,0,1-3.877-1.445,4.992,4.992,0,0,1-1.5-3.77,4.981,4.981,0,0,1,1.5-3.77,5.38,5.38,0,0,1,3.882-1.436,5.349,5.349,0,0,1,3.252.967,4.316,4.316,0,0,1,1.68,2.725l-2.6.283a2.226,2.226,0,0,0-.84-1.318A2.554,2.554,0,0,0-24,14.982a2.3,2.3,0,0,0-1.836.82,3.216,3.216,0,0,0-.7,2.168,3.22,3.22,0,0,0,.7,2.163A2.3,2.3,0,0,0-24,20.959a2.532,2.532,0,0,0,1.519-.439,2.277,2.277,0,0,0,.845-1.318l2.6.283a4.328,4.328,0,0,1-1.694,2.725A5.327,5.327,0,0,1-23.97,23.186Zm11.611.01A6.313,6.313,0,0,1-15.2,22.58a4.6,4.6,0,0,1-1.948-1.807,5.384,5.384,0,0,1-.708-2.8,4.911,4.911,0,0,1,1.523-3.809,5.652,5.652,0,0,1,3.975-1.4,5.665,5.665,0,0,1,3.984,1.4,4.911,4.911,0,0,1,1.523,3.809,4.938,4.938,0,0,1-1.523,3.823A5.654,5.654,0,0,1-12.358,23.2Zm-.029-2.236a2.577,2.577,0,0,0,1.987-.82,3.071,3.071,0,0,0,.757-2.168A3.071,3.071,0,0,0-10.4,15.8a2.577,2.577,0,0,0-1.987-.82,2.483,2.483,0,0,0-1.929.825,3.1,3.1,0,0,0-.747,2.163,3.1,3.1,0,0,0,.747,2.163A2.483,2.483,0,0,0-12.388,20.959ZM1.167,12.766a3.914,3.914,0,0,1,2.773.9,3.349,3.349,0,0,1,.967,2.573V23H2.085V16.848a1.749,1.749,0,0,0-.5-1.387,1.9,1.9,0,0,0-1.294-.439,2.643,2.643,0,0,0-.84.127,2.158,2.158,0,0,0-.7.4,1.748,1.748,0,0,0-.5.757,3.5,3.5,0,0,0-.19,1.162V23H-4.761V12.961h2.813v1.113A3.868,3.868,0,0,1,1.167,12.766Zm15.908,5.068-.029.674H9.6a2.6,2.6,0,0,0,.8,1.836,2.561,2.561,0,0,0,1.768.635,2.468,2.468,0,0,0,1.323-.347,2.131,2.131,0,0,0,.845-1.011L16.919,20a4.383,4.383,0,0,1-1.758,2.354,5.226,5.226,0,0,1-2.969.84,5.435,5.435,0,0,1-3.911-1.382,5.042,5.042,0,0,1-1.45-3.833,5.072,5.072,0,0,1,1.455-3.833,5.273,5.273,0,0,1,3.818-1.4,5.04,5.04,0,0,1,3.6,1.279A5.019,5.019,0,0,1,17.075,17.834Zm-4.951-3.1a2.222,2.222,0,0,0-2.441,1.934h4.609a2.114,2.114,0,0,0-.693-1.436A2.2,2.2,0,0,0,12.124,14.738ZM17.456,23l4.121-5.029-4.121-5.01h3.516l2.3,3.164L25.6,12.961h3.486l-4.131,5.02L29.087,23H25.6l-2.3-3.145L20.981,23ZM32.065,11.457a1.579,1.579,0,0,1-1.152-.474,1.555,1.555,0,0,1-.479-1.147A1.536,1.536,0,0,1,30.918,8.7a1.584,1.584,0,0,1,1.147-.474A1.612,1.612,0,0,1,33.2,10.983,1.556,1.556,0,0,1,32.065,11.457ZM30.63,23V12.961h2.832V23Zm9.551-11.406L42.739,8l1.387.977-2.217,2.617Zm.869,11.6a6.313,6.313,0,0,1-2.842-.615,4.6,4.6,0,0,1-1.948-1.807,5.384,5.384,0,0,1-.708-2.8,4.911,4.911,0,0,1,1.523-3.809,5.652,5.652,0,0,1,3.975-1.4,5.665,5.665,0,0,1,3.984,1.4,4.911,4.911,0,0,1,1.523,3.809,4.938,4.938,0,0,1-1.523,3.823A5.654,5.654,0,0,1,41.05,23.2Zm-.029-2.236a2.577,2.577,0,0,0,1.987-.82,3.071,3.071,0,0,0,.757-2.168,3.071,3.071,0,0,0-.757-2.168,2.577,2.577,0,0,0-1.987-.82,2.483,2.483,0,0,0-1.929.825,3.1,3.1,0,0,0-.747,2.163,3.1,3.1,0,0,0,.747,2.163A2.483,2.483,0,0,0,41.021,20.959Zm13.555-8.193a3.914,3.914,0,0,1,2.773.9,3.349,3.349,0,0,1,.967,2.573V23H55.493V16.848a1.749,1.749,0,0,0-.5-1.387,1.9,1.9,0,0,0-1.294-.439,2.643,2.643,0,0,0-.84.127,2.158,2.158,0,0,0-.7.4,1.748,1.748,0,0,0-.5.757,3.5,3.5,0,0,0-.19,1.162V23H48.647V12.961H51.46v1.113A3.868,3.868,0,0,1,54.575,12.766Z" transform="translate(1122 -3601)" fill="#fff"/>
    <path id="Trazado_20486" data-name="Trazado 20486" d="M10.01-14.111v2.578H6.66V0H3.76V-11.533H.391v-2.578Zm3.281,2.568a1.579,1.579,0,0,1-1.152-.474,1.555,1.555,0,0,1-.479-1.147,1.536,1.536,0,0,1,.483-1.138,1.584,1.584,0,0,1,1.147-.474,1.556,1.556,0,0,1,1.133.474,1.544,1.544,0,0,1,.479,1.138,1.555,1.555,0,0,1-.479,1.147A1.556,1.556,0,0,1,13.291-11.543ZM11.855,0V-10.039h2.832V0ZM27.041-5.166l-.029.674H19.57a2.6,2.6,0,0,0,.8,1.836,2.561,2.561,0,0,0,1.768.635,2.468,2.468,0,0,0,1.323-.347,2.131,2.131,0,0,0,.845-1.011L26.885-3A4.383,4.383,0,0,1,25.127-.645,5.226,5.226,0,0,1,22.158.2a5.435,5.435,0,0,1-3.911-1.382A5.042,5.042,0,0,1,16.8-5.02a5.072,5.072,0,0,1,1.455-3.833,5.273,5.273,0,0,1,3.818-1.4,5.04,5.04,0,0,1,3.6,1.279A5.019,5.019,0,0,1,27.041-5.166Zm-4.951-3.1a2.222,2.222,0,0,0-2.441,1.934h4.609a2.114,2.114,0,0,0-.693-1.436A2.2,2.2,0,0,0,22.09-8.262Zm18.984-1.973a3.836,3.836,0,0,1,2.588.815,2.918,2.918,0,0,1,.947,2.339V0H41.8V-6.279a1.677,1.677,0,0,0-.449-1.27,1.573,1.573,0,0,0-1.133-.43,1.814,1.814,0,0,0-1.367.547,2.484,2.484,0,0,0-.527,1.768V0H35.479V-6.25a1.721,1.721,0,0,0-.449-1.294,1.6,1.6,0,0,0-1.162-.435A1.757,1.757,0,0,0,32.51-7.4a2.751,2.751,0,0,0-.527,1.885V0h-2.8V-10.039h2.8v1.182a3.414,3.414,0,0,1,2.91-1.377,4.293,4.293,0,0,1,1.89.386A2.572,2.572,0,0,1,37.969-8.73,3.55,3.55,0,0,1,41.074-10.234Zm12.158,0a4.883,4.883,0,0,1,1.875.361,4.692,4.692,0,0,1,1.538,1.016A4.6,4.6,0,0,1,57.686-7.2,6.146,6.146,0,0,1,58.066-5a6.146,6.146,0,0,1-.381,2.2,4.6,4.6,0,0,1-1.04,1.655A4.692,4.692,0,0,1,55.107-.127a4.883,4.883,0,0,1-1.875.361,4.356,4.356,0,0,1-1.816-.371,2.846,2.846,0,0,1-1.26-1.055V4.883H47.344V-10.039H50.01l.078,1.348a2.75,2.75,0,0,1,1.255-1.138A4.313,4.313,0,0,1,53.232-10.234ZM52.6-2.1a2.527,2.527,0,0,0,1.9-.786A2.92,2.92,0,0,0,55.254-5,2.92,2.92,0,0,0,54.5-7.114,2.527,2.527,0,0,0,52.6-7.9a2.531,2.531,0,0,0-1.914.8A2.921,2.921,0,0,0,49.922-5a2.921,2.921,0,0,0,.762,2.1A2.531,2.531,0,0,0,52.6-2.1ZM64.863.2A6.313,6.313,0,0,1,62.021-.42a4.6,4.6,0,0,1-1.948-1.807,5.384,5.384,0,0,1-.708-2.8,4.911,4.911,0,0,1,1.523-3.809,5.652,5.652,0,0,1,3.975-1.4,5.665,5.665,0,0,1,3.984,1.4,4.911,4.911,0,0,1,1.523,3.809,4.938,4.938,0,0,1-1.523,3.823A5.654,5.654,0,0,1,64.863.2Zm-.029-2.236a2.577,2.577,0,0,0,1.987-.82,3.071,3.071,0,0,0,.757-2.168A3.071,3.071,0,0,0,66.821-7.2a2.577,2.577,0,0,0-1.987-.82,2.483,2.483,0,0,0-1.929.825,3.1,3.1,0,0,0-.747,2.163,3.1,3.1,0,0,0,.747,2.163A2.483,2.483,0,0,0,64.834-2.041ZM87.1-5.166l-.029.674H79.629a2.6,2.6,0,0,0,.8,1.836,2.561,2.561,0,0,0,1.768.635,2.468,2.468,0,0,0,1.323-.347,2.131,2.131,0,0,0,.845-1.011L86.943-3A4.383,4.383,0,0,1,85.186-.645,5.226,5.226,0,0,1,82.217.2a5.435,5.435,0,0,1-3.911-1.382,5.042,5.042,0,0,1-1.45-3.833,5.072,5.072,0,0,1,1.455-3.833,5.273,5.273,0,0,1,3.818-1.4,5.04,5.04,0,0,1,3.6,1.279A5.019,5.019,0,0,1,87.1-5.166Zm-4.951-3.1a2.222,2.222,0,0,0-2.441,1.934h4.609a2.114,2.114,0,0,0-.693-1.436A2.2,2.2,0,0,0,82.148-8.262ZM94.9-12.754h-.059q-.273,0-.415,0t-.4.034a1.621,1.621,0,0,0-.405.088,2.065,2.065,0,0,0-.337.181.9.9,0,0,0-.293.293,1.77,1.77,0,0,0-.176.435,2.269,2.269,0,0,0-.073.605v1.074H94.9v2.158H92.744V0h-2.8V-7.881H87.979v-2.158h1.963v-1.084a5.871,5.871,0,0,1,.127-1.279,3.893,3.893,0,0,1,.342-.972,2.275,2.275,0,0,1,.571-.7,3.371,3.371,0,0,1,.742-.469,4.241,4.241,0,0,1,.923-.283,8.1,8.1,0,0,1,1.06-.142Q94.229-15,94.9-15Zm11,7.588-.029.674H98.428a2.6,2.6,0,0,0,.8,1.836A2.561,2.561,0,0,0,101-2.021a2.468,2.468,0,0,0,1.323-.347,2.131,2.131,0,0,0,.845-1.011L105.742-3a4.383,4.383,0,0,1-1.758,2.354,5.226,5.226,0,0,1-2.969.84A5.435,5.435,0,0,1,97.1-1.187a5.042,5.042,0,0,1-1.45-3.833,5.072,5.072,0,0,1,1.455-3.833,5.273,5.273,0,0,1,3.818-1.4,5.04,5.04,0,0,1,3.6,1.279A5.019,5.019,0,0,1,105.9-5.166Zm-4.951-3.1a2.222,2.222,0,0,0-2.441,1.934h4.609a2.114,2.114,0,0,0-.693-1.436A2.2,2.2,0,0,0,100.947-8.262ZM112.578.186A5.364,5.364,0,0,1,108.7-1.26a4.992,4.992,0,0,1-1.5-3.77,4.981,4.981,0,0,1,1.5-3.77,5.38,5.38,0,0,1,3.882-1.436,5.349,5.349,0,0,1,3.252.967,4.316,4.316,0,0,1,1.68,2.725l-2.6.283a2.226,2.226,0,0,0-.84-1.318,2.554,2.554,0,0,0-1.523-.439,2.3,2.3,0,0,0-1.836.82,3.216,3.216,0,0,0-.7,2.168,3.22,3.22,0,0,0,.7,2.163,2.3,2.3,0,0,0,1.836.825,2.532,2.532,0,0,0,1.519-.439,2.277,2.277,0,0,0,.845-1.318l2.6.283a4.328,4.328,0,0,1-1.694,2.725A5.327,5.327,0,0,1,112.578.186ZM123.252,0a3.032,3.032,0,0,1-2.266-.815,3.172,3.172,0,0,1-.8-2.319V-7.881h-1.973v-2.158h.635a1.656,1.656,0,0,0,1.25-.42,2.162,2.162,0,0,0,.4-1.494v-1.328h2.539v3.242h2.07v2.158h-2.07v4.443q0,1.3,1.162,1.3h.908V0Zm5.469-11.543a1.579,1.579,0,0,1-1.152-.474,1.555,1.555,0,0,1-.479-1.147,1.536,1.536,0,0,1,.483-1.138,1.584,1.584,0,0,1,1.147-.474,1.556,1.556,0,0,1,1.133.474,1.544,1.544,0,0,1,.479,1.138,1.555,1.555,0,0,1-.479,1.147A1.556,1.556,0,0,1,128.721-11.543ZM127.285,0V-10.039h2.832V0Zm12.275-10.039h2.979L138.262,0H135.82l-4.229-10.039h2.959l2.5,6.865ZM148.291.2a6.313,6.313,0,0,1-2.842-.615A4.6,4.6,0,0,1,143.5-2.227a5.384,5.384,0,0,1-.708-2.8,4.911,4.911,0,0,1,1.523-3.809,5.652,5.652,0,0,1,3.975-1.4,5.665,5.665,0,0,1,3.984,1.4A4.911,4.911,0,0,1,153.8-5.029a4.938,4.938,0,0,1-1.523,3.823A5.654,5.654,0,0,1,148.291.2Zm-.029-2.236a2.577,2.577,0,0,0,1.987-.82,3.071,3.071,0,0,0,.757-2.168,3.071,3.071,0,0,0-.757-2.168,2.577,2.577,0,0,0-1.987-.82,2.483,2.483,0,0,0-1.929.825,3.1,3.1,0,0,0-.747,2.163,3.1,3.1,0,0,0,.747,2.163A2.483,2.483,0,0,0,148.262-2.041Z" transform="translate(752 -3590)" fill="#fff"/>
    <path id="Trazado_20487" data-name="Trazado 20487" d="M128.555,13.115v1.4h-1.907V17h-1.521V14.513H119.2V13.106l5.15-8.481h2.294v8.49Zm-7.778,0h4.351V5.741Zm12.938-4.078a4.8,4.8,0,0,1,3.375,1.042,3.778,3.778,0,0,1,1.116,2.9,4.107,4.107,0,0,1-1.147,3.01,4.026,4.026,0,0,1-3,1.165,4.769,4.769,0,0,1-1.551-.25,4.19,4.19,0,0,1-1.31-.721,3.3,3.3,0,0,1-.914-1.217,4,4,0,0,1-.338-1.67,5.645,5.645,0,0,1,.044-.633l1.556-.132a6.186,6.186,0,0,0-.07.694,2.794,2.794,0,0,0,.224,1.151,1.968,1.968,0,0,0,.6.787,2.738,2.738,0,0,0,.813.426,2.968,2.968,0,0,0,.918.141,2.538,2.538,0,0,0,1.92-.756,2.69,2.69,0,0,0,.725-1.942,2.559,2.559,0,0,0-.751-1.951,3.368,3.368,0,0,0-2.377-.712h-3.129l.765-5.73h6.486V6.058h-5.2l-.4,2.979Zm10.134,0a4.8,4.8,0,0,1,3.375,1.042,3.778,3.778,0,0,1,1.116,2.9,4.107,4.107,0,0,1-1.147,3.01,4.026,4.026,0,0,1-3,1.165,4.769,4.769,0,0,1-1.551-.25,4.19,4.19,0,0,1-1.31-.721,3.3,3.3,0,0,1-.914-1.217,4,4,0,0,1-.338-1.67,5.645,5.645,0,0,1,.044-.633l1.556-.132a6.186,6.186,0,0,0-.07.694,2.794,2.794,0,0,0,.224,1.151,1.968,1.968,0,0,0,.6.787,2.738,2.738,0,0,0,.813.426,2.968,2.968,0,0,0,.918.141,2.538,2.538,0,0,0,1.92-.756,2.69,2.69,0,0,0,.725-1.942,2.559,2.559,0,0,0-.751-1.951,3.368,3.368,0,0,0-2.377-.712h-3.129l.765-5.73H147.8V6.058h-5.2l-.4,2.979Z" transform="translate(695 -3508)" fill="#00223d"/>
    <path id="Trazado_20488" data-name="Trazado 20488" d="M128.555,13.115v1.4h-1.907V17h-1.521V14.513H119.2V13.106l5.15-8.481h2.294v8.49Zm-7.778,0h4.351V5.741Zm16.233,3.032a4.913,4.913,0,0,1-6,0,3.369,3.369,0,0,1-1.2-2.694,3.329,3.329,0,0,1,.624-2.021,3.577,3.577,0,0,1,1.7-1.248,3.056,3.056,0,0,1-1.217-1.059,2.694,2.694,0,0,1-.453-1.525,2.861,2.861,0,0,1,1.011-2.254,3.72,3.72,0,0,1,2.54-.883,3.655,3.655,0,0,1,2.509.888,2.87,2.87,0,0,1,1.006,2.25,2.753,2.753,0,0,1-.439,1.525,2.974,2.974,0,0,1-1.2,1.059,3.647,3.647,0,0,1,1.688,1.252,3.31,3.31,0,0,1,.624,2.017A3.371,3.371,0,0,1,137.01,16.147Zm-3-6.469a2.094,2.094,0,0,0,1.5-.58,1.887,1.887,0,0,0,.611-1.424,1.826,1.826,0,0,0-.611-1.393,2.288,2.288,0,0,0-3.01,0,1.829,1.829,0,0,0-.606,1.4,1.887,1.887,0,0,0,.611,1.424A2.105,2.105,0,0,0,134.013,9.679Zm0,6.082a2.756,2.756,0,0,0,1.9-.677,2.283,2.283,0,0,0,.76-1.793,2.237,2.237,0,0,0-.76-1.767,2.778,2.778,0,0,0-1.9-.668,2.807,2.807,0,0,0-1.916.668,2.231,2.231,0,0,0-.765,1.767,2.277,2.277,0,0,0,.765,1.793A2.785,2.785,0,0,0,134.013,15.761Zm10.125,1.406a3.447,3.447,0,0,1-3.05-1.617,8.623,8.623,0,0,1-1.072-4.746,8.662,8.662,0,0,1,1.059-4.737,3.705,3.705,0,0,1,6.113,0,8.637,8.637,0,0,1,1.063,4.733,8.6,8.6,0,0,1-1.077,4.742A3.44,3.44,0,0,1,144.138,17.167Zm0-1.406a2.093,2.093,0,0,0,1.925-1.239,8.08,8.08,0,0,0,.668-3.718,7.851,7.851,0,0,0-.681-3.713,2.115,2.115,0,0,0-3.828,0,7.891,7.891,0,0,0-.677,3.718,8.122,8.122,0,0,0,.664,3.722A2.091,2.091,0,0,0,144.138,15.761Z" transform="translate(990 -3508)" fill="#00223d"/>
    <path id="Trazado_20489" data-name="Trazado 20489" d="M119.728,4.7a5.456,5.456,0,0,1,2.632.64,4.815,4.815,0,0,1,1.87,1.768,4.739,4.739,0,0,1,.684,2.5,5.765,5.765,0,0,1-1.26,3.438L119.259,19h-3.2l3.652-4.775a4.675,4.675,0,0,1-.635.039,4.617,4.617,0,0,1-2.236-.562,4.409,4.409,0,0,1-1.685-1.636,4.625,4.625,0,0,1-.649-2.441A4.525,4.525,0,0,1,116.036,6.1,5.3,5.3,0,0,1,119.728,4.7Zm2.539,5.02a2.307,2.307,0,0,0-2.461-2.49,2.537,2.537,0,0,0-1.831.688,2.379,2.379,0,0,0-.728,1.772,2.414,2.414,0,0,0,.684,1.816,2.477,2.477,0,0,0,1.846.713,2.364,2.364,0,0,0,1.787-.713A2.55,2.55,0,0,0,122.267,9.723Zm9.1.127q5.42,0,5.42,4.453a4.757,4.757,0,0,1-1.367,3.569,4.941,4.941,0,0,1-3.6,1.333,5.978,5.978,0,0,1-2.524-.522,4.356,4.356,0,0,1-1.831-1.553,4.158,4.158,0,0,1-.693-2.378,4.39,4.39,0,0,1,.059-.7l2.793-.127a4.127,4.127,0,0,0-.068.625,1.9,1.9,0,0,0,.635,1.558,2.392,2.392,0,0,0,1.572.522,2.167,2.167,0,0,0,1.641-.6,2.237,2.237,0,0,0,.576-1.616,2.012,2.012,0,0,0-.7-1.65,3.765,3.765,0,0,0-2.363-.576h-3.7l.586-7.295h8.33V7.4h-5.8l-.186,2.451Zm10.381,1.426a3.156,3.156,0,0,1-2.324-.962,3.192,3.192,0,0,1-.957-2.339,3.177,3.177,0,0,1,.962-2.324,3.277,3.277,0,0,1,4.648,0,3.177,3.177,0,0,1,.962,2.324,3.2,3.2,0,0,1-.957,2.334A3.16,3.16,0,0,1,141.749,11.275Zm-.713,7.734,7.383-14.131h2.354L143.38,19.01Zm.713-9.609a1.393,1.393,0,0,0,1.426-1.426,1.356,1.356,0,0,0-.42-1,1.432,1.432,0,0,0-2.012,0,1.352,1.352,0,0,0-.42,1.006A1.409,1.409,0,0,0,141.749,9.4Zm8.408,9.766a3.276,3.276,0,0,1-3.3-3.291,3.286,3.286,0,1,1,5.615,2.324A3.137,3.137,0,0,1,150.157,19.166Zm0-1.885a1.389,1.389,0,0,0,1.006-.41,1.34,1.34,0,0,0,.42-1,1.442,1.442,0,0,0-1.426-1.426,1.4,1.4,0,0,0-1.021.41,1.371,1.371,0,0,0-.415,1.016,1.348,1.348,0,0,0,.415,1A1.4,1.4,0,0,0,150.157,17.281Z" transform="translate(1282 -3508)" fill="#002b45"/>
    <path id="Trazado_20490" data-name="Trazado 20490" d="M0,0V198" transform="translate(982.5 -3645.5)" fill="none" stroke="#cbd9e4" stroke-width="3"/>
    <path id="Trazado_20491" data-name="Trazado 20491" d="M0,0V198" transform="translate(1279.5 -3645.5)" fill="none" stroke="#cbd9e4" stroke-width="3"/>
  </g>
</svg>
