<svg xmlns="http://www.w3.org/2000/svg" width="217.11" height="220.261" viewBox="0 0 217.11 220.261">
  <g id="Grupo_26081" data-name="Grupo 26081" transform="translate(-102.257 -63.677)">
    <path id="Trazado_20516" data-name="Trazado 20516" d="M319.367,176.521A108.555,108.555,0,1,1,159.458,80.859c.357-.187.714-.381,1.071-.561,2.062-1.087,4.173-2.1,6.317-3.053a107.759,107.759,0,0,1,16.4-5.748q2.119-.56,4.271-1.023,1.474-.33,2.971-.609c1.064-.2,2.127-.39,3.2-.561,2.55-.4,5.123-.714,7.73-.933.747-.073,1.5-.13,2.257-.179,2.362-.145,4.741-.227,7.137-.227a110.475,110.475,0,0,1,13.291.8,108.659,108.659,0,0,1,84.481,60.521q1.254,2.582,2.363,5.237,1.558,3.7,2.841,7.542c.162.5.333,1,.487,1.5q.962,3.008,1.738,6.1c.219.829.422,1.657.609,2.493.268,1.169.519,2.338.747,3.516.5,2.574.91,5.188,1.226,7.827a.163.163,0,0,0,.008.057A110.1,110.1,0,0,1,319.367,176.521Z" transform="translate(0 -1.138)" fill="#efecf5"/>
    <path id="Trazado_20517" data-name="Trazado 20517" d="M314.554,179.239A101.024,101.024,0,1,1,165.738,90.214c.333-.173.665-.355,1-.522,1.919-1.012,3.884-1.957,5.879-2.841a100.2,100.2,0,0,1,15.263-5.35q1.972-.521,3.974-.952,1.371-.306,2.766-.566c.99-.189,1.979-.363,2.977-.522,2.373-.37,4.768-.665,7.193-.868.7-.068,1.4-.121,2.1-.167,2.2-.136,4.412-.212,6.641-.212a102.689,102.689,0,0,1,12.369.749,101.122,101.122,0,0,1,78.621,56.323q1.167,2.4,2.2,4.873,1.45,3.446,2.644,7.02c.151.461.31.929.453,1.4q.9,2.8,1.617,5.675c.2.77.393,1.541.567,2.32.249,1.088.483,2.176.7,3.272.468,2.395.846,4.828,1.14,7.284a.138.138,0,0,0,.008.053A102.556,102.556,0,0,1,314.554,179.239Z" transform="translate(-2.719 -3.856)" fill="#ddd9e7"/>
    <g id="Grupo_26080" data-name="Grupo 26080" transform="translate(147.946 63.677)">
      <path id="Trazado_20518" data-name="Trazado 20518" d="M252.427,149.717c-1.179,2.131-6.354,5.41-12.52,7.624a42.627,42.627,0,0,1-7.359,1.95,53.911,53.911,0,0,1-11.78.431c-5.675-.37-10.654-1.481-12.134-2.834-2.494-2.274-10.027-59.428-10.11-60.946s16.337-5.547,22.525-6.559,23.038-2.433,23.446-.967S254.067,146.77,252.427,149.717Z" transform="translate(-173.48 -70.071)" fill="#ffb9a9"/>
      <path id="Trazado_20519" data-name="Trazado 20519" d="M248.444,186.668a67.065,67.065,0,0,1-7.745,15.489,33.283,33.283,0,0,1-11.9-11.591v-5.735a53.909,53.909,0,0,0,11.78-.431,42.627,42.627,0,0,0,7.359-1.95l.234,1.927.151,1.292Z" transform="translate(-181.511 -95.181)" fill="#ffb9a9"/>
      <path id="Trazado_20520" data-name="Trazado 20520" d="M255,242.734v.007a118.081,118.081,0,0,1-2.561,15.974c-2.735-4.337-5.214-8.735-7.4-12.913v-.007l-1.179-22.955a27.657,27.657,0,0,0,4.609-.446Z" transform="translate(-185.504 -105.776)" fill="#f2819f"/>
      <path id="Trazado_20521" data-name="Trazado 20521" d="M259.767,211.739c-.227-.159-.446-.326-.672-.483-.733-.514-1.466-1.005-2.184-1.481-2.018-1.323-3.967-2.471-5.683-3.431-3.634-2.025-6.234-3.166-6.234-3.166a67.065,67.065,0,0,0,7.745-15.489l-.12-1,.877-.393,5.04,3.34c.068.348.129.688.189,1.035A97.184,97.184,0,0,1,259.767,211.739Z" transform="translate(-185.807 -96.201)" fill="#eeebf4"/>
      <path id="Trazado_20522" data-name="Trazado 20522" d="M258.273,217.011c-.34,9.672-.952,17.417-1.61,23.386l-6.536-20.341a2.184,2.184,0,0,0,.476-.136c.181-.151,1.5-4.632,1.987-6.339C254.306,214.54,256.255,215.688,258.273,217.011Z" transform="translate(-187.168 -103.438)" fill="#54c6e0"/>
      <path id="Trazado_20523" data-name="Trazado 20523" d="M249.434,212.437c-.491,1.708-1.805,6.188-1.987,6.339a2.184,2.184,0,0,1-.476.136,27.657,27.657,0,0,1-4.609.446,1.522,1.522,0,0,1-.514-.076c-.567-.249-2.735-3.8-3.619-5.281,1.594-1.587,3.294-3.219,4.971-4.73C243.2,209.271,245.8,210.412,249.434,212.437Z" transform="translate(-184.012 -102.295)" fill="#f2819f"/>
      <path id="Trazado_20524" data-name="Trazado 20524" d="M241.661,244.021a234.225,234.225,0,0,1-10.518-22.932c1.406-1.5,3.219-3.4,5.206-5.38.884,1.481,3.052,5.032,3.619,5.281a1.522,1.522,0,0,0,.514.076Z" transform="translate(-182.133 -104.003)" fill="#54c6e0"/>
      <path id="Trazado_20525" data-name="Trazado 20525" d="M238.629,204.383c-1.677,1.511-3.378,3.143-4.971,4.73-1.988,1.979-3.8,3.884-5.206,5.38-.785.831-1.436,1.542-1.912,2.071-.589.634-.914,1-.914,1A56.065,56.065,0,0,1,221,197.16c-.015-.711,0-1.088,0-1.088l4.723-5.229h1v1.949A33.283,33.283,0,0,0,238.629,204.383Z" transform="translate(-179.441 -97.407)" fill="#eeebf4"/>
      <path id="Trazado_20526" data-name="Trazado 20526" d="M276.747,296.525a21.33,21.33,0,0,1-1.081,5.7,101.392,101.392,0,0,1-74.427,2.32,48.162,48.162,0,0,1,2.781-6.6c.755-1.134-1.005-7.307-1.005-10.579,0-.287-.03-.944-.076-1.9-.173-3.3-.612-10.186-1.126-17.938-.136-2.032-.272-4.126-.416-6.234-.12-1.67-.234-3.339-.348-4.994-.831-11.9-1.639-22.888-1.813-23.9-.348-2.025-3.505-20.673-3.778-24.088a1.754,1.754,0,0,1,0-.529c.31-.446,5.727-1.957,6.99-2.4,1.08-.378,9.49-6.256,11.772-7.851a56.058,56.058,0,0,0,4.624,20.409s.326-.37.915-1a218.353,218.353,0,0,0,11.6,25.1c.326.589.65,1.179.982,1.769.151.256.295.514.446.771,1.526,2.644,3.143,5.236,4.821,7.654.884,1.262,1.776,2.478,2.683,3.627,0,0,.461-1.118,1.126-3.431.506-1.738,1.118-4.163,1.723-7.306.053-.242.1-.491.151-.741.1-.544.2-1.118.3-1.708a181.148,181.148,0,0,0,2.357-29.838c.227.158.446.325.672.483a97.186,97.186,0,0,0-1.043-21.066c1.813.71,5.939,2.289,7.5,2.682,2.01.5,8.622,1.323,9,1.572a2.13,2.13,0,0,1,.212.6c.838,3.045,3.574,16.888,4.133,21.5.468,3.824,2,16.472,2.871,26.673.151,1.76.279,3.445.385,5,.106,1.609.174,3.082.212,4.345.249,9.566.5,28.962.627,29.967a33.615,33.615,0,0,0,2.176,5.508C272.969,290.578,276.747,293.978,276.747,296.525Z" transform="translate(-172.663 -97.781)" fill="#f39e4b"/>
      <path id="Trazado_20527" data-name="Trazado 20527" d="M254.731,219.73c-.151,29.823-5.66,43.024-5.66,43.024-9.876-12.52-18.082-32.6-20.53-38.921.476-.529,1.126-1.24,1.912-2.071A234.225,234.225,0,0,0,240.971,244.7v.007c2.191,4.179,4.669,8.576,7.4,12.913a118.081,118.081,0,0,0,2.561-15.974v-.007c.658-5.969,1.27-13.714,1.61-23.386C253.265,218.725,254,219.216,254.731,219.73Z" transform="translate(-181.443 -104.677)" fill="#ffc05c"/>
      <g id="Grupo_26074" data-name="Grupo 26074" transform="translate(34.857 143.161)">
        <rect id="Rectángulo_4100" data-name="Rectángulo 4100" width="53.62" height="41.867" rx="1.831" transform="translate(0 53.548) rotate(-87.026)" fill="#eeebf4"/>
        <rect id="Rectángulo_4101" data-name="Rectángulo 4101" width="50.174" height="39.176" rx="1.713" transform="translate(1.433 51.897) rotate(-87.026)" fill="#54c6e0"/>
        <rect id="Rectángulo_4102" data-name="Rectángulo 4102" width="48.687" height="38.015" rx="1.662" transform="translate(2.051 51.184) rotate(-87.026)" fill="#eeebf4"/>
        <rect id="Rectángulo_4103" data-name="Rectángulo 4103" width="26.907" height="6.456" transform="matrix(0.999, 0.052, -0.052, 0.999, 9.74, 10.237)" fill="#54c6e0"/>
      </g>
      <path id="Trazado_20528" data-name="Trazado 20528" d="M199.535,262.093c-1.307-6.408-5.048-24.686-6.037-28.3-.877-3.226-2.644-11.357-3.408-15.589a11.262,11.262,0,0,1-.348-2.652c.264-.212,3.226-1.134,4.2-1.443.272,3.415,3.431,22.063,3.778,24.088C197.9,239.206,198.7,250.192,199.535,262.093Z" transform="translate(-171.145 -103.577)" fill="#ffc05c"/>
      <path id="Trazado_20529" data-name="Trazado 20529" d="M293.422,223.094v23.938c-.868-10.2-2.4-22.849-2.871-26.673-.559-4.616-3.294-18.459-4.133-21.5,1.179.106,4.269.408,4.828.914a6.151,6.151,0,0,1,.416,1.935C292.41,207.083,293.422,221.794,293.422,223.094Z" transform="translate(-196.794 -99.532)" fill="#ffc05c"/>
      <path id="Trazado_20530" data-name="Trazado 20530" d="M190.419,291.687s-1.753-.143-2.274-.143-5.251,1.572-6.385,2.962-5.8,11.644-5.8,13.034.256,3.733.256,3.733l4.844,1.995s-7.979,1.745-8.689.853-8.078-10.487-7.934-12.611c.053-.718,1.322-2.358,3.022-4.224,3.37-3.694,8.44-8.289,9.068-8.387.944-.143,2.788,1.035,3.256.945s5.856-1.277,6.99-1.367c.982-.084,2.985,2.38,3.514,3.045l.007.007C190.375,291.627,190.419,291.687,190.419,291.687Z" transform="translate(-164.44 -123.303)" fill="#eeebf4"/>
      <path id="Trazado_20531" data-name="Trazado 20531" d="M194.2,268.566c-.544,1.459-1.625,4.314-1.769,4.5s-.793.2-1.118.212c-.529-.665-2.532-3.129-3.514-3.045-1.134.09-6.514,1.277-6.99,1.367s-2.312-1.088-3.256-.945c-.628.1-5.7,4.693-9.068,8.387a4.882,4.882,0,0,1-.189-1.065c.046-.287,3.922-9.558,4.723-12.173s5.855-25.275,6.135-26.982.808-13.646,1.231-14.636c.34-.8,3.03-3.513,4.02-4.5.763,4.231,2.531,12.362,3.408,15.589.99,3.619,4.73,21.9,6.037,28.3C193.966,265.226,194.079,266.9,194.2,268.566Z" transform="translate(-165.463 -105.056)" fill="#54c6e0"/>
      <path id="Trazado_20532" data-name="Trazado 20532" d="M199.631,292.628l-.008-.007" transform="translate(-173.772 -124.403)" fill="none" stroke="#231f20" stroke-miterlimit="10" stroke-width="1"/>
      <path id="Trazado_20533" data-name="Trazado 20533" d="M242.727,291.869c-.053.007-.1.023-.143.03l.023.348c.785-.128,4.05-.657,5.569-.794l.015-.007c.409-.037.251.143.319.18.378.189.506,3.582.219,3.937a12.454,12.454,0,0,1-2.593.878.058.058,0,0,1-.023.007c-1.239.363-2.5.718-3.037.861l.008.053c.642-.068,2.184-.226,3.37-.3a6.066,6.066,0,0,1,1.519-.015c.355.19-.189,3.6-.378,3.808a2.245,2.245,0,0,1-.9.333s.453.159.453.446-.408,2.591-.785,2.735c-.25.091-2.5.273-4.043.386-.839.06-1.466.1-1.466.1s-16.646,1.322-17.439,1.231a17.9,17.9,0,0,1-3.143-1.231l-35.045,5.856-4.843-1.995s-.256-2.35-.256-3.733,4.662-11.651,5.8-13.034,5.863-2.962,6.385-2.962,2.274.143,2.274.143-.045-.06-.121-.159a20.9,20.9,0,0,0,4.367,1.806c1.133.1,20.688.854,20.688.854l.151-.03a72,72,0,0,1,4.08-6.06c.627-.536,8.66-3.105,9.952-3.483s7.352-3.234,7.443-3.234a3.1,3.1,0,0,1,0,3.272c-1.043,1.36-6.771,4.594-7.148,4.972-.2.2-1,1.11-1.722,1.942l10.193-2.1s6.172-1.241,6.406-1.218c.612.046,1.2,3.566.68,4.231-.386.492-4.072,1.354-6.331,1.838-.008,0-.008,0-.015.007-.12.03-.242.053-.348.076a.293.293,0,0,1-.068.015.026.026,0,0,0-.015.007Z" transform="translate(-168.601 -120.743)" fill="#ffb9a9"/>
      <path id="Trazado_20534" data-name="Trazado 20534" d="M344.131,271.5v6.044s-7.276,6.8-8.032,8.032a16.237,16.237,0,0,1-3.778,3.589c-.567.287-8.312.7-10.3-.453-1.655-.96-4.307-7.4-5.131-11.3a10.158,10.158,0,0,1-.249-1.942c0-3.121,2.69-11.054,3.868-12.467.763-.915,3.869-3.544,5.985-5.312,1.171-.974,2.048-1.685,2.048-1.685s-3.877,7.843-3.877,8.689,1.988,12.755,5.577,14.553,12.467-4.443,12.935-5.01A10.365,10.365,0,0,0,344.131,271.5Z" transform="translate(-204.811 -114.693)" fill="#eeebf4"/>
      <path id="Trazado_20535" data-name="Trazado 20535" d="M320.371,243.564c-2.115,1.768-5.221,4.4-5.985,5.312-1.179,1.413-3.868,9.346-3.868,12.467a10.158,10.158,0,0,0,.249,1.942L295.7,253.062c-.106-1.557-.234-3.242-.386-5V224.122c0-1.3-1.012-16.011-1.76-21.391a8.53,8.53,0,0,1,2.229,1.148c.627.635,10.45,22.041,11.522,24.179s10.518,13.82,10.518,13.82a4.847,4.847,0,0,1,2.078.725A2.844,2.844,0,0,1,320.371,243.564Z" transform="translate(-198.687 -100.561)" fill="#54c6e0"/>
      <path id="Trazado_20536" data-name="Trazado 20536" d="M368.041,182.7l-2.66,4.1,2.267,18.067s-8.062,7.178-8.569,7.624-2.328,2.01-2.328,2.01a7.845,7.845,0,0,1,0,1.769c-.128.438-.884,2.01-.884,2.01l-8.841,30.633a10.366,10.366,0,0,1-.952,2.743c-.468.566-9.346,6.8-12.935,5.01s-5.577-13.7-5.577-14.553,3.877-8.689,3.877-8.689l4.911-8.871,9.256-22.109s-1.753-13.5-1.466-14.062,8.961-9.135,9.339-9.513,4-7.4,4.186-7.9,2.924.846,2.924,3.68a21.237,21.237,0,0,1-1.821,7.5c-.378.566-4.035,4.133-4.035,4.133l.566,2.162.053-.068c.552-.665,4.949-6,5.237-6.355.317-.378,7.744-10.956,7.744-10.956l4.473,4.284Z" transform="translate(-207.708 -92.108)" fill="#ffb9a9"/>
      <path id="Trazado_20537" data-name="Trazado 20537" d="M200.058,130.723s-5.6-6.738-9.445-5.415c-1.924.662-1.511,13.916-.378,15.553s9.949,6.422,11.838,3.526S200.058,130.723,200.058,130.723Z" transform="translate(-171.028 -79.979)" fill="#ffb9a9"/>
      <path id="Trazado_20538" data-name="Trazado 20538" d="M263.878,120.695s3.631-7.975,7.685-7.712c2.031.132,5.124,13.026,4.462,14.9s-7.906,8.816-10.491,6.519S263.878,120.695,263.878,120.695Z" transform="translate(-190.773 -76.753)" fill="#ffb9a9"/>
      <path id="Trazado_20539" data-name="Trazado 20539" d="M247.189,102.143l-.522,2.652H244.5s-4.821-5.818-4.965-7.185-1.262-10.329-1.262-10.329a28.845,28.845,0,0,1-13.661,8.312l-.755-.31-1.935,1.889-2.35-.446-.378.446a53.342,53.342,0,0,1-20.711-3.529s1.284,7.367,1.572,8.41S198.12,113.6,198.12,113.6l-4.738-1.882s-5.939-13.442-5.939-14.817,3.733-3.446,3.733-3.446a8.27,8.27,0,0,1-4.435-2.357,8.855,8.855,0,0,1-1.821-4.647,16.138,16.138,0,0,1-.166-1.919c1.746,3.589,5.667-.053,6.8-1.277s13.411-18.323,17.477-19.359,26.249,1.98,27.579,2.645a73.518,73.518,0,0,1,6.159,4.624c.687-1.511,0-5.38,0-5.38a11.036,11.036,0,0,1,2.531,7.458,29.524,29.524,0,0,1-2.531,9.068s5.644,1.791,5.735,2.924S247.189,102.143,247.189,102.143Z" transform="translate(-169.828 -63.677)" fill="#403379"/>
      <path id="Trazado_20540" data-name="Trazado 20540" d="M248.172,184.378c-3.295,2.4-11.229,7.269-19.374,5.667v-5.214a53.909,53.909,0,0,0,11.78-.431,42.627,42.627,0,0,0,7.359-1.95Z" transform="translate(-181.511 -95.181)" fill="#f7937c"/>
      <path id="Trazado_20541" data-name="Trazado 20541" d="M382.822,175.413l-4.768,7.359-12.739,5.735.053-.068c.552-.665,4.949-6,5.237-6.355.317-.378,7.744-10.956,7.744-10.956Z" transform="translate(-217.721 -92.178)" fill="#f7937c"/>
      <path id="Trazado_20542" data-name="Trazado 20542" d="M378.1,90.477l-.816-.059-.816-.058L369.116,181.5l1.633.117,1.633.117Z" transform="translate(-218.73 -70.755)" fill="#17a4c0"/>
      <path id="Trazado_20543" data-name="Trazado 20543" d="M381.617,196.138c-.333.582-8.229,4.39-8.516,4.586s-5.743,1.549-6.12,1.6-1.708-2.576-1.043-4.072,5.667-3.8,6.135-4.043,7.11-5.4,8.644-5.1C382.183,189.4,381.949,195.564,381.617,196.138Z" transform="translate(-217.838 -96.944)" fill="#ffb9a9"/>
      <path id="Trazado_20544" data-name="Trazado 20544" d="M381.206,205.8c-.189.718-7.791,3.755-8.5,3.944a29.843,29.843,0,0,1-4.836,1.058c-.68-.151-1.813-3.536-.03-4.375,1.33-.627,4.254-1.979,4.443-2.025s6.566-3.853,8.168-3.755C381.07,200.681,381.395,205.07,381.206,205.8Z" transform="translate(-218.137 -100.006)" fill="#ffb9a9"/>
      <path id="Trazado_20545" data-name="Trazado 20545" d="M381.116,213.718c-.159.385-6.611,2.659-7.148,2.7s-4,.415-4.5.514-1.919-2.342-.438-3.438,4.3-1.655,5.138-1.988,5.909-2.856,6.763-2.758C381.524,208.814,381.275,213.332,381.116,213.718Z" transform="translate(-218.531 -102.155)" fill="#ffb9a9"/>
      <path id="Trazado_20546" data-name="Trazado 20546" d="M381.617,197.984c-.333.582-8.229,4.39-8.516,4.586s-5.743,1.549-6.12,1.6-1.708-2.576-1.043-4.072,5.667-3.8,6.135-4.043a26.582,26.582,0,0,0,0,3.37c.144.967.635,2.116.854,2.116S380.007,199.276,381.617,197.984Z" transform="translate(-217.838 -98.79)" fill="#f7937c"/>
      <path id="Trazado_20547" data-name="Trazado 20547" d="M381.206,207.152c-.189.718-7.791,3.755-8.5,3.944a29.844,29.844,0,0,1-4.836,1.058c-.68-.151-1.813-3.536-.03-4.375,1.33-.627,4.254-1.979,4.443-2.025a13.7,13.7,0,0,0-.129,2.743c.129,1.035.506,1.632.7,1.632A28.9,28.9,0,0,0,381.206,207.152Z" transform="translate(-218.137 -101.362)" fill="#f7937c"/>
      <path id="Trazado_20548" data-name="Trazado 20548" d="M381.116,214.715c-.159.385-6.611,2.659-7.148,2.7s-4,.415-4.5.514-1.919-2.342-.438-3.438,4.3-1.655,5.138-1.988a17.24,17.24,0,0,0-.264,2.91c.083.657.264,1.45.566,1.45A35.407,35.407,0,0,0,381.116,214.715Z" transform="translate(-218.531 -103.152)" fill="#f7937c"/>
      <path id="Trazado_20549" data-name="Trazado 20549" d="M384.982,175.084c.567-.756-2.487-5.321-4.187-5.195s-7.273,7.587-7.335,8.154,1.637,3.463,2.392,3.589S384.415,175.839,384.982,175.084Z" transform="translate(-219.881 -91.849)" fill="#ffb9a9"/>
      <path id="Trazado_20550" data-name="Trazado 20550" d="M193.075,138.263s-.661-5.856.346-6.454,5.195,2.046,6.989,4.722c0,0-3.148,1.1-3.179,2.739s3.9,2.991,3.9,2.991-4.849-.252-5.195-2.865S200,136.5,200,136.5s-4.785-3.747-5.761-3.085S193.075,138.263,193.075,138.263Z" transform="translate(-171.979 -81.726)" fill="#f7937c"/>
      <path id="Trazado_20551" data-name="Trazado 20551" d="M274.553,124.308s-1.213-5.767-2.358-6.018-4.288,3.575-5.151,6.68c0,0,3.335.056,3.879,1.6s-2.766,4.067-2.766,4.067,4.523-1.763,4.031-4.353-4.766-1.473-4.766-1.473,3.366-5.061,4.5-4.74S274.553,124.308,274.553,124.308Z" transform="translate(-191.656 -78.16)" fill="#f7937c"/>
      <path id="Trazado_20552" data-name="Trazado 20552" d="M233.764,97.871s3.194-10.453,3.384-16.938S229.4,66.324,229.4,66.324s9.13,7.3,9.949,12.342-3.337,14.8-3.337,14.8a50.449,50.449,0,0,0,6.3-14.672,25.249,25.249,0,0,1-6.611,17.19Z" transform="translate(-181.671 -64.379)" fill="#302864"/>
      <path id="Trazado_20553" data-name="Trazado 20553" d="M217.16,99.717s3.48-9.666,2.158-17.5-6.234-8.5-7.179-8.784-7.556-.6-11.271,3.809a10.138,10.138,0,0,1,10.075-2.14c5.793,2.078,7.544,11.651,7.007,17.756a25,25,0,0,0-2.6-8.914c-2.2-3.931-3.716-5.882-4.471-5.757S205.654,83.3,199.357,86.5s-9.633,2.638-9.633,2.638a19.946,19.946,0,0,0,13.286-3.085c6.486-4.281,7.871-4.848,8.816-4.6S218.655,90.271,217.16,99.717Z" transform="translate(-171.147 -66.225)" fill="#302864"/>
      <path id="Trazado_20554" data-name="Trazado 20554" d="M198.18,121.818l-4.738-1.882s-5.939-13.442-5.939-14.817,3.733-3.446,3.733-3.446a8.27,8.27,0,0,1-4.435-2.357,8.855,8.855,0,0,1-1.821-4.647c.469,1.088,2.131,3.831,7.39,5.4,6.664,1.988,4.662-.226,6.173,1.791,0,0,1.284,7.367,1.572,8.41S198.18,121.818,198.18,121.818Z" transform="translate(-169.888 -71.898)" fill="#302864"/>
      <path id="Trazado_20555" data-name="Trazado 20555" d="M266.509,108.869l-.522,2.652h-2.168s-4.821-5.818-4.965-7.185-1.262-10.329-1.262-10.329a44.5,44.5,0,0,0,4.5-4.972s5.644,1.791,5.735,2.924S266.509,108.869,266.509,108.869Z" transform="translate(-189.149 -70.403)" fill="#302864"/>
      <path id="Trazado_20556" data-name="Trazado 20556" d="M253.156,128.009c.322,1.777-.323,3.383-1.44,3.585s-2.284-1.075-2.606-2.852.323-3.382,1.44-3.585S252.835,126.231,253.156,128.009Z" transform="translate(-186.877 -79.979)" fill="#29215d"/>
      <path id="Trazado_20557" data-name="Trazado 20557" d="M220.046,134c.322,1.777-.323,3.383-1.44,3.585s-2.284-1.075-2.606-2.852.323-3.382,1.44-3.585S219.725,132.226,220.046,134Z" transform="translate(-178.094 -81.569)" fill="#29215d"/>
      <g id="Grupo_26079" data-name="Grupo 26079" transform="translate(29.858 40.753)">
        <g id="Grupo_26078" data-name="Grupo 26078">
          <g id="Grupo_26075" data-name="Grupo 26075" transform="translate(24.678)">
            <path id="Trazado_20558" data-name="Trazado 20558" d="M258.312,131.135l-1.194-6.77-.635-3.582a1.987,1.987,0,0,0-.824-1.292,2.106,2.106,0,0,0-1.4-.34c-2.3.166-4,.348-5.131.491s-1.708.242-1.753.25c-.1.015-2.486.446-7.14,1.738a2.15,2.15,0,0,0-1.209.808,1.982,1.982,0,0,0-.326,1.5l.317,1.8.295,1.67,1.217,6.883a5.558,5.558,0,0,0,6.438,4.5l6.853-1.217a5.5,5.5,0,0,0,4.1-3.2A5.423,5.423,0,0,0,258.312,131.135Zm-4.813,4.639-6.853,1.217a3.734,3.734,0,0,1-4.322-3.023l-1.836-10.351a.183.183,0,0,1,.03-.137.4.4,0,0,1,.2-.09c4.557-1.27,6.944-1.7,6.967-1.708s2.191-.378,6.7-.718c.166-.015.219.015.226.023a.165.165,0,0,1,.068.113l1.836,10.352A3.733,3.733,0,0,1,253.5,135.775Z" transform="translate(-238.663 -119.142)" fill="#302864"/>
          </g>
          <g id="Grupo_26076" data-name="Grupo 26076" transform="translate(0 4.37)">
            <path id="Trazado_20559" data-name="Trazado 20559" d="M224.725,137.08l-1.224-6.914-.295-1.669-.309-1.769a2.031,2.031,0,0,0-.824-1.292,2.15,2.15,0,0,0-1.406-.34c-2.3.174-4,.355-5.131.5s-1.708.234-1.752.242c-.1.023-2.486.445-7.141,1.745a2.1,2.1,0,0,0-1.209.8,1.989,1.989,0,0,0-.325,1.5l1.828,10.351a5.569,5.569,0,0,0,6.438,4.5l6.853-1.216A5.558,5.558,0,0,0,224.725,137.08Zm-4.813,4.639-6.854,1.217a3.729,3.729,0,0,1-4.322-3.023L206.9,129.562a.183.183,0,0,1,.03-.136.389.389,0,0,1,.2-.091c4.556-1.269,6.944-1.7,6.966-1.7s2.192-.385,6.7-.718c.166-.015.219.008.227.015a.184.184,0,0,1,.068.113l1.836,10.352A3.734,3.734,0,0,1,219.912,141.719Z" transform="translate(-205.076 -125.089)" fill="#302864"/>
          </g>
          <g id="Grupo_26077" data-name="Grupo 26077" transform="translate(17.12 6.565)">
            <path id="Trazado_20560" data-name="Trazado 20560" d="M229.119,131.223l-.743-1.465a15.684,15.684,0,0,1,4.457-1.467,15.5,15.5,0,0,1,4.406-.1l-.195,1.632a13.848,13.848,0,0,0-3.939.093A14.041,14.041,0,0,0,229.119,131.223Z" transform="translate(-228.376 -128.078)" fill="#302864"/>
          </g>
        </g>
      </g>
      <path id="Trazado_20561" data-name="Trazado 20561" d="M246.061,164.613a9.332,9.332,0,0,1-6.551,5.093,9.6,9.6,0,0,1-10.208-4.979,10.451,10.451,0,0,1-.929-2.327c-.06-.234-.121-.468-.166-.711a10.285,10.285,0,0,1-.159-1.156l18.21-3.581.378-.076a10.509,10.509,0,0,1,.287,1.126A10.362,10.362,0,0,1,246.061,164.613Z" transform="translate(-181.312 -88.398)" fill="#f2819f"/>
      <path id="Trazado_20562" data-name="Trazado 20562" d="M246.409,158.626c-.2.363-9.324,3.129-18.036,3.8-.06-.234-.121-.468-.166-.711a10.286,10.286,0,0,1-.159-1.156l18.21-3.581A4,4,0,0,1,246.409,158.626Z" transform="translate(-181.312 -88.425)" fill="#fff"/>
      <path id="Trazado_20563" data-name="Trazado 20563" d="M246.514,166.532a9.332,9.332,0,0,1-6.551,5.093,9.6,9.6,0,0,1-10.208-4.979C232.339,165.316,240.6,161.742,246.514,166.532Z" transform="translate(-181.765 -90.317)" fill="#a82f55"/>
      <path id="Trazado_20564" data-name="Trazado 20564" d="M265.326,296.575a.579.579,0,0,1,.06-.015.026.026,0,0,0-.015.007Z" transform="translate(-191.2 -125.448)" fill="#17a4c0"/>
      <path id="Trazado_20565" data-name="Trazado 20565" d="M265.5,296.512c.083-.023.2-.046.348-.076C265.728,296.466,265.607,296.489,265.5,296.512Z" transform="translate(-191.246 -125.415)" fill="#17a4c0"/>
    </g>
  </g>
</svg>
