<svg xmlns="http://www.w3.org/2000/svg" xmlns:xlink="http://www.w3.org/1999/xlink" width="928.132" height="559.069" viewBox="0 0 928.132 559.069">
  <defs>
    <linearGradient id="linear-gradient" x1="0.5" y1="0.103" x2="0.5" y2="1.202" gradientUnits="objectBoundingBox">
      <stop offset="0" stop-color="#9ec8ff"/>
      <stop offset="1" stop-color="#e7f3fe"/>
    </linearGradient>
    <clipPath id="clip-path">
      <path id="Trazado_20437" data-name="Trazado 20437" d="M407.9,868.038a37.1,37.1,0,1,0,37.1,37.1A37.1,37.1,0,0,0,407.9,868.038Zm0,56.757a19.655,19.655,0,1,1,19.655-19.655A19.655,19.655,0,0,1,407.9,924.795Z" transform="translate(-370.801 -868.038)" fill="none"/>
    </clipPath>
  </defs>
  <g id="Grupo_26051" data-name="Grupo 26051" transform="translate(-250.934 -178.362)">
    <path id="Trazado_20342" data-name="Trazado 20342" d="M1753.55,368.36c37.795-39.293-147.49-176.032-300.5-188.5-140.869-11.477-326.979,44.087-138.027,126.233C1495.063,384.367,1733.8,388.892,1753.55,368.36Z" transform="translate(-727.284 0)" fill="#e7f3fe"/>
    <path id="Trazado_20343" data-name="Trazado 20343" d="M286.739,667.47c88.243-111.638,273.551,6.277,432.11,34.921s416.464-16.866,415.818,108.763c-.688,133.941-57.883,209.3-371.589,245.286s-457.333-74.924-498.35-193C232.8,771.518,263.155,697.307,286.739,667.47Z" transform="translate(0 -326.68)" fill="#e7f3fe"/>
    <g id="Grupo_26005" data-name="Grupo 26005" transform="translate(821.05 483.383)">
      <path id="Trazado_20344" data-name="Trazado 20344" d="M2507.3,1347.706c-12.951,26.291-29.189,98.132-33.618,102.068s-30.016,19.19-34.445,26.571-2.46,4.921-.492,5.413,113.175.984,113.175.984-12.794-76.27-14.27-76.762S2507.3,1347.706,2507.3,1347.706Z" transform="translate(-2436.56 -1347.706)" fill="#a2dff2"/>
      <path id="Trazado_20345" data-name="Trazado 20345" d="M2637.15,1482.386c20.424.142,41.976.255,53.841.313l-16.244-97.147c-8.665-16.8-19.182-37.846-19.182-37.846-1.633,3.314-3.318,7.354-5.025,11.888-1.685,72.965,8.824,93.417.931,106.418C2645.311,1476.158,2639.688,1480.7,2637.15,1482.386Z" transform="translate(-2584.826 -1347.706)" fill="#96cfe0"/>
    </g>
    <g id="Grupo_26006" data-name="Grupo 26006" transform="translate(759.341 381.281)">
      <path id="Trazado_20346" data-name="Trazado 20346" d="M2775.478,1226.059c18.471,17.05,59.584,33.218,59.584,33.218s6.247,57.714,1.984,90.393-1.894,39.309-1.894,39.309l-88.782.756s-7.37-16.545-28.2-65.64c-13.261-31.258-10.893-66.3-10.893-66.3l51.623-23.207Z" transform="translate(-2574.833 -1155.688)" fill="#a2dff2"/>
      <path id="Trazado_20347" data-name="Trazado 20347" d="M2843.924,1487.755H2928.7s-2.368-6.63,1.894-39.309c3.51-26.909-.106-70.79-1.492-85.449l-7.709-3.3c-19.355,5.577-30.509,34.446-33.79,62.659-2.195,18.877-33.469,37.46-53.927,47.692C2840.4,1482.856,2843.924,1487.755,2843.924,1487.755Z" transform="translate(-2668.38 -1254.464)" fill="#96cfe0"/>
      <path id="Trazado_20348" data-name="Trazado 20348" d="M2914.477,1279.868s.8,24.373,4.952,24.112,28.318-30.9,28.318-30.9l-4.108-1.964Z" transform="translate(-2728.104 -1188.99)" fill="#96cfe0"/>
      <path id="Trazado_20349" data-name="Trazado 20349" d="M2850.887,1295.307s-5.252,22.421-7.858,21.9-6.126-23.316-6.126-23.316Z" transform="translate(-2670.766 -1205.826)" fill="#96cfe0"/>
      <path id="Trazado_20350" data-name="Trazado 20350" d="M2858.07,1288.613l7.226.783,2.781,8.608s-6.355,7.438-6.486,10.436,1.4,14.214,1.482,24.387-3.654,50.668-1.957,75.475l1.7,24.808-14.524.566s-.782-27.29,0-56.5,9.1-68.731,9.1-68.731l-3.281-10.045Z" transform="translate(-2678.924 -1201.925)" fill="#f37168"/>
      <path id="Trazado_20351" data-name="Trazado 20351" d="M2781.743,998.959c-10.219,22.76,2.046,43.844,1.674,42.955s15.467-38.428,15.467-38.428Z" transform="translate(-2626.981 -987.827)" fill="#2e5b9a"/>
      <path id="Trazado_20352" data-name="Trazado 20352" d="M2880.042,1063.48l12.96,47.372a4.289,4.289,0,0,1-.82,3.837c-3.04,3.744-7.369,11.447-16.1,13.918a21.645,21.645,0,0,1-5.482.615,3.7,3.7,0,0,1-3.651-2.994l-8.683-44.93Z" transform="translate(-2686.556 -1035.517)" fill="#f09959"/>
      <path id="Trazado_20353" data-name="Trazado 20353" d="M2877.568,1078.659l-4.738,1.942-14.564,11.916,5.589,28.479,2.229,11.355C2879.341,1124.086,2884.2,1110.6,2877.568,1078.659Z" transform="translate(-2686.556 -1046.737)" fill="#e38540"/>
      <path id="Trazado_20354" data-name="Trazado 20354" d="M2807.026,1045.659c.01,15.845-9.542,28.328-21.335,27.88s-19.029-9.368-21.373-29.5c-1.839-15.794,2.721-34.174,14.515-33.727S2807.015,1029.814,2807.026,1045.659Z" transform="translate(-2616.823 -996.213)" fill="#f09959"/>
      <path id="Trazado_20355" data-name="Trazado 20355" d="M2947.834,1352.28c17.152,3.873,20.34,38.711,25.917,75.454.642,4.229,3.937,40.023,3.937,40.023a10.956,10.956,0,0,1-6.233,9.842c-5.606,2.8-7.874,4.921-40.352,5.249-31.191.315-71.407-.984-71.407-.984s-.356-11.606,2.843-17.278c4.812-8.529,54.13-20.777,58.723-21.433.656-9.185-4.53-42.421,2.624-64.956,4.921-15.5,10.211-23.62,16.839-25.743A13.309,13.309,0,0,1,2947.834,1352.28Z" transform="translate(-2687.604 -1248.691)" fill="#a2dff2"/>
      <path id="Trazado_20356" data-name="Trazado 20356" d="M2927.34,1505.773c15.378.231,36.48.452,53.771.277,32.478-.328,34.746-2.446,40.352-5.249,6.561-3.281,6.889-8.858,6.889-8.858s-3.316-38.087-3.937-42.319c-3.608-24.6-7.508-52.759-16.582-66.35a185.521,185.521,0,0,1,10.056,55.109c.077,4.563-.344,10.812-1.675,15.177-1.476,4.839-5.249,7.873-11.154,6.233-11.81-3.28-26.573,3.609-26.573,3.609s11.154-3.937,21.652-.328,32.149,27.557,8.529,36.415C3001.439,1502.2,2958.147,1504.41,2927.34,1505.773Z" transform="translate(-2737.612 -1271.895)" fill="#96cfe0"/>
      <path id="Trazado_20357" data-name="Trazado 20357" d="M2868.556,1767.065s4.374-7.436,13.341-7.436,8.311,14.653,7,19.465-6.561,5.03-6.561,5.03l-18.061-.458Z" transform="translate(-2690.997 -1550.077)" fill="#96cfe0"/>
      <path id="Trazado_20358" data-name="Trazado 20358" d="M2199.99,1833h150.686a7.552,7.552,0,0,0-7.552-7.552H2199.99Z" transform="translate(-2199.99 -1598.726)" fill="#75a1de"/>
      <path id="Trazado_20359" data-name="Trazado 20359" d="M2728.773,1756.8c-18.164-8.355-23.3-6.231-27.428-7.828-10.2-3.943-13.038-1.552-21.374,16.394-1.661,3.576,2.28,4.146,6.2,4.48s9.368-6.883,10.967-7.624,5.778-.824,5.778-.824-1.308-.111-3.6,3.643-4.823,5.076-1.772,5.336,3.914-4.714,9.487-3.141,4.431,6.877,18.641,6.419c13.477-.435,23.548.913,24.043-7.6.47-8.081,1.707-12.037-5.82-14.106C2738.1,1750.357,2728.773,1756.8,2728.773,1756.8Z" transform="translate(-2554.481 -1540.999)" fill="#f09959"/>
      <path id="Trazado_20360" data-name="Trazado 20360" d="M2868.962,1770.773c12.651-.347,7.642,14.947,6.223,16.143s6.937,1.055,6.937,1.055a15.186,15.186,0,0,0,1.771-13.4,12.263,12.263,0,0,0-9.165-8.355l-5.817,2.576Z" transform="translate(-2694.425 -1554.947)" fill="#a86b48"/>
      <path id="Trazado_20361" data-name="Trazado 20361" d="M2877.183,1762.875c.1,1.946-2.992,3.688-6.907,3.891s-7.172-1.209-7.273-3.155,2.991-3.687,6.907-3.891S2877.082,1760.929,2877.183,1762.875Z" transform="translate(-2690.056 -1550.13)" fill="#2e5b9a"/>
      <path id="Trazado_20362" data-name="Trazado 20362" d="M2877.169,1760.684c.09,1.738-2.673,3.295-6.171,3.476s-6.407-1.081-6.5-2.819,2.673-3.295,6.171-3.476S2877.079,1758.946,2877.169,1760.684Z" transform="translate(-2691.162 -1548.76)" fill="#3e6bab"/>
      <path id="Trazado_20363" data-name="Trazado 20363" d="M2878.528,1761.007c.065,1.252-1.924,2.372-4.442,2.5s-4.613-.778-4.677-2.029,1.924-2.371,4.442-2.5S2878.463,1759.756,2878.528,1761.007Z" transform="translate(-2694.791 -1549.587)" fill="#f0ceb4"/>
      <path id="Trazado_20364" data-name="Trazado 20364" d="M2459.246,1779.211c9.339-5.188,20.754-3.459,24.9,1.729s4.843,8.647-4.5,8.647-28.017.692-31.131.346S2459.246,1779.211,2459.246,1779.211Z" transform="translate(-2383.356 -1562.235)" fill="#f09959"/>
      <path id="Trazado_20365" data-name="Trazado 20365" d="M2537.455,1779.575c10.031-2.421,16.885,3.416,25.25,8.993,7.264,4.843,8.724,9.55.692,5.534-11.761-5.88-18.678-6.572-18.678-6.572Z" transform="translate(-2449.428 -1564.405)" fill="#f09959"/>
      <path id="Trazado_20366" data-name="Trazado 20366" d="M2419.828,1794.751c-5.066,0-9.488-1.615-13.064-1.318s-14.9,11.919-13.112,12.813a4.182,4.182,0,0,0,.417.178,6.1,6.1,0,0,0,7.238-2.539c1.6-2.572,4.209-5.564,7.244-4.493a32.217,32.217,0,0,0,10.382,1.615Z" transform="translate(-2342.996 -1575.037)" fill="#f09959"/>
      <path id="Trazado_20367" data-name="Trazado 20367" d="M2492.82,1780.936c-5.188-2.075,3.113-19.37,5.88-19.37s13.144,8.3,13.144,8.3-2.441,1.377-10.723-1.384c-2.075-.692-3.8,11.069-6.226,12.452S2492.82,1780.936,2492.82,1780.936Z" transform="translate(-2415.201 -1551.509)" fill="#f7a96f"/>
      <path id="Trazado_20368" data-name="Trazado 20368" d="M2846.069,1248.952l2.432,12.963L2841.4,1277.3l-7.721-16.3Z" transform="translate(-2668.379 -1172.609)" fill="#a2dff2"/>
      <path id="Trazado_20369" data-name="Trazado 20369" d="M2734.7,1013.066c2.986,18.815,9.951,20.8,14.885,22.522s23.384-6.034,25.35-11.188c5.031-13.183-3.088-23.11-1.442-23.242s3.974,4.209,9.292,9.418c.5.485,3.915,3.68,3.83,2.423-1.143-17.132,6.627-23.952,1.414-40.53-3.843-12.221-11.6-9.763-11.6-9.763s-7.053-9.517-22.773-5.384c-10.532,2.769-19.285,8.688-29.77,13.556s18.157,25.381,30.753,13.626,9.254,9.629,11.8,10.77,1.122.006,4.053,10.091-8.879,19.2-12.457,20.775c-11.438,5.022-13.8,3.419-17.254-.6C2737.785,1022.051,2734.7,1013.066,2734.7,1013.066Z" transform="translate(-2585.557 -956.281)" fill="#2e5b9a"/>
      <path id="Trazado_20370" data-name="Trazado 20370" d="M2927.043,1088.762c-.5,4.973-3.288,8.642-6.23,8.194s-3.732-4.268-4.42-9.816c-.62-5,3.289-8.642,6.229-8.194S2927.542,1083.789,2927.043,1088.762Z" transform="translate(-2729.472 -1046.922)" fill="#f09959"/>
      <path id="Trazado_20371" data-name="Trazado 20371" d="M2931.114,1230.1l12.886,12s-24.792,23.346-26.938,23.085-5.787-19.824-5.787-19.824Z" transform="translate(-2725.737 -1158.673)" fill="#a2dff2"/>
      <path id="Trazado_20372" data-name="Trazado 20372" d="M2879.376,1287.492c-2.378,1.117-1.614,4.51-2.622,5.689s-1.61,1.5-2.422-.146-.681-5.356-1.312-5.543-5.413,14.768-5.413,14.768,3.515-9.564,4.315-8.521.163,2.015,3.073,2.189a21.465,21.465,0,0,0,6.61-1.053Z" transform="translate(-2693.46 -1201.095)" fill="#a2dff2"/>
    </g>
    <g id="Grupo_26007" data-name="Grupo 26007" transform="translate(716.845 536.757)">
      <path id="Trazado_20373" data-name="Trazado 20373" d="M2101.565,1631.118h80.486l-34.179-75.193a6.146,6.146,0,0,0-5.6-3.6h-72.8a2.4,2.4,0,0,0-2.185,3.393Z" transform="translate(-2059.248 -1552.322)" fill="#a8ceff"/>
      <path id="Trazado_20374" data-name="Trazado 20374" d="M2039.476,1552.322h74.281a6.146,6.146,0,0,1,5.6,3.6l34.179,75.193h-81.965l-34.275-75.4A2.4,2.4,0,0,1,2039.476,1552.322Z" transform="translate(-2037.073 -1552.322)" fill="#75a1de"/>
      <path id="Trazado_20375" data-name="Trazado 20375" d="M2188.749,1682.394c2.817,5.838,7.389,9.467,10.211,8.106s2.825-7.2.008-13.037-7.389-9.467-10.211-8.105S2185.932,1676.555,2188.749,1682.394Z" transform="translate(-2147.625 -1638.617)" fill="#6695d6"/>
    </g>
    <g id="Grupo_26010" data-name="Grupo 26010" transform="translate(393.185 387.995)">
      <g id="Grupo_26008" data-name="Grupo 26008" transform="translate(69.879 4.134)">
        <path id="Trazado_20376" data-name="Trazado 20376" d="M1071.512,1086.976c-1.252,0-2.484-.062-3.691-.124-1-.051-2.032-.1-3.028-.117a.636.636,0,0,1,.009-1.271c1.028.014,2.073.067,3.084.118,7.557.382,15.373.779,22.987-13.862,3.305-6.356,6.9-18.714,6.164-32.623-.6-11.393-4.466-27.6-19.425-40.1a.635.635,0,1,1,.815-.975c15.31,12.8,19.261,29.368,19.879,41.012.752,14.165-2.927,26.779-6.306,33.277C1085.282,1085.229,1078.13,1086.976,1071.512,1086.976Z" transform="translate(-1064.167 -997.871)" fill="#303c60"/>
      </g>
      <g id="Grupo_26009" data-name="Grupo 26009" transform="translate(73.358 12.257)">
        <path id="Trazado_20377" data-name="Trazado 20377" d="M1079,1106.992c-.3,0-.591-.007-.888-.022a.636.636,0,1,1,.062-1.27c.274.014.548.02.82.02,7.886,0,15.17-5.584,20.089-15.452,8.089-16.225,8.873-42.843-5.6-60.216a.635.635,0,1,1,.976-.814c14.823,17.788,14.034,45.011,5.766,61.6C1095.074,1101.153,1087.379,1106.991,1079,1106.992Z" transform="translate(-1077.504 -1029.011)" fill="#303c60"/>
      </g>
      <path id="Trazado_20378" data-name="Trazado 20378" d="M912.358,991.2c22.82-17.713,44.252-8.324,51.93,15.65,7.172,22.392-2.019,70.51-36.062,62.125-35.218-8.674-38.152-19.456-37.885-35.126A55.609,55.609,0,0,1,912.358,991.2Z" transform="translate(-865.793 -982.021)" fill="#303c60"/>
      <path id="Trazado_20379" data-name="Trazado 20379" d="M830.98,1289.45l-32.62,12.172s9.13,66.255,9.912,91.558-12,47.253-12,47.253h85.3s11.738-68.9,9.391-93.162-18.52-49.393-19.3-50-20.346-5.04-20.346-5.04Z" transform="translate(-796.274 -1209.258)" fill="#a2dff2"/>
      <path id="Trazado_20380" data-name="Trazado 20380" d="M1101.968,1602.113s3.285,30.78,4.642,32.345,51.44,26.08,51.44,26.08l-72.777,4.961Z" transform="translate(-1009.889 -1440.363)" fill="#d54a41"/>
      <path id="Trazado_20381" data-name="Trazado 20381" d="M1085.274,1319.435c8.086.177,10.281,13.4,12.183,23.221S1085.274,1319.435,1085.274,1319.435Z" transform="translate(-1009.889 -1231.421)" fill="#d54a41"/>
      <path id="Trazado_20382" data-name="Trazado 20382" d="M863.747,1349.467c-4.434-15.912-28.26-60.221-28.26-60.221l-31.213,12.225s7.155,51.926,9.34,81.395l11.856,57.416h38.277S868.182,1365.379,863.747,1349.467Z" transform="translate(-802.187 -1209.107)" fill="#f37168"/>
      <path id="Trazado_20383" data-name="Trazado 20383" d="M863.4,1738.19l35.182-8.076-2.872,30Z" transform="translate(-845.888 -1534.975)" fill="#d54a41"/>
      <path id="Trazado_20384" data-name="Trazado 20384" d="M831.374,1460.495c-5.739-7.77-11.352-16.318-5.885-34.171s6-24.259,4.085-40.432-10.606-42-27.561-42.779c0,0-.559,5.655-1.463,14.683,2.753,21.325,7.188,57.754,7.723,75.049.783,25.3-12,47.253-12,47.253l69.386,1.526S837.113,1468.265,831.374,1460.495Z" transform="translate(-796.274 -1248.923)" fill="#d54a41"/>
      <path id="Trazado_20385" data-name="Trazado 20385" d="M1065.137,1359.348c-2.348-24.259-18.52-49.393-19.3-50-.484-.374-8.139-2.211-13.918-3.559,1.7,4.008,19.62,46.717,18.875,64.307-.783,18.466.023,82.413.023,82.413h4.933S1067.485,1383.607,1065.137,1359.348Z" transform="translate(-970.449 -1221.335)" fill="#f37168"/>
    </g>
    <path id="Trazado_20386" data-name="Trazado 20386" d="M867.252,1927.406c-.875-.427-1.636-.756-2.353-1.16a5.5,5.5,0,0,1-1.756-1.567c-.475-.656-.9-1.351-1.411-2.127a7.827,7.827,0,0,1-5.709,4.764c.564.231.923.372,1.278.524a6.473,6.473,0,0,1,3.7,7.915,6.4,6.4,0,0,1-7.174,4.491,6.491,6.491,0,0,1-1.476-12.429c.324-.131.652-.252,1.085-.42-.842-.371-1.594-.661-2.306-1.028a5.53,5.53,0,0,1-1.819-1.494c-.506-.645-.938-1.347-1.43-2.066-.349.159-.393.542-.581.81-.228.322-.432.661-.678.968a6.85,6.85,0,0,1-.732.773,7.591,7.591,0,0,1-.835.659,6.737,6.737,0,0,1-.918.536c-.356.167-.732.293-1.1.425-.332.118-.67.22-1.141.373.457.146.791.244,1.12.358a6.441,6.441,0,1,1-3.966-.024c.3-.1.6-.174,1.087-.313a10.07,10.07,0,0,1-3.856-1.829,7.783,7.783,0,0,1-2.235-3.376c-.467.078-.439.417-.545.643a7.222,7.222,0,0,1-4.994,4.167,6.836,6.836,0,0,1-6.006-1.377,6.939,6.939,0,0,1-2.155-2.777c-.105-.234-.087-.569-.479-.662-1.428,3.364-3.9,5.177-7.649,4.8-3.034-.3-5.15-2.386-6.1-5.843-.341.161-.329.491-.41.765a6.916,6.916,0,0,1-12.916,1.052c-.243-.536-.424-1.1-.638-1.658-.392.118-.358.491-.448.76a6.684,6.684,0,0,1-1.551,2.627,6.774,6.774,0,0,1-11.673-4.082,6.542,6.542,0,0,1,3.357-6.455c.266-.166.543-.316.812-.477.027-.017.037-.064.093-.167-.26-.337-.725-.382-1.066-.612-.359-.242-.754-.431-1.105-.683a6.669,6.669,0,0,1-.894-.773,9.806,9.806,0,0,1-.836-1c-.256-.346-.474-.72-.757-1.156-.139.119-.277.189-.342.3a7.749,7.749,0,0,1-4.637,3.63,1.529,1.529,0,0,0-.267.159c.236.35.638.4.962.539a6.6,6.6,0,0,1,3.194,2.882,6.672,6.672,0,0,1-7.919,9.579,6.63,6.63,0,0,1-4.554-6.163,6.561,6.561,0,0,1,4-6.293c.319-.143.635-.292,1.089-.5a11.972,11.972,0,0,1-3.391-1.81,10.038,10.038,0,0,1-2.1-2.924c-.333-.053-.343.206-.448.343a3.4,3.4,0,0,0-.225.415,7.24,7.24,0,0,1-11.975,1.05,10.785,10.785,0,0,1-.937-1.5c-.138-.23-.252-.474-.365-.689-.346-.013-.314.251-.406.4s-.14.283-.211.424a6.811,6.811,0,0,1-2.815,2.954,7.03,7.03,0,0,1-10.233-4.275c-.09-.341-.165-.686-.249-1.037-.387.092-.308.421-.365.662a6.834,6.834,0,0,1-10.827,3.931,6.451,6.451,0,0,1-2.556-6.485,6.548,6.548,0,0,1,3.6-4.986c.244-.128.487-.257.728-.39.032-.018.051-.059.076-.089-3.806-2.089-3.346-2.36-4.794-4.272-.392.286-.52.772-.83,1.1s-.609.728-.956,1.046a7.407,7.407,0,0,1-1.131.851,8.833,8.833,0,0,1-1.27.625c-.419.172-.859.29-1.513.5.568.216.918.353,1.271.483a6.63,6.63,0,0,1,2.661,10.622,6.646,6.646,0,0,1-7.131,1.848,6.612,6.612,0,0,1-.586-12.271c.494-.219,1.008-.391,1.586-.614-.211-.325-.521-.269-.747-.365-.254-.107-.524-.176-.78-.279a7.27,7.27,0,0,1-.753-.342,6.24,6.24,0,0,1-.7-.439,9.4,9.4,0,0,1-.737-.591,7.057,7.057,0,0,1-.583-.587,6.849,6.849,0,0,1-.518-.646,7.519,7.519,0,0,1-.427-.71c-.132-.242-.246-.494-.366-.742-.112-.232-.221-.466-.389-.823-.4.558-.489,1.124-.8,1.563a11.913,11.913,0,0,1-.99,1.323,7.058,7.058,0,0,1-1.259,1.066,6.741,6.741,0,0,1-1.478.735,7.058,7.058,0,0,1-1.614.342,8.283,8.283,0,0,1-1.652-.012,6.677,6.677,0,0,1-3.982-1.9,8.257,8.257,0,0,1-2.117-3.927c-.168.465-.292.787-.4,1.114a6.767,6.767,0,1,1-9.44-8.258c.281-.141.559-.288.835-.437.024-.013.027-.067.069-.188-.385-.281-.882-.4-1.3-.659a9.97,9.97,0,0,1-1.176-.789,8.266,8.266,0,0,1-1.085-1.084,7.52,7.52,0,0,1-.781-1.182c-.245-.445-.434-.92-.672-1.436a2.721,2.721,0,0,0-.6,1.032,7.191,7.191,0,0,1-4.046,3.608,6.957,6.957,0,0,1-7.832-2.383,6.821,6.821,0,0,1-.72-7.37,3.23,3.23,0,0,1,.234-.411c.064-.1.148-.182.269-.328a35.9,35.9,0,0,1,3.841-.068c1.263-.02,2.526,0,3.79,0h3.947l1.083,1.952.929-1.878c.279-.027.511-.07.743-.07q5.447-.007,10.9,0c.645,0,.645.012,1.259.451a1.5,1.5,0,0,1,1.258-.452c.316-.005.632,0,.948,0h400.871c.316,0,.632,0,.947,0a1.5,1.5,0,0,1,1.256.446c.644-.428.644-.443,1.155-.443q5.744,0,11.488.005a3.5,3.5,0,0,1,.418.058l.81,1.306.867-1.339h11.658a6.443,6.443,0,0,1,1.231,2.968c.313.07.292-.144.316-.272a6.721,6.721,0,0,1,1.1-2.631,14.85,14.85,0,0,1,2.806-.095c.907-.021,1.816,0,2.724,0h5.491a6.611,6.611,0,0,1,.474,7.3,6.849,6.849,0,0,1-6.574,3.38c-3.088-.337-5.088-2.239-6.149-5.851-.324.052-.282.332-.326.545a6.855,6.855,0,0,1-2.3,3.9,6.567,6.567,0,0,1-2.127,1.259c-.475.167-.953.325-1.6.544.549.2.944.345,1.343.482a6.075,6.075,0,0,1,3.154,2.387,6.3,6.3,0,0,1,.335,7.04,6.212,6.212,0,0,1-6.1,3.331,6.284,6.284,0,0,1-5.724-4.12,6.533,6.533,0,0,1,3.817-8.619c.4-.136.792-.294,1.259-.469-2.241-1.017-2.924-.448-5.71-4.527-1.522,2.26-1.05,2.435-4.8,4.615.264.156.481.3.712.418a6.7,6.7,0,0,1,3.807,5.489,6.824,6.824,0,0,1-13.228,2.916c-.151-.4-.276-.816-.463-1.371a7.109,7.109,0,0,0-.293.726,7.324,7.324,0,0,1-1.721,3.2,7.067,7.067,0,0,1-11.368-1.46c-.2-.367-.387-.74-.65-1.245a10.411,10.411,0,0,1-2.194,3.331,8.741,8.741,0,0,1-3.37,1.8c-.039.278.12.323.266.376a7.887,7.887,0,0,1,2.1,1.07,6.672,6.672,0,0,1-3.868,12.026,6.677,6.677,0,0,1-2.728-12.83c.326-.133.655-.261.962-.383.058-.238-.075-.3-.233-.346a8.116,8.116,0,0,1-2.353-1.086,7.417,7.417,0,0,1-1.965-2.026c-.147-.22-.321-.422-.526-.687a10.347,10.347,0,0,1-2.061,2.507c-.82.593-1.7,1.1-2.556,1.64a7.238,7.238,0,0,1,4.243,8.11,7.06,7.06,0,0,1-5.91,5.255,6.883,6.883,0,0,1-6.2-2.516,7.053,7.053,0,0,1-1.409-3.049c-.491.144-.406.482-.484.721a7.087,7.087,0,0,1-13.072,1.283c-.159-.308-.308-.62-.458-.923-.532.825-1,1.643-1.56,2.4a5.3,5.3,0,0,1-2.111,1.684c-.858.382-1.766.651-2.7.987.117.208.365.165.552.212a6.824,6.824,0,0,1,4.206,2.856,6.536,6.536,0,1,1-11.3,6.519,6.484,6.484,0,0,1,2.532-8.55,20.185,20.185,0,0,1,2.562-1.053,2.227,2.227,0,0,0-.445-.194,7.348,7.348,0,0,1-5.386-4.036,2.884,2.884,0,0,0-.34-.415,11.7,11.7,0,0,1-2.111,2.895,9.752,9.752,0,0,1-3.123,1.715c.13.385.459.437.721.549a6.153,6.153,0,0,1,2.3,1.635,6.416,6.416,0,0,1,1.245,7.05,6.678,6.678,0,0,1-12.178.434,6.629,6.629,0,0,1,3.137-9.014c.317-.147.629-.3,1.045-.506a4.487,4.487,0,0,0-1.174-.588c-.342-.195-.716-.337-1.047-.548a8.39,8.39,0,0,1-1.037-.784,7.772,7.772,0,0,1-.812-.858c-.274-.329-.517-.684-.824-1.094-.464.34-.611.859-.946,1.217a14.762,14.762,0,0,1-1.077,1.1,8.589,8.589,0,0,1-1.155.821c-.427.261-.882.477-1.289.692-.006.334.205.4.37.48a6.7,6.7,0,0,1,3.807,5.621,6.343,6.343,0,0,1-1.545,4.834,6.819,6.819,0,0,1-11.969-3.086,6.774,6.774,0,0,1,3.282-7.155c.291-.169.684-.212.867-.653-.545-.294-1.11-.553-1.624-.891a9.169,9.169,0,0,1-1.38-1.106c-.446-.437-.821-.946-1.258-1.46a24.832,24.832,0,0,1-1.916,2.073,23.346,23.346,0,0,1-2.3,1.579c.214.167.406.341.62.48a6.84,6.84,0,0,1,3,3.966,6.586,6.586,0,0,1-2.061,7.089,6.874,6.874,0,0,1-11.005-2.554c-.172-.427-.327-.86-.516-1.359a2.544,2.544,0,0,0-.519,1.118,6.866,6.866,0,0,1-5.907,4.636,7,7,0,0,1-6.912-3.64c-.2-.381-.384-.773-.626-1.261-.156.267-.284.446-.371.643a7.2,7.2,0,0,1-5.643,4.376,7.224,7.224,0,0,1-7.512-4.2c-.109-.247-.227-.49-.4-.854a4.061,4.061,0,0,0-.34.528,7.377,7.377,0,0,1-5.036,4.465c-.225.064-.443.151-.788.27.428.141.747.243,1.064.352a6.464,6.464,0,1,1-3.956-.032c.3-.1.6-.177.966-.284-.866-.332-1.679-.592-2.445-.953a5.513,5.513,0,0,1-1.946-1.522c-.537-.666-1.007-1.386-1.513-2.091-2.153,3.351-2.658,3.331-5.444,4.576.444.194.838.356,1.224.535a6.516,6.516,0,1,1-5.5.006c.384-.179.773-.347,1.219-.547-2.62-1.2-3.225-1.086-5.481-4.68-1.611,2.632-1.726,3.016-5.3,4.693.364.177.67.333.981.478a6.416,6.416,0,0,1,3.551,4.058,6.556,6.556,0,1,1-9.473-3.815c.445-.241.912-.442,1.487-.719-.541-.339-1.077-.442-1.526-.7a11.611,11.611,0,0,1-1.486-.962,7.994,7.994,0,0,1-1.145-1.191c-.342-.423-.621-.9-.9-1.309-.27-.082-.344.089-.413.215a7.814,7.814,0,0,1-4.312,3.682c-.143.053-.277.128-.532.247.4.2.7.368,1.007.513a6.407,6.407,0,0,1,3.126,3.107,6.573,6.573,0,1,1-8.945-3.012,3.145,3.145,0,0,0,1.164-.653,10.684,10.684,0,0,1-3.111-1.751,13.811,13.811,0,0,1-2.1-2.785,10.87,10.87,0,0,1-2.077,2.824,9.738,9.738,0,0,1-2.992,1.664c.122.475.56.444.842.579a6.42,6.42,0,0,1,3.282,3.426,6.569,6.569,0,1,1-12.62,2.72,6.265,6.265,0,0,1,3.514-6c.372-.205.769-.367,1.261-.6a20.354,20.354,0,0,1-2.157-1.09,8.593,8.593,0,0,1-1.69-1.464,20.457,20.457,0,0,1-1.389-1.99c-.388.274-.454.773-.726,1.122-.291.373-.554.771-.877,1.114a7.63,7.63,0,0,1-1.066.932,9.439,9.439,0,0,1-1.215.726c-.408.212-.84.378-1.391.621l1.046.516a6.39,6.39,0,0,1,3.723,5.259,6.561,6.561,0,1,1-13.075,1.048,6.259,6.259,0,0,1,3.329-6.1c.4-.236.836-.42,1.264-.633-.043-.338-.339-.3-.512-.4-.238-.136-.506-.219-.756-.337a6.832,6.832,0,0,1-.629-.328,6.066,6.066,0,0,1-.584-.4c-.218-.169-.429-.348-.632-.534-.175-.16-.341-.329-.5-.505a6.08,6.08,0,0,1-.449-.55c-.159-.225-.3-.466-.445-.7-.126-.2-.257-.388-.427-.644-.422.3-.561.767-.835,1.122a9.651,9.651,0,0,1-.834,1,8.616,8.616,0,0,1-1.09.9,7.954,7.954,0,0,1-1.125.648c-.424.2-.87.363-1.312.543.075.374.4.339.629.435a6.4,6.4,0,0,1,3.318,2.9,6.293,6.293,0,0,1-.154,6.642,6.147,6.147,0,0,1-5.885,3.064,6.475,6.475,0,0,1-6.05-7.827,6.312,6.312,0,0,1,3.495-4.522C866.339,1927.793,866.738,1927.635,867.252,1927.406Zm228.109-41.985c1.569,1.453,2.289,1,3.981,5.432.189-.525.335-1.008.534-1.467a7.178,7.178,0,0,1,1.634-2.432,10.368,10.368,0,0,1,1.115-.873c.393-.292.938-.359,1.268-.762a22.333,22.333,0,0,1-2.5-1.646,22.091,22.091,0,0,1-1.99-2.221c-.362.53-.675,1.07-1.069,1.542a9.955,9.955,0,0,1-1.339,1.329C1096.508,1884.717,1095.955,1885.027,1095.361,1885.421Zm-405.964-.094a8.243,8.243,0,0,1,3.2,2.056,8.93,8.93,0,0,1,1.691,3.331c.064-.078.1-.1.112-.139.054-.148.107-.3.15-.447a6.922,6.922,0,0,1,3.478-4.4,1.373,1.373,0,0,0,.287-.293,22.579,22.579,0,0,1-2.306-1.709,23.588,23.588,0,0,1-1.859-2.22C692.135,1883.984,692.135,1883.984,689.4,1885.328Zm46.733,19.919c1.024-2.965.763-3.147,3.941-5.734a23.59,23.59,0,0,1-2.266-1.641,22.379,22.379,0,0,1-1.8-2.053,21.349,21.349,0,0,1-2,2.052,23.068,23.068,0,0,1-2.508,1.537,17.2,17.2,0,0,1,1.647.972,7.243,7.243,0,0,1,1.372,1.288,8.311,8.311,0,0,1,1.022,1.719A16.263,16.263,0,0,1,736.13,1905.247Zm55.814,4.8c-.354.426-.638.8-.958,1.142a7.887,7.887,0,0,1-.951.879c-.373.284-.794.5-1.182.771-.371.255-.869.307-1.245.725.311.177.557.291.775.444a16.492,16.492,0,0,1,1.6,1.19,6.24,6.24,0,0,1,1.68,2.668c.1.306.072.72.487.89a2.282,2.282,0,0,0,.147-.328,7.091,7.091,0,0,1,3.51-4.534c.112-.063.179-.206.274-.32a22.748,22.748,0,0,1-2.2-1.486A26.39,26.39,0,0,1,791.944,1910.045Zm265.372-5.354c1.707-4.168,2.482-3.906,4.477-5.3a21.239,21.239,0,0,1-2.3-1.419,24.592,24.592,0,0,1-2.034-2.025c-.368.473-.693.96-1.089,1.379a12.248,12.248,0,0,1-1.4,1.263c-.455.352-.964.635-1.469.961C1055.215,1900.985,1055.951,1901.016,1057.316,1904.69Zm-247.5,9.006a25.6,25.6,0,0,1-2.139-1.509,24.782,24.782,0,0,1-1.744-1.831,23.947,23.947,0,0,1-1.8,1.787c-.661.536-1.419.954-2.182,1.455a2.535,2.535,0,0,0,.361.317,6.917,6.917,0,0,1,3.475,4.546,2.078,2.078,0,0,0,.289.489c.2-.606.346-1.14.563-1.642a7.1,7.1,0,0,1,.738-1.336,8.487,8.487,0,0,1,1.1-1.226C808.871,1914.379,809.325,1914.076,809.816,1913.7Zm177.727-3.213a2.094,2.094,0,0,0-.34.3,9.1,9.1,0,0,1-3.12,2.667c-.111.058-.173.211-.257.321,2.213,1.723,2.465,2.069,3.463,4.708.04.106.1.2.24.459a9.234,9.234,0,0,1,1.391-3.106,10.929,10.929,0,0,1,2.523-2.178,13.015,13.015,0,0,1-3.9-3.167Zm-279.311-20.551c.951-1.867.688-2.04,3.225-4.344-.445-.329-.9-.633-1.315-.983-.391-.329-.735-.711-1.108-1.062s-.572-.913-1.05-1.252c-.157.177-.267.286-.36.407a8.388,8.388,0,0,1-2.878,2.405c-.156.079-.383.13-.345.391C706.238,1886.822,706.577,1886.726,708.232,1889.932Zm111.621,28.043c.179-.191.289-.259.325-.354a7.491,7.491,0,0,1,2.791-3.561,1.339,1.339,0,0,0,.248-.342c-.638-.447-1.245-.814-1.782-1.265-.56-.47-1.051-1.02-1.507-1.47-.4.355-.75.674-1.113.972-.394.323-.794.64-1.209.936-.371.264-.765.494-1.165.75.722.653,1.414,1.221,2.036,1.858A6.846,6.846,0,0,1,819.853,1917.975Zm-69.909-21.252c-.389.391-.73.765-1.105,1.1-.349.313-.734.587-1.105.875a10.221,10.221,0,0,0-1.312.856c.447.321.835.572,1.19.864a7.415,7.415,0,0,1,.933.891,9.38,9.38,0,0,1,.82,1.145c.238.382.43.794.684,1.271a22.255,22.255,0,0,1,1.412-2.262,21.58,21.58,0,0,1,1.85-1.837c-.582-.42-1.209-.813-1.764-1.29S750.5,1897.293,749.943,1896.723Zm339.081-11.326a9.281,9.281,0,0,1-3.46-2.891c-.385.465-.69.867-1.031,1.236a12.009,12.009,0,0,1-1.022.982c-.382.326-.794.615-1.2.923a22.778,22.778,0,0,1,1.712,1.859,21.662,21.662,0,0,1,1.248,2.126C1087.2,1886.252,1087.453,1886.711,1089.025,1885.4Zm-115.38,25.634c-.557.536-1.041,1.054-1.581,1.5s-1.123.82-1.7,1.23a22.772,22.772,0,0,1,1.856,1.9,20.142,20.142,0,0,1,1.3,2.134,21.325,21.325,0,0,1,1.487-2.305,20.211,20.211,0,0,1,1.961-1.829c-.64-.424-1.256-.778-1.807-1.215S974.139,1911.5,973.644,1911.031Zm66.661-11.352c.464.418.9.753,1.26,1.151a11.11,11.11,0,0,1,1.077,1.391c.289.439.5.925.8,1.472.246-.491.413-.889.636-1.254a8.835,8.835,0,0,1,.821-1.145c.279-.325.631-.587.928-.9s.832-.406,1.03-.841c-.109-.118-.15-.195-.213-.227a9.042,9.042,0,0,1-2.771-2.152,1.583,1.583,0,0,0-.4-.237A10.9,10.9,0,0,1,1040.305,1899.68Zm-206.384,18.309c.306-.627.506-1.137.79-1.594a10.573,10.573,0,0,1,1.06-1.412c.357-.4.781-.747,1.221-1.159-.6-.44-1.155-.8-1.657-1.233-.527-.451-1-.965-1.515-1.468-.532.5-.993.987-1.506,1.407-.536.437-1.123.811-1.7,1.222C833.141,1916,832.653,1915.734,833.921,1917.989Zm128.894-4.2c-.6-.425-1.164-.777-1.672-1.194-.533-.438-1.015-.938-1.547-1.438-.528.53-.974,1.03-1.475,1.466s-1.039.792-1.576,1.194a21.546,21.546,0,0,1,1.747,1.844,23.461,23.461,0,0,1,1.344,2.252c.291-.579.516-1.123.824-1.614a8.41,8.41,0,0,1,1.014-1.3C961.871,1914.581,962.33,1914.22,962.815,1913.786Zm-201.946-14.164a21.379,21.379,0,0,1,1.724,1.651,24.49,24.49,0,0,1,1.428,2.078c.4-.656.715-1.283,1.131-1.837.443-.589.978-1.11,1.519-1.711-.5-.4-1-.764-1.465-1.174s-.886-.867-1.371-1.348c-.5.451-.945.889-1.431,1.272S761.389,1899.263,760.869,1899.622Zm268.707-2.177-2.7,2.378c.368.369.718.684,1.024,1.037s.568.755.858,1.129c.278.359.327.875.854,1.245a8.787,8.787,0,0,1,2.805-3.488ZM858.9,1913.891a8.508,8.508,0,0,1,2.856,3.612c.437-.7.766-1.331,1.188-1.887.445-.584.98-1.1,1.525-1.7-.494-.385-.938-.759-1.411-1.091-.5-.353-.812-.943-1.394-1.22-.458.418-.85.8-1.272,1.151C859.944,1913.122,859.471,1913.456,858.9,1913.891Zm-11.048-2.382c-.536.477-.964.884-1.421,1.256s-.923.691-1.346,1c.532.573,1.047,1.063,1.482,1.615.457.579.837,1.218,1.3,1.9.406-.625.745-1.243,1.178-1.785.462-.578,1.014-1.085,1.582-1.681-.494-.37-.973-.7-1.419-1.072S848.336,1911.958,847.849,1911.509Zm97.853.123-2.7,2.261c.486.513,1.007.991,1.44,1.539s.781,1.169,1.221,1.841c.378-.408.508-.927.827-1.311.3-.363.6-.725.9-1.09.314-.383.829-.579,1.049-1.054Zm-14.071,5.816c.458-.723.852-1.349,1.251-1.973s1.1-.981,1.49-1.656c-.486-.363-.936-.676-1.359-1.022-.449-.368-.872-.767-1.318-1.162-.454.428-.864.794-1.25,1.185-.4.409-1,.606-1.38,1.152A9.229,9.229,0,0,1,931.631,1917.448Zm-41.911-.242c.383-.6.7-1.189,1.1-1.709.428-.552.939-1.039,1.469-1.615-.477-.372-.914-.693-1.326-1.042s-.812-.737-1.246-1.134c-.434.393-.829.772-1.247,1.125s-.851.672-1.333,1.05c.494.538.977,1,1.38,1.519C888.948,1915.956,889.3,1916.569,889.72,1917.206Zm16.633-3.31-2.625-2.153c-.458.417-.882.768-1.262,1.161s-.956.521-1.232,1.025c.5.544.982,1.007,1.386,1.529s.728,1.1,1.144,1.741c.392-.6.714-1.178,1.117-1.69C905.313,1914.959,905.822,1914.471,906.353,1913.9Zm-28.1.023-2.476-2.031-2.521,2.058c.35.35.663.638.946.954s.552.666.816,1.01c.251.328.372.76.8,1.054A11.184,11.184,0,0,1,878.256,1913.92Zm-158.908-28.275c.372.323.736.611,1.066.934.308.3.571.646.869.958.314.327.43.821.817,1.081l2.239-2.865c-.376-.328-.763-.709-1.195-1.03-.46-.342-.684-.96-1.259-1.136Zm198.341,31.4c.461-.671.809-1.182,1.161-1.691.372-.536.979-.876,1.325-1.494-.45-.339-.845-.657-1.261-.944-.441-.3-.707-.835-1.229-1l-2.43,2.006A10.852,10.852,0,0,1,917.69,1917.041Zm153.792-28.481a9.4,9.4,0,0,1,2.431-2.873c-.455-.35-.846-.669-1.257-.959s-.669-.763-1.194-.976c-.664.815-1.525,1.368-2.158,2.081ZM778.033,1902.6l2.06-2.7-2.192-1.906-2.2,1.792Zm237.672-4.483-2.039,1.766,1.924,2.448c.362-.472.683-.9,1.018-1.326.351-.443.88-.739,1.154-1.269Zm-279.687-10.068,1.416-1.925a10.922,10.922,0,0,0-1.868-1.62c-.478.51-1.133.756-1.456,1.333Zm267.334,11.883a6.826,6.826,0,0,0-1.615-1.311c-.312.274-.589.492-.834.741s-.633.347-.662.783c.349.458.7.929,1.059,1.386a3.3,3.3,0,0,0,.414.372Zm54.4-15.381a8.955,8.955,0,0,0-1.592,1.588c.248.32.468.6.681.879s.4.549.651.894c.333-.4.614-.72.871-1.057.275-.361.7-.606.936-1.08Zm-267.442,15.376,1.676,1.95a16.673,16.673,0,0,0,1.423-1.815,6.918,6.918,0,0,0-1.694-1.295Zm15.791-1.034a5.454,5.454,0,0,0-1.411,1.3c.452.43.737.979,1.269,1.422a9.673,9.673,0,0,0,1.274-1.743Zm181.383,2.566a5.11,5.11,0,0,0,1.234-1.43,4.751,4.751,0,0,0-1.306-1.063,2.922,2.922,0,0,0-1.151,1Zm-167.657-.408a4.761,4.761,0,0,0,1.117-1.4l-.5-.306-.514-.309-1.013.9Zm13.142-1.228a2.1,2.1,0,0,0,.912.925,4.021,4.021,0,0,0,.929-1.139l-.841-.679A2.95,2.95,0,0,0,832.972,1899.82Zm-82.817-14.615-1.072.924.812.913a2.59,2.59,0,0,0,1.025-1.235ZM973.493,1899c-.3.251-.5.418-.7.6-.047.044-.042.142-.085.305.3.268.482.706.914.952a1.836,1.836,0,0,0,.833-1.031Zm-13.042.82a1.718,1.718,0,0,0-.882-.853,1.3,1.3,0,0,0-.842.8l.816.928C960.025,1900.547,960.181,1900.172,960.451,1899.82Zm83.89-13.741-.918-.793a.726.726,0,0,0-.706.629c.271.287.435.7.895.912Zm-281.038-.126.555.59.883-1.05-.462-.4A1.642,1.642,0,0,0,763.3,1885.953Zm98.681,12.9c-.492.319-.851.435-.879.917l.569.5a1.168,1.168,0,0,0,.743-.962Zm-14.216,1.529c.409-.221.67-.426.738-.856l-.635-.5-.712.658Zm84.625-.831-.7-.624c-.3.165-.595.282-.581.754l.644.591Zm13.883.172c-.638-.793-.687-.8-1.222-.079l.654.694Zm83.306-13.291c.555-.621.555-.748.112-1.108-.3-.244-.4-.211-.818.327Zm-139.809,12.516c-.353.136-.62.282-.612.728l.59.516.62-.676Zm13.351.583.58.605c.651-.46.729-.6.513-.863C903.916,1898.9,903.723,1898.935,903.123,1899.531Zm-27.329-.55c-.191.249-.387.4-.41.572-.015.116.19.309.339.388s.517-.184.476-.368S875.98,1899.239,875.794,1898.981Zm42.05.967a1.564,1.564,0,0,0,.289-.468c.044-.184-.313-.447-.482-.357a.727.727,0,0,0-.332.4C917.262,1899.739,917.53,1899.972,917.844,1899.948Zm-139.633-14.759a.7.7,0,0,0-.162.032c-.171.1-.315.21-.243.438a.113.113,0,0,0,.083.063c.231.006.331-.139.369-.342C778.264,1885.347,778.242,1885.308,778.211,1885.189Zm-98.218,6.725a6.51,6.51,0,0,0-6.505-6.616c-3.495-.189-6.542,2.99-6.555,6.557a6.53,6.53,0,1,0,13.06.058Zm83.6,28.2a6.5,6.5,0,1,0-6.538,6.4A6.494,6.494,0,0,0,763.6,1920.117Zm328.534-20.63a6.454,6.454,0,0,0-.024,12.907,6.454,6.454,0,1,0,.024-12.907Zm-390.773.058a6.4,6.4,0,1,0,6.376,6.391A6.38,6.38,0,0,0,701.357,1899.544Zm265.238,27.9a6.391,6.391,0,1,0,6.36,6.416A6.387,6.387,0,0,0,966.6,1927.443Zm83.68-13.817a6.39,6.39,0,1,0,6.31,6.459A6.331,6.331,0,0,0,1050.275,1913.627ZM820.55,1933.886a6.364,6.364,0,1,0,6.346-6.424A6.3,6.3,0,0,0,820.55,1933.886Zm-77.2-20.216a6.347,6.347,0,1,0,6.281,6.39A6.262,6.262,0,0,0,743.354,1913.67Zm384.408-21.78a6.323,6.323,0,1,0,6.33-6.333A6.238,6.238,0,0,0,1127.763,1891.89Zm-141.092,42a6.283,6.283,0,1,0-6.286,6.222A6.24,6.24,0,0,0,986.671,1933.89Zm-167.3.027a6.261,6.261,0,1,0-6.322,6.171A6.262,6.262,0,0,0,819.374,1933.917Zm-160.018-48.249a6.229,6.229,0,1,0,6.271,6.184A6.167,6.167,0,0,0,659.356,1885.668Zm446.887,14.068a6.211,6.211,0,1,0,6.212,6.268A6.185,6.185,0,0,0,1106.243,1899.736Zm-451.31-16.629a6.746,6.746,0,0,0,9.044-.09,6.621,6.621,0,0,0,.882-8.774c-.9-.124-9.284-.161-10.906-.044A6.651,6.651,0,0,0,654.933,1883.107Zm345.722,50.8a6.185,6.185,0,0,0-6.217-6.254,6.184,6.184,0,0,0-.026,12.369A6.209,6.209,0,0,0,1000.655,1933.906Zm63.7-20.071a6.183,6.183,0,1,0,6.111,6.232A6.2,6.2,0,0,0,1064.351,1913.835Zm-265.278,26.174a6.172,6.172,0,1,0-.045-12.345,6.172,6.172,0,0,0,.045,12.345Zm-105.367-34.064a6.172,6.172,0,0,0-12.344,0,6.172,6.172,0,0,0,12.344,0Zm35.5,20.218a6.144,6.144,0,1,0-6.122-6.2A6.148,6.148,0,0,0,729.205,1926.163Zm279.241,1.606a6,6,0,0,0-6.018,6.041,6.085,6.085,0,1,0,12.171-.009A6.016,6.016,0,0,0,1008.447,1927.768Zm-223.153.023a5.982,5.982,0,0,0-6.12,6.035,6.056,6.056,0,0,0,12.113.015A5.979,5.979,0,0,0,785.293,1927.792Zm368.677-35.664a6.051,6.051,0,0,0-5.878-6.281,6.046,6.046,0,0,0-.355,12.087A6.077,6.077,0,0,0,1153.97,1892.128Zm-10.523-9.312a6.5,6.5,0,0,0,8.835.091,6.422,6.422,0,0,0,.835-8.67c-.98-.132-9.4-.132-10.393,0A6.335,6.335,0,0,0,1143.447,1882.815Zm-65.343,31.21a5.99,5.99,0,1,0,5.966,6.032A5.96,5.96,0,0,0,1078.1,1914.026Zm-436.956-31.255a6.469,6.469,0,0,0,8.983-.107c2.485-2.41,2.449-6.48.488-8.488H640.53A6.344,6.344,0,0,0,641.148,1882.771Zm484.882,23.112a5.991,5.991,0,0,0-11.982.069,5.991,5.991,0,1,0,11.982-.069ZM645.6,1885.928a5.986,5.986,0,0,0-5.979,6.009,5.965,5.965,0,1,0,11.93-.089A5.977,5.977,0,0,0,645.6,1885.928Zm69.8,28.136a5.953,5.953,0,1,0,5.945,5.947A5.925,5.925,0,0,0,715.4,1914.065Zm306.937,13.856a5.917,5.917,0,0,0-5.955,5.811,5.984,5.984,0,0,0,5.867,6.043,5.92,5.92,0,0,0,5.989-5.9A5.854,5.854,0,0,0,1022.339,1927.92Zm-251.188,11.83a5.91,5.91,0,1,0-5.892-5.991A5.876,5.876,0,0,0,771.151,1939.75Zm-91.764-33.777a5.923,5.923,0,1,0-5.98,5.894A5.91,5.91,0,0,0,679.387,1905.973Zm477.03-25.09a5.949,5.949,0,0,0,5.651,3.405,6.224,6.224,0,0,0,5.3-9.361,1.411,1.411,0,0,0-1.418-.8c-2.715.033-5.431.014-8.146.016-.2,0-.391.019-.638.031A6.1,6.1,0,0,0,1156.418,1880.883Zm-120.068,47.171a5.778,5.778,0,1,0,5.83,5.734A5.723,5.723,0,0,0,1036.35,1928.055Zm55.829-13.808a5.771,5.771,0,1,0,5.716,5.739A5.771,5.771,0,0,0,1092.179,1914.246Zm64.053-22.387a5.737,5.737,0,1,0,11.474.007,5.737,5.737,0,0,0-11.474-.007Zm-529.039-9.423a6.116,6.116,0,0,0,9.014-8.251h-9.365A5.972,5.972,0,0,0,627.194,1882.436Zm124.177,51.322a5.735,5.735,0,1,0,5.777-5.648A5.735,5.735,0,0,0,751.37,1933.758Zm-49.994-19.465a5.724,5.724,0,1,0,5.664,5.758A5.666,5.666,0,0,0,701.376,1914.293Zm438.425-8.325a5.72,5.72,0,1,0-5.732,5.691A5.695,5.695,0,0,0,1139.8,1905.968ZM916.53,1947.915a5.707,5.707,0,1,0-11.413-.055,5.707,5.707,0,0,0,11.413.055Zm-14.075.024a5.712,5.712,0,1,0-11.424-.1,5.712,5.712,0,0,0,11.424.1Zm27.881-.116a5.7,5.7,0,0,0-11.405.073,5.7,5.7,0,1,0,11.405-.073Zm-41.945.056a5.72,5.72,0,0,0-5.74-5.7,5.663,5.663,0,0,0-5.64,5.655,5.588,5.588,0,0,0,5.657,5.729A5.65,5.65,0,0,0,888.39,1947.879Zm-256.766-61.665a5.688,5.688,0,1,0,5.565,5.727A5.673,5.673,0,0,0,631.624,1886.214ZM868.9,1942.2a5.716,5.716,0,0,0-5.714,5.713,5.638,5.638,0,0,0,5.757,5.641,5.582,5.582,0,0,0,5.573-5.684A5.66,5.66,0,0,0,868.9,1942.2Zm-209.427-41.914a5.666,5.666,0,1,0,5.58,5.713A5.656,5.656,0,0,0,659.474,1900.283Zm279.218,41.928a5.665,5.665,0,1,0,5.654,5.655A5.677,5.677,0,0,0,938.693,1942.212Zm-78.248,5.721a5.65,5.65,0,1,0-5.687,5.592A5.622,5.622,0,0,0,860.445,1947.932Zm189.708-19.729a5.631,5.631,0,1,0,5.68,5.6A5.682,5.682,0,0,0,1050.153,1928.2Zm-97.579,14.079a5.6,5.6,0,1,0,5.519,5.645A5.637,5.637,0,0,0,952.573,1942.283Zm-203.73-8.4a5.494,5.494,0,0,0-5.511-5.629,5.576,5.576,0,1,0-.1,11.151A5.5,5.5,0,0,0,748.843,1933.88ZM841,1942.309a5.577,5.577,0,1,0,5.565,5.594A5.619,5.619,0,0,0,841,1942.309Zm329.133-62.53a5.625,5.625,0,0,0,4.727,4.1,5.552,5.552,0,0,0,5.888-2.633,5.751,5.751,0,0,0,.016-6.368,1.36,1.36,0,0,0-1.337-.75c-2.48.033-4.961.013-7.441.016-.195,0-.389.023-.667.041A5.755,5.755,0,0,0,1170.134,1879.779Zm-203.459,62.568a5.589,5.589,0,0,0-5.631,5.5,5.521,5.521,0,1,0,11.041.09A5.572,5.572,0,0,0,966.675,1942.347Zm-354.7-63.147a5.848,5.848,0,1,0,10.665-4.288,1.45,1.45,0,0,0-1.441-.785c-2.364.036-4.729.013-7.094.016-.234,0-.469.023-.787.039A5.812,5.812,0,0,0,611.974,1879.2Zm494.255,35.294a5.521,5.521,0,1,0,5.518,5.474A5.513,5.513,0,0,0,1106.229,1914.494Zm-284.8,33.344a5.492,5.492,0,1,0,5.519-5.455A5.476,5.476,0,0,0,821.425,1947.838Zm-133.89-33.284a5.462,5.462,0,1,0,5.471,5.5A5.444,5.444,0,0,0,687.535,1914.554Zm287.4,33.267a5.441,5.441,0,1,0,5.489-5.392A5.469,5.469,0,0,0,974.933,1947.821Zm-156.4.021a5.429,5.429,0,1,0-5.378,5.461A5.417,5.417,0,0,0,818.533,1947.843Zm357.209-61.363a5.418,5.418,0,1,0,5.462,5.364A5.445,5.445,0,0,0,1175.743,1886.48Zm-27.871,14.04a5.42,5.42,0,1,0,5.455,5.389A5.437,5.437,0,0,0,1147.872,1900.52Zm-83.614,27.89a5.429,5.429,0,0,0,.027,10.858,5.429,5.429,0,0,0-.027-10.858Zm-334.989.049a5.316,5.316,0,0,0-5.421,5.387,5.38,5.38,0,1,0,10.76-.027A5.345,5.345,0,0,0,729.268,1928.459Zm-106.216-36.5a5.355,5.355,0,0,0-10.708-.2,5.355,5.355,0,1,0,10.708.2Zm22.6,8.631a5.359,5.359,0,1,0,5.283,5.4A5.375,5.375,0,0,0,645.649,1900.59Zm343.467,47.279a5.333,5.333,0,1,0,5.388-5.314A5.362,5.362,0,0,0,989.116,1947.869Zm-184.766.114a5.3,5.3,0,1,0-5.336,5.222A5.324,5.324,0,0,0,804.349,1947.983Zm389.349-73.8c-2.442-.015-4.885-.022-7.327-.045a1.036,1.036,0,0,0-.89.482,5.579,5.579,0,1,0,8.328-.4A.377.377,0,0,0,1193.7,1874.184Zm-73.624,40.56a5.272,5.272,0,1,0,5.228,5.281A5.255,5.255,0,0,0,1120.073,1914.744Zm-518.012-31.408a5.5,5.5,0,0,0,6.04-8.495,1.505,1.505,0,0,0-1.373-.714c-2.088.037-4.176.012-6.264.016-.233,0-.466.032-.69.049A5.491,5.491,0,0,0,602.061,1883.336Zm481.238,50.521a5.206,5.206,0,1,0-5.2,5.2A5.239,5.239,0,0,0,1083.3,1933.858Zm-74.743,8.844a5.188,5.188,0,1,0-.089,10.376,5.188,5.188,0,0,0,.089-10.376Zm-329.9-22.634a5.188,5.188,0,1,0-5.22,5.138A5.154,5.154,0,0,0,678.66,1920.068Zm36.687,8.6a5.172,5.172,0,1,0,5.2,5.138A5.144,5.144,0,0,0,715.347,1928.668Zm75.045,19.216a5.159,5.159,0,1,0-5.182,5.179A5.182,5.182,0,0,0,790.392,1947.884Zm366.465-42.068a5.12,5.12,0,1,0,5.222-5.01A5.128,5.128,0,0,0,1156.857,1905.816Zm38.06-13.882a5.062,5.062,0,0,0-5.076-5.123,5.075,5.075,0,0,0,.025,10.151A5.075,5.075,0,0,0,1194.917,1891.935Zm-177.641,55.947a5.049,5.049,0,1,0,5.063-5.028A5.064,5.064,0,0,0,1017.276,1947.882Zm-241.1,0a5.016,5.016,0,0,0-4.932-5.015,5.089,5.089,0,0,0-5.105,4.971,5.016,5.016,0,0,0,5,5.054A4.954,4.954,0,0,0,776.177,1947.883ZM636.535,1905.89a5.02,5.02,0,0,0-10.04.058,5.02,5.02,0,1,0,10.04-.058Zm567.435-31.747c-.986,0-1.972.006-2.958,0a1.142,1.142,0,0,0-.937.406,5,5,0,0,0-1.2,4.834,5.073,5.073,0,0,0,5.516,3.843,4.842,4.842,0,0,0,4.338-3.177,5.038,5.038,0,0,0-.9-5.422,1.323,1.323,0,0,0-1.14-.488c-.907.023-1.815.007-2.722.007Zm-69.9,40.884a4.989,4.989,0,1,0,.04,9.977,4.989,4.989,0,0,0-.04-9.977Zm-46.894,18.72a4.97,4.97,0,1,0,5.026-4.878A4.966,4.966,0,0,0,1087.179,1933.747Zm-483.5-36.871a5.007,5.007,0,0,0,4.932-5.024,4.948,4.948,0,0,0-5.006-4.927,4.89,4.89,0,0,0-4.908,5A4.946,4.946,0,0,0,603.679,1896.876Zm-9.21-16.643a4.985,4.985,0,0,0-.756-5.526,1.411,1.411,0,0,0-1.217-.575c-1.732.027-3.466.046-5.2-.008a1.66,1.66,0,0,0-1.5.744,5.135,5.135,0,1,0,8.667,5.365Zm101.939,53.56a4.931,4.931,0,1,0,4.914-4.892A4.96,4.96,0,0,0,696.408,1933.792ZM659.5,1915.1a4.912,4.912,0,1,0-.2,9.822,4.912,4.912,0,1,0,.2-9.822Zm381.781,32.78a4.921,4.921,0,0,0-4.81-4.873,4.883,4.883,0,1,0,4.81,4.873Zm-284.225,4.868a4.855,4.855,0,1,0-4.808-4.843A4.856,4.856,0,0,0,757.053,1952.749Zm423.5-46.829a4.766,4.766,0,1,0-4.79,4.786A4.74,4.74,0,0,0,1180.552,1905.921Zm-288.54,55.771a4.729,4.729,0,0,0,9.457.1,4.729,4.729,0,0,0-9.457-.1Zm-9.3,4.729a4.706,4.706,0,1,0,0-9.412,4.706,4.706,0,1,0,0,9.412Zm218.8-32.554a4.7,4.7,0,1,0,4.691-4.758A4.69,4.69,0,0,0,1101.517,1933.867Zm-46.6,14.1a4.713,4.713,0,1,0-4.722,4.616A4.746,4.746,0,0,0,1054.915,1947.969Zm167.276-68.073a4.851,4.851,0,0,0-1.139-5.324,1.433,1.433,0,0,0-1.05-.434c-1.5.012-2.991.018-4.487,0a1.529,1.529,0,0,0-1.149.487,4.821,4.821,0,1,0,7.825,5.274Zm-302.258,81.731a4.7,4.7,0,1,0,4.715-4.594A4.674,4.674,0,0,0,919.934,1961.627Zm-13.821.149a4.7,4.7,0,1,0,4.661-4.762A4.664,4.664,0,0,0,906.113,1961.776Zm-283.721-55.8a4.69,4.69,0,1,0-4.688,4.645A4.708,4.708,0,0,0,622.392,1905.981Zm586.209-14.025a4.688,4.688,0,1,0-4.725,4.6A4.656,4.656,0,0,0,1208.6,1891.956Zm-344.42,69.731a4.682,4.682,0,1,0,9.363.045,4.682,4.682,0,0,0-9.363-.045Zm74.553-4.636a4.659,4.659,0,1,0,4.622,4.7A4.639,4.639,0,0,0,938.734,1957.051ZM687.663,1929.18a4.56,4.56,0,0,0-4.779,4.425,4.634,4.634,0,0,0,4.444,4.885,4.722,4.722,0,0,0,4.86-4.492A4.651,4.651,0,0,0,687.663,1929.18Zm167.062,27.886a4.6,4.6,0,0,0-4.574,4.635,4.547,4.547,0,0,0,4.675,4.64,4.614,4.614,0,0,0,4.644-4.682A4.686,4.686,0,0,0,854.725,1957.065Zm297.842-36.964a4.663,4.663,0,1,0-4.746,4.559A4.612,4.612,0,0,0,1152.567,1920.1Zm-404.637,27.8a4.642,4.642,0,0,0-9.283-.073,4.642,4.642,0,1,0,9.283.073Zm-168.978-73.312a1.451,1.451,0,0,0-1.051-.453q-2.129.016-4.259,0a1.489,1.489,0,0,0-1.06.433,4.671,4.671,0,0,0-1.5,2.752,4.739,4.739,0,0,0,4.193,5.438,4.683,4.683,0,0,0,5.221-4.376A4.885,4.885,0,0,0,578.953,1874.592Zm373.613,82.524a4.588,4.588,0,0,0-.118,9.176,4.588,4.588,0,1,0,.118-9.176Zm-307.039-41.692a4.589,4.589,0,1,0,4.64,4.535A4.6,4.6,0,0,0,645.526,1915.424Zm-51.1-23.518a4.594,4.594,0,0,0-4.578-4.611,4.588,4.588,0,0,0-.044,9.177A4.606,4.606,0,0,0,594.427,1891.907Zm246.585,74.345a4.483,4.483,0,0,0,4.539-4.482,4.562,4.562,0,1,0-9.123-.065A4.468,4.468,0,0,0,841.012,1966.251Zm125.554-9.037a4.487,4.487,0,1,0,4.52,4.489A4.456,4.456,0,0,0,966.566,1957.214Zm102.174-9.372a4.46,4.46,0,1,0-4.469,4.53A4.435,4.435,0,0,0,1068.74,1947.842Zm-246.278,13.833a4.467,4.467,0,0,0,8.933.065,4.467,4.467,0,0,0-8.933-.065Zm297.6-23.4a4.439,4.439,0,1,0-4.474-4.41A4.445,4.445,0,0,0,1120.062,1938.272Zm-395.284,9.648a4.447,4.447,0,1,0,4.422-4.441A4.461,4.461,0,0,0,724.778,1947.92Zm260.01,13.88a4.4,4.4,0,1,0-4.432,4.3A4.354,4.354,0,0,0,984.787,1961.8Zm-167.3-.1a4.387,4.387,0,1,0-8.773.085,4.387,4.387,0,0,0,8.773-.085Zm372.382-60.129a4.388,4.388,0,1,0,4.345,4.38A4.387,4.387,0,0,0,1189.872,1901.566ZM673.4,1929.482a4.35,4.35,0,1,0,4.418,4.311A4.336,4.336,0,0,0,673.4,1929.482Zm488.586-13.787a4.319,4.319,0,1,0,4.306,4.272A4.324,4.324,0,0,0,1161.984,1915.695Zm68.578-41.559a1.986,1.986,0,0,0-1.514.534,4.254,4.254,0,0,0-1.468,4.567,4.374,4.374,0,1,0,6.977-4.556,2.071,2.071,0,0,0-1.511-.545c-.432.033-.868.007-1.3.007C1231.352,1874.141,1230.955,1874.166,1230.563,1874.135ZM607.923,1906a4.278,4.278,0,1,0-8.556-.092,4.278,4.278,0,1,0,8.556.092Zm382.253,55.7a4.277,4.277,0,1,0,4.28-4.268A4.235,4.235,0,0,0,990.176,1961.7Zm227.55-74.069a4.237,4.237,0,0,0-4.25,4.291,4.253,4.253,0,0,0,8.505-.019A4.208,4.208,0,0,0,1217.726,1887.633Zm-422.919,74.133a4.243,4.243,0,1,0,4.239-4.292A4.163,4.163,0,0,0,794.807,1961.766Zm287.513-13.834a4.226,4.226,0,1,0-8.452-.013,4.226,4.226,0,0,0,8.452.013ZM631.56,1915.8a4.216,4.216,0,1,0,4.181,4.224A4.182,4.182,0,0,0,631.56,1915.8Zm-70.652-41.662a2.6,2.6,0,0,0-2.207.9,4.294,4.294,0,0,0-.885,4.8,4.063,4.063,0,0,0,3.957,2.469,3.932,3.932,0,0,0,3.8-2.51,4.132,4.132,0,0,0-.751-4.617,2.641,2.641,0,0,0-2.381-1.04,5.784,5.784,0,0,1-.707,0A6.456,6.456,0,0,1,560.908,1874.135Zm154.6,69.588a4.177,4.177,0,1,0,4.06,4.221A4.155,4.155,0,0,0,715.512,1943.723Zm297.171,18.018a4.164,4.164,0,1,0-4.17,4.113A4.187,4.187,0,0,0,1012.683,1961.741ZM571.6,1891.859a4.157,4.157,0,1,0,8.314-.01,4.157,4.157,0,0,0-8.314.01Zm213.57,73.973a4.121,4.121,0,1,0-4.059-4.211A4.138,4.138,0,0,0,785.171,1965.831Zm353.04-32.07a4.112,4.112,0,1,0-4.076,4.18A4.038,4.038,0,0,0,1138.211,1933.761Zm-482.846.093a4.028,4.028,0,0,0,8.055,0,4.028,4.028,0,1,0-8.055,0Zm436.883,10.074a3.968,3.968,0,1,0,3.881,4.092A3.973,3.973,0,0,0,1092.248,1943.928Zm-65.969,17.771a3.943,3.943,0,1,0-3.967,3.962A3.9,3.9,0,0,0,1026.279,1961.7Zm173.682-55.8a3.955,3.955,0,1,0,7.911.006,3.956,3.956,0,0,0-7.911-.006ZM775.12,1961.723a3.983,3.983,0,0,0-4-3.951,3.935,3.935,0,1,0,.089,7.87A3.975,3.975,0,0,0,775.12,1961.723Zm404.62-41.626a3.927,3.927,0,0,0-3.95-4.005,3.921,3.921,0,1,0,3.95,4.005Zm65.908-45.932a3.908,3.908,0,1,0-.063,7.816,3.908,3.908,0,1,0,.063-7.816ZM701.392,1944a3.874,3.874,0,0,0-3.957,3.856,3.922,3.922,0,1,0,3.957-3.856Zm-83.676-20.146a3.841,3.841,0,1,0-3.858-3.826A3.835,3.835,0,0,0,617.716,1923.853Zm-27.9-21.74a3.84,3.84,0,0,0,.019,7.679,3.84,3.84,0,1,0-.019-7.679Zm638.213-10.246a3.768,3.768,0,1,0,3.748-3.747A3.737,3.737,0,0,0,1228.031,1891.867ZM1040.16,1961.73a3.771,3.771,0,1,0-3.765,3.734A3.718,3.718,0,0,0,1040.16,1961.73Zm-492.3-87.424a3.762,3.762,0,1,0,3.784,3.712A3.746,3.746,0,0,0,547.861,1874.306Zm600.071,55.782a3.69,3.69,0,0,0-3.748,3.747,3.73,3.73,0,1,0,3.748-3.747ZM753.4,1961.7a3.7,3.7,0,0,0,7.4.135,3.7,3.7,0,1,0-7.4-.135ZM641.911,1933.86a3.7,3.7,0,0,0,3.642,3.619,3.643,3.643,0,0,0,3.676-3.57,3.66,3.66,0,1,0-7.318-.049Zm460.655,13.958a3.647,3.647,0,1,0,7.293.046,3.647,3.647,0,0,0-7.293-.046Zm-537.223-55.851a3.651,3.651,0,1,0-3.675,3.565A3.644,3.644,0,0,0,565.343,1891.968Zm122.288,52.354a3.575,3.575,0,1,0,3.473,3.627A3.554,3.554,0,0,0,687.631,1944.321Zm359.037,17.313a3.541,3.541,0,1,0,3.588-3.452A3.5,3.5,0,0,0,1046.668,1961.634Zm174.544-55.7a3.472,3.472,0,1,0-3.426,3.508A3.493,3.493,0,0,0,1221.212,1905.938Zm-474.44,55.819a3.477,3.477,0,1,0-3.5,3.411A3.456,3.456,0,0,0,746.772,1961.757Zm443.122-45.214a3.47,3.47,0,1,0,3.416,3.485A3.44,3.44,0,0,0,1189.894,1916.543ZM882.7,1972.324a3.448,3.448,0,1,0,3.413,3.5A3.437,3.437,0,0,0,882.7,1972.324Zm31.549,3.389a3.438,3.438,0,1,0-3.409,3.507A3.451,3.451,0,0,0,914.248,1975.713Zm-17.5-3.389a3.449,3.449,0,0,0-.038,6.9,3.448,3.448,0,1,0,.038-6.9Zm27.943.046a3.408,3.408,0,1,0-.071,6.815,3.452,3.452,0,0,0,3.424-3.377A3.407,3.407,0,0,0,924.687,1972.37Zm-59.232,3.277a3.413,3.413,0,1,0,3.507-3.281A3.437,3.437,0,0,0,865.455,1975.648ZM603.688,1923.39a3.377,3.377,0,1,0-3.429-3.325A3.386,3.386,0,0,0,603.688,1923.39Zm331.642,52.29a3.332,3.332,0,0,0,3.181,3.466,3.371,3.371,0,1,0,.307-6.734A3.307,3.307,0,0,0,935.331,1975.679Zm321-97.636a3.336,3.336,0,1,0,6.671-.057,3.336,3.336,0,0,0-6.671.057Zm-401.555,94.4a3.334,3.334,0,1,0,3.353,3.361A3.336,3.336,0,0,0,854.78,1972.445Zm-278.853-69.821a3.335,3.335,0,1,0,3.159,3.471A3.357,3.357,0,0,0,575.926,1902.624Zm582.709,31.236a3.334,3.334,0,1,0,3.359-3.368A3.337,3.337,0,0,0,1158.636,1933.86Zm-35.324,14.022a3.286,3.286,0,1,0-3.3,3.3A3.236,3.236,0,0,0,1123.311,1947.882Zm-59.065,10.548a3.284,3.284,0,1,0,3.3,3.283A3.239,3.239,0,0,0,1064.246,1958.43Zm-226.511,17.264a3.242,3.242,0,1,0,6.482.1,3.209,3.209,0,0,0-3.187-3.279A3.245,3.245,0,0,0,837.735,1975.694Zm114.794-3.183a3.242,3.242,0,0,0-3.276,3.294,3.246,3.246,0,1,0,6.491-.068A3.216,3.216,0,0,0,952.529,1972.511ZM1248.847,1892a3.234,3.234,0,0,0-6.463-.244,3.234,3.234,0,0,0,6.463.244Zm-575.358,52.679a3.224,3.224,0,1,0,3.191,3.245A3.2,3.2,0,0,0,673.489,1944.681Zm-45.168-10.856a3.208,3.208,0,1,0,6.417,0,3.208,3.208,0,1,0-6.417,0Zm100.927,24.667a3.218,3.218,0,1,0-.064,6.435,3.218,3.218,0,0,0,.064-6.435Zm-195.285-83.6a3.194,3.194,0,1,0-.184,6.385,3.195,3.195,0,0,0,.184-6.385Zm429.4,100.99a3.241,3.241,0,0,0,3.254,3.088,3.2,3.2,0,0,0,3.14-3.3,3.2,3.2,0,1,0-6.394.213Zm-136.483,3.052a3.155,3.155,0,1,0-3.1-3.208A3.2,3.2,0,0,0,826.877,1978.928ZM550.985,1891.9a3.1,3.1,0,1,0-3.086,3.093A3.092,3.092,0,0,0,550.985,1891.9Zm429.361,80.8a3.067,3.067,0,0,0,.026,6.134,3.067,3.067,0,1,0-.026-6.134Zm100.742-11a2.959,2.959,0,0,0-2.979-3.017,3.011,3.011,0,0,0-3.052,3.079,2.98,2.98,0,0,0,3.055,2.947A2.924,2.924,0,0,0,1081.087,1961.706Zm-265,14a3.01,3.01,0,0,0-2.953-2.938,3.048,3.048,0,0,0-3.023,3,2.971,2.971,0,0,0,3.028,2.965A2.926,2.926,0,0,0,816.086,1975.705Zm181.3.121a2.963,2.963,0,0,0-2.853-3.021,3.025,3.025,0,0,0-3.053,2.962,2.955,2.955,0,0,0,2.936,2.931A2.894,2.894,0,0,0,997.384,1975.827Zm206.589-58.767a2.953,2.953,0,1,0-.055,5.905,2.953,2.953,0,0,0,.055-5.905Zm-491.487,44.7a2.914,2.914,0,0,0,5.827-.04,2.93,2.93,0,0,0-2.929-2.938A2.962,2.962,0,0,0,712.486,1961.757Zm421.656-10.943a2.91,2.91,0,1,0-2.956-2.9A2.9,2.9,0,0,0,1134.142,1950.815Zm-544.257-33.679a2.879,2.879,0,1,0-.061,5.758,2.879,2.879,0,0,0,.061-5.758Zm583.044,16.726a2.839,2.839,0,0,0,2.9,2.825,2.857,2.857,0,1,0-2.9-2.825Zm61.737-27.915a2.871,2.871,0,1,0-2.837,2.873A2.91,2.91,0,0,0,1234.667,1905.946Zm-672.977-2.819a2.824,2.824,0,1,0,2.814,2.765A2.8,2.8,0,0,0,561.69,1903.127Zm237.388,69.83a2.815,2.815,0,1,0,2.776,2.792A2.8,2.8,0,0,0,799.078,1972.958Zm209.444,0a2.815,2.815,0,1,0,2.805,2.764A2.819,2.819,0,0,0,1008.522,1972.957ZM662.168,1947.9a2.766,2.766,0,1,0-2.768,2.769A2.751,2.751,0,0,0,662.168,1947.9Zm432.727,13.845a2.726,2.726,0,0,0-2.762-2.76,2.726,2.726,0,0,0,.051,5.452A2.731,2.731,0,0,0,1094.895,1961.743ZM615,1933.834a2.618,2.618,0,0,0,2.688,2.7,2.678,2.678,0,0,0,2.746-2.776,2.756,2.756,0,0,0-2.768-2.667A2.7,2.7,0,0,0,615,1933.834Zm658.567-58.416a2.66,2.66,0,1,0-.094,5.319,2.66,2.66,0,0,0,.094-5.319Zm-488.435,97.766a2.61,2.61,0,0,0-2.51,2.625,2.637,2.637,0,0,0,2.582,2.564,2.6,2.6,0,0,0,2.612-2.636A2.567,2.567,0,0,0,785.134,1973.185Zm362.773-27.83a2.546,2.546,0,0,0-2.548,2.544,2.583,2.583,0,0,0,2.551,2.547,2.545,2.545,0,0,0,0-5.09Zm111.774-56.012a2.519,2.519,0,0,0-2.544,2.539,2.538,2.538,0,1,0,2.544-2.539Zm-555.821,72.4a2.517,2.517,0,0,0-2.569-2.529,2.5,2.5,0,0,0,.056,5A2.52,2.52,0,0,0,703.859,1961.74Zm320.948,12.99a2.623,2.623,0,0,0-1.263-1.353,2.72,2.72,0,0,0-3.317.717,2.479,2.479,0,0,0,.09,3.316,44.363,44.363,0,0,0,4.52-.763A2.3,2.3,0,0,0,1024.807,1974.73Zm165.044-43.25a2.353,2.353,0,1,0,2.36,2.324A2.364,2.364,0,0,0,1189.851,1931.479Zm-418.644,41.94a2.35,2.35,0,1,0,2.312,2.361A2.373,2.373,0,0,0,771.207,1973.42Zm448.871-53.4a2.347,2.347,0,1,0-2.323,2.342A2.305,2.305,0,0,0,1220.078,1920.022Zm-574.4,25.6a2.248,2.248,0,0,0-2.388,2.243,2.305,2.305,0,0,0,2.2,2.334,2.27,2.27,0,0,0,2.377-2.262A2.218,2.218,0,0,0,645.674,1945.62Zm-39.843-11.8a2.172,2.172,0,0,0-2.178-2.167,2.229,2.229,0,0,0-2.235,2.25,2.264,2.264,0,0,0,2.258,2.118A2.2,2.2,0,0,0,605.831,1933.821Zm639.849-30.055a2.19,2.19,0,1,0-.075,4.378,2.19,2.19,0,0,0,.075-4.378Zm-669.23,18.2a.664.664,0,0,0,.863-.115,2.325,2.325,0,0,0,.761-2.447,2.28,2.28,0,0,0-1.873-1.745,2.217,2.217,0,0,0-2.3.857,7.123,7.123,0,0,0-.6,1.21A26.735,26.735,0,0,0,576.45,1921.962Zm113.139,39.746a2.067,2.067,0,1,0-2.094,2.066A2.038,2.038,0,0,0,689.59,1961.708Zm67.567,12a2.066,2.066,0,1,0,2.009,2.066A2.056,2.056,0,0,0,757.156,1973.708Zm347.819-11.6a19.743,19.743,0,0,1,2.954-.684c.236-.014.458-.25.68-.38-.652-1.5-1.782-2.125-3.085-1.749a2.447,2.447,0,0,0-1.461,1.125,1.885,1.885,0,0,0-.253,1.658A1.82,1.82,0,0,0,1104.975,1962.105Zm-471.7-14.289a1.743,1.743,0,0,0-1.777-1.676,1.724,1.724,0,0,0-1.731,1.831,1.744,1.744,0,0,0,1.767,1.685A1.764,1.764,0,0,0,633.278,1947.816Zm654.39-71.5a1.715,1.715,0,0,0-1.853,1.706,1.742,1.742,0,0,0,1.63,1.825,1.814,1.814,0,0,0,1.88-1.719A1.784,1.784,0,0,0,1287.669,1876.315Zm-14.108,13.827a1.746,1.746,0,0,0-1.828,1.738,1.728,1.728,0,0,0,1.809,1.747,1.705,1.705,0,0,0,1.7-1.729A1.726,1.726,0,0,0,1273.561,1890.141Zm-530.16,83.9a1.741,1.741,0,1,0-.232,3.475,1.741,1.741,0,1,0,.232-3.475Zm-69.907-13.954a1.624,1.624,0,0,0-.119,3.246,1.624,1.624,0,1,0,.119-3.246ZM870.513,1990a1.152,1.152,0,0,0,.063-.345,1.729,1.729,0,0,0-1.811-1.754,1.75,1.75,0,0,0-1.609,1.837c.046.525.292.792.812.8.743.019,1.486,0,2.294,0C870.386,1990.279,870.462,1990.142,870.513,1990Zm-15.651.839c.118,0,.236.005.354,0a1.019,1.019,0,0,0,1.075-.882,1.509,1.509,0,0,0-.548-1.581,1.587,1.587,0,0,0-1.67-.137,1.44,1.44,0,0,0-.776,1.361c.012.774.41,1.343,1.211,1.244a2.877,2.877,0,0,1,.354,0Zm28.773-2.724a1.738,1.738,0,0,0-2.077.144,2.386,2.386,0,0,0-.559.872,1.032,1.032,0,0,0,.221,1.164,15.67,15.67,0,0,0,3.057-.084C884.5,1989.141,884.307,1988.537,883.635,1988.112ZM729.282,1974.32a1.448,1.448,0,0,0-1.506,1.456,1.419,1.419,0,0,0,1.392,1.442,1.434,1.434,0,0,0,1.51-1.446A1.457,1.457,0,0,0,729.282,1974.32Zm305.271.97a5.1,5.1,0,0,0,.57-.111c.228-.047.454-.107.685-.135.774-.095,1.55-.172,2.323-.269a.378.378,0,0,0,.2-.636,2.52,2.52,0,0,0-4.312.76.98.98,0,0,0,.047.351A2.885,2.885,0,0,0,1034.553,1975.29Zm-136.036,14.337a1.458,1.458,0,0,0-.518-1.36,1.671,1.671,0,0,0-1.288-.486,1.721,1.721,0,0,0-1.272.53,1.434,1.434,0,0,0-.433,1.37A9.467,9.467,0,0,0,898.517,1989.627Zm-57.559.916c.234,0,.468.013.7,0a.733.733,0,0,0,.776-.7,1.425,1.425,0,0,0-.692-1.5,1.317,1.317,0,0,0-1.44-.038,1.414,1.414,0,0,0-.757,1.462c.051.523.279.741.828.777.194.013.389,0,.584,0Zm-13.366-2.049a1.239,1.239,0,0,0-1.518.156,1.665,1.665,0,0,0-.4.695.783.783,0,0,0,.243.892,5.852,5.852,0,0,0,2.113-.021C828.268,1989.266,828.151,1988.858,827.591,1988.494Zm335.72-41.942c.044-.015.054-.13.109-.276a2.141,2.141,0,0,0-3.56,1.23A12.762,12.762,0,0,0,1163.311,1946.553ZM912.462,1988.9a1.687,1.687,0,0,0-1.734-1.216,1.907,1.907,0,0,0-1.167.485c-.224.2-.483.407-.389.775A8.535,8.535,0,0,0,912.462,1988.9Zm-196.994-14.184a1.063,1.063,0,1,0-.123,2.122,1.061,1.061,0,0,0,1.136-1.06A1.039,1.039,0,0,0,715.468,1974.718Zm516.725-56.478a1.8,1.8,0,0,0-1.354.217,1.339,1.339,0,0,0-.622,1.786,19.975,19.975,0,0,0,2.792-1.374A.887.887,0,0,0,1232.194,1918.239ZM660.4,1961.411a1.038,1.038,0,0,0-1.78-.441.34.34,0,0,0,.066.585c.543.162,1.024.593,1.722.4A1.809,1.809,0,0,0,660.4,1961.411Zm153.78,28.076a.75.75,0,0,0-.405-.848,1.4,1.4,0,0,0-.756-.232,1.471,1.471,0,0,0-.72.339.611.611,0,0,0-.239.753A6.367,6.367,0,0,0,814.182,1989.487Zm109.163-1.162a8.666,8.666,0,0,1,.969-.208c.346-.032.7-.007,1.323-.007C924.612,1987.431,924.071,1987.51,923.345,1988.325Zm279.564-55.818c.28-.046.558-.078.706-.415C1203.025,1932.142,1203.025,1932.142,1202.909,1932.507Zm-403.757,56.184c-.031-.017-.067-.054-.093-.048a.824.824,0,0,0-.162.072l.094.053Z" transform="translate(-206.732 -1253.42)" opacity="0.5" fill="url(#linear-gradient)"/>
    <rect id="Rectngulo_4002" data-name="Rectngulo 4002" width="829.803" height="8.238" rx="4.119" transform="translate(283.997 615.05)" fill="#2e5b9a"/>
    <g id="Grupo_26012" data-name="Grupo 26012" transform="translate(713.813 215.88)">
      <path id="Rectngulo_4003" data-name="Rectngulo 4003" d="M15.912,0H81.457A15.913,15.913,0,0,1,97.37,15.913v8.3A15.913,15.913,0,0,1,81.457,40.124H15.913A15.913,15.913,0,0,1,0,24.211v-8.3A15.912,15.912,0,0,1,15.912,0Z" transform="translate(0 0)" fill="#9ec8ff"/>
      <path id="Trazado_20387" data-name="Trazado 20387" d="M2070.536,443.252v22.137l25.51-25.51S2071.055,443.252,2070.536,443.252Z" transform="translate(-2058.775 -409.181)" fill="#9ec8ff"/>
      <rect id="Rectngulo_4004" data-name="Rectngulo 4004" width="87.297" height="32.168" rx="13.491" transform="translate(5.036 3.978)" fill="#fff"/>
      <path id="Trazado_20388" data-name="Trazado 20388" d="M2110.372,358.14h-39.432a1.729,1.729,0,1,1,0-3.459h39.432a1.729,1.729,0,1,1,0,3.459Z" transform="translate(-2057.795 -346.207)" fill="#9ec8ff"/>
      <path id="Rectngulo_4005" data-name="Rectngulo 4005" d="M.971,0H74.088a.971.971,0,0,1,.971.971v0a.971.971,0,0,1-.971.971H.971A.971.971,0,0,1,0,.972v0A.971.971,0,0,1,.971,0Z" transform="translate(11.415 16.603)" fill="#9ec8ff"/>
      <path id="Rectngulo_4006" data-name="Rectngulo 4006" d="M.971,0H74.088a.971.971,0,0,1,.971.971v0a.971.971,0,0,1-.971.971H.971A.971.971,0,0,1,0,.972v0A.971.971,0,0,1,.971,0Z" transform="translate(11.415 20.367)" fill="#9ec8ff"/>
      <g id="Grupo_26011" data-name="Grupo 26011" transform="translate(67.085 30.958)">
        <rect id="Rectngulo_4007" data-name="Rectngulo 4007" width="4.228" height="3.805" rx="1.902" fill="#9ec8ff"/>
        <rect id="Rectngulo_4008" data-name="Rectngulo 4008" width="4.228" height="3.805" rx="1.902" transform="translate(7.687)" fill="#9ec8ff"/>
        <rect id="Rectngulo_4009" data-name="Rectngulo 4009" width="4.228" height="3.805" rx="1.902" transform="translate(15.373)" fill="#9ec8ff"/>
      </g>
    </g>
    <g id="Grupo_26013" data-name="Grupo 26013" transform="translate(451.199 536.757)">
      <path id="Trazado_20389" data-name="Trazado 20389" d="M1169.366,1827H1018.68a9.67,9.67,0,0,1,9.67-9.67h141.016Z" transform="translate(-1018.68 -1748.2)" fill="#a8ceff"/>
      <path id="Trazado_20390" data-name="Trazado 20390" d="M1368.975,1631.118h-80.486l34.179-75.193a6.146,6.146,0,0,1,5.6-3.6h72.8a2.4,2.4,0,0,1,2.185,3.393Z" transform="translate(-1218.11 -1552.322)" fill="#a8ceff"/>
      <path id="Trazado_20391" data-name="Trazado 20391" d="M1419.046,1552.322H1352.59a6.146,6.146,0,0,0-5.6,3.6l-34.179,75.193h74.14l34.274-75.4A2.4,2.4,0,0,0,1419.046,1552.322Z" transform="translate(-1236.091 -1552.322)" fill="#75a1de"/>
      <path id="Trazado_20392" data-name="Trazado 20392" d="M1539,1675.06c-2.817,5.838-7.389,9.467-10.21,8.106s-2.826-7.2-.008-13.037,7.389-9.467,10.21-8.106S1541.819,1669.222,1539,1675.06Z" transform="translate(-1394.164 -1633.196)" fill="#6695d6"/>
    </g>
    <g id="Grupo_26014" data-name="Grupo 26014" transform="translate(364.865 385.42)">
      <path id="Trazado_20393" data-name="Trazado 20393" d="M939.735,1108.713s-6.838,34.909-14.4,41.027,17.393,35.618,26.03,28.06.6-24.1.6-24.1-4.678-2.879,3.239-21.233-13.4-32.03-13.4-32.03Z" transform="translate(-862.314 -1066.973)" fill="#f09959"/>
      <path id="Trazado_20394" data-name="Trazado 20394" d="M979.4,1100.436l-2.078,8.277s-.952,4.857-2.536,11.264c2.955,13.785,8.477,22.75,13.418,28.449.144-3.178,1.237-8.177,4.594-15.96C1000.718,1114.112,979.4,1100.436,979.4,1100.436Z" transform="translate(-899.904 -1066.973)" fill="#e38540"/>
      <path id="Trazado_20395" data-name="Trazado 20395" d="M1033.037,1078.357c-4.595,12.672-15.825,22.845-22.955,20.5-11.648-3.835-20.127-12.939-18.125-33.066,2.359-23.7,20.6-26.422,31.31-23.393S1038.122,1064.334,1033.037,1078.357Z" transform="translate(-912.377 -1023.328)" fill="#f09959"/>
      <path id="Trazado_20396" data-name="Trazado 20396" d="M892.712,1289.246l-11.018,4.316,17.367,22.256-4.956,8.869s17.886,13.428,23.321,39.447a232.728,232.728,0,0,1,4.844,48.188s1.335-52.769-1.3-62.854C915.865,1329.9,892.712,1289.246,892.712,1289.246Z" transform="translate(-831.093 -1206.532)" fill="#d54a41"/>
      <path id="Trazado_20397" data-name="Trazado 20397" d="M1031.916,1305.79s13.748,35.3,15.929,45.231,2.623,58.474,2.623,58.474,6.322-42.322,4.5-54.843-4.434-23.835-4.434-23.835l-8.347-6.162s-1.578-16.787-2.465-17S1031.916,1305.79,1031.916,1305.79Z" transform="translate(-942.13 -1218.761)" fill="#d54a41"/>
      <path id="Trazado_20398" data-name="Trazado 20398" d="M970.318,1775.038c26.742-8.1,23.5-12.156,33.225-7.563s21.911,7.709,16.208,9.184-14.317-3.242-14.317-3.242,1.351,7.293-3.511,9.454-26.452,2.947-38.483-.418S970.318,1775.038,970.318,1775.038Z" transform="translate(-888.555 -1558.592)" fill="#f09959"/>
      <path id="Trazado_20399" data-name="Trazado 20399" d="M978.2,1797.113h5.323l-2.661,15.12s-10.487-1.556-9.7-2.6S978.2,1797.113,978.2,1797.113Z" transform="translate(-897.188 -1581.923)" fill="#a2dff2"/>
      <path id="Trazado_20400" data-name="Trazado 20400" d="M718.113,1336.113c-10.434,18.259-13.744,28.218-22.248,62.389s-11.923,49.719-2.532,54.21c7.771,3.716,64.348,20.684,71.212,18.594,3.13.178,7.935-15.986,7.935-15.986l-51.5-22.955s14.9-35.58,17.477-58.952-8.869-37.3-14.607-37.3Z" transform="translate(-687.707 -1241.174)" fill="#f37168"/>
      <path id="Trazado_20401" data-name="Trazado 20401" d="M974.991,1119.547c-2.52,7.91-1.439,9.523-4.926,10.263s-6.674-2.723-7.7-7.585.961-9.4,4.448-10.142S976.5,1114.812,974.991,1119.547Z" transform="translate(-890.517 -1075.508)" fill="#f09959"/>
      <path id="Trazado_20402" data-name="Trazado 20402" d="M1000.207,1028.438c-13.649,24.258-40.762,20.7-57.24,12.349-13.433-6.8,38.323-32.582,38.323-32.582Z" transform="translate(-874.738 -998.8)" fill="#303c60"/>
      <path id="Trazado_20403" data-name="Trazado 20403" d="M889.887,981.556C884.828,966.3,864.1,969.9,854.7,990.206s4.98,33.879,13.691,28.905S889.887,981.556,889.887,981.556Z" transform="translate(-808.876 -972.151)" fill="#303c60"/>
    </g>
    <g id="Grupo_26017" data-name="Grupo 26017" transform="translate(499.61 214.641)">
      <path id="Trazado_20404" data-name="Trazado 20404" d="M1442.63,471.027a120.862,120.862,0,0,0,3.632-18.563l-19.161-8.625q.145-2.724.149-5.484a102.358,102.358,0,0,0-1.108-15.021l18.268-10.4a120.452,120.452,0,0,0-5.379-18.13l-20.977,1.267a101.475,101.475,0,0,0-10.405-17.7l11.339-17.685a122.158,122.158,0,0,0-13.205-13.555L1387.8,358a101.587,101.587,0,0,0-17.419-10.867l1.822-20.94a120.467,120.467,0,0,0-17.98-5.859l-10.874,17.985a102.189,102.189,0,0,0-17.677-1.536q-1.4,0-2.8.04l-8.114-19.38a121.09,121.09,0,0,0-18.655,3.14l-1.27,20.972a101,101,0,0,0-18.836,8.19l-16.19-13.389a121.852,121.852,0,0,0-15.037,11.484L1253.4,367a102.022,102.022,0,0,0-12.878,15.98l-20.568-4.333a120.825,120.825,0,0,0-8,17.137l16.542,12.961a101.125,101.125,0,0,0-3.948,20.15l-20.213,5.718c-.038,1.243-.063,2.49-.063,3.743a122.647,122.647,0,0,0,.94,15.157l20.665,3.789a100.788,100.788,0,0,0,5.842,19.69l-15.246,14.461a121.278,121.278,0,0,0,9.588,16.305l20.064-6.251a102.156,102.156,0,0,0,14.319,14.7l-6.78,19.893a121.433,121.433,0,0,0,16.049,10.015l14.857-14.855a100.8,100.8,0,0,0,19.528,6.365l3.241,20.761a122.365,122.365,0,0,0,18.339,1.378c.177,0,.353-.006.53-.007l6.252-20.058a101.3,101.3,0,0,0,20.245-3.412l12.521,16.882a120.7,120.7,0,0,0,17.342-7.543l-3.787-20.673a101.956,101.956,0,0,0,16.314-12.456l18.926,9.126a121.94,121.94,0,0,0,11.874-14.732l-12.953-16.536a101.084,101.084,0,0,0,8.686-18.611Zm-116.953,17.284a49.957,49.957,0,1,1,49.957-49.957A49.956,49.956,0,0,1,1325.677,488.311Z" transform="translate(-1204.271 -317.442)" fill="#9ec8ff" opacity="0.5"/>
      <g id="Grupo_26015" data-name="Grupo 26015" transform="translate(41.865 160.803)">
        <path id="Trazado_20405" data-name="Trazado 20405" d="M1373.559,948.452a1.3,1.3,0,0,1-1.048-.526,90.741,90.741,0,0,1-7.6-12.113,1.3,1.3,0,0,1,2.313-1.207,88.13,88.13,0,0,0,7.379,11.764,1.3,1.3,0,0,1-1.046,2.083Z" transform="translate(-1364.765 -933.904)" fill="#fff"/>
      </g>
      <g id="Grupo_26016" data-name="Grupo 26016" transform="translate(66.76 190.407)">
        <path id="Trazado_20406" data-name="Trazado 20406" d="M1504,1067.6a1.357,1.357,0,0,1-.171-.011,90.25,90.25,0,0,1-43.115-17.851,1.3,1.3,0,0,1,1.587-2.07A87.64,87.64,0,0,0,1504.17,1065a1.3,1.3,0,0,1-.168,2.6Z" transform="translate(-1460.205 -1047.395)" fill="#fff"/>
      </g>
    </g>
    <g id="Grupo_26032" data-name="Grupo 26032" transform="translate(622.701 275.235)">
      <rect id="Rectngulo_4010" data-name="Rectngulo 4010" width="237.141" height="131.566" transform="translate(0 0)" fill="#9ec8ff"/>
      <rect id="Rectngulo_4011" data-name="Rectngulo 4011" width="227.75" height="119.827" transform="translate(2.608 2.869)" fill="#fff"/>
      <g id="Grupo_26029" data-name="Grupo 26029" transform="translate(5.689 4.041)" opacity="0.5">
        <g id="Grupo_26018" data-name="Grupo 26018">
          <path id="Trazado_20407" data-name="Trazado 20407" d="M1914.484,674.479H1698.493a.522.522,0,0,1-.522-.522V565.75a.522.522,0,0,1,.522-.522h215.991a.522.522,0,0,1,.522.522V673.958A.522.522,0,0,1,1914.484,674.479Zm-215.47-1.043h214.948V566.271H1699.014Z" transform="translate(-1697.971 -565.228)" fill="#9ec8ff"/>
        </g>
        <g id="Grupo_26019" data-name="Grupo 26019" transform="translate(0 90.173)">
          <path id="Trazado_20408" data-name="Trazado 20408" d="M1914.484,911.963H1698.493a.522.522,0,1,1,0-1.043h215.991a.522.522,0,0,1,0,1.043Z" transform="translate(-1697.971 -910.92)" fill="#9ec8ff"/>
        </g>
        <g id="Grupo_26020" data-name="Grupo 26020" transform="translate(0 72.139)">
          <path id="Trazado_20409" data-name="Trazado 20409" d="M1914.484,842.825H1698.493a.522.522,0,1,1,0-1.043h215.991a.522.522,0,0,1,0,1.043Z" transform="translate(-1697.971 -841.782)" fill="#9ec8ff"/>
        </g>
        <g id="Grupo_26021" data-name="Grupo 26021" transform="translate(0 54.104)">
          <path id="Trazado_20410" data-name="Trazado 20410" d="M1914.484,773.686H1698.493a.522.522,0,1,1,0-1.043h215.991a.522.522,0,0,1,0,1.043Z" transform="translate(-1697.971 -772.643)" fill="#9ec8ff"/>
        </g>
        <g id="Grupo_26022" data-name="Grupo 26022" transform="translate(0 36.069)">
          <path id="Trazado_20411" data-name="Trazado 20411" d="M1914.484,704.547H1698.493a.522.522,0,1,1,0-1.043h215.991a.522.522,0,0,1,0,1.043Z" transform="translate(-1697.971 -703.504)" fill="#9ec8ff"/>
        </g>
        <g id="Grupo_26023" data-name="Grupo 26023" transform="translate(0 18.035)">
          <path id="Trazado_20412" data-name="Trazado 20412" d="M1914.484,635.409H1698.493a.522.522,0,1,1,0-1.043h215.991a.522.522,0,0,1,0,1.043Z" transform="translate(-1697.971 -634.366)" fill="#9ec8ff"/>
        </g>
        <g id="Grupo_26024" data-name="Grupo 26024" transform="translate(179.993)">
          <path id="Trazado_20413" data-name="Trazado 20413" d="M2388.522,674.479a.522.522,0,0,1-.522-.522V565.75a.522.522,0,0,1,1.043,0V673.958A.522.522,0,0,1,2388.522,674.479Z" transform="translate(-2388 -565.228)" fill="#9ec8ff"/>
        </g>
        <g id="Grupo_26025" data-name="Grupo 26025" transform="translate(143.994)">
          <path id="Trazado_20414" data-name="Trazado 20414" d="M2250.516,674.479a.522.522,0,0,1-.522-.522V565.75a.522.522,0,0,1,1.043,0V673.958A.522.522,0,0,1,2250.516,674.479Z" transform="translate(-2249.994 -565.228)" fill="#9ec8ff"/>
        </g>
        <g id="Grupo_26026" data-name="Grupo 26026" transform="translate(107.996)">
          <path id="Trazado_20415" data-name="Trazado 20415" d="M2112.51,674.479a.522.522,0,0,1-.522-.522V565.75a.522.522,0,0,1,1.043,0V673.958A.522.522,0,0,1,2112.51,674.479Z" transform="translate(-2111.988 -565.228)" fill="#9ec8ff"/>
        </g>
        <g id="Grupo_26027" data-name="Grupo 26027" transform="translate(71.997)">
          <path id="Trazado_20416" data-name="Trazado 20416" d="M1974.5,674.479a.522.522,0,0,1-.522-.522V565.75a.522.522,0,1,1,1.043,0V673.958A.522.522,0,0,1,1974.5,674.479Z" transform="translate(-1973.982 -565.228)" fill="#9ec8ff"/>
        </g>
        <g id="Grupo_26028" data-name="Grupo 26028" transform="translate(35.999)">
          <path id="Trazado_20417" data-name="Trazado 20417" d="M1836.5,674.479a.522.522,0,0,1-.522-.522V565.75a.522.522,0,0,1,1.043,0V673.958A.522.522,0,0,1,1836.5,674.479Z" transform="translate(-1835.977 -565.228)" fill="#9ec8ff"/>
        </g>
      </g>
      <g id="Grupo_26030" data-name="Grupo 26030" transform="translate(5.167 3.519)">
        <path id="Trazado_20418" data-name="Trazado 20418" d="M1697.014,673.523a1.044,1.044,0,0,1-.468-1.977l35.857-17.964,18.492-17.794,17.174-35.9a1.048,1.048,0,0,1,.247-.329l19.522-17.394a1.044,1.044,0,0,1,1.64.339l16.46,35.392,19.556,34.746,14.726-16.919a1.043,1.043,0,0,1,.752-.358,1.017,1.017,0,0,1,.775.307l16.757,16.835,17.513-52.5a1.04,1.04,0,0,1,.251-.407l36-36.069a1.043,1.043,0,0,1,1.477,1.474l-35.825,35.9-17.97,53.871a1.043,1.043,0,0,1-1.729.406l-17.16-17.24L1826.1,655.129a1.043,1.043,0,0,1-1.7-.173l-20.3-36.069c-.013-.023-.026-.047-.037-.072l-15.884-34.156-18.318,16.32L1752.7,636.86a1.054,1.054,0,0,1-.218.3L1733.735,655.2a1.033,1.033,0,0,1-.256.181l-36,18.035A1.04,1.04,0,0,1,1697.014,673.523Z" transform="translate(-1695.97 -563.227)" fill="#f39892"/>
      </g>
      <g id="Grupo_26031" data-name="Grupo 26031" transform="translate(5.167 3.519)">
        <path id="Trazado_20419" data-name="Trazado 20419" d="M1697.014,673.521a1.044,1.044,0,0,1-.747-1.772l52.785-54.1a1.044,1.044,0,0,1,1.461-.032l18.474,17.342,35.284-35.353a1.044,1.044,0,0,1,1.462-.015l17.982,17.309,16.539-17.279a1.045,1.045,0,0,1,.743-.322,1.061,1.061,0,0,1,.749.307l34.974,35.043,35.351-70.841a1.043,1.043,0,1,1,1.867.932l-36,72.139a1.043,1.043,0,0,1-1.672.271l-35.244-35.314L1824.5,619.1a1.044,1.044,0,0,1-1.478.03l-18-17.324-35.275,35.344a1.043,1.043,0,0,1-1.453.024l-18.466-17.334-52.07,53.371A1.041,1.041,0,0,1,1697.014,673.521Z" transform="translate(-1695.97 -563.226)" fill="#9ec8ff"/>
      </g>
    </g>
    <g id="Grupo_26035" data-name="Grupo 26035" transform="translate(529.828 223.05)">
      <path id="Rectngulo_4012" data-name="Rectngulo 4012" d="M9.867,0H71.585a9.867,9.867,0,0,1,9.867,9.867V53.716a65.3,65.3,0,0,1-65.3,65.3H0a0,0,0,0,1,0,0V9.867A9.867,9.867,0,0,1,9.867,0Z" transform="translate(36.378 0)" fill="#9ec8ff"/>
      <path id="Rectngulo_4013" data-name="Rectngulo 4013" d="M9.372,0H68.419a9.372,9.372,0,0,1,9.372,9.372v42.3A62.033,62.033,0,0,1,15.759,113.71H0a0,0,0,0,1,0,0V9.372A9.372,9.372,0,0,1,9.372,0Z" transform="translate(37.295 2.014)" fill="#fff"/>
      <path id="Trazado_20420" data-name="Trazado 20420" d="M1403.193,689.772v-2.051a2.752,2.752,0,0,0-2.531-2.929h-78.014a2.752,2.752,0,0,0-2.531,2.929v2.051c0,14.536,10.181,26.32,22.739,26.32h79.711C1410.009,716.092,1403.022,705.634,1403.193,689.772Z" transform="translate(-1320.118 -597.379)" fill="#9ec8ff"/>
      <path id="Trazado_20421" data-name="Trazado 20421" d="M1410.809,700.279V698.62a2.37,2.37,0,0,0-2.37-2.37h-73.052a2.37,2.37,0,0,0-2.37,2.37v1.659a21.293,21.293,0,0,0,21.293,21.293H1432.1C1420.342,721.572,1410.809,715.881,1410.809,700.279Z" transform="translate(-1329.652 -605.848)" fill="#fff"/>
      <g id="Grupo_26033" data-name="Grupo 26033" transform="translate(48.166 12.889)">
        <path id="Trazado_20422" data-name="Trazado 20422" d="M1563.526,435.659H1507.96a3.193,3.193,0,0,1-3.189-3.189V402.282a3.193,3.193,0,0,1,3.189-3.189h55.566a3.192,3.192,0,0,1,3.189,3.189V432.47A3.192,3.192,0,0,1,1563.526,435.659Zm-55.566-35.523a2.148,2.148,0,0,0-2.145,2.145V432.47a2.148,2.148,0,0,0,2.145,2.145h55.566a2.148,2.148,0,0,0,2.145-2.145V402.282a2.148,2.148,0,0,0-2.145-2.145Z" transform="translate(-1504.771 -399.093)" fill="#9ec8ff"/>
      </g>
      <path id="Trazado_20423" data-name="Trazado 20423" d="M1481.664,586.509h-61.078a1.578,1.578,0,1,1,0-3.156h61.078a1.578,1.578,0,0,1,0,3.156Z" transform="translate(-1393.213 -522.4)" fill="#9ec8ff"/>
      <path id="Trazado_20424" data-name="Trazado 20424" d="M1481.664,608.578h-61.078a1.578,1.578,0,1,1,0-3.156h61.078a1.578,1.578,0,0,1,0,3.156Z" transform="translate(-1393.213 -538.713)" fill="#9ec8ff"/>
      <path id="Trazado_20425" data-name="Trazado 20425" d="M1481.664,629.88h-61.078a1.578,1.578,0,1,1,0-3.156h61.078a1.578,1.578,0,0,1,0,3.156Z" transform="translate(-1393.213 -554.459)" fill="#9ec8ff"/>
      <g id="Grupo_26034" data-name="Grupo 26034" transform="translate(88.932 17.692)">
        <rect id="Rectngulo_4014" data-name="Rectngulo 4014" width="3.602" height="3.242" rx="1.621" fill="#9ec8ff"/>
        <rect id="Rectngulo_4015" data-name="Rectngulo 4015" width="3.602" height="3.242" rx="1.621" transform="translate(6.549)" fill="#9ec8ff"/>
        <rect id="Rectngulo_4016" data-name="Rectngulo 4016" width="3.602" height="3.242" rx="1.621" transform="translate(13.099)" fill="#9ec8ff"/>
      </g>
      <rect id="Rectngulo_4017" data-name="Rectngulo 4017" width="8.224" height="13.578" transform="translate(54.245 31.172)" fill="#9ec8ff"/>
      <rect id="Rectngulo_4018" data-name="Rectngulo 4018" width="8.224" height="12.447" transform="translate(76.916 32.303)" fill="#9ec8ff"/>
      <rect id="Rectngulo_4019" data-name="Rectngulo 4019" width="8.224" height="18.003" transform="translate(90.029 26.746)" fill="#9ec8ff"/>
      <rect id="Rectngulo_4020" data-name="Rectngulo 4020" width="8.224" height="8.224" transform="translate(65.358 36.526)" fill="#9ec8ff"/>
    </g>
    <g id="Grupo_26037" data-name="Grupo 26037" transform="translate(1046.547 324.445)">
      <path id="Trazado_20426" data-name="Trazado 20426" d="M3330.314,783.386h29.277a29.277,29.277,0,1,1-29.277-29.277Z" transform="translate(-3301.037 -750.01)" fill="#9ec8ff"/>
      <g id="Grupo_26036" data-name="Grupo 26036" transform="translate(4.903)">
        <path id="Trazado_20427" data-name="Trazado 20427" d="M3461.348,767.671a29.277,29.277,0,0,0-29.277-29.277v29.277Z" transform="translate(-3402.795 -738.394)" fill="#f39892"/>
        <path id="Trazado_20428" data-name="Trazado 20428" d="M3319.835,850.63a29.277,29.277,0,0,0,29.277,29.277A29.417,29.417,0,0,1,3319.835,850.63Z" transform="translate(-3319.835 -821.353)" fill="#f39892"/>
        <path id="Trazado_20429" data-name="Trazado 20429" d="M3349.112,738.394a29.277,29.277,0,0,0-29.277,29.277A29.417,29.417,0,0,1,3349.112,738.394Z" transform="translate(-3319.835 -738.394)" fill="#f39892"/>
        <path id="Trazado_20430" data-name="Trazado 20430" d="M3432.071,879.907a29.277,29.277,0,0,0,29.277-29.277A29.417,29.417,0,0,1,3432.071,879.907Z" transform="translate(-3402.795 -821.353)" fill="#f39892"/>
      </g>
    </g>
    <circle id="Elipse_952" data-name="Elipse 952" cx="2.596" cy="2.596" r="2.596" transform="translate(717.309 296.542) rotate(-13.282)" fill="#f39892"/>
    <circle id="Elipse_953" data-name="Elipse 953" cx="2.596" cy="2.596" r="2.596" transform="translate(678.703 331.971) rotate(-13.282)" fill="#9ec8ff"/>
    <circle id="Elipse_954" data-name="Elipse 954" cx="2.596" cy="2.596" r="2.596" transform="translate(734.312 313.271)" fill="#9ec8ff"/>
    <circle id="Elipse_955" data-name="Elipse 955" cx="2.596" cy="2.596" r="2.596" transform="translate(770.311 313.271)" fill="#9ec8ff"/>
    <circle id="Elipse_956" data-name="Elipse 956" cx="2.596" cy="2.596" r="2.596" transform="translate(806.309 313.271)" fill="#f39892"/>
    <g id="Grupo_26039" data-name="Grupo 26039" transform="translate(527.151 321.953)">
      <circle id="Elipse_957" data-name="Elipse 957" cx="14.008" cy="14.008" r="14.008" transform="translate(0 19.81) rotate(-45)" fill="#9cd499"/>
      <g id="Grupo_26038" data-name="Grupo 26038" transform="translate(13.833 15.182)">
        <path id="Trazado_20431" data-name="Trazado 20431" d="M1367.47,796.562h-.029a.783.783,0,0,1-.558-.265l-3.8-4.324a.783.783,0,0,1,1.175-1.034l3.26,3.7,7.539-7.378a.783.783,0,1,1,1.095,1.118l-8.129,7.956A.783.783,0,0,1,1367.47,796.562Z" transform="translate(-1362.883 -787.041)" fill="#fff"/>
      </g>
    </g>
    <g id="Grupo_26040" data-name="Grupo 26040" transform="translate(349.039 241.929)">
      <rect id="Rectngulo_4021" data-name="Rectngulo 4021" width="9.324" height="50.868" transform="translate(0 15.487)" fill="#9ec8ff"/>
      <rect id="Rectngulo_4022" data-name="Rectngulo 4022" width="9.324" height="36.069" transform="translate(39.516 30.285)" fill="#9ec8ff"/>
      <rect id="Rectngulo_4023" data-name="Rectngulo 4023" width="9.324" height="50.868" transform="translate(59.275 15.487)" fill="#9ec8ff"/>
      <rect id="Rectngulo_4024" data-name="Rectngulo 4024" width="9.324" height="18.035" transform="translate(79.033 48.32)" fill="#9ec8ff"/>
      <rect id="Rectngulo_4025" data-name="Rectngulo 4025" width="9.324" height="66.354" transform="translate(19.758)" fill="#9ec8ff"/>
      <rect id="Rectngulo_4026" data-name="Rectngulo 4026" width="9.324" height="36.069" transform="translate(98.857 30.285)" fill="#9ec8ff"/>
    </g>
    <g id="Grupo_26041" data-name="Grupo 26041" transform="translate(922.766 225.874)">
      <rect id="Rectngulo_4027" data-name="Rectngulo 4027" width="9.324" height="26.98" transform="translate(0 36.146)" fill="#9ec8ff"/>
      <rect id="Rectngulo_4028" data-name="Rectngulo 4028" width="9.324" height="18.203" transform="translate(119.515 44.923)" fill="#9ec8ff"/>
      <rect id="Rectngulo_4029" data-name="Rectngulo 4029" width="9.324" height="63.126" transform="translate(39.517)" fill="#9ec8ff"/>
      <rect id="Rectngulo_4030" data-name="Rectngulo 4030" width="9.325" height="28.374" transform="translate(59.275 34.752)" fill="#9ec8ff"/>
      <rect id="Rectngulo_4031" data-name="Rectngulo 4031" width="9.324" height="36.406" transform="translate(79.033 26.72)" fill="#9ec8ff"/>
      <rect id="Rectngulo_4032" data-name="Rectngulo 4032" width="9.325" height="44.794" transform="translate(19.758 18.332)" fill="#9ec8ff"/>
      <rect id="Rectngulo_4033" data-name="Rectngulo 4033" width="9.324" height="55.171" transform="translate(98.858 7.956)" fill="#9ec8ff"/>
    </g>
    <g id="Grupo_26043" data-name="Grupo 26043" transform="translate(282.201 358.263)">
      <g id="Grupo_26042" data-name="Grupo 26042" transform="translate(0)" clip-path="url(#clip-path)">
        <path id="Trazado_20432" data-name="Trazado 20432" d="M529.383,1030.781l-33.533-20.505-6.066,38.836A39.35,39.35,0,0,0,529.383,1030.781Z" transform="translate(-458.747 -973.173)" fill="#a2dff2"/>
        <path id="Trazado_20433" data-name="Trazado 20433" d="M546.606,978.093c.09-.148.209-.352.2-.344a39.309,39.309,0,0,0,.87-38.693c-11.867,6.217-4.8,2.44-34.643,18.577C546.626,978.173,541.41,975.006,546.606,978.093Z" transform="translate(-475.936 -920.531)" fill="#9cd499"/>
        <path id="Trazado_20434" data-name="Trazado 20434" d="M371.722,885.432l36.862,13.583,34.58-18.7C426.988,850.4,383.45,853.991,371.722,885.432Z" transform="translate(-371.482 -861.913)" fill="#9ec8ff"/>
        <path id="Trazado_20435" data-name="Trazado 20435" d="M395.515,1010.622l6.066-38.836L364.719,958.2C355.954,981.7,371.512,1006.838,395.515,1010.622Z" transform="translate(-364.479 -934.684)" fill="#f39892"/>
        <path id="Trazado_20436" data-name="Trazado 20436" d="M433.242,915.38a40.77,40.77,0,0,0,1.018-38.222l.022-.012-.62-1.147c-.013-.023-.026-.045-.039-.069l-.507-.944-.02.01a40.134,40.134,0,0,0-16.2-15.716,40.941,40.941,0,0,0-56.567,20.79l-.022-.008-.454,1.217-.458,1.227.022.008a40.107,40.107,0,0,0,3.437,33.136,40.651,40.651,0,0,0,27.531,19.567l0,.022,1.285.2,1.292.2,0-.022a40.645,40.645,0,0,0,38.959-18.082l.026.016.255-.418c.007,0,.416-.682.416-.682.064-.1.14-.234.184-.309l.027-.046.02-.036.414-.676Zm-3.932-35.458,2.709-1.417a38.156,38.156,0,0,1-.979,35.48l-.249-.146c-1.37-.812-1.965-1.164-4.7-2.829l-25.548-15.623,21.208-11.468C424.87,882.243,426.146,881.575,429.309,879.922Zm-66.538,1.049a38.029,38.029,0,0,1,67.955-4.869l-10.213,5.522c-2.108,1.134-5.056,2.73-9.991,5.4-3.161,1.711-7.14,3.863-12.235,6.619l-.315.17-1.027-.628-.056.358-16.15-5.951Zm2.332,33.363a37.507,37.507,0,0,1-3.243-30.919l24.281,8.947,10.338,3.809-5.7,36.468A38.053,38.053,0,0,1,365.1,914.334Zm28.258,18.712,5.559-35.6,14.468,8.849c5.833,3.568,9.17,5.609,11.271,6.891l4.995,3.054A37.85,37.85,0,0,1,393.361,933.046Z" transform="translate(-360.832 -858.215)" fill="#e7f3fe"/>
      </g>
    </g>
    <path id="Trazado_20438" data-name="Trazado 20438" d="M356.226,1300.95a11.7,11.7,0,1,1-11.7-11.7A11.7,11.7,0,0,1,356.226,1300.95Z" transform="translate(-60.524 -821.112)" fill="#9ec8ff"/>
    <path id="Trazado_20439" data-name="Trazado 20439" d="M377.432,1319.475a5.872,5.872,0,1,1-5.872-5.872A5.872,5.872,0,0,1,377.432,1319.475Z" transform="translate(-84.822 -839.115)" fill="#fff"/>
    <path id="Rectngulo_4034" data-name="Rectngulo 4034" d="M22.257,0h0A22.257,22.257,0,0,1,44.514,22.257v0A22.257,22.257,0,0,1,22.257,44.514h0A22.257,22.257,0,0,1,0,22.258v0A22.257,22.257,0,0,1,22.257,0Z" transform="translate(1049.05 435.167)" fill="#9ec8ff"/>
    <g id="Grupo_26044" data-name="Grupo 26044" transform="translate(1061.283 440.676)">
      <path id="Trazado_20440" data-name="Trazado 20440" d="M3395.62,1231.106h-29.058a9.042,9.042,0,0,1-9.032-9.032v-29.059a9.043,9.043,0,0,1,9.032-9.032h29.058a9.043,9.043,0,0,1,9.032,9.032v29.059A9.042,9.042,0,0,1,3395.62,1231.106Zm-29.058-44.514a6.431,6.431,0,0,0-6.424,6.424v29.059a6.431,6.431,0,0,0,6.424,6.424h29.058a6.431,6.431,0,0,0,6.424-6.424v-29.059a6.431,6.431,0,0,0-6.424-6.424Z" transform="translate(-3357.529 -1183.983)" fill="#fff"/>
    </g>
    <path id="Trazado_20441" data-name="Trazado 20441" d="M1466.729,1279.873l-7.416-8.552a3.139,3.139,0,0,1,.314-4.416l8.552-7.416a3.139,3.139,0,0,1,4.416.315l7.416,8.552a3.139,3.139,0,0,1-.314,4.415l-8.552,7.416A3.139,3.139,0,0,1,1466.729,1279.873Z" transform="translate(-892.614 -798.554)" fill="#9ec8ff"/>
    <path id="Trazado_20442" data-name="Trazado 20442" d="M1623.529,1348.662a6.549,6.549,0,1,1-6.549-6.55A6.549,6.549,0,0,1,1623.529,1348.662Z" transform="translate(-1004.874 -860.188)" fill="#9ec8ff"/>
    <path id="Trazado_20443" data-name="Trazado 20443" d="M3772.068,1270.951a6.528,6.528,0,1,1-6.528-6.528A6.528,6.528,0,0,1,3772.068,1270.951Z" transform="translate(-2593.003 -802.764)" fill="#9ec8ff"/>
    <path id="Trazado_20444" data-name="Trazado 20444" d="M3125.029,760.886a6.528,6.528,0,1,1-6.529-6.529A6.528,6.528,0,0,1,3125.029,760.886Z" transform="translate(-2114.742 -425.748)" fill="#9ec8ff"/>
    <circle id="Elipse_958" data-name="Elipse 958" cx="5.087" cy="5.087" r="5.087" transform="translate(1123.745 420.175) rotate(-80.783)" fill="#9ec8ff"/>
    <g id="Grupo_26046" data-name="Grupo 26046" transform="translate(842.664 302.357)">
      <path id="Rectngulo_4035" data-name="Rectngulo 4035" d="M8.169,0H104.23a8.17,8.17,0,0,1,8.17,8.17V42.626a8.17,8.17,0,0,1-8.17,8.17H8.17A8.17,8.17,0,0,1,0,42.626V8.169A8.169,8.169,0,0,1,8.169,0Z" fill="#9ec8ff"/>
      <rect id="Rectngulo_4036" data-name="Rectngulo 4036" width="106.254" height="35.067" rx="6.6" transform="translate(3.073 13.346)" fill="#fff"/>
      <g id="Grupo_26045" data-name="Grupo 26045" transform="translate(4.634 3.738)">
        <path id="Rectngulo_4037" data-name="Rectngulo 4037" d="M1.981,0h.441A1.981,1.981,0,0,1,4.4,1.981v0A1.981,1.981,0,0,1,2.422,3.963h-.44A1.982,1.982,0,0,1,0,1.981v0A1.981,1.981,0,0,1,1.981,0Z" fill="#fff"/>
        <path id="Rectngulo_4038" data-name="Rectngulo 4038" d="M1.981,0h.441A1.981,1.981,0,0,1,4.4,1.981v0A1.981,1.981,0,0,1,2.422,3.963h-.44A1.982,1.982,0,0,1,0,1.981v0A1.981,1.981,0,0,1,1.981,0Z" transform="translate(8.006)" fill="#fff"/>
        <rect id="Rectngulo_4039" data-name="Rectngulo 4039" width="4.403" height="3.963" rx="1.981" transform="translate(16.012)" fill="#fff"/>
      </g>
      <path id="Trazado_20445" data-name="Trazado 20445" d="M2757.944,724.815h-56.2a1.681,1.681,0,0,1,0-3.363h56.2a1.681,1.681,0,0,1,0,3.363Z" transform="translate(-2652.94 -703.783)" fill="#9ec8ff"/>
      <path id="Trazado_20446" data-name="Trazado 20446" d="M2595.887,824.258h-56.2a1.681,1.681,0,0,1,0-3.363h56.2a1.681,1.681,0,0,1,0,3.363Z" transform="translate(-2533.156 -777.287)" fill="#9ec8ff"/>
      <path id="Rectngulo_4040" data-name="Rectngulo 4040" d="M1.681,0h3.6A1.681,1.681,0,0,1,6.965,1.681v0A1.681,1.681,0,0,1,5.284,3.363h-3.6A1.681,1.681,0,0,1,0,1.682v0A1.681,1.681,0,0,1,1.681,0Z" transform="translate(66.694 43.608)" fill="#9ec8ff"/>
      <path id="Rectngulo_4041" data-name="Rectngulo 4041" d="M1.681,0h3.6A1.681,1.681,0,0,1,6.965,1.681v0A1.681,1.681,0,0,1,5.285,3.363h-3.6A1.682,1.682,0,0,1,0,1.681v0A1.681,1.681,0,0,1,1.681,0Z" transform="translate(75.461 43.608)" fill="#9ec8ff"/>
      <path id="Trazado_20447" data-name="Trazado 20447" d="M2657.075,755.961H2564a1.141,1.141,0,1,1,0-2.282h93.071a1.141,1.141,0,1,1,0,2.282Z" transform="translate(-2551.531 -727.604)" fill="#9ec8ff"/>
      <path id="Trazado_20448" data-name="Trazado 20448" d="M2657.075,774.837H2564a1.141,1.141,0,1,1,0-2.282h93.071a1.141,1.141,0,1,1,0,2.282Z" transform="translate(-2551.531 -741.556)" fill="#9ec8ff"/>
    </g>
    <circle id="Elipse_959" data-name="Elipse 959" cx="12.909" cy="12.909" r="12.909" transform="matrix(0.23, -0.973, 0.973, 0.23, 271.209, 310.666)" fill="#9ec8ff"/>
    <path id="Trazado_20449" data-name="Trazado 20449" d="M810.916,784.748H718.149a1.723,1.723,0,0,1,0-3.446h92.767a1.723,1.723,0,0,1,0,3.446Z" transform="translate(-344.07 -445.664)" fill="#9ec8ff"/>
    <path id="Trazado_20450" data-name="Trazado 20450" d="M810.916,817.737H718.149a1.723,1.723,0,1,1,0-3.446h92.767a1.723,1.723,0,1,1,0,3.446Z" transform="translate(-344.07 -470.048)" fill="#9ec8ff"/>
    <g id="Grupo_26050" data-name="Grupo 26050" transform="translate(686.54 400.158)">
      <path id="Trazado_20451" data-name="Trazado 20451" d="M2049.575,1099.141a65.169,65.169,0,0,0,.407-7.247c0-1.293-.043-2.576-.118-3.85l-11.974-3.874a52.642,52.642,0,0,0-4.24-14.347l7.94-9.77a64.682,64.682,0,0,0-6.29-9.143l-11.976,3.908a53.214,53.214,0,0,0-11.856-9.113l.681-12.582a64.056,64.056,0,0,0-10.454-3.705l-7.395,10.2a53.257,53.257,0,0,0-14.95-.392l-6.846-10.583a64.069,64.069,0,0,0-10.637,3.143l.016,12.6a53.113,53.113,0,0,0-12.321,8.475l-11.749-4.533a64.8,64.8,0,0,0-6.766,8.8l7.415,10.178a52.631,52.631,0,0,0-5,14.1l-12.161,3.236a65.158,65.158,0,0,0-.407,7.247c0,1.293.042,2.576.117,3.85l11.974,3.874a52.636,52.636,0,0,0,4.24,14.347l-7.94,9.77a64.676,64.676,0,0,0,6.29,9.143l11.976-3.908a53.217,53.217,0,0,0,11.855,9.113l-.681,12.582a64.06,64.06,0,0,0,10.454,3.705l7.395-10.2a53.257,53.257,0,0,0,14.95.392l6.846,10.583a64.039,64.039,0,0,0,10.637-3.144l-.015-12.6a53.12,53.12,0,0,0,12.321-8.475l11.749,4.533a64.82,64.82,0,0,0,6.766-8.8l-7.415-10.179a52.627,52.627,0,0,0,5-14.1Zm-64.136,18.068a25.315,25.315,0,1,1,25.315-25.315A25.315,25.315,0,0,1,1985.438,1117.21Z" transform="translate(-1920.895 -1028.648)" fill="#9ec8ff" opacity="0.5"/>
      <g id="Grupo_26047" data-name="Grupo 26047" transform="translate(97.767 47.703)">
        <path id="Trazado_20452" data-name="Trazado 20452" d="M2297,1256.3a1.3,1.3,0,0,1-1-2.138,42.473,42.473,0,0,0,7.483-40.906,1.3,1.3,0,0,1,2.466-.849,45.081,45.081,0,0,1-7.943,43.423A1.3,1.3,0,0,1,2297,1256.3Z" transform="translate(-2295.701 -1211.526)" fill="#fff"/>
      </g>
      <g id="Grupo_26048" data-name="Grupo 26048" transform="translate(79.056 20.848)">
        <path id="Trazado_20453" data-name="Trazado 20453" d="M2240.319,1120.45a1.3,1.3,0,0,1-.894-.354,42.152,42.152,0,0,0-14.6-8.993,1.3,1.3,0,0,1,.89-2.452,44.753,44.753,0,0,1,15.495,9.546,1.3,1.3,0,0,1-.895,2.254Z" transform="translate(-2223.97 -1108.571)" fill="#fff"/>
      </g>
      <g id="Grupo_26049" data-name="Grupo 26049" transform="translate(53.42 18.24)">
        <path id="Trazado_20454" data-name="Trazado 20454" d="M2126.993,1102.509a1.3,1.3,0,0,1-.318-2.569,45.166,45.166,0,0,1,11.049-1.367,1.3,1.3,0,1,1,0,2.608,42.565,42.565,0,0,0-10.41,1.287A1.314,1.314,0,0,1,2126.993,1102.509Z" transform="translate(-2125.69 -1098.573)" fill="#fff"/>
      </g>
    </g>
  </g>
</svg>
