<svg xmlns="http://www.w3.org/2000/svg" width="414.18" height="339.676" viewBox="0 0 414.18 339.676">
  <g id="Grupo_26172" data-name="Grupo 26172" transform="translate(-493 -5139)">
    <g id="Grupo_26171" data-name="Grupo 26171" transform="translate(-134.755 5056.503)">
      <g id="Grupo_26165" data-name="Grupo 26165">
        <path id="Trazado_20822" data-name="Trazado 20822" d="M1006.9,303.515c-6.324-9.741-14.555-18.115-21.08-27.722a96.422,96.422,0,0,1-14.525-34.118c-3.462-16.373-2.6-33.325-4.289-49.974s-6.522-33.99-18.813-45.347c-8.72-8.059-20.33-12.27-31.927-14.818-17.609-3.869-36.453-4.252-53.261,2.268-18.545,7.194-32.988,22.009-50.146,32.071a108.661,108.661,0,0,1-51.575,14.811c-15.212.439-30.341-2.333-45.556-2.682s-31.281,2.071-43.245,11.477c-19.961,15.692-22.1,46.207-12.961,69.9,5.668,14.694,14.794,27.823,20.938,42.325s9.057,31.646,1.981,45.717c-7,13.911-23.158,24.057-23.146,39.628.01,12.733,11.353,22.59,22.907,27.941l307.981,1.374A86.223,86.223,0,0,0,1006.9,303.515Z" fill="#f6f6f6" opacity="0.59"/>
        <path id="Trazado_20823" data-name="Trazado 20823" d="M783.9,180.14a31.957,31.957,0,0,0-16.261-15.577,29.6,29.6,0,0,0-22.645-.045c-.819.347-1.752.939-1.7,1.826a2.1,2.1,0,0,0,.966,1.4,36.466,36.466,0,0,0,4.725,2.784,34.754,34.754,0,0,1,9.706,8.07c1.668,3.823,6.142,14.374,6.466,14.821l6.285,8.675,13.357-5.283,6.016-8.694,3.41-18.091S787.631,169.289,783.9,180.14Z" fill="#ecc6ae"/>
        <path id="Trazado_20824" data-name="Trazado 20824" d="M873.591,303.731l-37.253-9.2L789.469,251.4l3.368-47.013-35.926-4.543-4.865,68.2,70.809,76.537L800.7,413.149H913.145l11.367-47.219,34.482,43.477s30.063-4.34,25.283-19.428-29.4-55.455-29.4-55.455A54.786,54.786,0,0,0,925.9,311.97l-17.836-5.907Z" fill="#719cd2"/>
        <path id="Trazado_20825" data-name="Trazado 20825" d="M924.512,365.93l34.482,43.477s30.063-4.34,25.283-19.428c-1.327-4.188-4.183-10.323-7.615-17-18.108.969-36.679,2.131-52.15-7.047,0,0-14.816,6.285-16.772,7.164q-8.261,3.709-16.659,7.1c-20.09,8.068-40.919,14.58-62.345,17.928-7.787,1.216-15.864,1.063-23.728,1.69l-4.31,13.338H913.145Z" fill="#57739b" opacity="0.4"/>
        <path id="Trazado_20826" data-name="Trazado 20826" d="M863.824,301.318S859.6,325.8,882.639,330.407s30.7-17.525,31.972-22.177l-20.779-6.912H863.824Z" fill="#eaae5f"/>
        <path id="Trazado_20827" data-name="Trazado 20827" d="M789.908,204.012l1.544-9.464-31.46-2.4v8.082Z" fill="#eed372"/>
        <rect id="Rectángulo_4125" data-name="Rectángulo 4125" width="88.367" height="5.461" transform="translate(800.698 407.689)" fill="#c4b8b8"/>
        <path id="Trazado_20828" data-name="Trazado 20828" d="M885.141,413.149V387.258l72.666-13.809A22.885,22.885,0,0,1,984.882,393.2c.011.094.021.187.03.281,1.739,17.155-19.219,19.673-19.219,19.673Z" fill="#7daadb"/>
        <rect id="Rectángulo_4126" data-name="Rectángulo 4126" width="5.37" height="21.705" transform="translate(879.771 391.444)" fill="#eed372"/>
        <path id="Trazado_20829" data-name="Trazado 20829" d="M879.771,399.392l-15.643-3.6-16.271,4.477-15.429,9.52s3.512,3.363,6.893,3.363h6.024L859,409.439l14.6,3.71h6.18Z" fill="#ecc6ae"/>
        <path id="Trazado_20830" data-name="Trazado 20830" d="M808.967,413.15H697.092l-33.244-94.438H775.723Z" fill="#c4b8b8"/>
        <path id="Trazado_20831" data-name="Trazado 20831" d="M697.092,413.149H808.967l-9.925-28.193c-19.282,1.608-38.789.935-57.718-3-21.316-4.431-41.9-13.077-59.171-26.333a91.775,91.775,0,0,1-7.587-6.467Z" fill="#b7abab"/>
        <path id="Trazado_20832" data-name="Trazado 20832" d="M740.841,368.789c1.875,4.826-.517,8.739-5.343,8.739s-10.259-3.913-12.135-8.739.517-8.739,5.343-8.739S738.965,363.963,740.841,368.789Z" fill="#fff"/>
        <rect id="Rectángulo_4127" data-name="Rectángulo 4127" width="370.005" height="9.023" transform="translate(646.721 413.15)" fill="#4c569a"/>
        <path id="Trazado_20833" data-name="Trazado 20833" d="M907.489,249.614a.6.6,0,0,1-.342.224c-.314.035-.457-.377-.488-.692q-.462-4.621-.923-9.246a1.377,1.377,0,0,1,.069-.765,1.293,1.293,0,0,1,.513-.472c2.166-1.336,7.665-2.987,6.719,1.48C912.307,243.585,909.854,247.1,907.489,249.614Z" fill="#352f2f"/>
        <circle id="Elipse_971" data-name="Elipse 971" cx="10.979" cy="10.979" r="10.979" transform="translate(844.511 216.162)" fill="#c4b8b8"/>
        <path id="Trazado_20834" data-name="Trazado 20834" d="M855.035,194.977v63.24a19.3,19.3,0,0,0,7.947,15.6l1.171.851a10.368,10.368,0,0,0,8.475,1.708l35.439-8.338V187.906Z" fill="#ecc6ae"/>
        <path id="Trazado_20835" data-name="Trazado 20835" d="M850.5,209.031l-.23,5.785,16.2-6.872v-3.561Z" fill="#352f2f"/>
        <path id="Trazado_20836" data-name="Trazado 20836" d="M880.439,204.382V207.4l19.176,5.479V206.3Z" fill="#352f2f"/>
        <path id="Trazado_20837" data-name="Trazado 20837" d="M880.439,219.449s5.479-7.122,11.506,0" fill="none" stroke="#352f2f" stroke-linecap="round" stroke-miterlimit="10" stroke-width="2"/>
        <path id="Trazado_20838" data-name="Trazado 20838" d="M853.015,219.449s5.479-7.122,11.506,0" fill="none" stroke="#352f2f" stroke-linecap="round" stroke-miterlimit="10" stroke-width="2"/>
        <path id="Trazado_20839" data-name="Trazado 20839" d="M889.161,196.027l-6.511,1.815-3.221.9a24.843,24.843,0,0,1-7.634,1.291,8.413,8.413,0,0,1-6.716-3.316c-3.655,1.677-7.658,2.9-11.657,2.477s-7.976-2.77-9.439-6.515c-1.977-5.06,1.29-10.987,6-13.7s10.412-2.936,15.841-2.76a134.448,134.448,0,0,1,41.035,7.829,7.106,7.106,0,0,1,3.4,2.035c.56.729.831,1.654,1.428,2.353a18.715,18.715,0,0,0,1.842,1.538c1.771,1.6,2.1,4.226,2.251,6.611a130.673,130.673,0,0,1-.3,20.282,7.94,7.94,0,0,1-.495,2.581c-.276.265-8.373.022-12.07.533A12.36,12.36,0,0,1,906,206.926c-2.391,2.22-7.23-8.38-7.389-9.763-.262-2.283.972-4.61-1.6-4.358C894.879,193.015,891.445,195.39,889.161,196.027Z" fill="#352f2f"/>
        <path id="Trazado_20840" data-name="Trazado 20840" d="M864.521,253.163l25.506-7.384s4.03,12.74-6.974,16.5S867.415,258.519,864.521,253.163Z" fill="#fff"/>
        <g id="Grupo_26164" data-name="Grupo 26164">
          <path id="Trazado_20841" data-name="Trazado 20841" d="M870.126,271.734l-20.8-14.345v-24.7h3.965v22.619l19.086,13.163Z" fill="#c4b8b8"/>
        </g>
        <path id="Rectángulo_4128" data-name="Rectángulo 4128" d="M3.407,0h.715A3.406,3.406,0,0,1,7.529,3.406v3.9a3.407,3.407,0,0,1-3.407,3.407H3.407A3.407,3.407,0,0,1,0,7.307v-3.9A3.407,3.407,0,0,1,3.407,0Z" transform="translate(864.708 270.335) rotate(-56.948)" fill="#352f2f"/>
        <path id="Trazado_20842" data-name="Trazado 20842" d="M908.067,268.043v38.021l-14.235-4.745L883.462,325.14l-9.871-21.409,6.848-5.274V274.543Z" fill="#ecc6ae"/>
        <path id="Trazado_20843" data-name="Trazado 20843" d="M883.462,325.14l-9.871-21.409-10.684,14.5,6.565-19.771,10.967-4.918v4.918l-3.716,2.862Z" fill="#eed372"/>
        <path id="Trazado_20844" data-name="Trazado 20844" d="M883.462,325.14l9.546-26.684,21.6-6.728,1.935,14.767-19.422,7.289-3.292-12.465Z" fill="#eed372"/>
        <path id="Trazado_20845" data-name="Trazado 20845" d="M903.724,220s8.493-2.192,13.15-1.37c2.465.548,3.561,12.054,2.191,15.341s-9.862,5.753-13.423,6.027" fill="#ecc6ae"/>
        <path id="Trazado_20846" data-name="Trazado 20846" d="M865.838,215.9l-.466.266-2.465,28.216h10.684V218.443h0A5.5,5.5,0,0,0,865.838,215.9Z" fill="#d5a391"/>
      </g>
      <g id="Grupo_26167" data-name="Grupo 26167">
        <circle id="Elipse_972" data-name="Elipse 972" cx="40.249" cy="40.249" r="40.249" transform="translate(928.094 194.712) rotate(-45)" fill="#fff"/>
        <g id="Grupo_26166" data-name="Grupo 26166">
          <path id="Trazado_20847" data-name="Trazado 20847" d="M975.031,218.018l-16.3-16.441,4.691-4.652,11.8,11.9,31.43-29.233,4.5,4.838Z" fill="#73bfb0"/>
        </g>
      </g>
      <g id="Grupo_26169" data-name="Grupo 26169">
        <circle id="Elipse_973" data-name="Elipse 973" cx="40.249" cy="40.249" r="40.249" transform="translate(790.093 161.928) rotate(-80.665)" fill="#fff"/>
        <g id="Grupo_26168" data-name="Grupo 26168">
          <path id="Trazado_20848" data-name="Trazado 20848" d="M840.661,140.19h-8.646L830.693,104.8h11.289Z" fill="#dd6c58"/>
          <rect id="Rectángulo_4129" data-name="Rectángulo 4129" width="8.878" height="10.255" transform="translate(831.899 142.431)" fill="#dd6c58"/>
        </g>
      </g>
      <g id="Grupo_26170" data-name="Grupo 26170">
        <circle id="Elipse_974" data-name="Elipse 974" cx="40.249" cy="40.249" r="40.249" transform="translate(627.755 223.578) rotate(-75.473)" fill="#fff"/>
        <path id="Trazado_20849" data-name="Trazado 20849" d="M703.936,200.182v-10.94h-6.168a21.53,21.53,0,0,0-2.274-5.475l4.366-4.366-7.736-7.735-4.366,4.365a21.511,21.511,0,0,0-5.475-2.273v-6.169h-10.94v6.169a21.51,21.51,0,0,0-5.475,2.273l-4.366-4.365-7.736,7.735,4.366,4.366a21.528,21.528,0,0,0-2.274,5.475H649.69v10.94h6.168a21.513,21.513,0,0,0,2.274,5.475l-4.366,4.366,7.736,7.736,4.366-4.366a21.513,21.513,0,0,0,5.475,2.274v6.168h10.94v-6.168a21.514,21.514,0,0,0,5.475-2.274l4.366,4.366,7.736-7.736-4.366-4.366a21.55,21.55,0,0,0,2.274-5.475ZM676.813,203.7a8.985,8.985,0,1,1,8.985-8.986A8.986,8.986,0,0,1,676.813,203.7Z" fill="#4c569a"/>
      </g>
    </g>
  </g>
</svg>
