<svg xmlns="http://www.w3.org/2000/svg" width="750" height="336.699" viewBox="0 0 750 336.699">
  <g id="Grupo_26073" data-name="Grupo 26073" transform="translate(0 -163.301)">
    <rect id="Rectángulo_4064" data-name="Rectángulo 4064" width="750" height="80.283" transform="translate(0 419.717)" fill="#e1e1ea"/>
    <g id="Grupo_26059" data-name="Grupo 26059">
      <g id="Grupo_26057" data-name="Grupo 26057">
        <path id="Trazado_20455" data-name="Trazado 20455" d="M250.255,448.058h-7.583V199.7a3.792,3.792,0,0,1,3.792-3.792h0a3.791,3.791,0,0,1,3.791,3.792Z" fill="#e1e1ea"/>
        <rect id="Rectángulo_4065" data-name="Rectángulo 4065" width="25.278" height="54.004" transform="translate(233.825 394.054)" fill="#c4c4d6"/>
      </g>
      <g id="Grupo_26058" data-name="Grupo 26058">
        <path id="Trazado_20456" data-name="Trazado 20456" d="M509.852,448.058h-7.584V199.7a3.792,3.792,0,0,1,3.792-3.792h0a3.792,3.792,0,0,1,3.792,3.792Z" fill="#e1e1ea"/>
        <rect id="Rectángulo_4066" data-name="Rectángulo 4066" width="25.278" height="54.004" transform="translate(493.421 394.054)" fill="#c4c4d6"/>
      </g>
    </g>
    <ellipse id="Elipse_960" data-name="Elipse 960" cx="88.396" cy="15.872" rx="88.396" ry="15.872" transform="translate(33.886 430.7)" fill="#513c6b" opacity="0.2" style="mix-blend-mode: multiply;isolation: isolate"/>
    <g id="Grupo_26060" data-name="Grupo 26060">
      <rect id="Rectángulo_4067" data-name="Rectángulo 4067" width="4.309" height="12.79" transform="translate(97.201 278.668) rotate(180)" fill="#362344"/>
      <rect id="Rectángulo_4068" data-name="Rectángulo 4068" width="4.309" height="12.79" transform="translate(67.599 278.668) rotate(180)" fill="#362344"/>
      <rect id="Rectángulo_4069" data-name="Rectángulo 4069" width="66.853" height="75.77" rx="12.501" transform="translate(113.284 350.711) rotate(180)" fill="#422b53"/>
      <path id="Trazado_20457" data-name="Trazado 20457" d="M66.36,271.651H94.646a12.937,12.937,0,0,0,12.937-12.937h0a12.937,12.937,0,0,0-12.937-12.937H66.36a12.937,12.937,0,0,0-12.937,12.937h0A12.937,12.937,0,0,0,66.36,271.651Z" fill="#422b53"/>
    </g>
    <g id="Grupo_26061" data-name="Grupo 26061">
      <path id="Trazado_20458" data-name="Trazado 20458" d="M36.979,336.874a3.175,3.175,0,0,0,3.172,3.173h164.47a3.177,3.177,0,1,0,0-6.354H40.151A3.18,3.18,0,0,0,36.979,336.874Z" fill="#513c6b"/>
      <path id="Trazado_20459" data-name="Trazado 20459" d="M36.979,336.874a3.175,3.175,0,0,0,3.172,3.173h164.47a3.175,3.175,0,0,0,3.181-3.173Z" fill="#513c6b" opacity="0.2" style="mix-blend-mode: multiply;isolation: isolate"/>
      <rect id="Rectángulo_4070" data-name="Rectángulo 4070" width="7.583" height="108.007" transform="translate(200.81 448.058) rotate(180)" fill="#513c6b"/>
      <rect id="Rectángulo_4071" data-name="Rectángulo 4071" width="7.583" height="108.007" transform="translate(50.259 448.058) rotate(180)" fill="#513c6b"/>
      <rect id="Rectángulo_4072" data-name="Rectángulo 4072" width="142.967" height="99.792" transform="translate(193.227 439.842) rotate(180)" fill="#665485"/>
      <rect id="Rectángulo_4073" data-name="Rectángulo 4073" width="142.967" height="10.66" transform="translate(193.227 350.711) rotate(180)" fill="#513c6b" opacity="0.2" style="mix-blend-mode: multiply;isolation: isolate"/>
    </g>
    <g id="Grupo_26062" data-name="Grupo 26062">
      <rect id="Rectángulo_4074" data-name="Rectángulo 4074" width="66.676" height="51.504" rx="5.656" transform="translate(197.65 333.695) rotate(180)" fill="#a6cfea"/>
      <path id="Rectángulo_4075" data-name="Rectángulo 4075" d="M0,0H71.262a4.571,4.571,0,0,1,4.571,4.571V5.855a0,0,0,0,1,0,0H0a0,0,0,0,1,0,0V0A0,0,0,0,1,0,0Z" transform="translate(178.37 333.695) rotate(180)" fill="#a6cfea"/>
      <path id="Trazado_20460" data-name="Trazado 20460" d="M158.68,307.944a6.662,6.662,0,1,1,6.662,6.661A6.662,6.662,0,0,1,158.68,307.944Z" fill="#fff"/>
    </g>
    <path id="Trazado_20461" data-name="Trazado 20461" d="M54.863,314.6,53.423,333.7H42.676L41.051,314.6Z" fill="#a3d1e4"/>
    <ellipse id="Elipse_961" data-name="Elipse 961" cx="88.396" cy="15.872" rx="88.396" ry="15.872" transform="translate(286.866 430.7)" fill="#513c6b" opacity="0.2" style="mix-blend-mode: multiply;isolation: isolate"/>
    <g id="Grupo_26063" data-name="Grupo 26063">
      <rect id="Rectángulo_4076" data-name="Rectángulo 4076" width="4.309" height="12.79" transform="translate(400.451 265.879)" fill="#362344"/>
      <rect id="Rectángulo_4077" data-name="Rectángulo 4077" width="4.309" height="12.79" transform="translate(430.053 265.879)" fill="#362344"/>
      <rect id="Rectángulo_4078" data-name="Rectángulo 4078" width="66.853" height="75.77" rx="12.501" transform="translate(384.368 274.941)" fill="#422b53"/>
      <path id="Trazado_20462" data-name="Trazado 20462" d="M431.292,271.651H403.006a12.937,12.937,0,0,1-12.937-12.937h0a12.937,12.937,0,0,1,12.937-12.937h28.286a12.937,12.937,0,0,1,12.937,12.937h0A12.937,12.937,0,0,1,431.292,271.651Z" fill="#422b53"/>
    </g>
    <g id="Grupo_26065" data-name="Grupo 26065">
      <path id="Trazado_20463" data-name="Trazado 20463" d="M382.352,247.514s-9.646-4.9-8.223-17.972l2.579,1.245a12.58,12.58,0,0,1,.978-11.294c4.714,3.29,24.316-7.826,32.212.622,14.1-5.721,16.184,30.537,4.214,34.7C401.609,257.2,382.352,247.514,382.352,247.514Z" fill="#ff8b3a"/>
      <g id="Grupo_26064" data-name="Grupo 26064">
        <path id="Trazado_20464" data-name="Trazado 20464" d="M377.023,279.441s3.828,17.547,21.082,17.329S422.1,279.441,422.1,279.441l-14.218-5.276-.364-4.639-.629-10.73-.3-5.145-4.883,2.007-8.92,3.669-1.291,11.418-.288,3.705Z" fill="#ffc297"/>
        <path id="Trazado_20465" data-name="Trazado 20465" d="M391.489,270.745c6.658.829,12.534.294,16.025-1.219l-.629-10.73a16.93,16.93,0,0,0-5.185-3.138l-8.92,3.669Z" fill="#ffa788"/>
        <path id="Trazado_20466" data-name="Trazado 20466" d="M414.707,244.342l.062,3.96,0,.287c3.6,3.535,7.516-.869,7.316-4.385a3.521,3.521,0,0,0-.956-2.3C418.035,238.724,414.707,244.342,414.707,244.342Z" fill="#ffc297"/>
        <path id="Trazado_20467" data-name="Trazado 20467" d="M414.769,248.3l0,.287c3.6,3.535,7.516-.869,7.316-4.385a3.25,3.25,0,0,0-3-.833C417.06,243.844,415.249,246.069,414.769,248.3Z" fill="#ffa788"/>
        <path id="Trazado_20468" data-name="Trazado 20468" d="M383.045,245.271l-.062,3.96,0,.287c-3.6,3.535-7.516-.869-7.316-4.385a3.521,3.521,0,0,1,.956-2.3C379.717,239.653,383.045,245.271,383.045,245.271Z" fill="#ffc297"/>
        <path id="Trazado_20469" data-name="Trazado 20469" d="M382.983,249.231l0,.287c-3.6,3.535-7.516-.869-7.316-4.385a3.248,3.248,0,0,1,3-.833C380.692,244.773,382.5,247,382.983,249.231Z" fill="#ffa788"/>
        <path id="Trazado_20470" data-name="Trazado 20470" d="M382.1,237.674s-3.525,13.355.979,21.749c6.559,12.228,27.781,9.6,31.814-1.113,3.353-8.91-.653-19.938-.653-19.938s-5.522-3.4-5.875-8.341C407.379,233.677,385.671,238.143,382.1,237.674Z" fill="#ffc297"/>
        <path id="Trazado_20471" data-name="Trazado 20471" d="M388.965,244.29c-.325.228-.458,2.805.044,3.068a1.243,1.243,0,0,0,1.422-.132,6.639,6.639,0,0,0,0-2.936C390.212,243.9,389.339,244.027,388.965,244.29Z" fill="#2d1e3c"/>
        <path id="Trazado_20472" data-name="Trazado 20472" d="M404.744,243.923c-.325.228-.458,2.8.044,3.068a1.243,1.243,0,0,0,1.422-.131,6.644,6.644,0,0,0,0-2.937C405.991,243.529,405.119,243.66,404.744,243.923Z" fill="#2d1e3c"/>
        <path id="Trazado_20473" data-name="Trazado 20473" d="M395.465,254.415a18.794,18.794,0,0,0,6.372-.814C401.728,258.043,396.235,257.53,395.465,254.415Z" fill="#fff"/>
      </g>
      <path id="Trazado_20474" data-name="Trazado 20474" d="M397.607,242.736c1.943-.229,2.3,7.775,1.953,8.585s-4.088.791-4.532,0S395.828,242.945,397.607,242.736Z" fill="#ffa788"/>
      <path id="Trazado_20475" data-name="Trazado 20475" d="M386.4,240.658c.115,1.607,6.048,1.423,5.692-.622S386.224,238.168,386.4,240.658Z" fill="#ff8b3a"/>
      <path id="Trazado_20476" data-name="Trazado 20476" d="M403.523,240.658c.115,1.607,6.047,1.423,5.691-.622S403.345,238.168,403.523,240.658Z" fill="#ff8b3a"/>
      <path id="Trazado_20477" data-name="Trazado 20477" d="M391.2,274.45s-23.757,5.783-25.555,7.425-9.314,44.481-9.314,44.481l-26.43,1.671-.41,5.666h41.1l3.395-19.635v19.635h62.907s0-45.582-2.531-51.5c-.61-1.428-26.484-8.027-26.484-8.027l-10.57,7.71Z" fill="#6c4856"/>
      <rect id="Rectángulo_4079" data-name="Rectángulo 4079" width="40.83" height="3.87" rx="1.935" transform="translate(335.438 329.826)" fill="#84bddb"/>
      <path id="Trazado_20478" data-name="Trazado 20478" d="M391.2,274.45l-.4-2.023,7.151,6.241,10.347-6.693-.424,2.19L397.308,294.6Z" fill="#fff"/>
      <path id="Trazado_20479" data-name="Trazado 20479" d="M391.2,274.45l-4.8,8.809,3.672,1.823-3.672,6.28,10.911,25.324,13.72-28.575-4.654-4.042,4.654-2.194-3.151-7.71L397.308,294.6Z" fill="#513c6b" opacity="0.2" style="mix-blend-mode: multiply;isolation: isolate"/>
      <path id="Trazado_20480" data-name="Trazado 20480" d="M397.955,278.668l-2.49,4.621,2.493-1.429,2.493,1.429Z" fill="#513c6b" opacity="0.2" style="mix-blend-mode: multiply;isolation: isolate"/>
      <path id="Trazado_20481" data-name="Trazado 20481" d="M422.1,302.764V320.9l-26.632,5.458v7.337h-2.908l.771-8.749,26.4-5.925Z" fill="#513c6b" opacity="0.2" style="mix-blend-mode: multiply;isolation: isolate"/>
      <path id="Trazado_20482" data-name="Trazado 20482" d="M395.465,326.356s-5.2-1.242-6.175-1.436-5.558,1.486-6.85,2.132-2.844,3.943-2.779,4.589,1.292.646,1.292.646l1.1-1.357s.665,2.763,1.14,2.763h1.574a9.771,9.771,0,0,0-.129-2.375s6.662,2.908,10.828,1.486A41.928,41.928,0,0,0,395.465,326.356Z" fill="#ffc297"/>
      <path id="Trazado_20483" data-name="Trazado 20483" d="M382.634,327.311s-3.619.711-3.878.9a1.072,1.072,0,0,0,0,1.422c.453.423,2.133,0,2.133,0" fill="#ffc297"/>
      <path id="Trazado_20484" data-name="Trazado 20484" d="M399.68,329.431a.863.863,0,1,1-.863-.863A.863.863,0,0,1,399.68,329.431Z" fill="#fff"/>
    </g>
    <g id="Grupo_26066" data-name="Grupo 26066">
      <path id="Rectángulo_4080" data-name="Rectángulo 4080" d="M3.972,0h69.2a3.972,3.972,0,0,1,3.972,3.972V6.194a0,0,0,0,1,0,0H0a0,0,0,0,1,0,0V3.972A3.972,3.972,0,0,1,3.972,0Z" transform="translate(292.198 313.695)" fill="#665485"/>
      <rect id="Rectángulo_4081" data-name="Rectángulo 4081" width="7.396" height="14.674" transform="translate(292.198 319.889)" fill="#665485"/>
      <rect id="Rectángulo_4082" data-name="Rectángulo 4082" width="7.396" height="14.674" transform="translate(361.948 319.889)" fill="#665485"/>
    </g>
    <rect id="Rectángulo_4083" data-name="Rectángulo 4083" width="62.353" height="14.674" transform="translate(299.594 319.889)" fill="#513c6b"/>
    <g id="Grupo_26067" data-name="Grupo 26067">
      <rect id="Rectángulo_4084" data-name="Rectángulo 4084" width="77.146" height="60.332" rx="4.654" transform="translate(291.329 243.302)" fill="#84bddb"/>
      <path id="Trazado_20485" data-name="Trazado 20485" d="M299.121,299.252h0a2.28,2.28,0,0,1-2.279-2.279h0a2.28,2.28,0,0,1,2.279-2.279h0a2.28,2.28,0,0,1,2.279,2.279h0A2.28,2.28,0,0,1,299.121,299.252Z" fill="#513c6b" opacity="0.2" style="mix-blend-mode: multiply;isolation: isolate"/>
      <path id="Trazado_20486" data-name="Trazado 20486" d="M306.7,299.252h0a2.279,2.279,0,0,1-2.278-2.279h0a2.279,2.279,0,0,1,2.278-2.279h0a2.279,2.279,0,0,1,2.279,2.279h0A2.279,2.279,0,0,1,306.7,299.252Z" fill="#513c6b" opacity="0.2" style="mix-blend-mode: multiply;isolation: isolate"/>
      <rect id="Rectángulo_4085" data-name="Rectángulo 4085" width="2.167" height="4.557" transform="translate(351.654 294.694)" fill="#513c6b" opacity="0.2" style="mix-blend-mode: multiply;isolation: isolate"/>
      <rect id="Rectángulo_4086" data-name="Rectángulo 4086" width="2.167" height="4.557" transform="translate(346.194 294.694)" fill="#513c6b" opacity="0.2" style="mix-blend-mode: multiply;isolation: isolate"/>
      <path id="Trazado_20487" data-name="Trazado 20487" d="M340.653,313.7H318.33V275.426a11.161,11.161,0,0,1,11.162-11.161h0a11.161,11.161,0,0,1,11.161,11.161Z" fill="#a3d1e4"/>
      <path id="Trazado_20488" data-name="Trazado 20488" d="M346.928,313.7h-31.4a1,1,0,0,1-1-1h0a1,1,0,0,1,1-1h31.4a1,1,0,0,1,1,1h0A1,1,0,0,1,346.928,313.7Z" fill="#a3d1e4"/>
      <circle id="Elipse_962" data-name="Elipse 962" cx="6.664" cy="6.664" r="6.664" transform="translate(322.828 269.417)" fill="#84bddb"/>
    </g>
    <g id="Grupo_26068" data-name="Grupo 26068">
      <path id="Trazado_20489" data-name="Trazado 20489" d="M460.673,336.874a3.175,3.175,0,0,1-3.172,3.173H293.031a3.177,3.177,0,1,1,0-6.354H457.5A3.18,3.18,0,0,1,460.673,336.874Z" fill="#513c6b"/>
      <path id="Trazado_20490" data-name="Trazado 20490" d="M460.673,336.874a3.175,3.175,0,0,1-3.172,3.173H293.031a3.176,3.176,0,0,1-3.181-3.173Z" fill="#513c6b" opacity="0.2" style="mix-blend-mode: multiply;isolation: isolate"/>
      <rect id="Rectángulo_4087" data-name="Rectángulo 4087" width="7.583" height="108.007" transform="translate(296.842 340.051)" fill="#513c6b"/>
      <rect id="Rectángulo_4088" data-name="Rectángulo 4088" width="7.583" height="108.007" transform="translate(447.393 340.051)" fill="#513c6b"/>
      <rect id="Rectángulo_4089" data-name="Rectángulo 4089" width="142.967" height="99.792" transform="translate(304.426 340.051)" fill="#665485"/>
      <rect id="Rectángulo_4090" data-name="Rectángulo 4090" width="142.967" height="10.66" transform="translate(304.426 340.051)" fill="#513c6b" opacity="0.2" style="mix-blend-mode: multiply;isolation: isolate"/>
    </g>
    <ellipse id="Elipse_963" data-name="Elipse 963" cx="88.396" cy="15.872" rx="88.396" ry="15.872" transform="translate(548.119 430.7)" fill="#513c6b" opacity="0.2" style="mix-blend-mode: multiply;isolation: isolate"/>
    <g id="Grupo_26069" data-name="Grupo 26069">
      <rect id="Rectángulo_4091" data-name="Rectángulo 4091" width="4.309" height="12.79" transform="translate(660.075 265.879)" fill="#362344"/>
      <rect id="Rectángulo_4092" data-name="Rectángulo 4092" width="4.309" height="12.79" transform="translate(689.676 265.879)" fill="#362344"/>
      <rect id="Rectángulo_4093" data-name="Rectángulo 4093" width="66.853" height="75.77" rx="12.501" transform="translate(643.991 274.941)" fill="#422b53"/>
      <path id="Trazado_20491" data-name="Trazado 20491" d="M690.915,271.651H662.629a12.937,12.937,0,0,1-12.937-12.937h0a12.937,12.937,0,0,1,12.937-12.937h28.286a12.938,12.938,0,0,1,12.938,12.937h0A12.938,12.938,0,0,1,690.915,271.651Z" fill="#422b53"/>
    </g>
    <g id="Grupo_26070" data-name="Grupo 26070">
      <path id="Trazado_20492" data-name="Trazado 20492" d="M654.413,222.034c-10.736,1.239-18.944,7.782-18.538,21.7s-.015,39.756-.015,39.756l2.385-2.608.969-1.311,35.7,1.544,2.93-2.145,4.366,3.7s1-22.221-.638-36.888C680.35,234.881,676.213,219.52,654.413,222.034Z" fill="#713d59"/>
      <path id="Trazado_20493" data-name="Trazado 20493" d="M636.647,279.441s3.827,17.547,21.081,17.329,23.991-17.329,23.991-17.329L667.5,274.165l-.364-4.639-.629-10.73-.3-5.145-4.883,2.007-8.92,3.669-1.291,11.418-.287,3.705Z" fill="#ffc297"/>
      <path id="Trazado_20494" data-name="Trazado 20494" d="M690.081,350.833s-15.1,10.534-32.811,7.066a110.87,110.87,0,0,1-28.3-9.526l10-14.68s-9.126-45.361-6.632-51.5a37.111,37.111,0,0,1,14.515-7.179,19.72,19.72,0,0,1,3.963-.565s.287,8.683,8.11,8.683c8.2,0,8.569-8.97,8.569-8.97a25.506,25.506,0,0,1,4.772.617,36.83,36.83,0,0,1,14.9,6.971l-5.449,49.011Z" fill="#ff6e80"/>
      <path id="Trazado_20495" data-name="Trazado 20495" d="M672.272,274.782c-.921,5.406-4,15.923-14.028,15.923-10.2,0-11.4-10.552-11.386-15.688a19.72,19.72,0,0,1,3.963-.565s.287,8.683,8.11,8.683c8.2,0,8.569-8.97,8.569-8.97A25.506,25.506,0,0,1,672.272,274.782Z" fill="#513c6b" opacity="0.2" style="mix-blend-mode: multiply;isolation: isolate"/>
      <path id="Trazado_20496" data-name="Trazado 20496" d="M651.112,270.745c6.658.829,12.534.294,16.025-1.219l-.629-10.73a16.93,16.93,0,0,0-5.185-3.138l-8.92,3.669Z" fill="#ffa788"/>
      <path id="Trazado_20497" data-name="Trazado 20497" d="M671.848,242.992l.606,3.914.043.284c4.052,3.006,7.325-1.894,6.643-5.35a3.524,3.524,0,0,0-1.263-2.145C674.371,236.97,671.848,242.992,671.848,242.992Z" fill="#ffc297"/>
      <path id="Trazado_20498" data-name="Trazado 20498" d="M672.454,246.906l.043.284c4.052,3.006,7.325-1.894,6.643-5.35a3.248,3.248,0,0,0-3.082-.413C674.11,242.175,672.622,244.629,672.454,246.906Z" fill="#ffa788"/>
      <path id="Trazado_20499" data-name="Trazado 20499" d="M641.567,247.143l.483,3.931.036.285c-3.079,4-7.564.173-7.849-3.338a3.516,3.516,0,0,1,.631-2.407C637.5,242.036,641.567,247.143,641.567,247.143Z" fill="#ffc297"/>
      <path id="Trazado_20500" data-name="Trazado 20500" d="M642.05,251.074l.036.285c-3.079,4-7.564.173-7.849-3.338a3.247,3.247,0,0,1,2.853-1.236C639.168,246.973,641.268,248.928,642.05,251.074Z" fill="#ffa788"/>
      <path id="Trazado_20501" data-name="Trazado 20501" d="M639.672,243.557s-2.216,12.64,2.786,20.747c5.736,9.3,30.958,3.588,32.738-6.292,1.689-9.369-2.742-18.2-2.742-18.2s-8.014.9-17.713,2.006l-1.075-3.383-2.554,3.8C647.315,242.671,643.387,243.124,639.672,243.557Z" fill="#ffc297"/>
      <path id="Trazado_20502" data-name="Trazado 20502" d="M647.127,246.76c-.29.271-.068,2.841.465,3.033a1.245,1.245,0,0,0,1.391-.326,6.642,6.642,0,0,0-.4-2.909C648.308,246.2,647.462,246.448,647.127,246.76Z" fill="#2d1e3c"/>
      <path id="Trazado_20503" data-name="Trazado 20503" d="M663.168,245.158c-.291.27-.068,2.841.465,3.033a1.245,1.245,0,0,0,1.391-.326,6.657,6.657,0,0,0-.4-2.909C664.348,244.6,663.5,244.846,663.168,245.158Z" fill="#2d1e3c"/>
      <path id="Trazado_20504" data-name="Trazado 20504" d="M666.509,241.821a11.486,11.486,0,0,0-7.078-2.586C662.885,236.147,666.426,240.021,666.509,241.821Z" fill="#422b53"/>
      <path id="Trazado_20505" data-name="Trazado 20505" d="M644.238,243s3.291-3.426,6.462-3.877C646.724,236.741,643.979,241.214,644.238,243Z" fill="#422b53"/>
    </g>
    <path id="Trazado_20506" data-name="Trazado 20506" d="M632.34,282.192s-6.039,1.518-14.719,41.143c-7.549,2.542-19.547,7.433-19.547,7.433l32.083-.578,4.524-20.2S632.238,291.3,632.34,282.192Z" fill="#ffc297"/>
    <path id="Trazado_20507" data-name="Trazado 20507" d="M687.168,281.751s4.6-.27,6.27,11.615c1.846,13.114-.659,40.329-.659,40.329H655.872s-4.76-.441-4.76-4.7c-2.1-.236-8.876-.134-8.876-.134s3.255-3.207,5.217-3.557c2.755-.491,4.4-.695,12.072,1.971,4.227.569,20.241-2.609,20.241-2.609S676.772,289.49,687.168,281.751Z" fill="#ffc297"/>
    <g id="Grupo_26071" data-name="Grupo 26071">
      <path id="Trazado_20508" data-name="Trazado 20508" d="M720.3,336.874a3.175,3.175,0,0,1-3.172,3.173H552.654a3.177,3.177,0,1,1,0-6.354h164.47A3.18,3.18,0,0,1,720.3,336.874Z" fill="#513c6b"/>
      <path id="Trazado_20509" data-name="Trazado 20509" d="M720.3,336.874a3.175,3.175,0,0,1-3.172,3.173H552.654a3.176,3.176,0,0,1-3.181-3.173Z" fill="#513c6b" opacity="0.2" style="mix-blend-mode: multiply;isolation: isolate"/>
      <rect id="Rectángulo_4094" data-name="Rectángulo 4094" width="7.583" height="108.007" transform="translate(556.465 340.051)" fill="#513c6b"/>
      <rect id="Rectángulo_4095" data-name="Rectángulo 4095" width="7.583" height="108.007" transform="translate(707.016 340.051)" fill="#513c6b"/>
      <rect id="Rectángulo_4096" data-name="Rectángulo 4096" width="142.967" height="99.792" transform="translate(564.049 340.051)" fill="#665485"/>
      <rect id="Rectángulo_4097" data-name="Rectángulo 4097" width="142.967" height="10.66" transform="translate(564.049 340.051)" fill="#513c6b" opacity="0.2" style="mix-blend-mode: multiply;isolation: isolate"/>
    </g>
    <g id="Grupo_26072" data-name="Grupo 26072">
      <rect id="Rectángulo_4098" data-name="Rectángulo 4098" width="66.676" height="51.504" rx="5.656" transform="translate(559.625 282.192)" fill="#a6cfea"/>
      <path id="Rectángulo_4099" data-name="Rectángulo 4099" d="M0,0H75.833a0,0,0,0,1,0,0V1.284a4.571,4.571,0,0,1-4.571,4.571H0a0,0,0,0,1,0,0V0A0,0,0,0,1,0,0Z" transform="translate(578.905 327.84)" fill="#a6cfea"/>
      <path id="Trazado_20510" data-name="Trazado 20510" d="M598.595,307.944a6.661,6.661,0,1,0-6.661,6.661A6.662,6.662,0,0,0,598.595,307.944Z" fill="#fff"/>
    </g>
    <path id="Trazado_20511" data-name="Trazado 20511" d="M655.987,244.666c-2.251.482-.946,5.411-2.139,7.266s3.821,1.193,4.5.133S657.728,244.293,655.987,244.666Z" fill="#ffa788"/>
    <path id="Trazado_20512" data-name="Trazado 20512" d="M660.075,295.923a1.354,1.354,0,1,1-1.354-1.353A1.354,1.354,0,0,1,660.075,295.923Z" fill="#ffe165"/>
    <path id="Trazado_20513" data-name="Trazado 20513" d="M659.879,304.612a1.353,1.353,0,1,1-1.353-1.353A1.354,1.354,0,0,1,659.879,304.612Z" fill="#ffe165"/>
    <path id="Trazado_20514" data-name="Trazado 20514" d="M659.684,313.3a1.354,1.354,0,1,1-1.353-1.354A1.353,1.353,0,0,1,659.684,313.3Z" fill="#ffe165"/>
    <path id="Trazado_20515" data-name="Trazado 20515" d="M653.927,259.822a18.778,18.778,0,0,0,5.986-2.33C660.881,261.829,655.427,262.658,653.927,259.822Z" fill="#fff"/>
    <text id="_" data-name="?" transform="translate(99.17 268.301)" fill="#ff6e80" font-size="110.559" font-family="ArialRoundedMTBold, Arial Rounded MT"><tspan x="0" y="0">?</tspan></text>
  </g>
</svg>
