<svg xmlns="http://www.w3.org/2000/svg" width="156" height="156" viewBox="0 0 156 156">
  <g id="Grupo_26659" data-name="Grupo 26659" transform="translate(-253 -8495)">
    <g id="Elipse_993" data-name="Elipse 993" transform="translate(253 8495)" fill="#fff" stroke="#7d58bd" stroke-width="7">
      <circle cx="78" cy="78" r="78" stroke="none"/>
      <circle cx="78" cy="78" r="74.5" fill="none"/>
    </g>
    <g id="Grupo_26655" data-name="Grupo 26655" transform="translate(-32.505 138.015)">
      <g id="XMLID_1258_" transform="translate(318.505 8389.985)">
        <g id="XMLID_1850_" transform="translate(0)">
          <path id="XMLID_1911_" d="M89.729,37.945a1.764,1.764,0,0,0-1.593-.481L72.951,40.519a1.762,1.762,0,0,0-.9,2.973l2.054,2.054L66.044,53.61,59.8,47.368a1.762,1.762,0,0,0-2.492,0l-7.659,7.659L52.524,44.7a8.272,8.272,0,0,0-5.06-9.956l2.3-6.561c.634.056,1.266.084,1.891.084A21.907,21.907,0,0,0,65.62,23.222l.42-.349a4.908,4.908,0,0,0,.8-6.793,4.888,4.888,0,0,0-6.994-.774l-.477.4a12.133,12.133,0,0,1-2.284,1.5,7.307,7.307,0,0,1-8.364-1.471,8.052,8.052,0,1,0-8.88-2.96,9.179,9.179,0,0,0-4.737,2.671,1.76,1.76,0,0,0-.208.213,23.9,23.9,0,0,1-11.975,7.914,4.873,4.873,0,0,0-2.9,2.3l-3.611-3.611a4.057,4.057,0,0,0-5.731,0L5.956,26.979h0L1.23,31.705a4.053,4.053,0,0,0,0,5.731L14.251,50.458a4.053,4.053,0,0,0,5.731,0l4.893-4.893-2.32,6.084A1.762,1.762,0,1,0,25.848,52.9l5.779-15.153H44.566a4.737,4.737,0,0,1,4.564,6.008l-4,14.385a1.507,1.507,0,0,1-1.447,1.1A1.5,1.5,0,0,1,42.2,57.506l2.13-13.393a1.762,1.762,0,0,0-1.74-2.039H38.408a1.762,1.762,0,0,0-1.572.967c-.1.2-10.326,20.416-13.771,27.246a1.809,1.809,0,0,1-1.863.969l-.084-.011a1.723,1.723,0,0,1-1.379-2.322l1.086-2.847a1.762,1.762,0,1,0-3.293-1.256l-1.086,2.847a5.248,5.248,0,0,0,4.2,7.07l.084.011a5.344,5.344,0,0,0,5.483-2.874C29.221,65.909,37.4,49.726,39.492,45.6h1.029L38.715,56.953a5.024,5.024,0,0,0,3.435,5.576L22.523,82.156a1.762,1.762,0,0,0,0,2.492L27.576,89.7a1.762,1.762,0,0,0,2.492,0l9.715-9.715a1.762,1.762,0,0,0-2.492-2.492l-8.469,8.47L26.26,83.4l32.3-32.3L64.8,57.347a1.762,1.762,0,0,0,2.492,0L77.845,46.793a1.762,1.762,0,0,0,0-2.492l-.976-.976,9.364-1.885L84.349,50.8l-1.45-1.45a1.763,1.763,0,0,0-2.492,0L66.044,63.717,59.8,57.475a1.763,1.763,0,0,0-2.492,0L47.258,67.527a1.762,1.762,0,1,0,2.492,2.492l8.806-8.806L64.8,67.455a1.763,1.763,0,0,0,2.492,0L81.653,53.093l2.529,2.529a1.762,1.762,0,0,0,2.973-.9l3.056-15.185A1.763,1.763,0,0,0,89.729,37.945ZM46.349,3.524a4.52,4.52,0,1,1-4.52,4.52A4.525,4.525,0,0,1,46.349,3.524ZM28.914,34.754,26.77,32.61q1.528-.5,3-1.138Zm-5.946-6.112a1.366,1.366,0,0,1,.933-1.688,27.483,27.483,0,0,0,8.032-3.805l-.995,3.825a30.387,30.387,0,0,1-6.283,2.6c-.041.012-.083.022-.125.03a1.352,1.352,0,0,1-.923-.159l-.516-.516A1.341,1.341,0,0,1,22.968,28.642Zm-9.794-3.9a.529.529,0,0,1,.748,0l6.423,6.423A4.843,4.843,0,0,0,21.4,32.221l5.546,5.546a.529.529,0,0,1,0,.747l-3.48,3.48-3.87-3.87.737-.737a1.762,1.762,0,0,0,0-2.492l-3.966-3.966a1.763,1.763,0,0,0-2.492,0l-.737.737L9.693,28.225Zm2.412,12.4a.661.661,0,0,1-.935,0h0l-.539-.539a.661.661,0,0,1,0-.935l1.006-1.006,1.474,1.474Zm1.905,10.819a.529.529,0,0,1-.747,0L3.722,34.945a.528.528,0,0,1,0-.747l3.48-3.48,3.606,3.605a4.19,4.19,0,0,0,.812,4.778l.539.539h0a4.19,4.19,0,0,0,4.778.812l4.035,4.035ZM42.658,34.228H32.692l3.62-13.914a5.648,5.648,0,0,1,5.465-4.225,5.585,5.585,0,0,1,4.136,1.8,10.863,10.863,0,0,0,12.763,2.456,15.644,15.644,0,0,0,2.949-1.934l.477-.4a1.364,1.364,0,0,1,1.953.218,1.415,1.415,0,0,1-.267,1.928l-.42.349a18.277,18.277,0,0,1-14.532,4.015A1.76,1.76,0,0,0,46.9,25.686l-2.99,8.542Z" transform="translate(-0.043)"/>
          <path id="XMLID_1920_" d="M238.758,408.8a1.763,1.763,0,1,0,1.246.516A1.774,1.774,0,0,0,238.758,408.8Z" transform="translate(-195.247 -336.772)"/>
          <path id="XMLID_1921_" d="M114.648,327.664a1.76,1.76,0,1,0-1.247-.516A1.775,1.775,0,0,0,114.648,327.664Z" transform="translate(-93.004 -267.029)"/>
        </g>
      </g>
    </g>
  </g>
</svg>
