<svg xmlns="http://www.w3.org/2000/svg" width="156" height="156" viewBox="0 0 156 156">
  <g id="Grupo_26673" data-name="Grupo 26673" transform="translate(-607 -8751)">
    <g id="Elipse_996" data-name="Elipse 996" transform="translate(607 8751)" fill="#fff" stroke="#7d58bd" stroke-width="7">
      <circle cx="78" cy="78" r="78" stroke="none"/>
      <circle cx="78" cy="78" r="74.5" fill="none"/>
    </g>
    <path id="team_1_" data-name="team (1)" d="M93.077,39.032H89.7l-5.028,2.646a7.463,7.463,0,0,0-1.789-.736l-6.325-1.583V38.64a10.542,10.542,0,0,0,4.505-8.615V27.4A10.786,10.786,0,0,0,70.881,16.518c-.285-.007-.566,0-.848.017l1.64-3.839-7.95-7.948L59.036,7.8a25.393,25.393,0,0,0-5.619-2.331L52.26,0H40.818L39.661,5.469A25.364,25.364,0,0,0,34.042,7.8L29.355,4.75l-7.943,7.943,1.612,3.842c-.062,0-.12-.014-.182-.015a10.513,10.513,0,0,0-10.833,10.5v3a10.538,10.538,0,0,0,4.5,8.614v.721l-4.125,1.031L4.91,36.03H0V67.137L14.769,72.06h2.876L18,70.8l4.527,2.717a4.674,4.674,0,0,0,4.507,4.529,4.674,4.674,0,0,0,4.5,4.5,4.674,4.674,0,0,0,4.5,4.5,4.669,4.669,0,0,0,7.3,3.707l1.33,1.174A4.571,4.571,0,0,0,47.7,93.077h.278a4.571,4.571,0,0,0,4.562-4.51,4.566,4.566,0,0,0,4.5-4.5,4.566,4.566,0,0,0,4.5-4.508,4.616,4.616,0,0,0,4.51-4.606,4.4,4.4,0,0,0-.023-.45L93.077,60.978ZM78.064,27.4v2.624a7.535,7.535,0,0,1-3.757,6.5l-.751.434.006,4.751,7.5,1.874L64.553,52.269V48.224a7.47,7.47,0,0,0-2.15-5.232l5.152-1.287V36.951l-.749-.433a7.527,7.527,0,0,1-3.755-6.493v-3a7.506,7.506,0,0,1,7.739-7.5,7.762,7.762,0,0,1,7.274,7.88ZM48.8,51.088l-6.8-2.172a18.539,18.539,0,0,0-9.62-.438l-.861.191v-.444a4.5,4.5,0,0,1,3.411-4.37l8.6-2.149V36.951l-.749-.433a7.527,7.527,0,0,1-3.755-6.493v-3a7.506,7.506,0,0,1,7.739-7.5,7.762,7.762,0,0,1,7.274,7.88v2.624a7.535,7.535,0,0,1-3.758,6.5l-.751.434.006,4.751,8.6,2.149a4.5,4.5,0,0,1,3.411,4.37V53.85l-.371.195h-.92l-9.23-2.637a9.463,9.463,0,0,0-2.228-.319Zm-16.94-28.62a16.5,16.5,0,0,1,29.29-.121,10.441,10.441,0,0,0-1.1,4.675v3a10.538,10.538,0,0,0,4.5,8.614v.721l-6,1.5-6.006-1.5V38.64a10.542,10.542,0,0,0,4.505-8.615V27.4A10.786,10.786,0,0,0,46.861,16.518a10.511,10.511,0,0,0-10.831,10.5v3a10.538,10.538,0,0,0,4.5,8.614v.721l-6,1.5-6.006-1.5V38.64a10.542,10.542,0,0,0,4.505-8.615V27.4a11.065,11.065,0,0,0-1.165-4.932Zm-6.9-9.079,4.8-4.8,4.222,2.747.808-.5a22.4,22.4,0,0,1,6.5-2.7l.924-.221L43.252,3h6.574l1.042,4.924.924.221a22.424,22.424,0,0,1,6.5,2.7l.808.5,4.222-2.747,4.79,4.792-1.7,3.987a10.493,10.493,0,0,0-3.169,2.107c-.062.06-.114.125-.174.186a19.5,19.5,0,0,0-33.111.09,10.589,10.589,0,0,0-3.312-2.348ZM19.516,41.706V36.951l-.749-.433a7.527,7.527,0,0,1-3.755-6.493v-3a7.506,7.506,0,0,1,7.739-7.5,7.762,7.762,0,0,1,7.274,7.88v2.624a7.535,7.535,0,0,1-3.758,6.5l-.751.434.006,4.751,5.151,1.287a7.47,7.47,0,0,0-2.15,5.232v1.112l-4.683,1.041.122-.425.057-2.775L16.1,42.559ZM3,39.032H4.1l10.8,6.3L9.446,67.12,3,64.972ZM15.256,69.057,12.3,68.073,17.593,46.9l3.424,2v.429L15.382,69.057Zm10.265,4.322a1.7,1.7,0,0,1,.493-1.19l2.639-2.639a1.684,1.684,0,0,1,2.381,2.381l-2.639,2.639a1.684,1.684,0,0,1-2.873-1.19Zm4.5,4.5a1.7,1.7,0,0,1,.493-1.19l2.639-2.639a1.684,1.684,0,0,1,2.381,2.381L32.9,79.073a1.684,1.684,0,0,1-2.873-1.19Zm4.5,4.5a1.7,1.7,0,0,1,.493-1.19l2.639-2.639a1.684,1.684,0,0,1,2.381,2.381L37.4,83.577a1.684,1.684,0,0,1-2.873-1.19Zm6.187,6.187a1.684,1.684,0,0,1-1.19-2.873l2.639-2.639a1.684,1.684,0,0,1,2.381,2.381l-2.639,2.639A1.7,1.7,0,0,1,40.715,88.573Zm7.26,1.5H47.7a1.556,1.556,0,0,1-1.034-.392l-1.123-.99,1.127-1.127a4.668,4.668,0,0,0,.946-1.395l1.365,1.136a1.566,1.566,0,0,1-1,2.769ZM61.438,76.563h-.259a1.611,1.611,0,0,1-1.033-.375L52,69.4l-1.923,2.308L57.987,78.3a1.567,1.567,0,0,1-1,2.769h-.328a1.566,1.566,0,0,1-1-.364L47.5,73.909l-1.923,2.308L53.482,82.8a1.565,1.565,0,0,1-1,2.766A2.479,2.479,0,0,1,50.9,85l-3.351-2.793a4.67,4.67,0,0,0-4.031-2.624,4.674,4.674,0,0,0-4.5-4.5,4.674,4.674,0,0,0-4.5-4.5,4.675,4.675,0,0,0-7.98-3.148l-2.639,2.639a4.626,4.626,0,0,0-.421.514l-4.611-2.767L22.9,53.664,33.036,51.41a15.465,15.465,0,0,1,8.055.364l2.212.707-7.5,3.749a5,5,0,0,0-2.777,4.5v.3a5.028,5.028,0,0,0,7.616,4.312l5.59-3.352a3.1,3.1,0,0,1,3.6.347L62.518,73.747a1.616,1.616,0,0,1-1.08,2.816ZM90.074,59.122,64.783,71.769c-.082-.087-.168-.17-.258-.251L51.843,60.1a6.041,6.041,0,0,0-7.155-.692L39.1,62.764a2.025,2.025,0,0,1-3.066-1.739v-.3a2.014,2.014,0,0,1,1.12-1.812l8.374-4.187A6.525,6.525,0,0,1,50.2,54.3l9.434,2.695,2.285.057L90.074,42.23Zm0,0" transform="translate(639.028 8784.028)"/>
  </g>
</svg>
