<svg xmlns="http://www.w3.org/2000/svg" width="156" height="156" viewBox="0 0 156 156">
  <g id="Grupo_26674" data-name="Grupo 26674" transform="translate(-804 -8751)">
    <g id="Elipse_997" data-name="Elipse 997" transform="translate(804 8751)" fill="#fff" stroke="#7d58bd" stroke-width="7">
      <circle cx="78" cy="78" r="78" stroke="none"/>
      <circle cx="78" cy="78" r="74.5" fill="none"/>
    </g>
    <g id="hiring" transform="translate(842 8789)">
      <path id="Trazado_21211" data-name="Trazado 21211" d="M149.119,221.119A5.124,5.124,0,0,0,154.238,216h-2.559a2.559,2.559,0,1,1-5.119,0H144A5.124,5.124,0,0,0,149.119,221.119Zm0,0" transform="translate(-120.965 -181.447)"/>
      <path id="Trazado_21212" data-name="Trazado 21212" d="M130.559,161.28a1.28,1.28,0,1,1-1.28-1.28A1.28,1.28,0,0,1,130.559,161.28Zm0,0" transform="translate(-107.524 -134.405)"/>
      <path id="Trazado_21213" data-name="Trazado 21213" d="M210.559,161.28a1.28,1.28,0,1,1-1.28-1.28A1.28,1.28,0,0,1,210.559,161.28Zm0,0" transform="translate(-174.727 -134.405)"/>
      <path id="Trazado_21214" data-name="Trazado 21214" d="M43.511,38.392V48.561l-6.4-2.133V42.843a14.1,14.1,0,0,0,4.593-7.087,6.384,6.384,0,0,0,5.645-6.322V19.2a19.2,19.2,0,0,0-38.392,0V29.434A6.384,6.384,0,0,0,14.6,35.756,14.1,14.1,0,0,0,19.2,42.843v3.584L6.125,50.786A8.944,8.944,0,0,0,0,59.283V71.665H43.511v7.678H79.343V46.82l-8.428-8.428Zm28.154,4.369,3.309,3.309H71.665ZM38.2,49.486l-1.951,9.749-6.117-4.37,6.051-6.051Zm3.982-16.432c.027-.352.054-.7.054-1.061V25.83a3.816,3.816,0,0,1-.054,7.224Zm-30.66-3.62a3.834,3.834,0,0,1,2.559-3.6v6.163c0,.358.027.709.054,1.061a3.833,3.833,0,0,1-2.613-3.62Zm2.805-6.294a6.331,6.331,0,0,0-2.805,1.208V19.2a16.637,16.637,0,1,1,33.273,0v5.152a6.33,6.33,0,0,0-2.805-1.208A7.03,7.03,0,0,0,30.97,19.325l-2.816,2.11-2.814-2.11A7.031,7.031,0,0,0,14.323,23.14Zm2.314,8.853V24.955A4.48,4.48,0,0,1,23.8,21.372l4.35,3.263,4.351-3.263a4.479,4.479,0,0,1,7.167,3.583v7.039a11.518,11.518,0,0,1-23.035,0ZM28.154,46.07a13.986,13.986,0,0,0,6.4-1.553v2.3l-6.4,6.4-6.4-6.4v-2.3A13.986,13.986,0,0,0,28.154,46.07ZM20.13,48.814l6.051,6.051-6.117,4.37-1.951-9.749ZM12.8,69.106V61.427H10.238v7.678H2.56V59.283a6.39,6.39,0,0,1,4.375-6.07l8.732-2.91L18.33,63.619,28.154,56.6l9.826,7.018L40.643,50.3l2.868.955V69.106ZM46.07,76.784V40.951H69.106V48.63h7.678V76.784Zm0,0" transform="translate(0 0)"/>
      <path id="Trazado_21215" data-name="Trazado 21215" d="M384,396.8h12.8V384H384Zm2.559-10.238h7.678v7.678h-7.678Zm0,0" transform="translate(-322.573 -322.573)"/>
      <path id="Trazado_21216" data-name="Trazado 21216" d="M304,448h10.238v2.559H304Zm0,0" transform="translate(-255.37 -376.335)"/>
      <path id="Trazado_21217" data-name="Trazado 21217" d="M304,416h10.238v2.559H304Zm0,0" transform="translate(-255.37 -349.454)"/>
      <path id="Trazado_21218" data-name="Trazado 21218" d="M304,384h10.238v2.559H304Zm0,0" transform="translate(-255.37 -322.573)"/>
      <path id="Trazado_21219" data-name="Trazado 21219" d="M304,272h2.559v2.559H304Zm0,0" transform="translate(-255.37 -228.489)"/>
      <path id="Trazado_21220" data-name="Trazado 21220" d="M336,272h12.8v2.559H336Zm0,0" transform="translate(-282.251 -228.489)"/>
      <path id="Trazado_21221" data-name="Trazado 21221" d="M304,304h17.916v2.559H304Zm0,0" transform="translate(-255.37 -255.37)"/>
      <path id="Trazado_21222" data-name="Trazado 21222" d="M448,336h2.559v2.559H448Zm0,0" transform="translate(-376.335 -282.251)"/>
      <path id="Trazado_21223" data-name="Trazado 21223" d="M304,336h20.476v2.559H304Zm0,0" transform="translate(-255.37 -282.251)"/>
      <path id="Trazado_21224" data-name="Trazado 21224" d="M334.077,76.154A14.055,14.055,0,0,0,345.53,53.921l2.288-2.5-1.887-1.73-2.083,2.271a14.07,14.07,0,1,0-9.77,24.188Zm0-25.595a11.473,11.473,0,0,1,8.045,3.29l-9.46,10.32L327.2,59.8l-1.6,2,7.333,5.867,10.823-11.807a11.507,11.507,0,1,1-9.676-5.3Zm0,0" transform="translate(-268.811 -40.322)"/>
    </g>
  </g>
</svg>
