<svg xmlns="http://www.w3.org/2000/svg" width="486.46" height="291.996" viewBox="0 0 486.46 291.996">
  <g id="Grupo_26183" data-name="Grupo 26183" transform="translate(-726.589 -102.828)">
    <path id="Trazado_20850" data-name="Trazado 20850" d="M1156.119,317.064c-5.342-12.81-23.67-20.5-22.494-35.351.542-6.839,5.21-12.272,8.362-18.417,7.413-14.45,13.668-37.195,2.3-51.374-14.558-18.163-48.651-16.12-70.154-24.4-11.661-4.494-21.137-12.062-29.935-19.823-6.4-5.64-12.657-11.526-20.485-15.755-16.07-8.681-38.157-9.035-54.622-.875-16.726,8.289-27.493,22.948-49.269,19.758-9.031-1.323-18.225-4.187-27.361-2.134-9.074,2.039-17.236,7.3-22.04,13.95-13.22,18.3,8.34,37.643-.677,56.538-6.723,14.09-26.1,19.366-36.9,30.75-8.7,9.165-10.754,20.824-8.087,32.042,5.376,22.609,9.671,46.662,19.931,68.161,11.264,23.6,44.855,23.825,71.1,23.851,39.876.038,81.185,2.588,120.733-1.367,30.858-3.087,66.788-10.392,92.416-25.609C1147.427,356.025,1164.285,336.644,1156.119,317.064Z" fill="#cdf5ff"/>
    <g id="Grupo_26173" data-name="Grupo 26173">
      <path id="Trazado_20851" data-name="Trazado 20851" d="M948.531,225s-.731,1.361-.469,2,1.293,2.472.8,4.063a1.413,1.413,0,0,1-1.814,1.134s-.373,2.042-1.066,1.927-4.174-3.145-3.945-4.531a11.346,11.346,0,0,1,2.315-4.842c.887-.775,1.779-1.407,1.779-1.407Z" fill="#fbb992"/>
      <path id="Trazado_20852" data-name="Trazado 20852" d="M977.287,234.794s28.385,6.308,31.818,7.122,1.832,5.468,1.832,5.468l-19.15,37.381-4.428-1.213,6.753-25.867,4.921-7.884-29.758,3.077s-9.309-.407-12.59-4.96,3.2-14.269,3.2-14.269Z" fill="#292951"/>
      <path id="Trazado_20853" data-name="Trazado 20853" d="M931.657,293.7l10.53-24.265,4.392-4.235s5.069-15.3,7.664-21.251a65.262,65.262,0,0,1,5.646-10.3l26.377,3.143-31.108,33.56-20.449,26.4Z" fill="#373462"/>
      <path id="Trazado_20854" data-name="Trazado 20854" d="M994.327,167.717c1.672.322,5.747.417,7.334,3.8s-.32,10.39-.32,10.39l1.407,4.085-1.874-.079s.208,4.908-1.384,5.3-5.668-1.714-5.668-1.714l-3.321,7.858-9.236-2.784,4.184-9.8s-1.806-9.667-.231-12.842S989.36,166.76,994.327,167.717Z" fill="#fbb992"/>
      <path id="Trazado_20855" data-name="Trazado 20855" d="M984.367,185.819l4.494-2.4,2.146-1.987,2.132.388.494-4.631s3.551.857,4.651-1.531a5.355,5.355,0,0,0,5.533-.426c2.065-1.547,2.952-2.959,1.94-6.046s-4.787-4.055-4.787-4.055-.8,1.148-3.382,1.1-8.266-1.069-10.582.108C978.1,170.864,984.367,185.819,984.367,185.819Z" fill="#373462"/>
      <path id="Trazado_20856" data-name="Trazado 20856" d="M988.839,195.086c.358-4.552-9.323-7.9-22.038-4.532s-10.974,2.858-12.056,4.253S943.1,225.155,943.1,225.155l6.091-.058s11.969-22.762,13.062-23.438,18.912-1.547,21.234-2.23S988.616,197.92,988.839,195.086Z" fill="#ea4444"/>
      <path id="Trazado_20857" data-name="Trazado 20857" d="M1021.168,197.846s1.164-1.015,1.143-1.7-.337-2.769.682-4.085a1.412,1.412,0,0,1,2.1-.421s1.07-1.779,1.678-1.427,2.8,4.415,2.092,5.631a11.345,11.345,0,0,1-3.874,3.714c-1.1.413-2.161.689-2.161.689Z" fill="#fbb992"/>
      <path id="Trazado_20858" data-name="Trazado 20858" d="M991.094,181.3c.209,1.246-.252,2.362-1.029,2.493s-1.578-.774-1.787-2.021.252-2.362,1.029-2.492S990.885,180.056,991.094,181.3Z" fill="#fbb992"/>
      <path id="Trazado_20859" data-name="Trazado 20859" d="M926.468,294.616l5.189,13.43,4.8,1.6-1.446-4.35-.305-8.546-3.052-3.052Z" fill="#231f20"/>
      <path id="Trazado_20860" data-name="Trazado 20860" d="M987.322,283.552l-3.788,2.057,7.74,7.495,8.766,1.561-4.5-4.305-3.751-5.6Z" fill="#231f20"/>
      <path id="Trazado_20861" data-name="Trazado 20861" d="M983.24,189.182c-2.215-.027-8.06,1.087-12.278,11.359a113.949,113.949,0,0,0-6.083,21.806l-9.819,19.5s2.308,1.868,11.706,2.552c9.152.666,19.277-7.005,19.277-7.005l4.391-18.171,4.2-9.7s-.439-12.39-3.753-15.95S985.454,189.209,983.24,189.182Z" fill="#fc5954"/>
      <path id="Trazado_20862" data-name="Trazado 20862" d="M982.113,191.45c-3.719,2.649-.072,12.222,10.676,19.806s9.237,6.577,11,6.511,21.292-16.7,21.292-16.7l-3.956-4.633s-15.683,11.583-16.9,11.178-13.33-13.5-15.344-14.846S984.429,189.8,982.113,191.45Z" fill="#fc5954"/>
    </g>
    <g id="Grupo_26174" data-name="Grupo 26174">
      <rect id="Rectángulo_4130" data-name="Rectángulo 4130" width="60.914" height="53.453" transform="translate(819.233 341.371)" fill="#80d0f2"/>
      <rect id="Rectángulo_4131" data-name="Rectángulo 4131" width="60.914" height="68.402" transform="translate(889.111 326.421)" fill="#80d0f2"/>
      <rect id="Rectángulo_4132" data-name="Rectángulo 4132" width="60.914" height="83.352" transform="translate(958.989 311.471)" fill="#80d0f2"/>
      <rect id="Rectángulo_4133" data-name="Rectángulo 4133" width="60.914" height="98.302" transform="translate(1028.867 296.522)" fill="#80d0f2"/>
      <rect id="Rectángulo_4134" data-name="Rectángulo 4134" width="60.914" height="113.252" transform="translate(1098.745 281.572)" fill="#80d0f2"/>
    </g>
    <path id="Trazado_20863" data-name="Trazado 20863" d="M840.521,210.075a6.459,6.459,0,0,0-5.248,2.693,9.143,9.143,0,0,0-16.462-4.67,13.96,13.96,0,0,0-26.413-1.592,9.147,9.147,0,0,0-14.874,5.545,6.461,6.461,0,0,0-9.586.315,9.153,9.153,0,0,0-17.295,4.184h96.352A6.474,6.474,0,0,0,840.521,210.075Z" fill="#cdf5ff"/>
    <path id="Trazado_20864" data-name="Trazado 20864" d="M975.758,120.345a5.505,5.505,0,0,1,4.474,2.3,7.8,7.8,0,0,1,14.035-3.982,11.9,11.9,0,0,1,22.518-1.357,7.8,7.8,0,0,1,12.68,4.728,5.509,5.509,0,0,1,8.173.268,7.8,7.8,0,0,1,14.744,3.567H970.239A5.52,5.52,0,0,1,975.758,120.345Z" fill="#cdf5ff"/>
    <g id="Grupo_26176" data-name="Grupo 26176">
      <circle id="Elipse_975" data-name="Elipse 975" cx="40.253" cy="40.253" r="40.253" transform="translate(1062.366 107.952)" fill="#86c8fa"/>
      <path id="Trazado_20865" data-name="Trazado 20865" d="M1102.619,107.952a40.055,40.055,0,0,0-20.443,5.58c-5.5,11.841-.768,29.381,12.483,42.632s30.791,17.983,42.632,12.483a40.248,40.248,0,0,0-34.672-60.695Z" fill="#fff" opacity="0.2"/>
      <circle id="Elipse_976" data-name="Elipse 976" cx="32.086" cy="32.086" r="32.086" transform="translate(1057.242 148.205) rotate(-45)" fill="#2e6c91"/>
      <g id="Grupo_26175" data-name="Grupo 26175">
        <circle id="Elipse_977" data-name="Elipse 977" cx="28.846" cy="28.846" r="28.846" transform="translate(1073.87 119.588)" fill="#fff"/>
        <path id="Trazado_20866" data-name="Trazado 20866" d="M1083.381,127.03a28.845,28.845,0,0,0,40.741,40.74,28.845,28.845,0,1,1-40.741-40.74Z" fill="#231f20" opacity="0.2"/>
        <path id="Trazado_20867" data-name="Trazado 20867" d="M1102.829,119.588a28.845,28.845,0,0,1,21.424,48.16c-.868-.4-1.7-.8-2.469-1.2-9.606-4.947-16.08-13.594-21.589-22.632-3.851-6.317-7.407-12.976-9.235-20.191-.117-.461-.229-.94-.339-1.427A28.726,28.726,0,0,1,1102.829,119.588Z" fill="#fff" opacity="0.5"/>
        <rect id="Rectángulo_4135" data-name="Rectángulo 4135" width="9.763" height="2.219" transform="translate(1073.983 147.251)" fill="#373462"/>
        <rect id="Rectángulo_4136" data-name="Rectángulo 4136" width="5.388" height="0.929" transform="matrix(0.866, -0.5, 0.5, 0.866, 1077.578, 162.392)" fill="#373462"/>
        <rect id="Rectángulo_4137" data-name="Rectángulo 4137" width="5.388" height="0.929" transform="translate(1087.939 173.148) rotate(-60.001)" fill="#373462"/>
        <rect id="Rectángulo_4138" data-name="Rectángulo 4138" width="5.388" height="0.929" transform="translate(1102.291 177.281) rotate(-90)" fill="#373462"/>
        <rect id="Rectángulo_4139" data-name="Rectángulo 4139" width="5.388" height="0.929" transform="translate(1116.786 173.686) rotate(-120)" fill="#373462"/>
        <rect id="Rectángulo_4140" data-name="Rectángulo 4140" width="5.388" height="0.929" transform="matrix(-0.866, -0.5, 0.5, -0.866, 1127.542, 163.324)" fill="#373462"/>
        <rect id="Rectángulo_4141" data-name="Rectángulo 4141" width="5.388" height="0.929" transform="translate(1131.675 148.973) rotate(180)" fill="#373462"/>
        <rect id="Rectángulo_4142" data-name="Rectángulo 4142" width="5.388" height="0.929" transform="matrix(-0.866, 0.5, -0.5, -0.866, 1128.08, 134.478)" fill="#373462"/>
        <rect id="Rectángulo_4143" data-name="Rectángulo 4143" width="5.388" height="0.929" transform="matrix(-0.5, 0.866, -0.866, -0.5, 1117.719, 123.722)" fill="#373462"/>
        <rect id="Rectángulo_4144" data-name="Rectángulo 4144" width="5.388" height="0.929" transform="translate(1103.367 119.588) rotate(90)" fill="#373462"/>
        <rect id="Rectángulo_4145" data-name="Rectángulo 4145" width="5.388" height="0.929" transform="matrix(0.5, 0.866, -0.866, 0.5, 1088.872, 123.184)" fill="#373462"/>
        <rect id="Rectángulo_4146" data-name="Rectángulo 4146" width="5.388" height="0.929" transform="matrix(0.866, 0.5, -0.5, 0.866, 1078.116, 133.545)" fill="#373462"/>
        <rect id="Rectángulo_4147" data-name="Rectángulo 4147" width="9.763" height="2.219" transform="translate(1121.912 147.251)" fill="#373462"/>
        <rect id="Rectángulo_4148" data-name="Rectángulo 4148" width="9.763" height="2.219" transform="translate(1101.719 177.207) rotate(-90)" fill="#373462"/>
        <rect id="Rectángulo_4149" data-name="Rectángulo 4149" width="9.764" height="2.219" transform="translate(1101.719 129.278) rotate(-90)" fill="#373462"/>
        <path id="Trazado_20868" data-name="Trazado 20868" d="M1102.834,125.761l2.828,4.314-2.828,18.36-3-18.36Z" fill="#2e6c91"/>
        <path id="Trazado_20869" data-name="Trazado 20869" d="M1085.981,148.457l3.2-2.1,13.63,2.1-13.63,2.228Z" fill="#2e6c91"/>
        <path id="Trazado_20870" data-name="Trazado 20870" d="M1105.647,148.435a2.818,2.818,0,1,1-2.818-2.818A2.817,2.817,0,0,1,1105.647,148.435Z" fill="#373462"/>
      </g>
    </g>
    <rect id="Rectángulo_4150" data-name="Rectángulo 4150" width="9.086" height="53.453" transform="translate(880.147 341.371)" fill="#4582ae"/>
    <rect id="Rectángulo_4151" data-name="Rectángulo 4151" width="9.086" height="68.402" transform="translate(950.048 326.421)" fill="#4582ae"/>
    <rect id="Rectángulo_4152" data-name="Rectángulo 4152" width="9.086" height="83.352" transform="translate(1019.781 311.471)" fill="#4582ae"/>
    <rect id="Rectángulo_4153" data-name="Rectángulo 4153" width="9.086" height="98.302" transform="translate(1089.781 296.522)" fill="#4582ae"/>
    <rect id="Rectángulo_4154" data-name="Rectángulo 4154" width="9.086" height="113.252" transform="translate(1159.659 281.572)" fill="#4582ae"/>
    <g id="Grupo_26178" data-name="Grupo 26178">
      <g id="Grupo_26177" data-name="Grupo 26177">
        <path id="Trazado_20871" data-name="Trazado 20871" d="M932.416,166.494V155.657l-10.838-1.869v.345a25.367,25.367,0,0,0-2.286-5.519l.244.244,6.342-8.984-7.663-7.664-8.985,6.342.244.245a25.372,25.372,0,0,0-5.519-2.287h.345l-1.868-10.837H891.594l-1.869,10.837h.346a25.378,25.378,0,0,0-5.52,2.287l.244-.245-8.984-6.342-7.663,7.664,6.342,8.984.244-.244a25.367,25.367,0,0,0-2.286,5.519v-.345l-10.838,1.869v10.837l10.838,1.869v-.345a25.367,25.367,0,0,0,2.286,5.519l-.244-.244-6.342,8.984,7.663,7.664,8.984-6.342-.244-.245a25.378,25.378,0,0,0,5.52,2.287h-.346l1.869,10.837h10.838l1.868-10.837h-.345a25.372,25.372,0,0,0,5.519-2.287l-.244.245,8.985,6.342,7.663-7.664-6.342-8.984-.244.244a25.367,25.367,0,0,0,2.286-5.519v.345Z" fill="#4582ae"/>
        <path id="Trazado_20872" data-name="Trazado 20872" d="M932.412,166.494V155.657l-10.838-1.869v.345a25.367,25.367,0,0,0-2.286-5.519l.244.244,6.342-8.984-7.663-7.664-8.985,6.342.245.245a25.379,25.379,0,0,0-5.52-2.287h.346l-1.869-10.837H891.59l-1.868,10.837h.345a25.351,25.351,0,0,0-5.519,2.287l.244-.245-7.434-5.247c-2.306,10.609,2.4,24.3,13.085,34.983,10.629,10.629,24.231,15.34,34.817,13.118l-5.728-8.113-.244.244a25.367,25.367,0,0,0,2.286-5.519v.345Z" fill="#fff" opacity="0.2"/>
        <circle id="Elipse_978" data-name="Elipse 978" cx="20.423" cy="20.423" r="20.423" transform="translate(873.582 177.963) rotate(-80.783)" fill="#86c8fa"/>
        <path id="Trazado_20873" data-name="Trazado 20873" d="M897.013,140.653a20.315,20.315,0,0,0-10.372,2.831c-2.791,6.008-.39,14.907,6.333,21.63s15.623,9.124,21.63,6.333a20.419,20.419,0,0,0-17.591-30.794Z" fill="#fff" opacity="0.2"/>
        <circle id="Elipse_979" data-name="Elipse 979" cx="15.052" cy="15.052" r="15.052" transform="translate(881.961 146.023)" fill="#2e6c91"/>
        <circle id="Elipse_980" data-name="Elipse 980" cx="13.487" cy="13.487" r="13.487" transform="translate(879.391 153.777) rotate(-22.5)" fill="#fff"/>
      </g>
      <path id="Trazado_20874" data-name="Trazado 20874" d="M850.806,161.075a46.207,46.207,0,0,1,46.207-46.206" fill="none" stroke="#86c8fa" stroke-miterlimit="10" stroke-width="2"/>
      <path id="Trazado_20875" data-name="Trazado 20875" d="M845.806,147.2c0-16.512,23.306-37.333,37.333-37.333" fill="none" stroke="#86c8fa" stroke-miterlimit="10" stroke-width="2"/>
    </g>
    <g id="Grupo_26180" data-name="Grupo 26180">
      <g id="Grupo_26179" data-name="Grupo 26179">
        <path id="Trazado_20876" data-name="Trazado 20876" d="M822.289,265.538l-13.334-5.144-7.442,12.448.424.163a33.458,33.458,0,0,0-7.876.194l.417-.185-8.044-12.067-13.066,5.791,3.539,14.065.416-.185a33.468,33.468,0,0,0-5.433,5.706l.164-.425-14.221-2.845-5.143,13.334,12.447,7.443.164-.425a33.453,33.453,0,0,0,.193,7.876l-.185-.416-12.067,8.044,5.792,13.065,14.064-3.538-.185-.417a33.392,33.392,0,0,0,5.706,5.433l-.425-.164-2.845,14.221,13.335,5.144,7.442-12.447-.424-.164a33.46,33.46,0,0,0,7.876-.194l-.417.185,8.044,12.067,13.066-5.791-3.539-14.064-.417.184a33.392,33.392,0,0,0,5.433-5.706l-.164.425,14.221,2.845,5.144-13.334L832.5,309.217l-.164.425a33.46,33.46,0,0,0-.193-7.876l.184.416,12.068-8.044L838.6,281.073l-14.064,3.538.185.417a33.467,33.467,0,0,0-5.706-5.433l.425.164Z" fill="#45abae"/>
        <path id="Trazado_20877" data-name="Trazado 20877" d="M822.288,265.543,808.954,260.4l-7.443,12.447.425.164a33.466,33.466,0,0,0-7.877.193l.417-.184-8.044-12.068-13.066,5.792,3.539,14.064.417-.185a33.466,33.466,0,0,0-5.433,5.706l.164-.425-14.221-2.844-5.144,13.334,12.447,7.442.164-.424a33.457,33.457,0,0,0,.193,7.876l-.184-.417-9.984,6.655c11.958,7.873,31.035,8.58,49.252.505C822.7,310,834.95,295.5,837.24,281.42l-12.7,3.2.185.416a33.424,33.424,0,0,0-5.706-5.432l.425.163Z" fill="#fff" opacity="0.2"/>
        <circle id="Elipse_981" data-name="Elipse 981" cx="26.932" cy="26.932" r="26.932" transform="translate(761.246 312.764) rotate(-54.429)" fill="#a9dee7"/>
        <path id="Trazado_20878" data-name="Trazado 20878" d="M773.692,296.831a26.809,26.809,0,0,0-1.439,14.105c6.067,6.284,18.155,7.555,29.618,2.474s18.641-14.891,18.059-23.607a26.93,26.93,0,0,0-46.238,7.028Z" fill="#fff" opacity="0.2"/>
        <circle id="Elipse_982" data-name="Elipse 982" cx="19.85" cy="19.85" r="19.85" transform="matrix(0.483, -0.876, 0.876, 0.483, 771.853, 314.324)" fill="#2e9190"/>
        <circle id="Elipse_983" data-name="Elipse 983" cx="17.785" cy="17.785" r="17.785" transform="matrix(0.997, -0.072, 0.072, 0.997, 779.799, 290.066)" fill="#fff"/>
      </g>
      <path id="Trazado_20879" data-name="Trazado 20879" d="M776.889,363.374a60.933,60.933,0,0,1-34.92-78.78" fill="none" stroke="#a9dee7" stroke-miterlimit="10" stroke-width="2"/>
      <path id="Trazado_20880" data-name="Trazado 20880" d="M757.447,362.941c-20.317-7.837-34.872-46.392-28.214-63.651" fill="none" stroke="#a9dee7" stroke-miterlimit="10" stroke-width="2"/>
    </g>
    <g id="Grupo_26182" data-name="Grupo 26182">
      <g id="Grupo_26181" data-name="Grupo 26181">
        <path id="Trazado_20881" data-name="Trazado 20881" d="M1155.424,277.429h10.838l1.868-10.837h-.345a25.369,25.369,0,0,0,5.519-2.287l-.244.245,8.985,6.342,7.663-7.664-6.342-8.984-.244.244a25.365,25.365,0,0,0,2.286-5.519v.345l10.838-1.869V236.608l-10.838-1.869v.345a25.385,25.385,0,0,0-2.286-5.519l.244.244,6.342-8.984-7.663-7.664-8.985,6.342.244.245a25.349,25.349,0,0,0-5.519-2.287h.345l-1.868-10.837h-10.838l-1.869,10.837h.346a25.381,25.381,0,0,0-5.52,2.287l.244-.245-8.984-6.342-7.663,7.664,6.342,8.984.244-.244a25.4,25.4,0,0,0-2.286,5.519v-.345l-10.838,1.869v10.837l10.838,1.869v-.345a25.377,25.377,0,0,0,2.286,5.519l-.244-.244-6.342,8.984,7.663,7.664,8.984-6.342-.244-.245a25.381,25.381,0,0,0,5.52,2.287h-.346Z" fill="#6675b8"/>
        <path id="Trazado_20882" data-name="Trazado 20882" d="M1155.424,277.426h10.838l1.868-10.838h-.345a25.366,25.366,0,0,0,5.519-2.286l-.244.244,8.985,6.342,7.663-7.663-6.342-8.985-.244.245a25.372,25.372,0,0,0,2.286-5.52v.345l10.838-1.868V236.6l-10.838-1.868v.345a25.372,25.372,0,0,0-2.286-5.52l.244.245,5.247-7.434c-10.609-2.306-24.3,2.4-34.983,13.085-10.629,10.629-15.34,24.231-13.118,34.816l8.113-5.727-.244-.244a25.378,25.378,0,0,0,5.52,2.286h-.346Z" fill="#fff" opacity="0.2"/>
        <circle id="Elipse_984" data-name="Elipse 984" cx="20.423" cy="20.423" r="20.423" transform="translate(1140.42 221.604)" fill="#a1add8"/>
        <path id="Trazado_20883" data-name="Trazado 20883" d="M1181.266,242.027a20.316,20.316,0,0,0-2.832-10.372c-6.007-2.791-14.906-.39-21.63,6.333s-9.124,15.623-6.333,21.63a20.421,20.421,0,0,0,30.8-17.591Z" fill="#fff" opacity="0.2"/>
        <circle id="Elipse_985" data-name="Elipse 985" cx="15.052" cy="15.052" r="15.052" transform="translate(1145.791 226.974)" fill="#4a66a1"/>
        <circle id="Elipse_986" data-name="Elipse 986" cx="13.487" cy="13.487" r="13.487" transform="translate(1147.356 228.54)" fill="#fff"/>
      </g>
      <path id="Trazado_20884" data-name="Trazado 20884" d="M1160.843,195.82a46.207,46.207,0,0,1,46.206,46.207" fill="none" stroke="#a1add8" stroke-miterlimit="10" stroke-width="2"/>
      <path id="Trazado_20885" data-name="Trazado 20885" d="M1174.716,190.82c16.513,0,37.333,23.3,37.333,37.333" fill="none" stroke="#a1add8" stroke-miterlimit="10" stroke-width="2"/>
    </g>
  </g>
</svg>
