<svg xmlns="http://www.w3.org/2000/svg" width="940" height="412" viewBox="0 0 940 412">
  <g id="Grupo_26222" data-name="Grupo 26222" transform="translate(-746 -4)">
    <path id="Trazado_20989" data-name="Trazado 20989" d="M0,0H938V78H0Z" transform="translate(747 4)" fill="#4d3189"/>
    <path id="Trazado_20990" data-name="Trazado 20990" d="M0,0H594V73H0Z" transform="translate(941 132)" fill="#eef2f9"/>
    <path id="Trazado_20991" data-name="Trazado 20991" d="M0,0H151V73H0Z" transform="translate(1535 132)" fill="#7d58bd"/>
    <path id="Trazado_20992" data-name="Trazado 20992" d="M31.543,19.2a4.4,4.4,0,0,1-3.794-1.826,9.225,9.225,0,0,1-1.323-5.43,9.224,9.224,0,0,1,1.318-5.43,4.406,4.406,0,0,1,3.8-1.816A4.4,4.4,0,0,1,35.332,6.51a9.224,9.224,0,0,1,1.318,5.43,9.225,9.225,0,0,1-1.323,5.43A4.391,4.391,0,0,1,31.543,19.2Zm0-2.539A1.855,1.855,0,0,0,33.237,15.5a8.057,8.057,0,0,0,.6-3.56,8,8,0,0,0-.605-3.56,1.859,1.859,0,0,0-1.689-1.157q-2.3,0-2.3,4.717T31.543,16.656ZM43.086,4.889h2.676V19h-2.8V7.779L39.717,10.8V7.906Z" transform="translate(941 157)" fill="#002b45"/>
    <path id="Trazado_20993" data-name="Trazado 20993" d="M30.434,15.6h6.161V17h-8.35V15.849L33.2,10.725a5.872,5.872,0,0,0,1.116-1.468,2.928,2.928,0,0,0,.308-1.274A2.136,2.136,0,0,0,34,6.343a2.548,2.548,0,0,0-3.309.053,2.741,2.741,0,0,0-.628,1.991V9.3L28.544,9.16V8.4a3.912,3.912,0,0,1,1.046-2.94A3.842,3.842,0,0,1,32.385,4.44a3.873,3.873,0,0,1,2.685.94,3.27,3.27,0,0,1,1.05,2.566A3.892,3.892,0,0,1,35.7,9.736a7.689,7.689,0,0,1-1.34,1.78Zm12.05,1.564q-4.122,0-4.122-4.4l1.547-.079a3.864,3.864,0,0,0,.58,2.329,2.339,2.339,0,0,0,2,.773,2.742,2.742,0,0,0,1.92-.668,2.254,2.254,0,0,0,.734-1.749,2.232,2.232,0,0,0-.708-1.74,2.537,2.537,0,0,0-1.771-.642h-.615V9.7h.6A1.831,1.831,0,0,0,44,9.125a1.927,1.927,0,0,0,.563-1.406,1.733,1.733,0,0,0-.6-1.362,2.188,2.188,0,0,0-1.5-.527,2.392,2.392,0,0,0-.989.185,1.388,1.388,0,0,0-.628.541,2.548,2.548,0,0,0-.316.787,4.611,4.611,0,0,0-.1,1L38.88,8.29a4.007,4.007,0,0,1,.927-2.839,3.436,3.436,0,0,1,2.641-.993,3.669,3.669,0,0,1,2.536.905A2.893,2.893,0,0,1,46,7.613a2.71,2.71,0,0,1-.492,1.608,2.812,2.812,0,0,1-1.239,1,3.421,3.421,0,0,1,1.74,1.134,3.179,3.179,0,0,1,.677,2.083,3.4,3.4,0,0,1-1.182,2.7A4.434,4.434,0,0,1,42.483,17.167Z" transform="translate(941 230)" fill="#00223d"/>
    <path id="Trazado_20994" data-name="Trazado 20994" d="M32.525,4.625h1.424V17h-1.5V6.286L29.476,8.861V7.235ZM42.571,17.167a3.447,3.447,0,0,1-3.05-1.617A8.623,8.623,0,0,1,38.449,10.8a8.662,8.662,0,0,1,1.059-4.737,3.705,3.705,0,0,1,6.113,0A8.637,8.637,0,0,1,46.685,10.8a8.6,8.6,0,0,1-1.077,4.742A3.44,3.44,0,0,1,42.571,17.167Zm0-1.406A2.093,2.093,0,0,0,44.5,14.521a8.08,8.08,0,0,0,.668-3.718,7.851,7.851,0,0,0-.681-3.713,2.115,2.115,0,0,0-3.828,0,7.891,7.891,0,0,0-.677,3.718,8.122,8.122,0,0,0,.664,3.722A2.091,2.091,0,0,0,42.571,15.761Z" transform="translate(1015 230)" fill="#00223d"/>
    <path id="Trazado_20995" data-name="Trazado 20995" d="M31.025,4.625h1.424V17h-1.5V6.286L27.976,8.861V7.235Zm9.756,4.412a4.8,4.8,0,0,1,3.375,1.042,3.778,3.778,0,0,1,1.116,2.9,4.107,4.107,0,0,1-1.147,3.01,4.026,4.026,0,0,1-3,1.165,4.769,4.769,0,0,1-1.551-.25,4.19,4.19,0,0,1-1.31-.721,3.3,3.3,0,0,1-.914-1.217,4,4,0,0,1-.338-1.67,5.645,5.645,0,0,1,.044-.633l1.556-.132a6.186,6.186,0,0,0-.07.694,2.794,2.794,0,0,0,.224,1.151,1.968,1.968,0,0,0,.6.787,2.738,2.738,0,0,0,.813.426,2.968,2.968,0,0,0,.918.141,2.538,2.538,0,0,0,1.92-.756,2.69,2.69,0,0,0,.725-1.942,2.559,2.559,0,0,0-.751-1.951,3.368,3.368,0,0,0-2.377-.712H37.485l.765-5.73h6.486V6.058h-5.2l-.4,2.979Z" transform="translate(1090 230)" fill="#00223d"/>
    <path id="Trazado_20996" data-name="Trazado 20996" d="M36.714,9.037a4.8,4.8,0,0,1,3.375,1.042,3.778,3.778,0,0,1,1.116,2.9,4.107,4.107,0,0,1-1.147,3.01,4.026,4.026,0,0,1-3,1.165,4.769,4.769,0,0,1-1.551-.25,4.19,4.19,0,0,1-1.31-.721,3.3,3.3,0,0,1-.914-1.217,4,4,0,0,1-.338-1.67,5.645,5.645,0,0,1,.044-.633l1.556-.132a6.186,6.186,0,0,0-.07.694,2.794,2.794,0,0,0,.224,1.151,1.968,1.968,0,0,0,.6.787,2.738,2.738,0,0,0,.813.426,2.968,2.968,0,0,0,.918.141,2.538,2.538,0,0,0,1.92-.756,2.69,2.69,0,0,0,.725-1.942,2.559,2.559,0,0,0-.751-1.951,3.368,3.368,0,0,0-2.377-.712H33.418l.765-5.73h6.486V6.058h-5.2l-.4,2.979Z" transform="translate(1164 230)" fill="#00223d"/>
    <path id="Trazado_20997" data-name="Trazado 20997" d="M33.294,4.625h8.464V5.9L35.711,17h-1.74l6.1-10.969H33.294Z" transform="translate(1238 230)" fill="#00223d"/>
    <path id="Trazado_20998" data-name="Trazado 20998" d="M33.025,4.625h1.424V17h-1.5V6.286L29.976,8.861V7.235ZM43.071,17.167a3.447,3.447,0,0,1-3.05-1.617A8.623,8.623,0,0,1,38.949,10.8a8.662,8.662,0,0,1,1.059-4.737,3.705,3.705,0,0,1,6.113,0A8.637,8.637,0,0,1,47.185,10.8a8.6,8.6,0,0,1-1.077,4.742A3.44,3.44,0,0,1,43.071,17.167Zm0-1.406A2.093,2.093,0,0,0,45,14.521a8.08,8.08,0,0,0,.668-3.718,7.851,7.851,0,0,0-.681-3.713,2.115,2.115,0,0,0-3.828,0,7.891,7.891,0,0,0-.677,3.718,8.122,8.122,0,0,0,.664,3.722A2.091,2.091,0,0,0,43.071,15.761Z" transform="translate(1312 230)" fill="#00223d"/>
    <path id="Trazado_20999" data-name="Trazado 20999" d="M30.434,15.6h6.161V17h-8.35V15.849L33.2,10.725a5.872,5.872,0,0,0,1.116-1.468,2.928,2.928,0,0,0,.308-1.274A2.136,2.136,0,0,0,34,6.343a2.548,2.548,0,0,0-3.309.053,2.741,2.741,0,0,0-.628,1.991V9.3L28.544,9.16V8.4a3.912,3.912,0,0,1,1.046-2.94A3.842,3.842,0,0,1,32.385,4.44a3.873,3.873,0,0,1,2.685.94,3.27,3.27,0,0,1,1.05,2.566A3.892,3.892,0,0,1,35.7,9.736a7.689,7.689,0,0,1-1.34,1.78Zm12.05,1.564q-4.122,0-4.122-4.4l1.547-.079a3.864,3.864,0,0,0,.58,2.329,2.339,2.339,0,0,0,2,.773,2.742,2.742,0,0,0,1.92-.668,2.254,2.254,0,0,0,.734-1.749,2.232,2.232,0,0,0-.708-1.74,2.537,2.537,0,0,0-1.771-.642h-.615V9.7h.6A1.831,1.831,0,0,0,44,9.125a1.927,1.927,0,0,0,.563-1.406,1.733,1.733,0,0,0-.6-1.362,2.188,2.188,0,0,0-1.5-.527,2.392,2.392,0,0,0-.989.185,1.388,1.388,0,0,0-.628.541,2.548,2.548,0,0,0-.316.787,4.611,4.611,0,0,0-.1,1L38.88,8.29a4.007,4.007,0,0,1,.927-2.839,3.436,3.436,0,0,1,2.641-.993,3.669,3.669,0,0,1,2.536.905A2.893,2.893,0,0,1,46,7.613a2.71,2.71,0,0,1-.492,1.608,2.812,2.812,0,0,1-1.239,1,3.421,3.421,0,0,1,1.74,1.134,3.179,3.179,0,0,1,.677,2.083,3.4,3.4,0,0,1-1.182,2.7A4.434,4.434,0,0,1,42.483,17.167Z" transform="translate(1386 230)" fill="#00223d"/>
    <path id="Trazado_21000" data-name="Trazado 21000" d="M32.525,4.625h1.424V17h-1.5V6.286L29.476,8.861V7.235ZM40.567,15.6h6.161V17h-8.35V15.849l4.957-5.124a5.872,5.872,0,0,0,1.116-1.468,2.928,2.928,0,0,0,.308-1.274,2.136,2.136,0,0,0-.624-1.639,2.548,2.548,0,0,0-3.309.053A2.741,2.741,0,0,0,40.2,8.387V9.3L38.678,9.16V8.4a3.912,3.912,0,0,1,1.046-2.94,4.33,4.33,0,0,1,5.48-.075,3.27,3.27,0,0,1,1.05,2.566,3.892,3.892,0,0,1-.417,1.789,7.689,7.689,0,0,1-1.34,1.78Z" transform="translate(1460 230)" fill="#00223d"/>
    <path id="Trazado_21001" data-name="Trazado 21001" d="M69.672,14.741h5.414V17H66.13V15.093l5.054-5.159a3.18,3.18,0,0,0,1.1-2.188,1.548,1.548,0,0,0-.453-1.178,1.782,1.782,0,0,0-1.279-.431q-1.8,0-1.8,2.048v.94L66.227,8.87V8.237a3.961,3.961,0,0,1,1.16-3.054,4.443,4.443,0,0,1,3.146-1.077,4.655,4.655,0,0,1,3.063.976,3.288,3.288,0,0,1,1.182,2.681,3.8,3.8,0,0,1-.4,1.74,7.274,7.274,0,0,1-1.27,1.7Zm11.681,2.435a4.557,4.557,0,0,1-3.463-1.16,5.031,5.031,0,0,1-1.09-3.551l2.593-.114a9.181,9.181,0,0,0,.04.932A3.22,3.22,0,0,0,79.59,14a1.29,1.29,0,0,0,.334.541,1.517,1.517,0,0,0,.571.312,2.823,2.823,0,0,0,.857.114,2.059,2.059,0,0,0,1.5-.51,1.782,1.782,0,0,0,.523-1.336,1.8,1.8,0,0,0-.5-1.375,1.885,1.885,0,0,0-1.345-.47h-.492V9.31h.457a1.374,1.374,0,0,0,1.05-.448,1.6,1.6,0,0,0,.417-1.134A1.278,1.278,0,0,0,82.5,6.673,1.858,1.858,0,0,0,81.3,6.3a1.8,1.8,0,0,0-.686.119,1.279,1.279,0,0,0-.461.3,1.341,1.341,0,0,0-.272.466,2.448,2.448,0,0,0-.132.554,5.529,5.529,0,0,0-.031.615L77.16,8.237a4.066,4.066,0,0,1,1.09-3.054,4.156,4.156,0,0,1,3.023-1.059,4.322,4.322,0,0,1,2.9.971,3.042,3.042,0,0,1,1.143,2.413,2.746,2.746,0,0,1-.488,1.635,2.793,2.793,0,0,1-1.112.967,3.13,3.13,0,0,1,.809.36,3.315,3.315,0,0,1,.708.606,2.706,2.706,0,0,1,.523.923,3.713,3.713,0,0,1,.193,1.23,3.589,3.589,0,0,1-1.257,2.87A4.958,4.958,0,0,1,81.353,17.176Z" transform="translate(1534 230)" fill="#00223d"/>
    <path id="Trazado_21002" data-name="Trazado 21002" d="M32.525,4.625h1.424V17h-1.5V6.286L29.476,8.861V7.235ZM42.571,17.167a3.447,3.447,0,0,1-3.05-1.617A8.623,8.623,0,0,1,38.449,10.8a8.662,8.662,0,0,1,1.059-4.737,3.705,3.705,0,0,1,6.113,0A8.637,8.637,0,0,1,46.685,10.8a8.6,8.6,0,0,1-1.077,4.742A3.44,3.44,0,0,1,42.571,17.167Zm0-1.406A2.093,2.093,0,0,0,44.5,14.521a8.08,8.08,0,0,0,.668-3.718,7.851,7.851,0,0,0-.681-3.713,2.115,2.115,0,0,0-3.828,0,7.891,7.891,0,0,0-.677,3.718,8.122,8.122,0,0,0,.664,3.722A2.091,2.091,0,0,0,42.571,15.761Z" transform="translate(941 301)" fill="#00223d"/>
    <path id="Trazado_21003" data-name="Trazado 21003" d="M32.025,4.625h1.424V17h-1.5V6.286L28.976,8.861V7.235Zm10.134,0h1.424V17h-1.5V6.286L39.109,8.861V7.235Z" transform="translate(1016 301)" fill="#00223d"/>
    <path id="Trazado_21004" data-name="Trazado 21004" d="M35.917,17.167q-4.122,0-4.122-4.4l1.547-.079a3.864,3.864,0,0,0,.58,2.329,2.339,2.339,0,0,0,2,.773,2.742,2.742,0,0,0,1.92-.668,2.254,2.254,0,0,0,.734-1.749,2.232,2.232,0,0,0-.708-1.74,2.537,2.537,0,0,0-1.771-.642h-.615V9.7h.6a1.831,1.831,0,0,0,1.354-.571,1.927,1.927,0,0,0,.563-1.406,1.733,1.733,0,0,0-.6-1.362,2.188,2.188,0,0,0-1.5-.527,2.392,2.392,0,0,0-.989.185,1.388,1.388,0,0,0-.628.541,2.548,2.548,0,0,0-.316.787,4.611,4.611,0,0,0-.1,1L32.313,8.29a4.007,4.007,0,0,1,.927-2.839,3.436,3.436,0,0,1,2.641-.993,3.669,3.669,0,0,1,2.536.905,2.893,2.893,0,0,1,1.015,2.25,2.71,2.71,0,0,1-.492,1.608,2.812,2.812,0,0,1-1.239,1,3.421,3.421,0,0,1,1.74,1.134,3.179,3.179,0,0,1,.677,2.083,3.4,3.4,0,0,1-1.182,2.7A4.434,4.434,0,0,1,35.917,17.167Z" transform="translate(1090 301)" fill="#00223d"/>
    <path id="Trazado_21005" data-name="Trazado 21005" d="M41.276,12.878a4.176,4.176,0,0,1-.562,2.224,3.974,3.974,0,0,1-1.556,1.512,4.437,4.437,0,0,1-2.145.527,4.32,4.32,0,0,1-3.076-1.165,3.934,3.934,0,0,1-1.239-3A4.873,4.873,0,0,1,33.77,10l4.14-5.379H39.7L36.266,8.958a3.853,3.853,0,0,1,1.072-.149,3.933,3.933,0,0,1,1.9.475,3.8,3.8,0,0,1,1.45,1.419A4.242,4.242,0,0,1,41.276,12.878Zm-4.3,2.848a2.688,2.688,0,0,0,2.813-2.874A2.719,2.719,0,0,0,36.952,10a2.66,2.66,0,0,0-2.021.848,2.842,2.842,0,0,0-.782,2.07,2.739,2.739,0,0,0,.8,2.065A2.834,2.834,0,0,0,36.978,15.726Z" transform="translate(1164 301)" fill="#00223d"/>
    <path id="Trazado_21006" data-name="Trazado 21006" d="M37.478,4.484A4.324,4.324,0,0,1,40.55,5.649a3.927,3.927,0,0,1,1.244,3,4.873,4.873,0,0,1-1.081,2.971L36.573,17H34.753l3.419-4.307a3.992,3.992,0,0,1-1.037.132,3.8,3.8,0,0,1-3.331-1.9,4.225,4.225,0,0,1-.589-2.167,4.445,4.445,0,0,1,.321-1.745,3.84,3.84,0,0,1,.91-1.354A4.235,4.235,0,0,1,35.813,4.8,4.476,4.476,0,0,1,37.478,4.484Zm-1.964,6.372a2.805,2.805,0,0,0,2.026.773,2.646,2.646,0,0,0,2.017-.848,2.85,2.85,0,0,0,.778-2.07,2.763,2.763,0,0,0-.8-2.057,3.066,3.066,0,0,0-4.056.04,2.733,2.733,0,0,0-.787,2.087A2.8,2.8,0,0,0,35.514,10.856Z" transform="translate(1238 301)" fill="#00223d"/>
    <path id="Trazado_21007" data-name="Trazado 21007" d="M38,17.167a3.447,3.447,0,0,1-3.05-1.617A8.623,8.623,0,0,1,33.882,10.8a8.662,8.662,0,0,1,1.059-4.737,3.705,3.705,0,0,1,6.113,0A8.637,8.637,0,0,1,42.118,10.8a8.6,8.6,0,0,1-1.077,4.742A3.44,3.44,0,0,1,38,17.167Zm0-1.406a2.093,2.093,0,0,0,1.925-1.239A8.08,8.08,0,0,0,40.6,10.8a7.851,7.851,0,0,0-.681-3.713,2.115,2.115,0,0,0-3.828,0,7.891,7.891,0,0,0-.677,3.718,8.122,8.122,0,0,0,.664,3.722A2.091,2.091,0,0,0,38,15.761Z" transform="translate(1312 301)" fill="#00223d"/>
    <path id="Trazado_21008" data-name="Trazado 21008" d="M32.025,4.625h1.424V17h-1.5V6.286L28.976,8.861V7.235ZM40.067,15.6h6.161V17h-8.35V15.849l4.957-5.124a5.872,5.872,0,0,0,1.116-1.468,2.928,2.928,0,0,0,.308-1.274,2.136,2.136,0,0,0-.624-1.639,2.548,2.548,0,0,0-3.309.053A2.741,2.741,0,0,0,39.7,8.387V9.3L38.178,9.16V8.4a3.912,3.912,0,0,1,1.046-2.94,4.33,4.33,0,0,1,5.48-.075,3.27,3.27,0,0,1,1.05,2.566,3.892,3.892,0,0,1-.417,1.789A7.689,7.689,0,0,1,44,11.516Z" transform="translate(1386 301)" fill="#00223d"/>
    <path id="Trazado_21009" data-name="Trazado 21009" d="M32.525,4.625h1.424V17h-1.5V6.286L29.476,8.861V7.235Zm9.958,12.542q-4.122,0-4.122-4.4l1.547-.079a3.864,3.864,0,0,0,.58,2.329,2.339,2.339,0,0,0,2,.773,2.742,2.742,0,0,0,1.92-.668,2.254,2.254,0,0,0,.734-1.749,2.232,2.232,0,0,0-.708-1.74,2.537,2.537,0,0,0-1.771-.642h-.615V9.7h.6A1.831,1.831,0,0,0,44,9.125a1.927,1.927,0,0,0,.563-1.406,1.733,1.733,0,0,0-.6-1.362,2.188,2.188,0,0,0-1.5-.527,2.392,2.392,0,0,0-.989.185,1.388,1.388,0,0,0-.628.541,2.548,2.548,0,0,0-.316.787,4.611,4.611,0,0,0-.1,1L38.88,8.29a4.007,4.007,0,0,1,.927-2.839,3.436,3.436,0,0,1,2.641-.993,3.669,3.669,0,0,1,2.536.905A2.893,2.893,0,0,1,46,7.613a2.71,2.71,0,0,1-.492,1.608,2.812,2.812,0,0,1-1.239,1,3.421,3.421,0,0,1,1.74,1.134,3.179,3.179,0,0,1,.677,2.083,3.4,3.4,0,0,1-1.182,2.7A4.434,4.434,0,0,1,42.483,17.167Z" transform="translate(1460 301)" fill="#00223d"/>
    <path id="Trazado_21010" data-name="Trazado 21010" d="M70.278,4.3h2.408V17H70.164V6.9L67.246,9.617v-2.6ZM81.388,17.176a3.961,3.961,0,0,1-3.415-1.644,8.3,8.3,0,0,1-1.191-4.887,8.3,8.3,0,0,1,1.187-4.887,4.383,4.383,0,0,1,6.829,0,8.3,8.3,0,0,1,1.187,4.887,8.3,8.3,0,0,1-1.191,4.887A3.952,3.952,0,0,1,81.388,17.176Zm0-2.285a1.67,1.67,0,0,0,1.525-1.042,7.251,7.251,0,0,0,.541-3.2,7.2,7.2,0,0,0-.545-3.2A1.673,1.673,0,0,0,81.388,6.4q-2.074,0-2.074,4.245T81.388,14.891Z" transform="translate(1534 301)" fill="#00223d"/>
    <path id="Trazado_21011" data-name="Trazado 21011" d="M42.189,13.115v1.4H40.282V17H38.761V14.513H32.837V13.106l5.15-8.481h2.294v8.49Zm-7.778,0h4.351V5.741Z" transform="translate(941 369)" fill="#00223d"/>
    <path id="Trazado_21012" data-name="Trazado 21012" d="M32.525,4.625h1.424V17h-1.5V6.286L29.476,8.861V7.235ZM40.567,15.6h6.161V17h-8.35V15.849l4.957-5.124a5.872,5.872,0,0,0,1.116-1.468,2.928,2.928,0,0,0,.308-1.274,2.136,2.136,0,0,0-.624-1.639,2.548,2.548,0,0,0-3.309.053A2.741,2.741,0,0,0,40.2,8.387V9.3L38.678,9.16V8.4a3.912,3.912,0,0,1,1.046-2.94,4.33,4.33,0,0,1,5.48-.075,3.27,3.27,0,0,1,1.05,2.566,3.892,3.892,0,0,1-.417,1.789,7.689,7.689,0,0,1-1.34,1.78Z" transform="translate(1015 369)" fill="#00223d"/>
    <path id="Trazado_21013" data-name="Trazado 21013" d="M31.025,4.625h1.424V17h-1.5V6.286L27.976,8.861V7.235Zm9.756,4.412a4.8,4.8,0,0,1,3.375,1.042,3.778,3.778,0,0,1,1.116,2.9,4.107,4.107,0,0,1-1.147,3.01,4.026,4.026,0,0,1-3,1.165,4.769,4.769,0,0,1-1.551-.25,4.19,4.19,0,0,1-1.31-.721,3.3,3.3,0,0,1-.914-1.217,4,4,0,0,1-.338-1.67,5.645,5.645,0,0,1,.044-.633l1.556-.132a6.186,6.186,0,0,0-.07.694,2.794,2.794,0,0,0,.224,1.151,1.968,1.968,0,0,0,.6.787,2.738,2.738,0,0,0,.813.426,2.968,2.968,0,0,0,.918.141,2.538,2.538,0,0,0,1.92-.756,2.69,2.69,0,0,0,.725-1.942,2.559,2.559,0,0,0-.751-1.951,3.368,3.368,0,0,0-2.377-.712H37.485l.765-5.73h6.486V6.058h-5.2l-.4,2.979Z" transform="translate(1090 369)" fill="#00223d"/>
    <path id="Trazado_21014" data-name="Trazado 21014" d="M32.025,4.625h1.424V17h-1.5V6.286L28.976,8.861V7.235Zm14.317,8.253A4.176,4.176,0,0,1,45.78,15.1a3.974,3.974,0,0,1-1.556,1.512,4.437,4.437,0,0,1-2.145.527A4.32,4.32,0,0,1,39,15.976a3.934,3.934,0,0,1-1.239-3A4.873,4.873,0,0,1,38.837,10l4.14-5.379H44.77L41.333,8.958a3.853,3.853,0,0,1,1.072-.149,3.933,3.933,0,0,1,1.9.475,3.8,3.8,0,0,1,1.45,1.419A4.242,4.242,0,0,1,46.343,12.878Zm-4.3,2.848a2.688,2.688,0,0,0,2.813-2.874A2.719,2.719,0,0,0,42.019,10,2.66,2.66,0,0,0,40,10.843a2.842,2.842,0,0,0-.782,2.07,2.739,2.739,0,0,0,.8,2.065A2.834,2.834,0,0,0,42.045,15.726Z" transform="translate(1164 369)" fill="#00223d"/>
    <path id="Trazado_21015" data-name="Trazado 21015" d="M32.525,4.625h1.424V17h-1.5V6.286L29.476,8.861V7.235Zm9.958,12.542q-4.122,0-4.122-4.4l1.547-.079a3.864,3.864,0,0,0,.58,2.329,2.339,2.339,0,0,0,2,.773,2.742,2.742,0,0,0,1.92-.668,2.254,2.254,0,0,0,.734-1.749,2.232,2.232,0,0,0-.708-1.74,2.537,2.537,0,0,0-1.771-.642h-.615V9.7h.6A1.831,1.831,0,0,0,44,9.125a1.927,1.927,0,0,0,.563-1.406,1.733,1.733,0,0,0-.6-1.362,2.188,2.188,0,0,0-1.5-.527,2.392,2.392,0,0,0-.989.185,1.388,1.388,0,0,0-.628.541,2.548,2.548,0,0,0-.316.787,4.611,4.611,0,0,0-.1,1L38.88,8.29a4.007,4.007,0,0,1,.927-2.839,3.436,3.436,0,0,1,2.641-.993,3.669,3.669,0,0,1,2.536.905A2.893,2.893,0,0,1,46,7.613a2.71,2.71,0,0,1-.492,1.608,2.812,2.812,0,0,1-1.239,1,3.421,3.421,0,0,1,1.74,1.134,3.179,3.179,0,0,1,.677,2.083,3.4,3.4,0,0,1-1.182,2.7A4.434,4.434,0,0,1,42.483,17.167Z" transform="translate(1238 369)" fill="#00223d"/>
    <path id="Trazado_21016" data-name="Trazado 21016" d="M30.934,15.6h6.161V17h-8.35V15.849L33.7,10.725a5.872,5.872,0,0,0,1.116-1.468,2.928,2.928,0,0,0,.308-1.274A2.136,2.136,0,0,0,34.5,6.343a2.548,2.548,0,0,0-3.309.053,2.741,2.741,0,0,0-.628,1.991V9.3L29.044,9.16V8.4a3.912,3.912,0,0,1,1.046-2.94A3.842,3.842,0,0,1,32.885,4.44a3.873,3.873,0,0,1,2.685.94,3.27,3.27,0,0,1,1.05,2.566A3.892,3.892,0,0,1,36.2,9.736a7.689,7.689,0,0,1-1.34,1.78Zm12.05,1.564q-4.122,0-4.122-4.4l1.547-.079a3.864,3.864,0,0,0,.58,2.329,2.339,2.339,0,0,0,2,.773,2.742,2.742,0,0,0,1.92-.668,2.254,2.254,0,0,0,.734-1.749,2.232,2.232,0,0,0-.708-1.74,2.537,2.537,0,0,0-1.771-.642h-.615V9.7h.6A1.831,1.831,0,0,0,44.5,9.125a1.927,1.927,0,0,0,.563-1.406,1.733,1.733,0,0,0-.6-1.362,2.188,2.188,0,0,0-1.5-.527,2.392,2.392,0,0,0-.989.185,1.388,1.388,0,0,0-.628.541,2.548,2.548,0,0,0-.316.787,4.611,4.611,0,0,0-.1,1L39.38,8.29a4.007,4.007,0,0,1,.927-2.839,3.436,3.436,0,0,1,2.641-.993,3.669,3.669,0,0,1,2.536.905A2.893,2.893,0,0,1,46.5,7.613a2.71,2.71,0,0,1-.492,1.608,2.812,2.812,0,0,1-1.239,1,3.421,3.421,0,0,1,1.74,1.134,3.179,3.179,0,0,1,.677,2.083A3.4,3.4,0,0,1,46,16.139,4.434,4.434,0,0,1,42.983,17.167Z" transform="translate(1312 369)" fill="#00223d"/>
    <path id="Trazado_21017" data-name="Trazado 21017" d="M32.525,4.625h1.424V17h-1.5V6.286L29.476,8.861V7.235Zm14.73,8.49v1.4H45.349V17H43.828V14.513H37.9V13.106l5.15-8.481h2.294v8.49Zm-7.778,0h4.351V5.741Z" transform="translate(1386 369)" fill="#00223d"/>
    <path id="Trazado_21018" data-name="Trazado 21018" d="M32.525,4.625h1.424V17h-1.5V6.286L29.476,8.861V7.235Zm9.756,4.412a4.8,4.8,0,0,1,3.375,1.042,3.778,3.778,0,0,1,1.116,2.9,4.107,4.107,0,0,1-1.147,3.01,4.026,4.026,0,0,1-3,1.165,4.769,4.769,0,0,1-1.551-.25,4.19,4.19,0,0,1-1.31-.721,3.3,3.3,0,0,1-.914-1.217,4,4,0,0,1-.338-1.67,5.645,5.645,0,0,1,.044-.633l1.556-.132a6.186,6.186,0,0,0-.07.694,2.794,2.794,0,0,0,.224,1.151,1.968,1.968,0,0,0,.6.787,2.738,2.738,0,0,0,.813.426,2.968,2.968,0,0,0,.918.141,2.538,2.538,0,0,0,1.92-.756,2.69,2.69,0,0,0,.725-1.942,2.559,2.559,0,0,0-.751-1.951,3.368,3.368,0,0,0-2.377-.712H38.985l.765-5.73h6.486V6.058h-5.2l-.4,2.979Z" transform="translate(1460 369)" fill="#00223d"/>
    <path id="Trazado_21019" data-name="Trazado 21019" d="M80.917,12.333v2.259H79.388V17H76.857V14.592H71.012V12.324l4.5-8.024h3.876v8.033Zm-7.559,0h3.5V5.82Z" transform="translate(1534 369)" fill="#00223d"/>
    <path id="Trazado_21020" data-name="Trazado 21020" d="M59.056,19h-2.92L55.208,8.365,51.634,19H49.739L46.165,8.365,45.228,19H42.3L43.479,4.889h4.18l3.008,8.857,3.047-8.857h4.18Zm10.869-2.725a9.392,9.392,0,0,0,.244,2.451V19H67.542l-.225-1.094a3.264,3.264,0,0,1-1.406.967,5.183,5.183,0,0,1-1.816.322,4.776,4.776,0,0,1-.937-.088,3.187,3.187,0,0,1-.845-.3,2.563,2.563,0,0,1-.7-.522,2.291,2.291,0,0,1-.469-.8A3.17,3.17,0,0,1,60.97,16.4a3.02,3.02,0,0,1,.186-1.089,2.552,2.552,0,0,1,.488-.815,2.962,2.962,0,0,1,.791-.6,6.052,6.052,0,0,1,1-.43,11.9,11.9,0,0,1,1.191-.312l1.65-.371a1.82,1.82,0,0,0,.747-.317.633.633,0,0,0,.22-.5A1.036,1.036,0,0,0,66.746,11a2.3,2.3,0,0,0-1.2-.293,1.721,1.721,0,0,0-1.963,1.533l-2.49-.449A3.371,3.371,0,0,1,62.552,9.5a5.783,5.783,0,0,1,3.154-.737q4.219,0,4.219,3.623Zm-4.951,1.016a2.262,2.262,0,0,0,1.738-.728,3.066,3.066,0,0,0,.674-2.153L65,15.084a2.816,2.816,0,0,0-1,.41.842.842,0,0,0-.347.723.935.935,0,0,0,.371.8A1.536,1.536,0,0,0,64.974,17.291Zm10.381-6.738a3.259,3.259,0,0,1,1.318-1.206,4.023,4.023,0,0,1,1.963-.5v2.51a3.8,3.8,0,0,0-2.4.605,2.643,2.643,0,0,0-.742,2.148V19H72.659V8.961h2.7Zm6.367-3.1a1.579,1.579,0,0,1-1.152-.474,1.555,1.555,0,0,1-.479-1.147A1.536,1.536,0,0,1,80.574,4.7a1.584,1.584,0,0,1,1.147-.474,1.626,1.626,0,0,1,1.611,1.611,1.626,1.626,0,0,1-1.611,1.621ZM80.286,19V8.961h2.832V19Zm13.975-2.725a9.392,9.392,0,0,0,.244,2.451V19H91.878l-.225-1.094a3.264,3.264,0,0,1-1.406.967,5.183,5.183,0,0,1-1.816.322,4.776,4.776,0,0,1-.937-.088,3.187,3.187,0,0,1-.845-.3,2.564,2.564,0,0,1-.7-.522,2.291,2.291,0,0,1-.469-.8,3.17,3.17,0,0,1-.176-1.089,3.02,3.02,0,0,1,.186-1.089,2.552,2.552,0,0,1,.488-.815,2.962,2.962,0,0,1,.791-.6,6.053,6.053,0,0,1,1-.43,11.9,11.9,0,0,1,1.191-.312l1.65-.371a1.82,1.82,0,0,0,.747-.317.633.633,0,0,0,.22-.5A1.036,1.036,0,0,0,91.082,11a2.3,2.3,0,0,0-1.2-.293,1.721,1.721,0,0,0-1.963,1.533l-2.49-.449A3.371,3.371,0,0,1,86.888,9.5a5.783,5.783,0,0,1,3.154-.737q4.219,0,4.219,3.623ZM89.31,17.291a2.262,2.262,0,0,0,1.738-.728,3.066,3.066,0,0,0,.674-2.153l-2.383.674a2.816,2.816,0,0,0-1,.41.842.842,0,0,0-.347.723.935.935,0,0,0,.371.8A1.536,1.536,0,0,0,89.31,17.291Zm19.121-12.4A4.247,4.247,0,0,1,111.683,6.2a4.569,4.569,0,0,1,1.23,3.247,4.456,4.456,0,0,1-1.221,3.228,4.324,4.324,0,0,1-3.262,1.265h-2.939V19h-2.93V4.889Zm-.488,6.6a2.153,2.153,0,0,0,1.611-.552,2.1,2.1,0,0,0,.537-1.528,2.081,2.081,0,0,0-.542-1.509,2.134,2.134,0,0,0-1.606-.562h-2.451v4.15ZM122.3,4.938l-2.217,2.617h-1.729l2.559-3.594Zm1.807,8.9-.029.674h-7.441a2.6,2.6,0,0,0,.8,1.836,2.561,2.561,0,0,0,1.768.635,2.468,2.468,0,0,0,1.323-.347,2.131,2.131,0,0,0,.845-1.011l2.578.381a4.383,4.383,0,0,1-1.758,2.354,5.226,5.226,0,0,1-2.969.84,5.435,5.435,0,0,1-3.911-1.382,5.042,5.042,0,0,1-1.45-3.833,5.072,5.072,0,0,1,1.455-3.833,5.273,5.273,0,0,1,3.818-1.4,5.04,5.04,0,0,1,3.6,1.279A5.019,5.019,0,0,1,124.1,13.834Zm-4.951-3.1a2.222,2.222,0,0,0-2.441,1.934h4.609a2.114,2.114,0,0,0-.693-1.436A2.2,2.2,0,0,0,119.153,10.738Zm9.785-.186a3.259,3.259,0,0,1,1.318-1.206,4.023,4.023,0,0,1,1.963-.5v2.51a3.8,3.8,0,0,0-2.4.605,2.643,2.643,0,0,0-.742,2.148V19h-2.832V8.961h2.7Zm14.316,3.281-.029.674h-7.441a2.6,2.6,0,0,0,.8,1.836,2.561,2.561,0,0,0,1.768.635,2.468,2.468,0,0,0,1.323-.347,2.131,2.131,0,0,0,.845-1.011L143.1,16a4.383,4.383,0,0,1-1.758,2.354,5.226,5.226,0,0,1-2.969.84,5.435,5.435,0,0,1-3.911-1.382,5.042,5.042,0,0,1-1.45-3.833,5.072,5.072,0,0,1,1.455-3.833,5.273,5.273,0,0,1,3.818-1.4,5.04,5.04,0,0,1,3.6,1.279A5.019,5.019,0,0,1,143.255,13.834Zm-4.951-3.1a2.222,2.222,0,0,0-2.441,1.934h4.609a2.114,2.114,0,0,0-.693-1.436A2.2,2.2,0,0,0,138.3,10.738Zm14.17-1.777-4.414,7.871h4.277V19h-8.271l4.395-7.871h-4.053V8.961Z" transform="translate(747 230)" fill="#002b45"/>
    <path id="Trazado_21021" data-name="Trazado 21021" d="M28.035,19.2a6.818,6.818,0,0,1-3.916-1.079,4.328,4.328,0,0,1-1.9-3.022l3.027-.693a2.571,2.571,0,0,0,.933,1.782,3.1,3.1,0,0,0,1.978.62,2.554,2.554,0,0,0,1.543-.435,1.466,1.466,0,0,0,.586-1.284,1.37,1.37,0,0,0-.5-1.045,3.254,3.254,0,0,0-.991-.64q-.493-.19-1.587-.522-.146-.049-.215-.068-.557-.176-.9-.293t-.845-.327a5.625,5.625,0,0,1-.82-.41,6.006,6.006,0,0,1-.679-.508,2.66,2.66,0,0,1-.566-.649,3.45,3.45,0,0,1-.342-.811A3.577,3.577,0,0,1,22.7,8.8a3.778,3.778,0,0,1,.659-2.222A4.037,4.037,0,0,1,25.14,5.167a6.469,6.469,0,0,1,2.544-.474,8.036,8.036,0,0,1,1.841.205,6.448,6.448,0,0,1,1.646.63A4.031,4.031,0,0,1,32.483,6.69,4.37,4.37,0,0,1,33.23,8.4l-2.832.7a2.294,2.294,0,0,0-2.539-2.021,2.78,2.78,0,0,0-1.572.41,1.39,1.39,0,0,0-.615,1.24q0,.771,1.025,1.25a15.28,15.28,0,0,0,1.963.674q.576.176.938.293t.908.342a6.311,6.311,0,0,1,.889.435,6.576,6.576,0,0,1,.742.542,2.919,2.919,0,0,1,.63.7,3.8,3.8,0,0,1,.386.874,3.653,3.653,0,0,1,.156,1.089,4.278,4.278,0,0,1-.283,1.592,3.464,3.464,0,0,1-.776,1.2,4.508,4.508,0,0,1-1.167.825,5.661,5.661,0,0,1-1.436.488A8.256,8.256,0,0,1,28.035,19.2Zm12.285,0a6.313,6.313,0,0,1-2.842-.615,4.6,4.6,0,0,1-1.948-1.807,5.384,5.384,0,0,1-.708-2.8,4.911,4.911,0,0,1,1.523-3.809,5.652,5.652,0,0,1,3.975-1.4,5.665,5.665,0,0,1,3.984,1.4,4.911,4.911,0,0,1,1.523,3.809A4.938,4.938,0,0,1,44.3,17.794,5.654,5.654,0,0,1,40.32,19.2Zm-.029-2.236a2.577,2.577,0,0,0,1.987-.82,3.071,3.071,0,0,0,.757-2.168,3.071,3.071,0,0,0-.757-2.168,2.577,2.577,0,0,0-1.987-.82,2.483,2.483,0,0,0-1.929.825,3.1,3.1,0,0,0-.747,2.163,3.1,3.1,0,0,0,.747,2.163A2.483,2.483,0,0,0,40.291,16.959ZM47.918,19V4H50.76V19Zm15.2-5.166-.029.674H55.643a2.6,2.6,0,0,0,.8,1.836,2.561,2.561,0,0,0,1.768.635,2.468,2.468,0,0,0,1.323-.347,2.131,2.131,0,0,0,.845-1.011L62.957,16A4.383,4.383,0,0,1,61.2,18.355a5.226,5.226,0,0,1-2.969.84,5.435,5.435,0,0,1-3.911-1.382,5.042,5.042,0,0,1-1.45-3.833,5.072,5.072,0,0,1,1.455-3.833,5.273,5.273,0,0,1,3.818-1.4,5.04,5.04,0,0,1,3.6,1.279A5.019,5.019,0,0,1,63.113,13.834Zm-4.951-3.1a2.222,2.222,0,0,0-2.441,1.934H60.33a2.114,2.114,0,0,0-.693-1.436A2.2,2.2,0,0,0,58.162,10.738ZM72.371,4h2.813V19H72.518l-.068-1.309a2.867,2.867,0,0,1-1.274,1.138,4.29,4.29,0,0,1-1.88.405,4.883,4.883,0,0,1-1.875-.361A4.516,4.516,0,0,1,64.842,16.2a6.106,6.106,0,0,1-.381-2.2,5.707,5.707,0,0,1,.664-2.8,4.55,4.55,0,0,1,1.753-1.821,4.827,4.827,0,0,1,2.417-.615,4.4,4.4,0,0,1,1.821.366,2.843,2.843,0,0,1,1.255,1.04ZM69.939,16.9a2.5,2.5,0,0,0,1.9-.8A2.932,2.932,0,0,0,72.6,14a2.938,2.938,0,0,0-.762-2.1,2.5,2.5,0,0,0-1.895-.806,2.53,2.53,0,0,0-1.909.791A2.937,2.937,0,0,0,67.273,14a2.924,2.924,0,0,0,.757,2.109A2.53,2.53,0,0,0,69.939,16.9Zm16.387-.625a9.392,9.392,0,0,0,.244,2.451V19H83.943l-.225-1.094a3.264,3.264,0,0,1-1.406.967A5.183,5.183,0,0,1,80.5,19.2a4.776,4.776,0,0,1-.937-.088,3.187,3.187,0,0,1-.845-.3,2.564,2.564,0,0,1-.7-.522,2.291,2.291,0,0,1-.469-.8,3.17,3.17,0,0,1-.176-1.089,3.02,3.02,0,0,1,.186-1.089,2.552,2.552,0,0,1,.488-.815,2.962,2.962,0,0,1,.791-.6,6.053,6.053,0,0,1,1-.43,11.9,11.9,0,0,1,1.191-.312l1.65-.371a1.82,1.82,0,0,0,.747-.317.633.633,0,0,0,.22-.5A1.036,1.036,0,0,0,83.147,11a2.3,2.3,0,0,0-1.2-.293,1.721,1.721,0,0,0-1.963,1.533l-2.49-.449A3.371,3.371,0,0,1,78.953,9.5a5.783,5.783,0,0,1,3.154-.737q4.219,0,4.219,3.623Zm-4.951,1.016a2.262,2.262,0,0,0,1.738-.728,3.066,3.066,0,0,0,.674-2.153l-2.383.674a2.816,2.816,0,0,0-1,.41.842.842,0,0,0-.347.723.935.935,0,0,0,.371.8A1.536,1.536,0,0,0,81.375,17.291ZM95.955,4h2.813V19H96.1l-.068-1.309a2.867,2.867,0,0,1-1.274,1.138,4.29,4.29,0,0,1-1.88.405A4.883,4.883,0,0,1,91,18.873,4.516,4.516,0,0,1,88.426,16.2a6.106,6.106,0,0,1-.381-2.2,5.707,5.707,0,0,1,.664-2.8,4.55,4.55,0,0,1,1.753-1.821,4.827,4.827,0,0,1,2.417-.615,4.4,4.4,0,0,1,1.821.366,2.843,2.843,0,0,1,1.255,1.04ZM93.523,16.9a2.5,2.5,0,0,0,1.9-.8A2.932,2.932,0,0,0,96.18,14a2.938,2.938,0,0,0-.762-2.1,2.5,2.5,0,0,0-1.895-.806,2.53,2.53,0,0,0-1.909.791A2.937,2.937,0,0,0,90.857,14a2.924,2.924,0,0,0,.757,2.109A2.53,2.53,0,0,0,93.523,16.9ZM113.348,19.2a7.63,7.63,0,0,1-2.817-.513,6.605,6.605,0,0,1-2.246-1.44,6.471,6.471,0,0,1-1.475-2.285,8.092,8.092,0,0,1-.532-2.979,8.066,8.066,0,0,1,.547-3.013,6.557,6.557,0,0,1,1.5-2.3,6.725,6.725,0,0,1,2.29-1.45,7.877,7.877,0,0,1,2.876-.518,7.69,7.69,0,0,1,3.667.864,6.285,6.285,0,0,1,2.544,2.456l-2.568,1.367a3.765,3.765,0,0,0-1.489-1.6,4.271,4.271,0,0,0-2.153-.537,4.092,4.092,0,0,0-3.081,1.24,4.732,4.732,0,0,0-1.2,3.428,4.878,4.878,0,0,0,1.191,3.447,4.138,4.138,0,0,0,3.193,1.289,4.719,4.719,0,0,0,1.719-.3,3.429,3.429,0,0,0,1.367-.981,3.555,3.555,0,0,0,.781-1.675h-3.857V11.334h6.631V19h-2.3V17.047A5.148,5.148,0,0,1,113.348,19.2Zm13.369-11.6L129.275,4l1.387.977-2.217,2.617Zm.869,11.6a6.313,6.313,0,0,1-2.842-.615,4.6,4.6,0,0,1-1.948-1.807,5.384,5.384,0,0,1-.708-2.8,4.911,4.911,0,0,1,1.523-3.809,6.368,6.368,0,0,1,7.959,0,4.911,4.911,0,0,1,1.523,3.809,4.938,4.938,0,0,1-1.523,3.823A5.654,5.654,0,0,1,127.586,19.2Zm-.029-2.236a2.577,2.577,0,0,0,1.987-.82,3.071,3.071,0,0,0,.757-2.168,3.071,3.071,0,0,0-.757-2.168,2.577,2.577,0,0,0-1.987-.82,2.483,2.483,0,0,0-1.929.825,3.1,3.1,0,0,0-.747,2.163,3.1,3.1,0,0,0,.747,2.163A2.483,2.483,0,0,0,127.557,16.959Zm19.521-8.193a3.836,3.836,0,0,1,2.588.815,2.918,2.918,0,0,1,.947,2.339V19H147.8V12.721a1.677,1.677,0,0,0-.449-1.27,1.573,1.573,0,0,0-1.133-.43,1.814,1.814,0,0,0-1.367.547,2.484,2.484,0,0,0-.527,1.768V19h-2.842V12.75a1.721,1.721,0,0,0-.449-1.294,1.6,1.6,0,0,0-1.162-.435,1.757,1.757,0,0,0-1.357.576,2.751,2.751,0,0,0-.527,1.885V19h-2.8V8.961h2.8v1.182a3.414,3.414,0,0,1,2.91-1.377,4.293,4.293,0,0,1,1.89.386,2.572,2.572,0,0,1,1.187,1.118A3.55,3.55,0,0,1,147.078,8.766Zm15.713,5.068-.029.674H155.32a2.6,2.6,0,0,0,.8,1.836,2.561,2.561,0,0,0,1.768.635,2.468,2.468,0,0,0,1.323-.347,2.131,2.131,0,0,0,.845-1.011l2.578.381a4.383,4.383,0,0,1-1.758,2.354,5.226,5.226,0,0,1-2.969.84A5.435,5.435,0,0,1,154,17.813a5.042,5.042,0,0,1-1.45-3.833A5.072,5.072,0,0,1,154,10.147a5.273,5.273,0,0,1,3.818-1.4,5.04,5.04,0,0,1,3.6,1.279A5.019,5.019,0,0,1,162.791,13.834Zm-4.951-3.1a2.222,2.222,0,0,0-2.441,1.934h4.609a2.114,2.114,0,0,0-.693-1.436A2.2,2.2,0,0,0,157.84,10.738Zm14.17-1.777L167.6,16.832h4.277V19H163.6L168,11.129h-4.053V8.961Z" transform="translate(747 301)" fill="#002b45"/>
    <path id="Trazado_21022" data-name="Trazado 21022" d="M53.177,16.412H57.6V19H50.247V4.889h2.93ZM60.9,7.457a1.579,1.579,0,0,1-1.152-.474,1.555,1.555,0,0,1-.479-1.147A1.536,1.536,0,0,1,59.754,4.7,1.584,1.584,0,0,1,60.9,4.225a1.626,1.626,0,0,1,1.611,1.611A1.626,1.626,0,0,1,60.9,7.457ZM59.466,19V8.961H62.3V19ZM71.136,8.766a3.914,3.914,0,0,1,2.773.9,3.349,3.349,0,0,1,.967,2.573V19H72.054V12.848a1.749,1.749,0,0,0-.5-1.387,1.9,1.9,0,0,0-1.294-.439,2.643,2.643,0,0,0-.84.127,2.158,2.158,0,0,0-.7.4,1.748,1.748,0,0,0-.5.757,3.5,3.5,0,0,0-.19,1.162V19H65.208V8.961h2.813v1.113A3.868,3.868,0,0,1,71.136,8.766ZM84.72,4h2.813V19H84.866L84.8,17.691a2.867,2.867,0,0,1-1.274,1.138,4.29,4.29,0,0,1-1.88.405,4.883,4.883,0,0,1-1.875-.361A4.516,4.516,0,0,1,77.19,16.2,6.106,6.106,0,0,1,76.81,14a5.707,5.707,0,0,1,.664-2.8,4.55,4.55,0,0,1,1.753-1.821,4.827,4.827,0,0,1,2.417-.615,4.4,4.4,0,0,1,1.821.366,2.843,2.843,0,0,1,1.255,1.04ZM82.288,16.9a2.5,2.5,0,0,0,1.9-.8,2.932,2.932,0,0,0,.757-2.1,2.938,2.938,0,0,0-.762-2.1,2.5,2.5,0,0,0-1.895-.806,2.53,2.53,0,0,0-1.909.791A2.937,2.937,0,0,0,79.622,14a2.924,2.924,0,0,0,.757,2.109A2.53,2.53,0,0,0,82.288,16.9Zm16.387-.625a9.392,9.392,0,0,0,.244,2.451V19H96.292l-.225-1.094a3.264,3.264,0,0,1-1.406.967,5.183,5.183,0,0,1-1.816.322,4.776,4.776,0,0,1-.937-.088,3.187,3.187,0,0,1-.845-.3,2.564,2.564,0,0,1-.7-.522,2.291,2.291,0,0,1-.469-.8A3.17,3.17,0,0,1,89.72,16.4a3.02,3.02,0,0,1,.186-1.089,2.552,2.552,0,0,1,.488-.815,2.962,2.962,0,0,1,.791-.6,6.053,6.053,0,0,1,1-.43,11.9,11.9,0,0,1,1.191-.312l1.65-.371a1.82,1.82,0,0,0,.747-.317.633.633,0,0,0,.22-.5A1.036,1.036,0,0,0,95.5,11a2.3,2.3,0,0,0-1.2-.293,1.721,1.721,0,0,0-1.963,1.533l-2.49-.449A3.371,3.371,0,0,1,91.3,9.5a5.783,5.783,0,0,1,3.154-.737q4.219,0,4.219,3.623Zm-4.951,1.016a2.262,2.262,0,0,0,1.738-.728,3.066,3.066,0,0,0,.674-2.153l-2.383.674a2.816,2.816,0,0,0-1,.41.842.842,0,0,0-.347.723.935.935,0,0,0,.371.8A1.536,1.536,0,0,0,93.724,17.291ZM114.427,19l-3.672-6.211h-.85V19h-2.93V4.889h5.117a5.919,5.919,0,0,1,2.051.327,3.546,3.546,0,0,1,1.421.908,3.889,3.889,0,0,1,.8,1.333,4.876,4.876,0,0,1,.269,1.65,3.446,3.446,0,0,1-.771,2.319,3.888,3.888,0,0,1-2.217,1.216L117.894,19ZM109.905,7.32v3.369h1.729q2.2,0,2.2-1.68a1.53,1.53,0,0,0-.537-1.24,2.554,2.554,0,0,0-1.66-.449Zm16.416,1.641h2.813V19h-2.666l-.068-1.211a3.834,3.834,0,0,1-3.193,1.406,3.914,3.914,0,0,1-2.773-.9,3.349,3.349,0,0,1-.967-2.573V8.961h2.822v6.152a1.735,1.735,0,0,0,.5,1.377,1.909,1.909,0,0,0,1.3.439,2.264,2.264,0,0,0,1.6-.571,2.454,2.454,0,0,0,.63-1.86ZM132.6,7.584l2.559-3.594,1.387.977-2.217,2.617ZM132.044,19V8.961h2.832V19ZM145.11,8.961,140.7,16.832h4.277V19H136.7l4.395-7.871h-4.053V8.961Z" transform="translate(747 369)" fill="#002b45"/>
    <path id="Trazado_21023" data-name="Trazado 21023" d="M31.043,19.2a4.4,4.4,0,0,1-3.794-1.826,9.225,9.225,0,0,1-1.323-5.43,9.224,9.224,0,0,1,1.318-5.43,4.406,4.406,0,0,1,3.8-1.816A4.4,4.4,0,0,1,34.832,6.51a9.224,9.224,0,0,1,1.318,5.43,9.225,9.225,0,0,1-1.323,5.43A4.391,4.391,0,0,1,31.043,19.2Zm0-2.539A1.855,1.855,0,0,0,32.737,15.5a8.057,8.057,0,0,0,.6-3.56,8,8,0,0,0-.605-3.56,1.859,1.859,0,0,0-1.689-1.157q-2.3,0-2.3,4.717T31.043,16.656Zm10.869-.166h6.016V19H37.977V16.881l5.615-5.732a3.534,3.534,0,0,0,1.221-2.432,1.72,1.72,0,0,0-.5-1.309,1.98,1.98,0,0,0-1.421-.479q-2,0-2,2.275V10.25l-2.8-.283v-.7A4.4,4.4,0,0,1,39.373,5.87a4.937,4.937,0,0,1,3.5-1.2,5.172,5.172,0,0,1,3.4,1.084,3.653,3.653,0,0,1,1.313,2.979,4.224,4.224,0,0,1-.444,1.934,8.082,8.082,0,0,1-1.411,1.885Z" transform="translate(1016 157)" fill="#002b45"/>
    <path id="Trazado_21024" data-name="Trazado 21024" d="M31.043,19.2a4.4,4.4,0,0,1-3.794-1.826,9.225,9.225,0,0,1-1.323-5.43,9.224,9.224,0,0,1,1.318-5.43,4.406,4.406,0,0,1,3.8-1.816A4.4,4.4,0,0,1,34.832,6.51a9.224,9.224,0,0,1,1.318,5.43,9.225,9.225,0,0,1-1.323,5.43A4.391,4.391,0,0,1,31.043,19.2Zm0-2.539A1.855,1.855,0,0,0,32.737,15.5a8.057,8.057,0,0,0,.6-3.56,8,8,0,0,0-.605-3.56,1.859,1.859,0,0,0-1.689-1.157q-2.3,0-2.3,4.717T31.043,16.656Zm11.9,2.539A5.063,5.063,0,0,1,39.1,17.906a5.59,5.59,0,0,1-1.211-3.945l2.881-.127a10.2,10.2,0,0,0,.044,1.035,3.578,3.578,0,0,0,.176.8,1.433,1.433,0,0,0,.371.6,1.686,1.686,0,0,0,.635.347,3.137,3.137,0,0,0,.952.127,2.288,2.288,0,0,0,1.665-.566,1.98,1.98,0,0,0,.581-1.484,2,2,0,0,0-.557-1.528,2.1,2.1,0,0,0-1.494-.522H42.6V10.455H43.1a1.527,1.527,0,0,0,1.167-.5,1.776,1.776,0,0,0,.464-1.26,1.419,1.419,0,0,0-.508-1.172,2.064,2.064,0,0,0-1.338-.41,2.005,2.005,0,0,0-.762.132,1.421,1.421,0,0,0-.513.337,1.49,1.49,0,0,0-.3.518,2.72,2.72,0,0,0-.146.615,6.144,6.144,0,0,0-.034.684l-2.842-.137A4.517,4.517,0,0,1,39.5,5.87a4.617,4.617,0,0,1,3.359-1.177,4.8,4.8,0,0,1,3.223,1.079,3.379,3.379,0,0,1,1.27,2.681,3.051,3.051,0,0,1-.542,1.816,3.1,3.1,0,0,1-1.235,1.074,3.478,3.478,0,0,1,.9.4,3.683,3.683,0,0,1,.786.674,3.007,3.007,0,0,1,.581,1.025,4.126,4.126,0,0,1,.215,1.367A3.988,3.988,0,0,1,46.658,18,5.508,5.508,0,0,1,42.947,19.2Z" transform="translate(1090 157)" fill="#002b45"/>
    <path id="Trazado_21025" data-name="Trazado 21025" d="M31.043,19.2a4.4,4.4,0,0,1-3.794-1.826,9.225,9.225,0,0,1-1.323-5.43,9.224,9.224,0,0,1,1.318-5.43,4.406,4.406,0,0,1,3.8-1.816A4.4,4.4,0,0,1,34.832,6.51a9.224,9.224,0,0,1,1.318,5.43,9.225,9.225,0,0,1-1.323,5.43A4.391,4.391,0,0,1,31.043,19.2Zm0-2.539A1.855,1.855,0,0,0,32.737,15.5a8.057,8.057,0,0,0,.6-3.56,8,8,0,0,0-.605-3.56,1.859,1.859,0,0,0-1.689-1.157q-2.3,0-2.3,4.717T31.043,16.656Zm17.393-2.842v2.51h-1.7V19H43.924V16.324H37.43V13.8l5-8.916h4.307v8.926Zm-8.4,0h3.887V6.578Z" transform="translate(1161 157)" fill="#002b45"/>
    <path id="Trazado_21026" data-name="Trazado 21026" d="M31.043,19.2a4.4,4.4,0,0,1-3.794-1.826,9.225,9.225,0,0,1-1.323-5.43,9.224,9.224,0,0,1,1.318-5.43,4.406,4.406,0,0,1,3.8-1.816A4.4,4.4,0,0,1,34.832,6.51a9.224,9.224,0,0,1,1.318,5.43,9.225,9.225,0,0,1-1.323,5.43A4.391,4.391,0,0,1,31.043,19.2Zm0-2.539A1.855,1.855,0,0,0,32.737,15.5a8.057,8.057,0,0,0,.6-3.56,8,8,0,0,0-.605-3.56,1.859,1.859,0,0,0-1.689-1.157q-2.3,0-2.3,4.717T31.043,16.656ZM42.693,9.85q5.42,0,5.42,4.453a4.757,4.757,0,0,1-1.367,3.569,4.941,4.941,0,0,1-3.6,1.333,5.978,5.978,0,0,1-2.524-.522,4.356,4.356,0,0,1-1.831-1.553,4.158,4.158,0,0,1-.693-2.378,4.39,4.39,0,0,1,.059-.7l2.793-.127a4.128,4.128,0,0,0-.068.625,1.9,1.9,0,0,0,.635,1.558,2.392,2.392,0,0,0,1.572.522,2.167,2.167,0,0,0,1.641-.6A2.237,2.237,0,0,0,45.3,14.41a2.012,2.012,0,0,0-.7-1.65,3.765,3.765,0,0,0-2.363-.576h-3.7l.586-7.295h8.33V7.4h-5.8L41.463,9.85Z" transform="translate(1235 157)" fill="#002b45"/>
    <path id="Trazado_21027" data-name="Trazado 21027" d="M31.043,19.2a4.4,4.4,0,0,1-3.794-1.826,9.225,9.225,0,0,1-1.323-5.43,9.224,9.224,0,0,1,1.318-5.43,4.406,4.406,0,0,1,3.8-1.816A4.4,4.4,0,0,1,34.832,6.51a9.224,9.224,0,0,1,1.318,5.43,9.225,9.225,0,0,1-1.323,5.43A4.391,4.391,0,0,1,31.043,19.2Zm0-2.539A1.855,1.855,0,0,0,32.737,15.5a8.057,8.057,0,0,0,.6-3.56,8,8,0,0,0-.605-3.56,1.859,1.859,0,0,0-1.689-1.157q-2.3,0-2.3,4.717T31.043,16.656Zm17.119-2.393a4.6,4.6,0,0,1-.415,1.982A4.678,4.678,0,0,1,46.6,17.813a5.38,5.38,0,0,1-1.675,1.006,5.678,5.678,0,0,1-4.038-.01,5.014,5.014,0,0,1-1.65-1.03,4.851,4.851,0,0,1-1.489-3.506A5.865,5.865,0,0,1,39,10.826L43.4,4.889H46.59L42.928,9.664a4.758,4.758,0,0,1,.645-.039,4.6,4.6,0,0,1,1.733.332,4.694,4.694,0,0,1,1.46.923,4.27,4.27,0,0,1,1.011,1.47A4.936,4.936,0,0,1,48.162,14.264ZM45.408,14.2a2.411,2.411,0,0,0-.684-1.821,2.486,2.486,0,0,0-1.846-.708,2.383,2.383,0,0,0-1.787.713,2.518,2.518,0,0,0-.713,1.777,2.315,2.315,0,0,0,2.471,2.5,2.543,2.543,0,0,0,1.836-.684A2.383,2.383,0,0,0,45.408,14.2Z" transform="translate(1310 157)" fill="#002b45"/>
    <path id="Trazado_21028" data-name="Trazado 21028" d="M31.043,19.2a4.4,4.4,0,0,1-3.794-1.826,9.225,9.225,0,0,1-1.323-5.43,9.224,9.224,0,0,1,1.318-5.43,4.406,4.406,0,0,1,3.8-1.816A4.4,4.4,0,0,1,34.832,6.51a9.224,9.224,0,0,1,1.318,5.43,9.225,9.225,0,0,1-1.323,5.43A4.391,4.391,0,0,1,31.043,19.2Zm0-2.539A1.855,1.855,0,0,0,32.737,15.5a8.057,8.057,0,0,0,.6-3.56,8,8,0,0,0-.605-3.56,1.859,1.859,0,0,0-1.689-1.157q-2.3,0-2.3,4.717T31.043,16.656ZM38.084,4.889h9.932V7.057L41.639,19H38.455l6.4-11.611H38.084Z" transform="translate(1386 157)" fill="#002b45"/>
    <path id="Trazado_21029" data-name="Trazado 21029" d="M31.543,19.2a4.4,4.4,0,0,1-3.794-1.826,9.225,9.225,0,0,1-1.323-5.43,9.224,9.224,0,0,1,1.318-5.43,4.406,4.406,0,0,1,3.8-1.816A4.4,4.4,0,0,1,35.332,6.51a9.224,9.224,0,0,1,1.318,5.43,9.225,9.225,0,0,1-1.323,5.43A4.391,4.391,0,0,1,31.543,19.2Zm0-2.539A1.855,1.855,0,0,0,33.237,15.5a8.057,8.057,0,0,0,.6-3.56,8,8,0,0,0-.605-3.56,1.859,1.859,0,0,0-1.689-1.157q-2.3,0-2.3,4.717T31.543,16.656ZM43.5,19.2a5.647,5.647,0,0,1-3.687-1.182,3.882,3.882,0,0,1-1.45-3.174,3.955,3.955,0,0,1,.591-2.163,4.049,4.049,0,0,1,1.636-1.46,3.575,3.575,0,0,1-1.167-1.2,3.1,3.1,0,0,1-.425-1.6,3.31,3.31,0,0,1,1.26-2.69A4.955,4.955,0,0,1,43.5,4.693a4.874,4.874,0,0,1,3.2,1.03,3.315,3.315,0,0,1,1.255,2.69,3.161,3.161,0,0,1-.41,1.6,3.6,3.6,0,0,1-1.133,1.206,4.029,4.029,0,0,1,1.621,1.46,3.98,3.98,0,0,1,.586,2.163,4.055,4.055,0,0,1-.674,2.319,4.241,4.241,0,0,1-1.831,1.519A6.332,6.332,0,0,1,43.5,19.2Zm0-8.8a1.876,1.876,0,0,0,1.338-.527,1.708,1.708,0,0,0,.557-1.289,1.666,1.666,0,0,0-.557-1.27,2.007,2.007,0,0,0-2.69,0,1.673,1.673,0,0,0-.552,1.27,1.71,1.71,0,0,0,.552,1.294A1.893,1.893,0,0,0,43.5,10.4Zm0,6.279a2.358,2.358,0,0,0,1.65-.6,2.06,2.06,0,0,0,.654-1.6,2,2,0,0,0-.659-1.567A2.374,2.374,0,0,0,43.5,12.32a2.4,2.4,0,0,0-1.665.591,2,2,0,0,0-.659,1.567,2.052,2.052,0,0,0,.659,1.6A2.389,2.389,0,0,0,43.5,16.676Z" transform="translate(1460 157)" fill="#002b45"/>
    <path id="Trazado_21030" data-name="Trazado 21030" d="M33.064,4.889A4.247,4.247,0,0,1,36.316,6.2a4.569,4.569,0,0,1,1.23,3.247,4.456,4.456,0,0,1-1.221,3.228,4.324,4.324,0,0,1-3.262,1.265H30.125V19H27.2V4.889Zm-.488,6.6a2.153,2.153,0,0,0,1.611-.552,2.1,2.1,0,0,0,.537-1.528A2.081,2.081,0,0,0,34.183,7.9a2.134,2.134,0,0,0-1.606-.562H30.125v4.15Zm9.756-.937A3.259,3.259,0,0,1,43.65,9.347a4.023,4.023,0,0,1,1.963-.5v2.51a3.8,3.8,0,0,0-2.4.605,2.643,2.643,0,0,0-.742,2.148V19H39.637V8.961h2.7ZM51.883,19.2a6.313,6.313,0,0,1-2.842-.615,4.6,4.6,0,0,1-1.948-1.807,5.384,5.384,0,0,1-.708-2.8,4.911,4.911,0,0,1,1.523-3.809,6.368,6.368,0,0,1,7.959,0,4.911,4.911,0,0,1,1.523,3.809,4.938,4.938,0,0,1-1.523,3.823A5.654,5.654,0,0,1,51.883,19.2Zm-.029-2.236a2.577,2.577,0,0,0,1.987-.82,3.071,3.071,0,0,0,.757-2.168,3.071,3.071,0,0,0-.757-2.168,2.577,2.577,0,0,0-1.987-.82,2.483,2.483,0,0,0-1.929.825,3.1,3.1,0,0,0-.747,2.163,3.1,3.1,0,0,0,.747,2.163A2.483,2.483,0,0,0,51.854,16.959ZM71.375,8.766a3.836,3.836,0,0,1,2.588.815,2.918,2.918,0,0,1,.947,2.339V19H72.1V12.721a1.677,1.677,0,0,0-.449-1.27,1.573,1.573,0,0,0-1.133-.43,1.814,1.814,0,0,0-1.367.547,2.484,2.484,0,0,0-.527,1.768V19H65.779V12.75a1.721,1.721,0,0,0-.449-1.294,1.6,1.6,0,0,0-1.162-.435,1.757,1.757,0,0,0-1.357.576,2.751,2.751,0,0,0-.527,1.885V19h-2.8V8.961h2.8v1.182a3.414,3.414,0,0,1,2.91-1.377,4.293,4.293,0,0,1,1.89.386A2.572,2.572,0,0,1,68.27,10.27,3.55,3.55,0,0,1,71.375,8.766Zm15.713,5.068-.029.674H79.617a2.6,2.6,0,0,0,.8,1.836,2.561,2.561,0,0,0,1.768.635,2.468,2.468,0,0,0,1.323-.347,2.131,2.131,0,0,0,.845-1.011L86.932,16a4.383,4.383,0,0,1-1.758,2.354,5.226,5.226,0,0,1-2.969.84,5.435,5.435,0,0,1-3.911-1.382,5.042,5.042,0,0,1-1.45-3.833A5.072,5.072,0,0,1,78.3,10.147a5.273,5.273,0,0,1,3.818-1.4,5.04,5.04,0,0,1,3.6,1.279A5.019,5.019,0,0,1,87.088,13.834Zm-4.951-3.1A2.222,2.222,0,0,0,79.7,12.672H84.3a2.114,2.114,0,0,0-.693-1.436A2.2,2.2,0,0,0,82.137,10.738ZM96.346,4h2.813V19H96.492l-.068-1.309a2.867,2.867,0,0,1-1.274,1.138,4.29,4.29,0,0,1-1.88.405,4.883,4.883,0,0,1-1.875-.361A4.516,4.516,0,0,1,88.816,16.2a6.106,6.106,0,0,1-.381-2.2,5.707,5.707,0,0,1,.664-2.8,4.55,4.55,0,0,1,1.753-1.821,4.827,4.827,0,0,1,2.417-.615,4.4,4.4,0,0,1,1.821.366,2.843,2.843,0,0,1,1.255,1.04ZM93.914,16.9a2.5,2.5,0,0,0,1.9-.8A2.932,2.932,0,0,0,96.57,14a2.938,2.938,0,0,0-.762-2.1,2.5,2.5,0,0,0-1.895-.806A2.53,2.53,0,0,0,92,11.881,2.937,2.937,0,0,0,91.248,14,2.924,2.924,0,0,0,92,16.109,2.53,2.53,0,0,0,93.914,16.9Zm9.59-9.443a1.579,1.579,0,0,1-1.152-.474,1.555,1.555,0,0,1-.479-1.147,1.536,1.536,0,0,1,.483-1.138,1.584,1.584,0,0,1,1.147-.474,1.626,1.626,0,0,1,1.611,1.611A1.626,1.626,0,0,1,103.5,7.457ZM102.068,19V8.961H104.9V19Zm10.42.2a6.313,6.313,0,0,1-2.842-.615,4.6,4.6,0,0,1-1.948-1.807,5.384,5.384,0,0,1-.708-2.8,4.911,4.911,0,0,1,1.523-3.809,6.368,6.368,0,0,1,7.959,0A4.911,4.911,0,0,1,118,13.971a4.938,4.938,0,0,1-1.523,3.823A5.654,5.654,0,0,1,112.488,19.2Zm-.029-2.236a2.577,2.577,0,0,0,1.987-.82,3.071,3.071,0,0,0,.757-2.168,3.071,3.071,0,0,0-.757-2.168,2.577,2.577,0,0,0-1.987-.82,2.483,2.483,0,0,0-1.929.825,3.1,3.1,0,0,0-.747,2.163,3.1,3.1,0,0,0,.747,2.163A2.483,2.483,0,0,0,112.459,16.959Z" transform="translate(1538 156)" fill="#fff"/>
    <path id="Trazado_21031" data-name="Trazado 21031" d="M374.664,23.234a9.452,9.452,0,0,1-3.451-.621,8.116,8.116,0,0,1-2.748-1.734,7.818,7.818,0,0,1-1.8-2.754,9.6,9.6,0,0,1-.656-3.6,9.172,9.172,0,0,1,1.125-4.6,7.659,7.659,0,0,1,3.088-3.041,9.246,9.246,0,0,1,4.447-1.055A8.986,8.986,0,0,1,379.633,7.2a7.506,7.506,0,0,1,3.035,3.773l-3.281,1.2a4.639,4.639,0,0,0-1.816-2.285,5.188,5.188,0,0,0-2.906-.82,4.974,4.974,0,0,0-3.7,1.477,5.433,5.433,0,0,0-1.453,3.984,5.441,5.441,0,0,0,1.459,3.99,4.968,4.968,0,0,0,3.7,1.482,5.169,5.169,0,0,0,2.9-.826,4.66,4.66,0,0,0,1.822-2.291l3.281,1.2a7.536,7.536,0,0,1-3.035,3.779A8.957,8.957,0,0,1,374.664,23.234Zm16.055,0a7.575,7.575,0,0,1-3.41-.738,5.518,5.518,0,0,1-2.338-2.168,6.461,6.461,0,0,1-.85-3.363,5.893,5.893,0,0,1,1.828-4.57,7.642,7.642,0,0,1,9.551,0,5.893,5.893,0,0,1,1.828,4.57,5.926,5.926,0,0,1-1.828,4.588A6.784,6.784,0,0,1,390.719,23.234Zm-.035-2.684a3.092,3.092,0,0,0,2.385-.984,3.685,3.685,0,0,0,.908-2.6,3.685,3.685,0,0,0-.908-2.6,3.092,3.092,0,0,0-2.385-.984,2.979,2.979,0,0,0-2.314.99,3.719,3.719,0,0,0-.9,2.6,3.719,3.719,0,0,0,.9,2.6A2.979,2.979,0,0,0,390.684,20.551Zm16.266-9.832a4.7,4.7,0,0,1,3.328,1.084,4.019,4.019,0,0,1,1.16,3.088V23h-3.387V15.617a2.1,2.1,0,0,0-.6-1.664,2.274,2.274,0,0,0-1.553-.527,3.172,3.172,0,0,0-1.008.152,2.589,2.589,0,0,0-.844.475,2.1,2.1,0,0,0-.6.908,4.2,4.2,0,0,0-.229,1.395V23h-3.375V10.953h3.375v1.336A4.642,4.642,0,0,1,406.949,10.719ZM419.2,23a3.638,3.638,0,0,1-2.719-.979,3.806,3.806,0,0,1-.961-2.783v-5.7h-2.367v-2.59h.762a1.988,1.988,0,0,0,1.5-.5,2.6,2.6,0,0,0,.48-1.793V7.063h3.047v3.891h2.484v2.59h-2.484v5.332q0,1.559,1.395,1.559h1.09V23Zm14.672-3.27a11.27,11.27,0,0,0,.293,2.941V23h-3.152l-.27-1.312a3.917,3.917,0,0,1-1.687,1.16,6.219,6.219,0,0,1-2.18.387,5.732,5.732,0,0,1-1.125-.105,3.824,3.824,0,0,1-1.014-.357,3.076,3.076,0,0,1-.838-.627,2.749,2.749,0,0,1-.562-.955,3.8,3.8,0,0,1-.211-1.307,3.623,3.623,0,0,1,.223-1.307,3.063,3.063,0,0,1,.586-.979,3.554,3.554,0,0,1,.949-.715,7.263,7.263,0,0,1,1.2-.516,14.282,14.282,0,0,1,1.43-.375l1.98-.445a2.184,2.184,0,0,0,.9-.381.76.76,0,0,0,.264-.6,1.243,1.243,0,0,0-.592-1.16,2.763,2.763,0,0,0-1.436-.352,2.066,2.066,0,0,0-2.355,1.84l-2.988-.539A4.045,4.045,0,0,1,425.02,11.6a6.94,6.94,0,0,1,3.785-.885q5.063,0,5.063,4.348Zm-5.941,1.219a2.714,2.714,0,0,0,2.086-.873,3.679,3.679,0,0,0,.809-2.584l-2.859.809a3.379,3.379,0,0,0-1.2.492,1.011,1.011,0,0,0-.416.867,1.122,1.122,0,0,0,.445.955A1.843,1.843,0,0,0,427.926,20.949Zm14.4,2.273a6.436,6.436,0,0,1-4.652-1.734,5.99,5.99,0,0,1-1.8-4.523,5.977,5.977,0,0,1,1.8-4.523,7.152,7.152,0,0,1,8.561-.562,5.18,5.18,0,0,1,2.016,3.27l-3.117.34a2.671,2.671,0,0,0-1.008-1.582,3.064,3.064,0,0,0-1.828-.527,2.763,2.763,0,0,0-2.2.984,3.859,3.859,0,0,0-.844,2.6,3.864,3.864,0,0,0,.844,2.6,2.756,2.756,0,0,0,2.2.99,3.038,3.038,0,0,0,1.822-.527,2.733,2.733,0,0,0,1.014-1.582l3.117.34a5.194,5.194,0,0,1-2.033,3.27A6.393,6.393,0,0,1,442.328,23.223ZM455.137,23a3.638,3.638,0,0,1-2.719-.979,3.806,3.806,0,0,1-.961-2.783v-5.7H449.09v-2.59h.762a1.988,1.988,0,0,0,1.5-.5,2.6,2.6,0,0,0,.48-1.793V7.063h3.047v3.891h2.484v2.59h-2.484v5.332q0,1.559,1.395,1.559h1.09V23Zm10.406.234a7.575,7.575,0,0,1-3.41-.738,5.518,5.518,0,0,1-2.338-2.168,6.461,6.461,0,0,1-.85-3.363,5.893,5.893,0,0,1,1.828-4.57,7.642,7.642,0,0,1,9.551,0,5.893,5.893,0,0,1,1.828,4.57,5.926,5.926,0,0,1-1.828,4.588A6.784,6.784,0,0,1,465.543,23.234Zm-.035-2.684a3.092,3.092,0,0,0,2.385-.984,3.685,3.685,0,0,0,.908-2.6,3.685,3.685,0,0,0-.908-2.6,3.092,3.092,0,0,0-2.385-.984,2.979,2.979,0,0,0-2.314.99,3.719,3.719,0,0,0-.9,2.6,3.719,3.719,0,0,0,.9,2.6A2.979,2.979,0,0,0,465.508,20.551Zm26.719-3.75-.035.809h-8.93a3.119,3.119,0,0,0,.961,2.2,3.073,3.073,0,0,0,2.121.762,2.962,2.962,0,0,0,1.588-.416,2.557,2.557,0,0,0,1.014-1.213l3.094.457a5.259,5.259,0,0,1-2.109,2.824,6.272,6.272,0,0,1-3.562,1.008,6.522,6.522,0,0,1-4.693-1.658,6.05,6.05,0,0,1-1.74-4.6,6.086,6.086,0,0,1,1.746-4.6,6.328,6.328,0,0,1,4.582-1.682,6.047,6.047,0,0,1,4.324,1.535A6.022,6.022,0,0,1,492.227,16.8Zm-5.941-3.715a2.667,2.667,0,0,0-2.93,2.32h5.531a2.537,2.537,0,0,0-.832-1.723A2.637,2.637,0,0,0,486.285,13.086ZM501.59,7.7h-.07q-.328,0-.5.006t-.48.041a1.945,1.945,0,0,0-.486.105,2.478,2.478,0,0,0-.4.217,1.079,1.079,0,0,0-.352.352,2.124,2.124,0,0,0-.211.521,2.722,2.722,0,0,0-.088.727v1.289h2.59v2.59H499V23h-3.363V13.543h-2.355v-2.59h2.355v-1.3a7.045,7.045,0,0,1,.152-1.535,4.672,4.672,0,0,1,.41-1.166,2.729,2.729,0,0,1,.686-.838,4.045,4.045,0,0,1,.891-.562,5.089,5.089,0,0,1,1.107-.34,9.714,9.714,0,0,1,1.271-.17Q500.781,5,501.59,5Zm13.2,9.105-.035.809h-8.93a3.119,3.119,0,0,0,.961,2.2,3.073,3.073,0,0,0,2.121.762,2.962,2.962,0,0,0,1.588-.416,2.557,2.557,0,0,0,1.014-1.213l3.094.457a5.259,5.259,0,0,1-2.109,2.824,6.272,6.272,0,0,1-3.562,1.008,6.522,6.522,0,0,1-4.693-1.658,6.05,6.05,0,0,1-1.74-4.6,6.086,6.086,0,0,1,1.746-4.6A6.328,6.328,0,0,1,508.82,10.7a6.047,6.047,0,0,1,4.324,1.535A6.022,6.022,0,0,1,514.785,16.8Zm-5.941-3.715a2.667,2.667,0,0,0-2.93,2.32h5.531a2.537,2.537,0,0,0-.832-1.723A2.637,2.637,0,0,0,508.844,13.086ZM522.8,23.223a6.436,6.436,0,0,1-4.652-1.734,5.99,5.99,0,0,1-1.8-4.523,5.977,5.977,0,0,1,1.8-4.523,7.152,7.152,0,0,1,8.561-.562,5.18,5.18,0,0,1,2.016,3.27l-3.117.34a2.671,2.671,0,0,0-1.008-1.582,3.064,3.064,0,0,0-1.828-.527,2.763,2.763,0,0,0-2.2.984,3.859,3.859,0,0,0-.844,2.6,3.864,3.864,0,0,0,.844,2.6,2.756,2.756,0,0,0,2.2.99,3.038,3.038,0,0,0,1.822-.527,2.733,2.733,0,0,0,1.014-1.582l3.117.34a5.194,5.194,0,0,1-2.033,3.27A6.393,6.393,0,0,1,522.8,23.223ZM535.609,23a3.638,3.638,0,0,1-2.719-.979,3.806,3.806,0,0,1-.961-2.783v-5.7h-2.367v-2.59h.762a1.988,1.988,0,0,0,1.5-.5,2.6,2.6,0,0,0,.48-1.793V7.063h3.047v3.891h2.484v2.59h-2.484v5.332q0,1.559,1.395,1.559h1.09V23Zm6.563-13.852a1.9,1.9,0,0,1-1.383-.568,1.866,1.866,0,0,1-.574-1.377,1.843,1.843,0,0,1,.58-1.365,1.9,1.9,0,0,1,1.377-.568A1.951,1.951,0,0,1,544.105,7.2a1.951,1.951,0,0,1-1.934,1.945ZM540.449,23V10.953h3.4V23Zm14.73-12.047h3.574L553.621,23h-2.93l-5.074-12.047h3.551l3,8.238Zm10.477,12.281a7.575,7.575,0,0,1-3.41-.738,5.518,5.518,0,0,1-2.338-2.168,6.461,6.461,0,0,1-.85-3.363,5.893,5.893,0,0,1,1.828-4.57,7.642,7.642,0,0,1,9.551,0,5.893,5.893,0,0,1,1.828,4.57,5.926,5.926,0,0,1-1.828,4.588A6.784,6.784,0,0,1,565.656,23.234Zm-.035-2.684a3.092,3.092,0,0,0,2.385-.984,3.685,3.685,0,0,0,.908-2.6,3.685,3.685,0,0,0-.908-2.6,3.092,3.092,0,0,0-2.385-.984,2.979,2.979,0,0,0-2.314.99,3.719,3.719,0,0,0-.9,2.6,3.719,3.719,0,0,0,.9,2.6A2.979,2.979,0,0,0,565.621,20.551Z" transform="translate(747 28)" fill="#fff"/>
    <path id="Trazado_21032" data-name="Trazado 21032" d="M0,0H594V50H0Z" transform="translate(941 82)" fill="#b869c3"/>
    <path id="Trazado_21033" data-name="Trazado 21033" d="M277.457,19.2a7.98,7.98,0,0,1-3.73-.977l1.24-2.412a3.685,3.685,0,0,0,2.139.752A1.543,1.543,0,0,0,278.414,16a2.948,2.948,0,0,0,.43-1.782V4.889h2.93v9.873a4.388,4.388,0,0,1-1.177,3.276A4.283,4.283,0,0,1,277.457,19.2ZM291.48,8.961h2.813V19h-2.666l-.068-1.211a3.834,3.834,0,0,1-3.193,1.406,3.914,3.914,0,0,1-2.773-.9,3.349,3.349,0,0,1-.967-2.573V8.961h2.822v6.152a1.735,1.735,0,0,0,.5,1.377,1.909,1.909,0,0,0,1.3.439,2.264,2.264,0,0,0,1.6-.571,2.454,2.454,0,0,0,.63-1.86ZM297.2,19V4h2.842V19Zm7.188-11.543a1.579,1.579,0,0,1-1.152-.474,1.555,1.555,0,0,1-.479-1.147,1.536,1.536,0,0,1,.483-1.138,1.584,1.584,0,0,1,1.147-.474A1.626,1.626,0,0,1,306,5.836a1.626,1.626,0,0,1-1.611,1.621ZM302.955,19V8.961h2.832V19Zm10.42.2a6.313,6.313,0,0,1-2.842-.615,4.6,4.6,0,0,1-1.948-1.807,5.384,5.384,0,0,1-.708-2.8,4.911,4.911,0,0,1,1.523-3.809,6.368,6.368,0,0,1,7.959,0,4.911,4.911,0,0,1,1.523,3.809,4.938,4.938,0,0,1-1.523,3.823A5.654,5.654,0,0,1,313.375,19.2Zm-.029-2.236a2.577,2.577,0,0,0,1.987-.82,3.071,3.071,0,0,0,.757-2.168,3.071,3.071,0,0,0-.757-2.168,2.577,2.577,0,0,0-1.987-.82,2.483,2.483,0,0,0-1.929.825,3.1,3.1,0,0,0-.747,2.163,3.1,3.1,0,0,0,.747,2.163A2.483,2.483,0,0,0,313.346,16.959Z" transform="translate(941 97)" fill="#fff"/>
    <path id="Trazado_21034" data-name="Trazado 21034" d="M0,0H934.5" transform="translate(747.5 205.5)" fill="none" stroke="#4d3189" stroke-width="3"/>
    <path id="Trazado_21035" data-name="Trazado 21035" d="M0,0H740.5" transform="translate(941.5 132.5)" fill="none" stroke="#4d3189" stroke-width="3"/>
    <path id="Trazado_21036" data-name="Trazado 21036" d="M0,0H934.5" transform="translate(747.5 279.5)" fill="none" stroke="#4d3189" stroke-width="3"/>
    <path id="Trazado_21037" data-name="Trazado 21037" d="M0,0H934.5" transform="translate(747.5 347.5)" fill="none" stroke="#4d3189" stroke-width="3"/>
    <path id="Trazado_21038" data-name="Trazado 21038" d="M0,0H934.5" transform="translate(747.5 414.5)" fill="none" stroke="#4d3189" stroke-width="3"/>
    <path id="Trazado_21039" data-name="Trazado 21039" d="M0,0V332" transform="translate(941.5 82.5)" fill="none" stroke="#4d3189" stroke-width="3"/>
    <path id="Trazado_21040" data-name="Trazado 21040" d="M0,0V282.5" transform="translate(1015.5 132)" fill="none" stroke="#4d3189" stroke-width="3"/>
    <path id="Trazado_21041" data-name="Trazado 21041" d="M0,0V282.5" transform="translate(1089.5 132)" fill="none" stroke="#4d3189" stroke-width="3"/>
    <path id="Trazado_21042" data-name="Trazado 21042" d="M0,0V282.5" transform="translate(1163.5 132)" fill="none" stroke="#4d3189" stroke-width="3"/>
    <path id="Trazado_21043" data-name="Trazado 21043" d="M0,0V282.5" transform="translate(1237.5 132)" fill="none" stroke="#4d3189" stroke-width="3"/>
    <path id="Trazado_21044" data-name="Trazado 21044" d="M0,0V282.5" transform="translate(1311.5 132)" fill="none" stroke="#4d3189" stroke-width="3"/>
    <path id="Trazado_21045" data-name="Trazado 21045" d="M0,0V282.5" transform="translate(1386.5 132)" fill="none" stroke="#4d3189" stroke-width="3"/>
    <path id="Trazado_21046" data-name="Trazado 21046" d="M0,0V282.5" transform="translate(1460.5 132)" fill="none" stroke="#4d3189" stroke-width="3"/>
    <path id="Trazado_21047" data-name="Trazado 21047" d="M0,0V332" transform="translate(1535.5 82.5)" fill="none" stroke="#4d3189" stroke-width="3"/>
    <path id="Trazado_21048" data-name="Trazado 21048" d="M0,0V410.5" transform="translate(1684.5 4)" fill="none" stroke="#4d3189" stroke-width="3"/>
    <path id="Trazado_21049" data-name="Trazado 21049" d="M0,0V410.5" transform="translate(747.5 4)" fill="none" stroke="#4d3189" stroke-width="3"/>
  </g>
</svg>
